<?xml version="1.0" encoding="utf-8"?>
<!-- Generator: Adobe Illustrator 17.0.0, SVG Export Plug-In . SVG Version: 6.00 Build 0)  -->
<!DOCTYPE svg PUBLIC "-//W3C//DTD SVG 1.1//EN" "http://www.w3.org/Graphics/SVG/1.1/DTD/svg11.dtd">
<svg version="1.1" id="Layer_1" xmlns="http://www.w3.org/2000/svg" xmlns:xlink="http://www.w3.org/1999/xlink" x="0px" y="0px"
	 width="100px" height="100px" viewBox="0 0 100 100" enable-background="new 0 0 100 100" xml:space="preserve">
<path fill-rule="evenodd" clip-rule="evenodd" fill="#D14E3F" d="M43.408,50.924c0,0,3.102-5.055,5.056-6.894
	c7.354-7.009,14.478-7.583,14.478-7.583s1.264-4.252-2.413-7.239c-0.69-0.574-1.838-0.919-3.103-1.034
	c-0.114-0.114-0.459-0.23-0.689-0.344c-0.46-0.115-0.92,0.115-1.149,0.344c-0.23,0-0.46,0.115-0.69,0.115
	c-0.344-0.23-0.919-0.46-1.724-0.115c-1.149,0.23-1.608,0.92-1.838,1.149c-0.115,0.115-0.23,0.115-0.23,0.115
	c-0.23-0.23-0.69-0.689-1.838,0c-0.92,0.459-1.494,1.724-1.494,1.724l0,0c0,0-1.149,0.115-1.723,0.575
	c-0.575,0.46-0.92,1.149-1.149,1.379l0,0c-0.23,0.115-1.149,0.344-1.954,1.034c-0.804,0.919-0.804,1.149-0.804,1.149l0,0
	c0,0-1.034,0.23-2.068,1.494c-1.034,1.149-0.919,1.379-0.919,1.494c0,0,0,0.115-0.115,0.115c-0.23,0-1.379,0.46-2.298,1.494
	c-0.574-0.805-2.988-4.137-4.711-4.941c-0.919-0.345-1.838,0-2.643,0.46c-1.149-0.345-2.528-1.379-3.792-4.137l-4.941-4.366
	c0,0.23,0.115,0.46,0.115,0.575c0.459,3.906,1.724,9.537,5.515,12.294v0.115c0,0-0.574,2.412,1.494,2.758
	c1.264,0.23,5.285,2.298,5.285,2.298l2.528-3.218c-0.23,0.574-0.115,0.804-0.115,0.92c-0.344,0.46-0.69,0.919-1.034,1.378
	l0.115-0.229c0,0-0.345-0.23-1.264,1.264c-1.034,1.379-0.919,2.413-0.919,2.413s-0.229,0-0.919,1.034
	c-0.575,1.149-0.459,2.183-0.459,2.183s-0.69,0.804-1.034,1.494c-0.345,0.689-0.115,1.839-0.115,1.839s-1.034,0.919-1.264,1.838
	c-0.46,1.839,0.574,1.839,0.574,1.839s-0.804,0.689-0.804,2.298c-0.115,1.494,0.919,1.838,0.919,1.838s-0.69,0.804-0.23,1.724
	c0.344,0.804,1.494,1.149,1.494,1.149s-0.23,1.264,0.23,1.724c0.344,0.344,1.034,1.149,1.838,1.608
	c0.345,0.46,0.69,0.919,1.034,1.264c3.102,2.528,6.434,1.264,7.813,0.575C40.306,68.504,39.961,57.474,43.408,50.924L43.408,50.924z
	"/>
<path fill-rule="evenodd" clip-rule="evenodd" fill="#F89C44" d="M43.408,50.924c-3.447,6.55-3.102,17.58-1.953,18.959h0.115
	c0,0,24.359,18.844,36.539,2.872c12.179-15.857-15.167-36.309-15.167-36.309s-7.124,0.574-14.478,7.583
	C46.511,45.869,43.408,50.924,43.408,50.924L43.408,50.924z"/>
</svg>
