<?xml version="1.0" encoding="utf-8"?>
<!-- Generator: Adobe Illustrator 17.0.0, SVG Export Plug-In . SVG Version: 6.00 Build 0)  -->
<!DOCTYPE svg PUBLIC "-//W3C//DTD SVG 1.1//EN" "http://www.w3.org/Graphics/SVG/1.1/DTD/svg11.dtd">
<svg version="1.1" id="Layer_1" xmlns="http://www.w3.org/2000/svg" xmlns:xlink="http://www.w3.org/1999/xlink" x="0px" y="0px"
	 width="100px" height="100px" viewBox="0 0 100 100" enable-background="new 0 0 100 100" xml:space="preserve">
<g>
	<path fill="#D14E3F" d="M82.83,48.164c-0.001-0.042-0.004-0.076-0.008-0.12c-0.004-0.096-0.008-0.191-0.014-0.287
		c-0.002-0.023-0.003-0.049-0.005-0.076c-0.031-0.448-0.079-0.88-0.126-1.315c-0.029-0.261-0.05-0.528-0.087-0.785
		c-0.061-0.427-0.144-0.84-0.227-1.253c-0.034-0.169-0.057-0.343-0.094-0.508l-0.016,0l-0.002-0.007
		c-1.066-4.729-3.538-8.488-6.817-11.167l0.007-0.001l-0.046-0.037l-0.007,0l-0.004,0c-2.385-1.94-5.196-3.305-8.2-4.066
		c-0.899-0.202-1.815-0.337-2.74-0.434c-0.18-0.032-0.365-0.042-0.547-0.062c-0.039-0.003-0.076-0.01-0.115-0.013
		c0.012,0.002,0.024,0.004,0.035,0.006c-0.018-0.002-0.036-0.003-0.055-0.005c-0.007-0.002-0.015-0.002-0.022-0.004
		c-0.018-0.001-0.035-0.001-0.053-0.003c-0.228-0.02-0.453-0.057-0.683-0.058c-0.073-0.001-0.143,0.014-0.216,0.015
		c-0.559-0.02-1.12-0.027-1.683-0.008c0.146,0.014,0.292,0.021,0.437,0.038c-0.364,0.008-0.768,0.017-1.209,0.027
		c-0.066-0.003-0.134-0.009-0.2-0.013c-0.82,0.061-1.64,0.163-2.457,0.308c-0.535,0.095-1.068,0.207-1.598,0.338
		c0.004,0.001,0.008,0.004,0.012,0.005c-0.005-0.002-0.009-0.003-0.014-0.005c-0.593,0.146-1.182,0.315-1.767,0.508
		c0.415,0.181,1.004,0.326,1.631,0.344c-0.665-0.018-1.239-0.164-1.639-0.342c-1.028,0.338-2.235,0.836-3.23,1.317
		c0.005,0,0.012,0.001,0.018,0.002c-0.441,0.217-0.879,0.444-1.31,0.69c-1.178,0.674-2.95,0.662-4.117-0.029
		c-0.115-0.068-0.232-0.132-0.348-0.197c-1.412-0.805-3.054-1.513-4.561-2.015c0-0.001,0.002-0.002,0.002-0.004
		c-0.024-0.008-0.048-0.013-0.072-0.021c-0.026-0.009-0.053-0.02-0.079-0.028c0,0.001-0.002,0.003-0.003,0.004
		c-0.367-0.116-0.736-0.224-1.106-0.322c-0.215,0.09-0.496,0.168-0.622,0.201c-0.004,0.001-0.006,0.002-0.009,0.003l-0.03,0.009
		l-0.004,0c0.01-0.003,0.028-0.008,0.043-0.011c0.313-0.09,0.496-0.151,0.614-0.203c-0.302-0.08-0.604-0.155-0.908-0.222
		c-0.014,0-0.029,0-0.043,0.001c-0.042,0-0.084,0.001-0.127,0.001c-0.583-0.053-1.89-0.148-2.319-0.146
		c-0.395,0.003-0.755,0.005-1.082,0.006c-0.6,0.01-1.197,0.061-1.79,0.135l-0.447,0.006c-0.076,0.011-0.15,0.033-0.226,0.046
		c-0.294,0.001-0.569,0.002-0.813,0.001c0.014-0.007,0.039-0.014,0.069-0.022c-0.007-0.001-0.016,0-0.023-0.001
		c0.025-0.005,0.062-0.008,0.089-0.013c0.221-0.045,0.685-0.096,1.36-0.126c0.055-0.004,0.108-0.005,0.164-0.007
		c0.184-0.008,0.377-0.014,0.588-0.017c-0.228,0-0.427,0-0.597,0l-0.082,0l-0.001,0c-0.055,0.003-0.115,0.004-0.174,0.006
		c-0.283,0.012-0.579,0.035-2.406,0.179c-0.189-0.002-0.341-0.003-0.456-0.005c-2.691,0.345-5.284,1.163-7.633,2.416
		c-1.048,0.458-2.041,1.113-2.967,1.935c-0.272,0.211-0.546,0.419-0.807,0.645l-0.001,0l-0.021,0.016l0.002-0.001
		c-3.188,2.767-5.546,6.583-6.484,11.329l-0.006,0.028c-0.913,4.661-0.457,10.214,1.926,16.545c0.032,0.086,0.065,0.172,0.099,0.258
		l-0.004,0l0.003,0.008l0.003,0.001c1.842,4.854,4.069,9.741,6.732,14.005l0.016,0.027c2.662,4.261,5.762,7.9,9.347,10.265
		c0.103,0.002,0.235,0.004,0.394,0.005c-0.16-0.001-0.292-0.003-0.395-0.005c0,0,0.022,0.015,0.023,0.015
		c2.063,1.357,4.287,2.294,6.679,2.684c0.538,0.064,1.065,0.107,1.56,0.135c0.323,0.019,0.633,0.032,0.921,0.041
		c0.018,0,0.173-0.011,0.281-0.018c0.016,0.002,0.032,0.006,0.049,0.008c0.202-0.006,0.4-0.007,0.605-0.02
		c-0.007,0-0.014-0.001-0.02-0.002c0.007,0.001,0.014,0.001,0.022,0.002c0.204-0.013,0.414-0.04,0.62-0.061
		c-0.394-0.057-0.789-0.118-1.188-0.143c0.406,0.025,0.807,0.086,1.21,0.14c0.243-0.025,0.486-0.046,0.733-0.081
		c-0.72-0.2-1.411-0.564-2.079-1.058c0.005,0,0.01,0,0.014,0.001c0.666,0.493,1.355,0.857,2.072,1.056
		c0.99-0.142,2.004-0.364,3.046-0.682c0.135-0.041,0.281-0.075,0.429-0.106c-0.01-0.008-0.019-0.016-0.028-0.024
		c0.01,0.009,0.019,0.016,0.03,0.023c0.423-0.092,0.896-0.147,1.381-0.168c0.01-0.001,0.018-0.006,0.026-0.007l0.003,0l0.016,0
		c0.014,0.002,0.028,0.003,0.041,0.005c0.57-0.019,1.151,0.008,1.689,0.086c0.014-0.008,0.034-0.014,0.049-0.022
		c0.217,0.156,0.78,0.185,0.969,0.245c0.691,0.222,1.366,0.387,2.035,0.53c0.166-0.039,0.335-0.074,0.506-0.087
		c0,0,0.047-0.003,0.057-0.003l-0.001,0.001l-0.052,0.003l-0.004,0c-0.17,0.013-0.335,0.048-0.501,0.088
		c0.191,0.04,0.383,0.083,0.572,0.117c0.01-0.003,0.015-0.006,0.024-0.008c-0.009,0.003-0.012,0.007-0.021,0.009
		c0.096,0.017,0.194,0.042,0.289,0.058c1.982-0.044,3.754-1.156,5.334-3.043c-0.003,0-0.006,0-0.009,0
		c0.12-0.138,0.232-0.286,0.348-0.429c-0.107,0.137-0.211,0.284-0.32,0.414c0.462-0.009,0.914-0.017,1.353-0.025
		c-0.438,0.008-0.891,0.016-1.366,0.039c-1.586,1.886-3.358,2.999-5.34,3.043c0.013,0.003,0.023,0.004,0.036,0.006
		c0.164-0.004,0.327-0.006,0.484-0.009c1.226-0.024,1.616-0.037,2.783-0.101c0.003,0,0.017-0.002,0.029-0.003
		c-0.008,0.001-0.017,0.002-0.026,0.003c0.334-0.021,0.779-0.054,1.112-0.079c0.361-0.05,0.719-0.118,1.078-0.168
		c0.119-0.019,0.19-0.029,0.238-0.033c0.019-0.002,0.037-0.007,0.055-0.008l0.018,0.007c-0.066,0.023-0.133,0.048-0.488,0.116
		c0.281-0.034,0.654-0.084,0.934-0.125c2.296-0.476,4.421-1.45,6.384-2.816l0.004-0.001l0.049-0.034l-0.004,0.001l-0.003,0
		c3.513-2.458,6.51-6.161,9.055-10.47c-0.012,0.001-0.028,0.001-0.041,0.002c0.018-0.005,0.036-0.015,0.054-0.015l0.024-0.041
		l0.011-0.001c0.16-0.27,0.313-0.549,0.47-0.824c0.145-0.258,0.295-0.513,0.437-0.773c0.161-0.294,0.316-0.593,0.472-0.891
		c0.131-0.249,0.262-0.495,0.39-0.745c0.07-0.144,0.091-0.184,0.144-0.274c0.052-0.103,0.105-0.206,0.156-0.311
		c0.091-0.174,0.171-0.327,0.246-0.469c0.025-0.046,0.044-0.084,0.067-0.125c0.037-0.07,0.073-0.138,0.106-0.199
		c0.02-0.036,0.037-0.067,0.054-0.099c0.701-1.485,1.849-4.236,2.176-5.024c0.042-0.113,0.089-0.236,0.14-0.373
		c0.539-1.354,1.044-2.72,1.522-4.082c0.03-0.088,0.06-0.174,0.091-0.262c0.593-1.709,1.049-3.36,1.381-4.948
		c0.03-0.139,0.056-0.254,0.083-0.374C82.249,55.087,82.908,51.655,82.83,48.164z M44.272,30.678
		c-0.102-0.047-0.317-0.129-0.583-0.158C43.931,30.543,44.136,30.61,44.272,30.678z M42.456,31.006
		c-0.028,0.033-0.057,0.062-0.083,0.1C42.377,31.098,42.432,31.034,42.456,31.006z M37.673,28.366c0.001,0,0.002,0,0.003,0
		L37.673,28.366L37.673,28.366z M37.672,28.37l0.018-0.005l0.041,0c0.057-0.013,0.175-0.009,0.304-0.002
		c-0.099,0.001-0.201,0.002-0.298,0.003l-0.006-0.001l-0.041,0.001L37.672,28.37L37.672,28.37z M13.068,48.407
		c-0.003,0.043-0.003,0.087-0.005,0.13c-0.026,0.196-0.05,0.394-0.054,0.588C13.014,48.878,13.034,48.635,13.068,48.407z
		 M18.823,68.204c-0.592-0.18-1.156-1.061-1.554-1.939c0.402,0.886,0.975,1.773,1.575,1.94L18.823,68.204z M20.992,71.157
		c0.255,0.436,0.441,0.853,0.567,1.199C21.424,71.99,21.229,71.567,20.992,71.157z M25.088,75.594l0.014-0.001
		c0.53-0.002,1.113-0.005,1.74-0.008C26.214,75.589,25.63,75.592,25.088,75.594z M33.069,85.884
		c-0.833-0.646-1.635-1.386-2.408-2.207c-0.051-0.049-0.095-0.09-0.143-0.135c0.035,0.031,0.069,0.06,0.105,0.094l0.038,0.041
		c0.774,0.822,1.576,1.562,2.42,2.207l0.017,0.014C33.098,85.898,33.08,85.884,33.069,85.884z M35.776,87.579l-0.044-0.023
		c0.034,0.018,0.059,0.03,0.091,0.046C35.807,87.594,35.795,87.588,35.776,87.579z M39.962,88.52l0.008,0l-0.037,0.001L39.962,88.52
		z M40.5,88.714c-0.364-0.048-0.599-0.114-0.637-0.17C39.948,88.607,40.169,88.669,40.5,88.714z M41.516,87.548L41.516,87.548
		c0.004,0.003,0.005,0.006,0.008,0.009C41.52,87.554,41.519,87.551,41.516,87.548z M42.555,88.098
		c-0.02-0.006-0.031-0.014-0.05-0.019c0.067,0.021,0.133,0.041,0.199,0.057C42.655,88.123,42.604,88.112,42.555,88.098z
		 M43.378,88.169c-0.004,0.001-0.009,0-0.012,0.002c0.013-0.004,0.022-0.01,0.034-0.013C43.392,88.16,43.387,88.166,43.378,88.169z
		 M43.493,87.704c0.002,0.005,0.009,0.01,0.011,0.015c0.009,0.016,0.009,0.026,0.015,0.041
		C43.51,87.742,43.502,87.725,43.493,87.704z M45.23,87.575c-0.005-0.009-0.009-0.02-0.014-0.029
		c-0.015-0.021-0.031-0.033-0.046-0.056c-0.015-0.032-0.029-0.076-0.044-0.109c0.03,0.055,0.064,0.11,0.09,0.165
		c0.041,0.054,0.081,0.106,0.122,0.148C45.301,87.656,45.264,87.616,45.23,87.575z M70.762,75.023
		c-0.042,0.001-0.078,0.002-0.121,0.003c0.005-0.009,0.009-0.017,0.014-0.026l-0.006,0.014
		C70.693,75.013,70.723,75.021,70.762,75.023z M68.362,29.195c-0.12-0.088-0.364-0.209-0.742-0.341
		C67.957,28.97,68.222,29.087,68.362,29.195c0.015,0.01,0.034,0.022,0.046,0.032l-0.006,0.006c0.018,0.017,0.046,0.034,0.055,0.051
		L68.388,29.3l-0.018,0c-0.375-0.034-0.741-0.102-1.105-0.183c-0.065-0.035-0.128-0.078-0.194-0.112
		c0.53,0.144,1.024,0.261,1.281,0.276l0.05-0.048C68.39,29.22,68.379,29.208,68.362,29.195z M65.077,28.261
		c0.019,0.003,0.037,0.007,0.056,0.01c-0.018-0.003-0.035-0.007-0.053-0.009C65.079,28.262,65.078,28.261,65.077,28.261z
		 M62.467,27.994c0.035,0.002,0.066,0.005,0.1,0.007c-0.01,0-0.02,0.002-0.03,0.002c-0.023-0.001-0.045-0.006-0.068-0.007
		c-0.268,0.006-0.57,0.014-0.904,0.022l-0.008-0.001l0.001,0l-0.01-0.001C61.888,28.006,62.196,27.999,62.467,27.994z
		 M56.688,29.376c-0.01,0.007-0.017,0.015-0.027,0.02c-0.002,0-0.003,0-0.005,0.001C56.671,29.39,56.675,29.383,56.688,29.376
		c0.093-0.061,0.141-0.142,0.118-0.232C56.83,29.22,56.808,29.303,56.688,29.376z M56.671,28.951
		c0.005,0.004,0.031,0.029,0.058,0.059c-0.027-0.029-0.066-0.059-0.109-0.09C56.636,28.932,56.658,28.94,56.671,28.951z
		 M56.011,29.525l-0.031,0.001l-0.004,0L56.011,29.525z M55.971,29.526l-0.004,0.001l-0.026,0L55.971,29.526z M52.368,31.059
		l0.013,0.031c-0.038-0.052-0.078-0.085-0.117-0.129C52.298,30.996,52.338,31.019,52.368,31.059z M52.275,88.368L52.275,88.368
		l-0.007,0l-0.044-0.001l0.001,0C52.225,88.366,52.274,88.368,52.275,88.368c0.072,0.005,0.106,0.009,0.134,0.018
		C52.379,88.377,52.341,88.373,52.275,88.368z M52.435,88.49c0.023-0.017,0.045-0.036,0.049-0.057
		c-0.014-0.018-0.031-0.027-0.05-0.035c0.015,0.008,0.03,0.018,0.052,0.035C52.479,88.446,52.465,88.467,52.435,88.49z
		 M58.785,87.733c-0.008,0-0.016,0.002-0.022,0.003c-0.004,0-0.007,0-0.01,0.001c-0.028,0.002-0.039,0-0.055,0
		c0.209-0.049,0.421-0.09,0.624-0.161C59.058,87.674,58.885,87.721,58.785,87.733z M60.258,87.735
		c-0.435,0.137-0.75,0.205-0.793,0.181c0.046-0.029,0.121-0.079,2.533-1.181l-2.533,1.181
		C59.588,87.916,59.882,87.852,60.258,87.735z M62.586,86.707c0.752-0.476,1.201-0.754,1.501-0.934
		C63.806,85.942,63.381,86.208,62.586,86.707z M63.836,85.435c-0.007,0.149-0.279,0.384-0.63,0.621
		C63.518,85.844,63.782,85.62,63.836,85.435c-0.294,0.007-0.627,0.016-1.001,0.025c0.373-0.009,0.705-0.018,1.001-0.037
		l-0.004,0.005L63.836,85.435z M64.756,85.417c-0.149,0.068-0.257,0.119-0.402,0.2C64.542,85.512,64.648,85.462,64.756,85.417
		c0.008-0.004,0.015-0.007,0.024-0.012l0.002,0C64.773,85.411,64.764,85.413,64.756,85.417z M64.783,85.406
		c0.006-0.002,0.01-0.004,0.014-0.006c0.011,0,0.028-0.001,0.039-0.001C64.837,85.398,64.787,85.405,64.783,85.406z M65.2,83.206
		c-0.766,0.841-1.562,1.603-2.387,2.272c-0.821,0.659-1.673,1.227-2.561,1.689l-0.117,0.062c-0.345,0.16-0.598,0.265-0.803,0.342
		c0.312-0.11,0.617-0.245,0.92-0.404c0.888-0.463,1.74-1.03,2.555-1.689C63.637,84.81,64.434,84.048,65.2,83.206
		c0.006-0.007,0.01-0.013,0.015-0.019c0.068-0.083,0.128-0.158,0.18-0.226C65.342,83.029,65.283,83.104,65.2,83.206z M65.1,82.374
		c0.036-0.023,0.078-0.054,0.113-0.074c0.005-0.003,0.007-0.003,0.012-0.006C65.182,82.325,65.141,82.352,65.1,82.374z
		 M65.755,82.334c0.013-0.06,0.01-0.102,0.004-0.133l-0.049-0.047c-0.019-0.007-0.043-0.012-0.076-0.012
		c0.019-0.002,0.042-0.006,0.058-0.006l0.018,0.018c0.019,0.007,0.034,0.014,0.044,0.02c0.001,0.008,0.004,0.018,0.016,0.037
		C65.769,82.247,65.767,82.285,65.755,82.334z M64.422,81.215c0.277-0.426,0.801-1.147,1.454-1.651
		C65.401,79.943,64.841,80.585,64.422,81.215z M66.743,79.23c0.015,0.006,0.04-0.001,0.052,0.008
		c0.021,0.018,0.025,0.039,0.041,0.058C66.81,79.263,66.777,79.245,66.743,79.23z M66.898,79.855
		c-0.009-0.04-0.011-0.072-0.01-0.074c0.035-0.208,0.023-0.345-0.017-0.435C66.953,79.504,66.879,79.687,66.898,79.855z
		 M68.416,78.927c-0.693,0.924-1.072,1.162-1.28,1.161c0.208-0.007,0.591-0.241,1.29-1.179c0.057-0.09,0.111-0.189,0.168-0.28
		C68.534,78.727,68.478,78.83,68.416,78.927z M68.597,73.757c0.056-0.145,0.122-0.287,0.198-0.423
		C68.721,73.487,68.647,73.63,68.597,73.757z M70.992,77.432c-0.03,0.031-0.064,0.072-0.095,0.106
		c-0.1,0.115-0.581,0.699-1.039,1.367c0.326-0.507,0.719-1.021,1.039-1.367c0.015-0.016,0.04-0.046,0.041-0.047
		c0.008-0.01,0.423-0.483,0.777-1.029C71.385,76.98,71,77.424,70.992,77.432z M72.019,77.147c0-0.001,0-0.002,0.001-0.003
		c0.03-0.06,0.07-0.135,0.108-0.207C72.09,77.009,72.049,77.086,72.019,77.147z M72.407,76.433c0.001-0.003,0.003-0.005,0.004-0.008
		c0.074-0.126,0.154-0.255,0.238-0.382C72.566,76.171,72.486,76.299,72.407,76.433z"/>
	<path fill="#D14E3F" d="M82.247,55.123c0.003-0.021,0.005-0.04,0.008-0.061c-0.002,0.009-0.004,0.017-0.006,0.025L82.247,55.123z"
		/>
</g>
<g>
	<path fill="#7A3440" d="M40.317,8.382c4.992,7.375,8.61,16.139,6.673,24.278c-0.664-7.838-5.564-15.039-11.166-19.267L40.317,8.382
		z"/>
</g>
<g>
	<path fill="#A9BC65" d="M68.083,7.957c0,0-9.027-0.03-14.732,5.519c-4.4,4.28-5.54,10.623-5.83,13.302
		c3.539-5.808,8.74-10.385,14.504-13.585c-5.565,3.755-10.286,8.886-13.107,14.772c2.805-0.251,8.956-1.274,13.237-5.437
		C67.859,16.979,68.083,7.957,68.083,7.957z"/>
</g>
<g opacity="0.3">
	<polygon fill="#7A3440" points="62.606,83.433 62.598,83.422 62.597,83.422 	"/>
	<path fill="#7A3440" d="M61.438,84.753c-0.378-0.05-0.63-0.121-0.726-0.195C60.755,84.622,61.023,84.697,61.438,84.753z"/>
	<path fill="#7A3440" d="M64.748,84.117c-0.014,0.004-0.025,0.011-0.039,0.015c0.003-0.002,0.009-0.001,0.013-0.002
		C64.732,84.127,64.737,84.121,64.748,84.117z"/>
	<polygon fill="#7A3440" points="60.791,84.532 60.833,84.531 60.824,84.531 	"/>
	<path fill="#7A3440" d="M64.882,83.665c-0.008-0.017-0.008-0.029-0.017-0.047c-0.002-0.006-0.01-0.011-0.012-0.017
		C64.863,83.625,64.872,83.644,64.882,83.665z"/>
	<path fill="#7A3440" d="M66.767,83.356c0.017,0.026,0.035,0.04,0.052,0.064c-0.029-0.063-0.068-0.126-0.102-0.189
		C66.734,83.269,66.75,83.319,66.767,83.356z"/>
	<path fill="#7A3440" d="M66.835,83.453c0.039,0.047,0.081,0.092,0.124,0.136c-0.046-0.048-0.093-0.108-0.139-0.169
		C66.825,83.431,66.829,83.443,66.835,83.453z"/>
	<path fill="#7A3440" d="M36.704,61.35l0.024,0.001c-0.685-0.19-1.339-1.203-1.797-2.213C35.386,60.139,36.029,61.145,36.704,61.35z
		"/>
	<path fill="#7A3440" d="M65.359,85.196c0.663-0.464,1.302-0.985,1.929-1.534c-0.066,0.012-0.138,0.02-0.203,0.034
		c-0.012-0.008-0.023-0.016-0.034-0.026c0.011,0.009,0.021,0.018,0.032,0.027c-0.17,0.036-0.336,0.075-0.49,0.121
		c-0.915,0.279-1.807,0.476-2.688,0.634c-0.312,0.287-0.625,0.573-0.946,0.833c-0.821,0.659-1.673,1.227-2.561,1.689l-0.117,0.062
		c-0.345,0.16-0.598,0.265-0.803,0.342c0.312-0.11,0.617-0.245,0.92-0.404c0.888-0.463,1.74-1.03,2.555-1.689
		c0.323-0.26,0.636-0.546,0.949-0.833c-0.261,0.047-0.527,0.107-0.785,0.143c-0.819-0.227-1.605-0.642-2.365-1.204
		c-0.005,0-0.011,0-0.016-0.001c0.762,0.564,1.551,0.979,2.372,1.207c-0.282,0.039-0.559,0.064-0.836,0.092
		c-0.46-0.062-0.917-0.131-1.381-0.16c0.454,0.029,0.905,0.098,1.355,0.163c-0.235,0.024-0.475,0.055-0.708,0.07
		c-0.009-0.001-0.017-0.001-0.025-0.002c0.008,0.001,0.016,0.002,0.023,0.002c-0.233,0.015-0.459,0.016-0.69,0.023
		c-0.019-0.002-0.037-0.007-0.055-0.009c-0.123,0.008-0.3,0.02-0.32,0.021c-0.329-0.01-0.682-0.025-1.05-0.046
		c-0.565-0.032-1.166-0.081-1.78-0.154c-2.73-0.445-5.268-1.513-7.621-3.062c-0.001,0-0.027-0.017-0.027-0.017
		c0.118,0.002,0.268,0.004,0.451,0.006c-0.182-0.002-0.332-0.003-0.45-0.006c-4.091-2.699-7.628-6.851-10.665-11.713l-0.019-0.03
		c-3.038-4.865-5.58-10.441-7.681-15.98l-0.003-0.001l-0.003-0.009l0.004,0c-0.038-0.098-0.077-0.197-0.113-0.295
		c-2.718-7.224-3.239-13.561-2.197-18.879l0.007-0.032c0.464-2.348,1.248-4.484,2.267-6.422c-0.212,0.017-0.445,0.035-0.723,0.057
		c-0.189-0.002-0.341-0.003-0.456-0.005c-2.691,0.345-5.284,1.163-7.633,2.416c-1.048,0.458-2.041,1.113-2.967,1.935
		c-0.272,0.211-0.546,0.419-0.807,0.645h-0.001l-0.021,0.016l0.002-0.001c-3.188,2.767-5.546,6.583-6.484,11.329l-0.006,0.028
		c-0.913,4.661-0.457,10.214,1.926,16.545c0.032,0.086,0.065,0.172,0.099,0.258h-0.004l0.003,0.008l0.003,0.001
		c1.842,4.854,4.069,9.741,6.732,14.005l0.016,0.027c2.661,4.261,5.762,7.9,9.347,10.265c0.103,0.002,0.235,0.004,0.394,0.005
		c-0.16-0.001-0.292-0.003-0.395-0.005c0,0,0.022,0.015,0.023,0.015c2.063,1.357,4.287,2.294,6.68,2.684
		c0.538,0.064,1.065,0.107,1.56,0.135c0.323,0.019,0.633,0.032,0.921,0.041c0.018,0,0.173-0.011,0.281-0.018
		c0.016,0.002,0.032,0.006,0.049,0.008c0.202-0.006,0.4-0.007,0.605-0.02c-0.007,0-0.014-0.001-0.021-0.002
		c0.007,0.001,0.014,0.001,0.022,0.002c0.204-0.013,0.414-0.04,0.62-0.061c-0.394-0.057-0.789-0.118-1.188-0.143
		c0.406,0.025,0.807,0.086,1.21,0.14c0.243-0.025,0.486-0.046,0.733-0.081c-0.72-0.2-1.411-0.564-2.079-1.058
		c0.005,0,0.01,0,0.014,0.001c0.665,0.493,1.355,0.857,2.072,1.056c0.99-0.142,2.005-0.364,3.046-0.682
		c0.135-0.041,0.281-0.075,0.429-0.106c-0.01-0.008-0.018-0.016-0.028-0.024c0.01,0.009,0.019,0.016,0.03,0.023
		c0.423-0.092,0.896-0.147,1.381-0.168c0.01-0.001,0.018-0.006,0.026-0.007h0.003l0.016,0c0.014,0.002,0.028,0.003,0.041,0.005
		c0.57-0.019,1.151,0.008,1.689,0.086c0.014-0.008,0.034-0.014,0.049-0.022c0.217,0.156,0.78,0.185,0.969,0.245
		c0.691,0.222,1.366,0.388,2.035,0.53c0.166-0.039,0.334-0.074,0.505-0.087c0,0,0.047-0.003,0.057-0.003l-0.001,0.001l-0.052,0.003
		h-0.004c-0.17,0.013-0.335,0.048-0.501,0.088c0.191,0.04,0.383,0.083,0.572,0.117c0.01-0.003,0.015-0.005,0.024-0.008
		c-0.009,0.003-0.012,0.007-0.021,0.009c0.096,0.017,0.194,0.042,0.289,0.058c1.982-0.044,3.754-1.156,5.334-3.043
		c-0.003,0-0.006,0-0.009,0c0.12-0.138,0.232-0.286,0.348-0.429c-0.107,0.137-0.211,0.284-0.32,0.414
		c0.462-0.009,0.914-0.017,1.353-0.025c-0.438,0.008-0.891,0.016-1.366,0.039c-1.586,1.886-3.358,2.999-5.34,3.043
		c0.013,0.003,0.023,0.004,0.036,0.006c0.164-0.004,0.327-0.006,0.484-0.009c1.226-0.024,1.616-0.037,2.783-0.101
		c0.003,0,0.017-0.002,0.029-0.003c-0.008,0.001-0.017,0.002-0.026,0.003c0.334-0.021,0.779-0.054,1.112-0.079
		c0.361-0.05,0.719-0.118,1.078-0.168c0.119-0.019,0.19-0.029,0.238-0.033c0.019-0.002,0.037-0.007,0.055-0.008l0.018,0.007
		c-0.066,0.023-0.133,0.048-0.488,0.116c0.281-0.034,0.654-0.084,0.934-0.125c2.296-0.476,4.421-1.45,6.384-2.815l0.004-0.001
		l0.049-0.034l-0.004,0.001L65.359,85.196z M13.21,48.344c-0.026,0.196-0.049,0.394-0.054,0.588c0.005-0.247,0.025-0.49,0.059-0.718
		C13.213,48.257,13.213,48.301,13.21,48.344z M18.97,68.011c-0.592-0.18-1.156-1.061-1.554-1.939
		c0.402,0.886,0.975,1.773,1.575,1.94L18.97,68.011z M21.139,70.964c0.255,0.436,0.441,0.853,0.567,1.199
		C21.571,71.797,21.375,71.374,21.139,70.964z M25.235,75.401l0.014-0.001c0.529-0.002,1.113-0.005,1.74-0.008
		C26.361,75.396,25.777,75.399,25.235,75.401z M33.216,85.691c-0.833-0.646-1.635-1.386-2.408-2.207
		c-0.051-0.049-0.095-0.09-0.143-0.135c0.035,0.031,0.069,0.06,0.105,0.094l0.038,0.041c0.773,0.822,1.576,1.562,2.42,2.207
		l0.018,0.014C33.245,85.705,33.227,85.691,33.216,85.691z M35.923,87.386l-0.044-0.023c0.034,0.018,0.059,0.03,0.091,0.046
		C35.954,87.401,35.942,87.395,35.923,87.386z M40.109,88.326l0.008,0l-0.037,0.001L40.109,88.326z M40.647,88.521
		c-0.364-0.048-0.599-0.115-0.637-0.17C40.095,88.414,40.316,88.476,40.647,88.521z M41.663,87.355L41.663,87.355
		c0.004,0.003,0.005,0.006,0.008,0.009C41.667,87.361,41.666,87.358,41.663,87.355z M42.702,87.905
		c-0.02-0.006-0.031-0.014-0.05-0.019c0.067,0.021,0.133,0.041,0.199,0.057C42.802,87.93,42.751,87.919,42.702,87.905z
		 M43.525,87.975c-0.004,0.001-0.009,0-0.012,0.002c0.013-0.004,0.023-0.01,0.034-0.013C43.539,87.967,43.534,87.973,43.525,87.975z
		 M43.64,87.511c0.002,0.005,0.009,0.01,0.011,0.015c0.009,0.016,0.009,0.026,0.015,0.041C43.657,87.549,43.649,87.532,43.64,87.511
		z M45.377,87.382c-0.005-0.009-0.009-0.02-0.014-0.029c-0.015-0.021-0.031-0.033-0.045-0.056c-0.015-0.032-0.029-0.076-0.044-0.109
		c0.03,0.055,0.064,0.111,0.09,0.165c0.041,0.054,0.081,0.106,0.122,0.148C45.448,87.463,45.411,87.423,45.377,87.382z
		 M52.372,88.174L52.372,88.174c0.001,0,0.043,0.001,0.048,0.001h-0.004L52.372,88.174z M52.422,88.175
		c0.072,0.005,0.106,0.009,0.134,0.018C52.526,88.184,52.488,88.18,52.422,88.175z M52.581,88.297
		c0.023-0.017,0.045-0.036,0.049-0.057c-0.014-0.018-0.031-0.027-0.05-0.035c0.015,0.008,0.03,0.018,0.052,0.035
		C52.626,88.253,52.612,88.274,52.581,88.297z M58.932,87.54c-0.008,0-0.016,0.002-0.021,0.003c-0.004,0-0.007,0-0.01,0.001
		c-0.028,0.002-0.039,0-0.055,0c0.209-0.049,0.421-0.09,0.624-0.161C59.205,87.481,59.032,87.528,58.932,87.54z M63.983,85.23
		l-0.004,0.005l0.004,0.007c-0.007,0.149-0.279,0.384-0.63,0.621c0.312-0.212,0.576-0.435,0.63-0.621
		c-0.294,0.007-0.627,0.016-1.001,0.025C63.355,85.258,63.687,85.249,63.983,85.23z M60.405,87.542
		c-0.435,0.137-0.75,0.205-0.793,0.181c0.046-0.029,0.121-0.079,2.533-1.181l-2.533,1.181
		C59.735,87.723,60.029,87.659,60.405,87.542z M62.733,86.514c0.752-0.476,1.201-0.754,1.501-0.934
		C63.953,85.749,63.527,86.015,62.733,86.514z M64.903,85.224c-0.149,0.068-0.257,0.119-0.402,0.2
		C64.689,85.318,64.794,85.269,64.903,85.224c0.008-0.004,0.015-0.007,0.023-0.012h0.002C64.92,85.218,64.911,85.22,64.903,85.224z
		 M64.93,85.212c0.006-0.002,0.01-0.004,0.014-0.006c0.011,0,0.028-0.001,0.039-0.001C64.983,85.205,64.934,85.212,64.93,85.212z"/>
	<path fill="#7A3440" d="M63.953,84.094c-0.075-0.018-0.15-0.041-0.227-0.065c0.021,0.006,0.034,0.015,0.057,0.022
		C63.839,84.066,63.896,84.079,63.953,84.094z"/>
	<path fill="#7A3440" d="M39.826,66.089c-0.143-0.396-0.356-0.871-0.647-1.368C39.449,65.188,39.671,65.671,39.826,66.089z"/>
	<path fill="#7A3440" d="M30.138,38.762c-0.04,0.26-0.062,0.537-0.068,0.819c0.005-0.222,0.033-0.447,0.062-0.671
		C30.135,38.861,30.135,38.811,30.138,38.762z"/>
	<path fill="#7A3440" d="M56.103,83.484c-0.037-0.018-0.065-0.032-0.104-0.052l0.05,0.026
		C56.069,83.468,56.083,83.475,56.103,83.484z"/>
	<path fill="#7A3440" d="M43.868,69.782l-0.016,0.001c0.619-0.003,1.285-0.006,2.001-0.01C45.138,69.777,44.472,69.78,43.868,69.782
		z"/>
	<path fill="#7A3440" d="M52.992,81.54l-0.02-0.016c-0.963-0.737-1.879-1.581-2.761-2.519c0.883,0.938,1.797,1.781,2.748,2.519
		C52.972,81.524,52.992,81.54,52.992,81.54z"/>
	<path fill="#7A3440" d="M50.167,78.958c-0.04-0.039-0.08-0.072-0.12-0.107c0.055,0.052,0.104,0.098,0.163,0.154L50.167,78.958z"/>
</g>
</svg>
