<?xml version="1.0" encoding="utf-8"?>
<!-- Generator: Adobe Illustrator 17.0.0, SVG Export Plug-In . SVG Version: 6.00 Build 0)  -->
<!DOCTYPE svg PUBLIC "-//W3C//DTD SVG 1.1//EN" "http://www.w3.org/Graphics/SVG/1.1/DTD/svg11.dtd">
<svg version="1.1" id="Layer_1" xmlns="http://www.w3.org/2000/svg" xmlns:xlink="http://www.w3.org/1999/xlink" x="0px" y="0px"
	 width="100px" height="100px" viewBox="0 0 100 100" enable-background="new 0 0 100 100" xml:space="preserve">
<path fill="#DEB958" d="M54.115,69.554c-11.966,2.696-23.485,3.406-33.853-3.146c-3.357-2.124-5.742-5.245-5.453-8.948
	c0.127-1.623,1.547-3.91,6.309-3.019c10.623,1.99,18.545,1.196,27.137-1.237c9.085-2.574,16.068-9.394,18.653-15.619
	c2.176-5.242,5.537-10.782,10.891-8.789c2.899,1.08,3.631,12.59,2.135,18.104C76.938,57.944,66.08,66.855,54.115,69.554
	L54.115,69.554z"/>
<path fill="#CCAA4F" d="M78.82,30.033c1.034,4.065,1.163,10.855,0.153,14.581c-2.954,10.885-13.22,20.169-25.013,22.828
	c-11.796,2.661-24.567,3.127-34.787-3.333c-1.434-0.907-3.392-3.228-4.285-6.048c0.136,3.98,2.717,6.453,5.037,7.92
	c10.221,6.459,22.784,6.033,34.579,3.375C66.297,66.696,77,57.913,79.952,47.029C81.242,42.273,80.851,32.99,78.82,30.033z"/>
<path fill="#EEC65E" d="M38.262,61.246c21.725-0.743,37.545-13.007,37.129-32.858c-3.987,0.173-6.654,4.79-8.484,9.197
	c-2.585,6.225-9.568,13.045-18.653,15.619c-8.593,2.432-16.515,3.227-27.137,1.237c-4.761-0.891-6.182,1.396-6.309,3.019
	c-0.006,0.085,2.719-1.078,2.714-0.993C24.815,60.015,30.123,61.526,38.262,61.246z"/>
<path fill="#CCAA4F" d="M72.86,29.555l2.294,0.822c0,0,0.878-1.541,2.645-1.58c-0.315-3.313-1.703-7.935-2.811-10.062
	c-1.2-2.302-3.292-0.053-3.292-0.053l-1.57,2.197C70.125,20.879,72.857,22.816,72.86,29.555z"/>
<path fill="#EEC65E" d="M72.86,29.555c0,0,1.304,1.218,2.294,0.822c1.032-8.688-3.459-11.695-3.459-11.695l-1.57,2.197
	C70.125,20.879,72.857,22.816,72.86,29.555z"/>
<path fill="#EEC65E" d="M75.154,30.377c0.05-0.411,0.241,0.016,0.268-0.37c0.588-8.384-3.727-11.325-3.727-11.325l-0.16,0.224
	C71.535,18.907,75.442,21.131,75.154,30.377z"/>
<path fill="#CCAA4F" d="M17.134,54.553c0,0,1.864,2.62,0.571,3.547c-1.295,0.929-2.91-0.429-2.91-0.429S15.009,55.35,17.134,54.553z
	"/>
</svg>
