<?xml version="1.0" encoding="utf-8"?>
<!-- Generator: Adobe Illustrator 17.0.0, SVG Export Plug-In . SVG Version: 6.00 Build 0)  -->
<!DOCTYPE svg PUBLIC "-//W3C//DTD SVG 1.1//EN" "http://www.w3.org/Graphics/SVG/1.1/DTD/svg11.dtd">
<svg version="1.1" id="Layer_1" xmlns="http://www.w3.org/2000/svg" xmlns:xlink="http://www.w3.org/1999/xlink" x="0px" y="0px"
	 width="100px" height="100px" viewBox="0 0 100 100" enable-background="new 0 0 100 100" xml:space="preserve">
<path fill="#CCAA4F" d="M78.895,79.09c-2.116-0.188-4.005-1.453-5.606-3.105c9.097-15.057,0.051-24.784-9.101-23.614
	c-7.769,0.994-13.828,8.288-10.404,18.747c0.303,0.926,0.888,1.683,1.621,2.337l-0.052,0.028c0,0,4.894,4.773,11.148,8.583
	c0.135,0.226,0.34,0.363,0.626,0.373c4.812,2.839,10.339,5.016,15.043,4.018C87.126,85.402,85.06,79.638,78.895,79.09z"/>
<path fill="#CCAA4F" d="M89.5,57.746c-0.338-0.019-0.654-0.007-0.946,0.025c-1.979-0.903-4.877-1.491-8.179-1.532
	c-6.319-0.078-6.49,1.829-6.798,4.306c-0.308,2.477-0.635,4.586,5.684,4.664c3.39,0.042,6.499-0.502,8.708-1.395
	c0.217,0.035,0.44,0.062,0.67,0.075c1.529,0.084,2.685-0.379,2.582-1.034c-0.039-0.251-0.272-0.49-0.614-0.699
	c0.029-0.032,0.05-0.065,0.077-0.097c0.948-0.129,1.573-0.502,1.497-0.988c-0.052-0.332-0.434-0.644-0.983-0.887
	c-0.012-0.046-0.021-0.093-0.037-0.139c0.832-0.153,1.362-0.509,1.291-0.96C92.351,58.43,91.028,57.831,89.5,57.746z"/>
<path fill="#3A2921" d="M3.998,41.167c-2.535,4.003,4.129,12.752,14.884,19.541s21.529,9.047,24.063,5.043
	c2.535-4.003-4.129-12.752-14.884-19.541S6.533,37.164,3.998,41.167z"/>
<path fill="#563F32" d="M5.193,40.294c-2.051,4.272,5.588,12.184,17.061,17.672s22.437,6.474,24.487,2.203
	c2.051-4.272-5.588-12.184-17.061-17.672S7.244,36.022,5.193,40.294z"/>
<path fill="#DEB958" d="M66.239,28.333C53.48,31.35,38.188,48.694,37.862,60.904c-0.438,16.419,6.974,19.844,21.697,20.38
	c14.723,0.536,27.613-10.366,23.775-28.815C80.002,36.449,81.587,24.702,66.239,28.333z"/>
<path fill="#CCAA4F" d="M59.463,82.981c-2.116-0.188-4.005-1.453-5.606-3.105c9.097-15.057,0.051-24.784-9.101-23.614
	c-7.769,0.994-13.828,8.288-10.404,18.747c0.303,0.926,0.888,1.683,1.621,2.337l-0.052,0.028c0,0,4.894,4.773,11.148,8.583
	c0.135,0.226,0.34,0.363,0.626,0.373c4.812,2.839,10.339,5.016,15.043,4.018C67.693,89.293,65.628,83.529,59.463,82.981z"/>
<path fill="#CCAA4F" d="M73.625,63.429c-0.454-0.297-0.901-0.534-1.331-0.725c-2.021-2.84-5.568-5.981-10.114-8.687
	c-8.701-5.179-10.468-2.672-12.882,0.516c-2.414,3.188-4.561,5.85,4.14,11.029c4.668,2.779,9.416,4.519,13.196,5.054
	c0.274,0.222,0.56,0.44,0.87,0.642c2.052,1.344,4.027,1.629,4.411,0.638c0.147-0.38,0.017-0.898-0.291-1.462
	c0.065-0.021,0.121-0.051,0.184-0.074c1.418,0.581,2.584,0.567,2.869-0.169c0.195-0.503-0.086-1.241-0.652-2.018
	c0.02-0.074,0.046-0.146,0.061-0.222c1.277,0.455,2.297,0.387,2.561-0.295C77.03,66.665,75.677,64.772,73.625,63.429z"/>
<path fill="#CCAA4F" d="M75.012,28.669c-0.958-0.34-1.949-0.618-2.962-0.849c-1.889-0.2-4.203,0.06-7.087,0.865
	C51.882,32.336,36.841,50.266,37.07,62.339c0.025,1.329,0.106,2.561,0.232,3.718c0.051,0.064,0.097,0.13,0.15,0.194
	c5.239,6.364,9.872,8.882,19.118,7.612c12.638-13.313,25.4-25.667,23.483-37.816C78.958,32.551,77.522,29.958,75.012,28.669z"/>
<path fill="#CCAA4F" d="M82.246,29.942c0,0,1.474-3.738-0.183-4.54c-1.659-0.802-3.937,1.004-3.698,2.698
	c0.239,1.694,2.86,2.688,2.86,2.688L82.246,29.942z"/>
<path fill="#DEB958" d="M72.096,24.529c-9.674-0.35-16.992,8.273-17.506,18.378c-0.063,1.246-0.071,1.933,0.097,3.002
	c0.068,0.431,1.127-0.952,1.23-0.549c0.107,0.42-0.676,3.092-0.532,3.482c0.191,0.52,1.112-0.284,1.365,0.185
	c0.277,0.514-0.107,2.295,0.239,2.75c0.274,0.359,1.229-0.258,1.544,0.065c0.36,0.369,0.606,1.773,1.015,2.096
	c3.011,2.377,6.793,3.42,11.658,3.596c6.011,0.217,11.3-2.181,14.416-5.837c0.208-0.244,0.208,0.316,0.398,0.054
	c0.352-0.485,0.692-2.507,0.979-3.056c0.349-0.668,0.629,0.12,0.877-0.644c0.203-0.627,0.039-2.079,0.17-2.772
	c0.107-0.568,0.521-0.367,0.577-0.98c0.025-0.275,0.045-0.555,0.059-0.839C89.195,33.354,81.77,24.879,72.096,24.529z"/>
<g>
	
		<ellipse transform="matrix(0.9997 -0.0251 0.0251 0.9997 -0.9456 1.7605)" fill="#304454" cx="69.544" cy="38.489" rx="1.124" ry="1.563"/>
	
		<ellipse transform="matrix(0.9997 -0.0251 0.0251 0.9997 -0.9274 2.0407)" fill="#304454" cx="80.698" cy="37.904" rx="1.124" ry="1.563"/>
</g>
<path fill="#DEB958" d="M61.949,28.725c0,0-3.16-2.482-4.403-1.123c-1.243,1.36-0.164,4.06,1.527,4.315
	c1.691,0.256,3.394-1.972,3.394-1.972L61.949,28.725z"/>
<path opacity="0.5" fill="#CCAA4F" d="M77.921,41.673c1.702,0.842,2.573,3.006,1.946,4.833c-0.29,0.846-0.27,3.007-0.079,3.972
	c0.378,1.908-0.772,3.909-2.567,4.469c-1.795,0.56-4.436-1.113-4.813-3.021c-0.35-1.767-2.58-4.247-1.977-6.006
	C71.058,44.094,76.219,40.831,77.921,41.673z"/>
<path fill="#FFFDFD" d="M79.403,49.388c-0.136,5.634-1.374,4.387-2.331,4.304c-0.957-0.084-2.956,0.59-2.465-5.023
	C74.607,48.668,79.433,48.144,79.403,49.388z"/>
<path fill="#CCAA4F" d="M67.416,44.853c0.855-2.563,3.46-4.074,5.819-3.376c1.092,0.323,3.793,0.044,4.979-0.344
	c2.343-0.767,4.98,0.668,5.891,3.205c0.91,2.537-0.44,4.783-2.594,5.982c-0.868,0.483-3.128,0.966-4.198-1.226
	c-0.945,2.391-4.9,2.335-7.172,1.663C67.781,50.059,66.561,47.416,67.416,44.853z"/>
<path fill="#DEB958" d="M67.406,43.291c0.855-2.563,3.46-4.074,5.819-3.376c1.092,0.323,3.793,0.044,4.979-0.344
	c2.343-0.767,4.98,0.668,5.891,3.205c0.91,2.537-0.44,4.783-2.594,5.982c-0.868,0.483-3.128,0.966-4.198-1.226
	c-0.945,2.391-4.9,2.335-7.172,1.663C67.771,48.497,66.551,45.854,67.406,43.291z"/>
<g>
	<path d="M79.089,45.794c0,0-0.343,0.154-0.888,0.092c-0.574-0.066,0.304-0.543,0.304-0.543l0.464,0.023L79.089,45.794z"/>
	<path d="M76.551,46.01c0,0,0.365,0.087,0.887-0.076c0.552-0.172-0.398-0.476-0.398-0.476l-0.453,0.109L76.551,46.01z"/>
	<path fill="#304454" d="M76.3,45.898c0,0-0.242-1.037,0.44-1.535c0.726-0.532,1.565-0.492,2.205,0.025
		c0.64,0.517,0.454,1.164,0.454,1.164l-1.642-0.359l-0.586,0.062L76.3,45.898z"/>
	<path fill="#304454" d="M77.947,46.876c-0.269,0.024-0.722-0.357-0.655-0.596c0.075-0.268,0.18-0.344,0.055-0.534
		c-0.111-0.173-0.35-0.171-0.465-0.032c-0.08,0.095-0.058,0.221-0.095,0.274c-0.182,0.252-0.766,0.01-0.338-0.629
		c0.43-0.639,1.304-0.691,1.304-0.691c0.544-0.036,0.969,0.099,1.381,0.439c0.635,0.524-0.019,0.87-0.202,0.647
		c-0.048-0.058-0.092-0.158-0.171-0.21c-0.152-0.098-0.362-0.109-0.462,0.072c-0.174,0.31,0.082,0.301,0.19,0.521
		C78.616,46.389,78.208,46.856,77.947,46.876z"/>
</g>
<g>
	<path fill="none" stroke="#CCAA4F" stroke-width="0.8058" stroke-miterlimit="10" d="M69.765,46.282c0,0-3.297,1.282-4.525,3.336"
		/>
	<path fill="none" stroke="#CCAA4F" stroke-width="0.8058" stroke-miterlimit="10" d="M68.639,43.786c0,0-3.736-0.768-5.527,0.256"
		/>
</g>
<g>
	<path fill="none" stroke="#CCAA4F" stroke-width="0.7489" stroke-miterlimit="10" d="M84.235,45.316c0,0,2.988-0.649,4.926,0.431"
		/>
	<path fill="none" stroke="#CCAA4F" stroke-width="0.7489" stroke-miterlimit="10" d="M83.721,42.632c0,0,2.224-2.599,4.019-2.678"
		/>
</g>
</svg>
