<?xml version="1.0" encoding="utf-8"?>
<!-- Generator: Adobe Illustrator 17.0.0, SVG Export Plug-In . SVG Version: 6.00 Build 0)  -->
<!DOCTYPE svg PUBLIC "-//W3C//DTD SVG 1.1//EN" "http://www.w3.org/Graphics/SVG/1.1/DTD/svg11.dtd">
<svg version="1.1" id="Layer_1" xmlns="http://www.w3.org/2000/svg" xmlns:xlink="http://www.w3.org/1999/xlink" x="0px" y="0px"
	 width="100px" height="100px" viewBox="0 0 100 100" enable-background="new 0 0 100 100" xml:space="preserve">
<g>
	<path fill="#EAE2C1" d="M29.131,21.761c3.311-0.962,4.783,1.032,5.487,2.075c0.704,1.043,0.302,1.445,7.625,13.855
		c7.323,12.41,21.772,26.266,21.772,26.266c1.41,1.402,1.795,1.536,5.927,5.537c4.133,4.001,0.472,10.061-4.167,9.677
		c-4.64-0.384-14.186-9.972-19.105-14.388c-4.918-4.416-11.351-13.323-15.798-20.285c-4.446-6.962-5.675-16.458-5.738-17.05
		C25.072,26.855,25.821,22.722,29.131,21.761z"/>
	<path opacity="0.5" fill="#C9C2A6" d="M69.843,75.889c-4.64-0.384-14.186-9.972-19.105-14.388
		C45.82,57.085,39.387,48.178,34.94,41.216c-4.446-6.962-5.675-16.458-5.738-17.05c-0.03-0.287,0.133-1.406,0.683-2.592
		c-0.159,0.034-0.32,0.071-0.489,0.12c-3.31,0.961-4.059,5.094-3.997,5.686c0.063,0.592,1.291,10.088,5.738,17.05
		c4.447,6.962,10.879,15.869,15.798,20.285c4.919,4.416,14.465,14.004,19.105,14.388c2.378,0.197,4.491-1.303,5.437-3.347
		C70.954,75.884,70.406,75.936,69.843,75.889z"/>
	<path fill="#EAE2C1" d="M35.6,11.166c-4.655,0-8.444,3.626-8.668,8.179c-1.136-0.539-2.403-0.849-3.746-0.849
		c-4.799,0-8.689,3.85-8.689,8.6c0,4.749,3.89,8.6,8.689,8.6c4.655,0,8.444-3.626,8.668-8.179c1.136,0.539,2.403,0.849,3.746,0.849
		c4.799,0,8.689-3.85,8.689-8.6S40.399,11.166,35.6,11.166z"/>
	<path fill="#EAE2C1" d="M75.089,64.852c-4.614,0.618-7.888,4.715-7.505,9.257c-1.197-0.383-2.494-0.523-3.825-0.344
		c-4.756,0.637-8.101,4.97-7.47,9.677c0.631,4.707,4.998,8.007,9.754,7.369c4.614-0.618,7.888-4.715,7.505-9.257
		c1.197,0.383,2.494,0.523,3.825,0.344c4.756-0.637,8.101-4.97,7.47-9.677C84.213,67.514,79.846,64.214,75.089,64.852z"/>
	<path opacity="0.5" fill="#C9C2A6" d="M19.66,19.924c-3.04,1.339-5.162,4.349-5.162,7.855c0,4.749,3.89,8.6,8.689,8.6
		c3.385,0,6.303-1.921,7.735-4.717C24.953,30.732,20.286,25.928,19.66,19.924z"/>
	<path opacity="0.5" fill="#C9C2A6" d="M62.04,74.074c-3.04,1.339-5.162,4.349-5.162,7.855c0,4.749,3.89,8.6,8.689,8.6
		c3.385,0,6.303-1.921,7.735-4.717C67.334,84.881,62.666,80.078,62.04,74.074z"/>
</g>
</svg>
