<?xml version="1.0" encoding="utf-8"?>
<!-- Generator: Adobe Illustrator 17.0.0, SVG Export Plug-In . SVG Version: 6.00 Build 0)  -->
<!DOCTYPE svg PUBLIC "-//W3C//DTD SVG 1.1//EN" "http://www.w3.org/Graphics/SVG/1.1/DTD/svg11.dtd">
<svg version="1.1" id="Layer_1" xmlns="http://www.w3.org/2000/svg" xmlns:xlink="http://www.w3.org/1999/xlink" x="0px" y="0px"
	 width="100px" height="100px" viewBox="0 0 100 100" enable-background="new 0 0 100 100" xml:space="preserve">
<path fill="#D78334" d="M57.067,55.444c-8,11.137-32.101,31.058-33.094,30.218c-1.774-1.5,10.531-32.115,18.531-43.252
	s9.456-8.263,15.221-4.484C62.995,41.383,65.066,44.307,57.067,55.444z"/>
<path fill="#F4953F" d="M58.063,37.735c-6.068-3.829-7.6-6.739-16.02,4.542c-0.678,0.908-1.387,1.956-2.114,3.094
	c1.508,6.29,7.352,10.984,14.345,10.984c0.889,0,1.754-0.089,2.599-0.234c0.167-0.215,0.341-0.433,0.497-0.642
	C65.79,44.198,63.611,41.235,58.063,37.735z"/>
<path fill="#F4953F" d="M29.791,65.663c-4.865,10.754-8.692,21.543-7.677,22.395c0.601,0.505,10.099-6.933,18.886-15.117
	C36.083,72.692,31.879,69.803,29.791,65.663z"/>
<path fill="#F4953F" d="M55.366,58.082c-0.811,0.142-1.642,0.229-2.495,0.229c-6.713,0-12.322-4.599-13.77-10.761
	c-2.756,4.406-5.799,10.375-8.535,16.354c2.219,4.35,6.687,7.386,11.912,7.648C47.538,66.892,52.375,62.001,55.366,58.082z"/>
<path fill="#D78334" d="M58.224,38.973c-2.898-2.281-3.932-4.187-7.219-2.038c-0.673,2.313,0.469,5.246,2.999,7.176
	c1.922,1.466,4.19,2.008,6.069,1.632C61.489,42.836,60.679,40.906,58.224,38.973z"/>
<path fill="#64C4AD" d="M84.674,28.237c1.185-2.179-4.504-4.584-10.721-3.352c-3.089,0.613-5.697,2.076-7.542,3.393
	c-0.693,0.256-1.355,0.583-1.989,0.967c3.384-5.081,10.29-16.266,6.724-18.004c-3.912-1.907-7.232,13.998-8.176,19.023
	c-0.054,0.044-0.109,0.087-0.163,0.131c0.207-1.3,1.169-8.698-2.976-13.321c-3.575-3.988-7.623-4.937-8.55-2.545
	c-0.925,2.385,4.565,3.102,7.45,6.027c3.772,3.823,4.026,8.878,4.039,9.871c-0.029,0.024-0.056,0.049-0.084,0.073
	c-0.08-1.898-0.589-6.125-3.485-7.602c-4.269-2.178-9.813-0.397-10.893,2.33c-0.537,1.357,1.088,2.319,3.587,1.049
	c2.5-1.269,4.342-3.295,7.512-1.597c1.863,0.998,2.792,4.375,3.132,5.948c-3.446,2.974-5.839,7.624-7.342,11.401
	c0.143,0.06,0.287,0.118,0.431,0.176c1.113-2.296,2.611-4.937,4.527-7.362c5.625-7.116,10.489-6.101,13.311-4.242
	c3.019,1.992,1.397,6.081,2.601,8.101c1.203,2.019,2.727,1.417,3.289,0.005c0.809-2.033-0.606-10.197-7.724-11.045
	c0.659-0.116,1.342-0.203,2.043-0.251C79.257,27.034,83.526,30.352,84.674,28.237z"/>
</svg>
