<?xml version="1.0" encoding="utf-8"?>
<!-- Generator: Adobe Illustrator 17.0.0, SVG Export Plug-In . SVG Version: 6.00 Build 0)  -->
<!DOCTYPE svg PUBLIC "-//W3C//DTD SVG 1.1//EN" "http://www.w3.org/Graphics/SVG/1.1/DTD/svg11.dtd">
<svg version="1.1" id="Layer_1" xmlns="http://www.w3.org/2000/svg" xmlns:xlink="http://www.w3.org/1999/xlink" x="0px" y="0px"
	 width="100px" height="100px" viewBox="0 0 100 100" enable-background="new 0 0 100 100" xml:space="preserve">
<path fill="#F89C44" d="M56.427,78.246c0.755,0.267,1.83,4.484,2.213,5.43c0.28,0.691,0.403,1.379-0.543,1.5
	c-0.556,0.071-1.957-0.188-1.879,0.794c0.083,1.049,2.769,0.359,3.392,0.658c0.449,0.215,0.545,0.773,1.076,0.846
	c0.854,0.118,0.752-0.843,0.716-1.372c0.696-0.256,4.064,0.842,4.837,1.035c1.545,0.21,0.811-1.03,0.427-1.221
	c-0.612-0.302-1.255-0.663-1.921-0.898c-0.903-0.318-1.827-0.535-2.711-0.928c-2.475-0.084-3.388-6.307-3.226-6.68"/>
<path fill="#F89C44" d="M40.855,78.246c-0.007,1.261-0.614,5.316-0.919,5.972c-0.745,1.605-3.36,0.841-4.55,1.878
	c-0.927,0.807,0.288,1.034,0.96,0.968c0.73-0.072,1.433-0.392,2.129-0.626c0.307-0.103,0.599-0.285,0.751,0.033
	c0.17,0.356-0.208,0.738,0.251,0.996c0.82,0.46,1.236-0.471,1.294-1.079c0.023-0.242-0.043-0.295,0.135-0.416
	c0.139-0.094,0.483-0.06,0.647-0.044c0.438,0.043,0.912,0.185,1.305,0.387c0.753,0.386,1.16,0.897,2.088,0.909
	c1.332,0.016,0.052-1.38-0.552-1.661c-3.33-1.178-2.054-5.522-1.452-7.566"/>
<path fill="#F4D038" d="M65.508,41.32c1.049,0.815,3.348,0.118,4.512-0.202c2.07-0.569,3.26-1.836,4.68-3.383
	c1.319-1.439,2.079-3.194,2.629-5.054c0.296-1.002,0.443-2.033,0.454-3.084c0.006-0.55-0.104-1.312,0.044-1.802
	c0.287,0.713,0.752,1.005,0.832,1.813c0.064,0.644-0.03,1.332-0.178,1.922c0.259-0.457,0.339-0.999,0.553-1.46
	c0.789,1.103-0.03,2.143-0.319,3.215c0.672-0.611,1.745-1.51,1.697-2.529c0.264,0.915,0.509,1.769,0.331,2.736
	c-0.168,0.914-0.849,1.644-1.063,2.486c0.645-0.345,1.153-0.863,1.471-1.529c0.129,1.261-0.692,2.212-1.283,3.234
	c0.444-0.169,0.91-0.349,1.349-0.538c0.046,0.635-0.522,1.575-0.86,2.097c0.844-0.24,1.7-0.525,2.315-1.218
	c0.099,1.516-1.716,2.534-2.317,3.727c0.366-0.2,0.801-0.297,1.182-0.488c0.583-0.293,1.006-0.819,1.496-1.192
	c0.137,0.999-1.165,2.257-1.759,2.939c-0.818,0.94-2.03,1.528-3.112,2.054c0.736,0.057,1.629,0.047,2.322-0.213
	c-0.803,1.003-1.901,1.628-3.188,1.73c0.374,0.051,0.815,0.623,0.793,0.989c-0.712,0.29-1.921,0.37-2.664,0.144
	c1.211,1.228-1.393,0.816-2.035,0.391c0.285,0.303,0.695,0.749,0.26,1.059c-0.528,0.377-1.262-0.391-1.682-0.624
	c0.022,0.425,0.159,0.614-0.21,0.875c-0.475,0.336-1.03,0.002-1.307-0.375c-0.192,0.52-0.988,0.112-1.31-0.138
	c-0.982-0.762-0.824-1.833-1.44-2.76"/>
<g>
	<path fill="#FEE05F" d="M70.208,60.936c-0.045,0.115-0.086,0.227-0.136,0.345C70.131,61.175,70.173,61.058,70.208,60.936z"/>
	<path fill="#FEE05F" d="M38.633,40.679c-0.085,0.22-0.155,0.449-0.125,0.687c-0.27-0.478-0.166-1.039-0.196-1.565
		c-0.327,0.233-0.39,0.79-0.38,1.161c-0.248-0.24-0.376-0.947-0.349-1.295c-0.186,0.092-0.263,0.314-0.369,0.47
		c-0.105-0.374-0.096-0.73-0.154-1.1c-0.069-0.449-0.191-0.876-0.219-1.334c-0.043-0.698,0.037-1.398,0.239-2.068
		c0.152-0.505,0.377-0.978,0.613-1.449c0.092-0.183,0.388-0.597,0.323-0.82c-0.003-0.01-3.001-10.398,6.826-15.718
		c0.7-0.379,0.999-1.819,0.736-2.63c-0.285-0.879-1.234-1.235-1.987-1.361c0.945-0.262,1.665-0.462,2.365,0.424
		c0.59,0.748,0.525,1.568,0.51,2.483c0.329-1.103,0.933-2.238,1.822-2.97c1.21-0.996,2.64-1.392,4.09-1.753
		c-0.837,0.284-1.681,0.772-2.341,1.238c-1.011,0.714-1.349,1.568-1.883,2.605c0.673-0.912,2.013-1.427,3.056-1.808
		c1.024-0.374,2.84-0.811,3.882-0.36c-1.91-0.016-4.45,0.264-5.157,2.309c0.795-0.276,1.508-0.694,2.356-0.886
		c1.139-0.258,2.214-0.308,3.38-0.298c2.003,0.017,4.218,0.808,5.742,2.071c-1.22-0.166-2.398-0.745-3.672-0.82
		c-1.263-0.075-2.585-0.175-3.695,0.565c0.656-0.437,2.677,0.076,3.35,0.215c2.443,0.505,4.668,1.784,6.245,3.73
		c0.71,0.876,1.279,1.862,1.722,2.897c0.209,0.489,0.312,1.266,0.73,1.606c0.422,0.343,1.115,0.241,1.604,0.429
		c0.956,0.367,1.256,0.891,1.872,1.622c-0.238-0.326-0.621-0.576-1.003-0.706c0.559,0.735,1.15,1.262,1.488,2.114
		c-0.425-0.326-0.885-0.543-1.337-0.804c0.313,0.378,1.051,1.16,0.975,1.653c-0.246-0.216-0.527-0.42-0.748-0.65
		c0.237,0.562,0.797,1.094,0.811,1.729c-0.22-0.189-0.497-0.409-0.748-0.6c0.124,1.262,0.76,2.432,0.369,3.73
		c-0.442-0.331-0.309-1.028-0.667-1.417c-0.062,0.465,0.14,0.94,0.055,1.418c-0.104,0.583-0.489,1.236-0.817,1.708
		c-0.329,0.473-0.713,1.003-1.147,1.481c-4.154,3.723,4.529,5.894,4.891,16.93c0.322,0.817,0.325,1.674,0.39,2.538
		c0.054,0.721,0.283,1.659,0.175,2.365c-0.292-0.565-0.496-1.053-0.931-1.538c-0.073-0.081-0.168-0.168-0.254-0.26
		c0.257,0.723,0.471,1.425,0.447,2.239c-0.004-0.818-0.8-1.416-0.992-2.162c0.414,1.566,0.249,2.754-0.32,4.211
		c0.168-0.591,0.063-1.327-0.067-1.877c0.054,1.85,0.857,9.25-9.129,14.027c-1.001,1.039-0.407,2.941-1.329,4.195
		c-0.888,1.208-2.503,1.792-3.821,0.75c-0.737-0.583-1.9-2.092-1.934-3.066c-1.29,1.922-5.821,1.421-7.32,0.238
		c-0.341,0.927-0.97,1.785-1.559,2.577c-0.783,1.051-2.067,1.626-3.336,1.098c-1.347-0.561-1.446-1.622-1.863-2.848
		c-0.432-1.271-1.819-2.58-3.021-3.086c-1.42-0.598-2.642-1.65-3.636-2.799c0.007,0.465,0.589,1.13,0.939,1.349
		c-0.68-0.324-1.611-0.835-2.254-1.354c-0.833-0.672-2.11-1.925-2.373-2.999c-0.359,0.752,0.053,1.763,0.605,2.336
		c-1.482-0.92-1.947-2.853-2.062-4.423c-0.246,0.441-0.381,1.032-0.374,1.565c-0.225-0.432-0.511-0.919-0.557-1.451
		c-0.053-0.609,0.241-1.21,0.184-1.804c-0.969,0.502-1.055,1.637-1.194,2.613c-0.277-1.162-0.189-2.335-0.246-3.538
		c-0.703,0.753-0.954,1.653-1.293,2.601c-0.138-2.086,0.173-3.461,1.847-4.739c-0.393,0.265-0.779,0.648-1.15,0.978
		c1.016-1.651,2.092-2.583,4.103-2.746c5.395-8.09,11.74-10.01,12.332-13.096c0.411-0.768,0.802-2.017,0.739-3.028
		c-0.117-0.072-0.24-0.137-0.349-0.217c-0.264-0.195-0.619-0.717-0.988-0.607c-0.624,0.186-0.576,1.316-0.587,1.784
		c-0.415-0.337-0.476-1.106-0.504-1.604c-0.25,0.238-0.354,0.641-0.376,0.992c-0.2-0.228-0.358-0.544-0.374-0.867
		c-0.059,0.092-0.167,0.158-0.224,0.293c-0.127-0.502-0.195-1.032-0.326-1.525"/>
	<path fill="#FEE05F" d="M52.38,11.843c0.278-0.069,0.557-0.138,0.835-0.208C52.942,11.674,52.661,11.747,52.38,11.843z"/>
</g>
<path fill="#F4D038" d="M40.379,46.51c-0.542,0.352-1.17,0.58-1.604,1.056c0.733,0.626,0.298,0.621-0.43,1.085
	c-0.531,0.338-0.739,0.616-1.065,1.123c-0.866,1.343-2.425,2.39-3.806,3.181c-1.815,1.04-3.723,1.647-5.787,1.891
	c-1.012,0.12-1.931,0.142-2.943-0.012c-0.866-0.132-1.624-0.554-2.437-0.729c0.331,1.163,1.628,1.756,2.744,1.817
	c-0.16,0.301-0.575,0.383-0.818,0.613c0.416,0.834,2.217,0.828,2.995,0.814c-0.443,0.243-1.053,0.383-1.403,0.74
	c0.715,0.389,1.538,0.327,2.332,0.327c-0.661,0.001-1.482,0.169-2.079,0.373c0.696,0.756,3.065,1.037,3.971,0.626
	c-0.535-0.02-1.274,0.43-1.668,0.773c1.294,0.789,3.506,0.517,4.813-0.181c-0.539,0.435-1.113,0.946-1.621,1.402
	c1.235,0.079,2.355-0.176,3.503-0.6c0.799-0.294,1.782-0.56,2.263-1.31c-0.265,0.442-0.842,0.78-1.004,1.238
	c0.623,0.306,2.028-0.625,2.578-0.942c0.732-0.422,1.419-0.828,2.001-1.439c2.039-2.139,3.581-5.564,3.727-8.515
	c0.068-1.379-0.241-3.242-1.407-4.163c-1.125-0.89-3.268-0.439-3.909,0.868C39.598,46.615,40.118,46.679,40.379,46.51z"/>
<path fill="#F89C44" d="M55.046,32.39c-1.392,1.511-3.35,1.383-5.201,1.126l-2.192-0.125c0.484-0.063,2.024,1.484,2.568,1.878
	c0.863,0.626,1.738,1.23,2.771,1.427c0.876,0.167,2.153,0.482,2.942-0.096c0.708-0.519,1.169-1.73,1.489-2.52
	c0.547-1.351,0.491-2.936,1.184-4.245C57.087,29.854,55.954,31.404,55.046,32.39z"/>
<ellipse transform="matrix(0.988 -0.1546 0.1546 0.988 -3.9492 7.4691)" fill="#304454" cx="46.041" cy="29.122" rx="1.082" ry="1.504"/>
<ellipse transform="matrix(0.988 -0.1546 0.1546 0.988 -3.3869 9.3918)" fill="#304454" cx="58.682" cy="26.469" rx="1.082" ry="1.504"/>
<path fill="#D14E3F" d="M49.282,33.766c1.724,0.433,3.53,2.921,5.448,2.128c1.561-0.645,2.356-3.659,2.804-5.134
	c0.047-0.156,0.124-0.293,0.197-0.432c-1.497,0.518-2.324,1.857-3.503,2.766c-0.558,0.43-1.382,0.59-2.068,0.658
	c-0.773,0.076-1.164-0.21-1.875-0.362"/>
<path fill="#F89C44" d="M47.387,33.4v-0.063c1.062,0.326,2.219,0.395,3.319,0.629c0.24,0.051,0.513,0.113,0.803,0.171
	c0.774,0.156,1.663,0.288,2.328,0.139c0.89-0.199,1.494-1.093,1.987-1.83c0.472-0.705,0.96-1.201,1.586-1.664
	c0.408-0.302,0.884-0.541,1.196-0.954c-0.278-0.428-0.941-0.329-1.387-0.263c-0.626,0.094-1.005,0.161-1.628-0.033
	c-0.7-0.218-1.311-0.517-1.993-0.63c-1.653-0.274-2.719,0.806-3.594,2.051c-0.289,0.411-0.655,0.709-1.03,0.987
	c-0.379,0.281-0.768,0.542-1.099,0.881C47.694,33.007,47.576,33.211,47.387,33.4z"/>
</svg>
