<?xml version="1.0" encoding="utf-8"?>
<!-- Generator: Adobe Illustrator 17.0.0, SVG Export Plug-In . SVG Version: 6.00 Build 0)  -->
<!DOCTYPE svg PUBLIC "-//W3C//DTD SVG 1.1//EN" "http://www.w3.org/Graphics/SVG/1.1/DTD/svg11.dtd">
<svg version="1.1" id="Layer_1" xmlns="http://www.w3.org/2000/svg" xmlns:xlink="http://www.w3.org/1999/xlink" x="0px" y="0px"
	 width="100px" height="100px" viewBox="0 0 100 100" enable-background="new 0 0 100 100" xml:space="preserve">
<circle fill="#DEB958" cx="49.353" cy="51.286" r="32.953"/>
<circle fill="#EEC65E" cx="51.228" cy="49.411" r="31.078"/>
<circle fill="#DEB958" cx="38.976" cy="49.411" r="3.075"/>
<circle fill="#DEB958" cx="57.553" cy="34.952" r="6.325"/>
<circle fill="#DEB958" cx="69.877" cy="55.564" r="4.325"/>
<circle fill="#DEB958" cx="49.265" cy="68.75" r="4.064"/>
<circle fill="#DEB958" cx="24.214" cy="58.877" r="4.064"/>
<circle fill="#DEB958" cx="36.793" cy="28.627" r="4.064"/>
<circle fill="#DEB958" cx="69.127" cy="72.325" r="3.575"/>
<circle fill="#DEB958" cx="76.226" cy="38.027" r="3.075"/>
<circle fill="#7A3440" cx="58.679" cy="34.952" r="4.875"/>
<circle fill="#7A3440" cx="36.793" cy="30.077" r="3.409"/>
<circle fill="#7A3440" cx="50" cy="69.405" r="3.409"/>
<circle fill="#7A3440" cx="39.967" cy="50.349" r="2.519"/>
<circle fill="#7A3440" cx="24.214" cy="58.877" r="3.051"/>
<circle fill="#7A3440" cx="69.877" cy="55.564" r="3.051"/>
<ellipse fill="#7A3440" cx="69.728" cy="72.582" rx="2.902" ry="2.82"/>
<ellipse fill="#7A3440" cx="75.226" cy="37.827" rx="2.902" ry="2.82"/>
</svg>
