<?xml version="1.0" encoding="utf-8"?>
<!-- Generator: Adobe Illustrator 17.0.0, SVG Export Plug-In . SVG Version: 6.00 Build 0)  -->
<!DOCTYPE svg PUBLIC "-//W3C//DTD SVG 1.1//EN" "http://www.w3.org/Graphics/SVG/1.1/DTD/svg11.dtd">
<svg version="1.1" id="Layer_1" xmlns="http://www.w3.org/2000/svg" xmlns:xlink="http://www.w3.org/1999/xlink" x="0px" y="0px"
	 width="100px" height="100px" viewBox="0 0 100 100" enable-background="new 0 0 100 100" xml:space="preserve">
<path fill="#D1D3D4" d="M71.643,33.818c-0.286,0.115-0.424,0.442-0.309,0.727c0.118,0.287,0.443,0.424,0.729,0.309
	c0.045-0.018,4.438-1.761,7.226-0.269c1.115,0.596,1.836,1.659,2.148,3.162l0.719,3.677c0.806,4.282,1.175,6.236,3.092,7.301
	c0.27,0.15,0.61,0.053,0.761-0.217c0.148-0.27,0.051-0.61-0.217-0.761c-1.457-0.809-1.772-2.485-2.535-6.53l-0.723-3.696
	c-0.382-1.844-1.295-3.166-2.718-3.924C76.563,31.859,71.843,33.737,71.643,33.818z"/>
<path fill="#304454" d="M85.652,52.116c-0.845-1.268-1.573-3.445,0.113-4.557c1.175-0.774,2.895-0.462,3.84,1.547
	c1.228,2.607-0.185,3.934,0.728,5.646C90.333,54.752,87.021,54.171,85.652,52.116z"/>
<path fill="#304454" d="M82.917,39.487l-0.384-1.965c-0.382-1.844-1.295-3.166-2.718-3.924c-0.024-0.013-0.051-0.024-0.072-0.036
	c0.131,0.262,0.307,0.491,0.54,0.653c1.141,0.799,1.712,2.512,1.712,3.655C81.995,38.442,82.34,39.074,82.917,39.487z"/>
<polygon fill="#D78334" points="52.601,87.515 56.197,86.644 56.524,83.265 54.671,81.63 53.148,83.047 "/>
<path fill="#D1D3D4" d="M62.179,58.368c0,0-3.912,2.994-1.799,8.319c1.079,2.718-0.798,7.579-1.798,8.095
	c-3.147,1.618-4.774,4.715-5,6.739c0,0,7.523,4.97,9.59,5.448c2.923,0.675,3.488-4.794,0.806-10.615
	c-0.968-2.102,0.057-4.719,1.483-5.839c3.148-2.473,3.761-7.974,1.961-10.897"/>
<path fill="#304454" d="M63.154,70.07c-0.703,0.546-0.231,2.431,0.578,3.345c0.272-1.199,0.937-2.279,1.728-2.9
	c1.617-1.27,2.562-3.338,2.857-5.447l-1.397-1.507l-1.825,0.229c0,0-2.284,1.141-1.942,2.626
	C63.496,67.899,64.182,69.27,63.154,70.07z"/>
<path fill="#F3B37C" d="M51.619,87.079c0,0-0.326-8.064,5.56-8.174c4.495-0.084,7.182,5.114,7.409,8.936l-9.154,0.109l-1.527-5.014
	l-1.307,4.578L51.619,87.079z"/>
<polygon fill="#D78334" points="24.055,87.515 27.651,86.644 27.977,83.265 26.124,81.63 24.599,83.047 "/>
<path fill="#D1D3D4" d="M33.632,58.368c0,0-3.911,2.994-1.798,8.319c1.078,2.718-0.8,7.579-1.8,8.095
	c-3.147,1.618-4.775,4.715-4.999,6.739c0,0,7.522,4.97,9.588,5.448c2.922,0.675,3.489-4.794,0.807-10.615
	c-0.967-2.102,0.057-4.719,1.483-5.839c3.148-2.473,3.759-7.974,1.962-10.897"/>
<path fill="#304454" d="M28.737,80.751c0,0,1.884-4.713,3.77-4.006c1.885,0.707,0.707,2.356,2.592,2.356
	c1.885,0,2.357,1.65,2.357,1.65l-4.332,1.994L28.737,80.751z"/>
<path fill="#F3B37C" d="M23.074,87.079c0,0-0.326-8.064,5.557-8.174c4.496-0.084,7.184,5.114,7.41,8.936l-9.153,0.109l-1.525-5.014
	l-1.307,4.578L23.074,87.079z"/>
<polygon fill="#D78334" points="30.953,88.91 34.722,87.996 35.064,84.456 33.123,82.745 31.524,84.228 "/>
<path fill="#EFEFEF" d="M36.748,32.687c0,0,8.266,3.456,16.243,3.354c8.906-0.115,16.67-8.907,22.632-4.296
	c5.595,4.327,5.736,34.016-18.143,37.461C34.628,72.504,22.619,54.311,30.04,44.377C37.159,34.847,36.748,32.687,36.748,32.687z"/>
<path fill="#D1D3D4" d="M78.267,37.416c-2.477-3.057-4.752-2.806-4.752-2.806l1.959,6.749c0,0,1.899,0.591,3.235,0.441
	C78.676,40.222,78.522,38.742,78.267,37.416z"/>
<path fill="#D1D3D4" d="M48.537,63.104c-1.369-3.54-2.969-3.198-2.969-3.198l-1.777,8.595c1.373,0.383,2.825,0.672,4.351,0.86
	C48.751,67.774,49.382,65.288,48.537,63.104z"/>
<path fill="#EFEFEF" d="M40.99,58.368c0,0-4.099,3.138-1.887,8.718c1.13,2.847-0.835,7.943-1.884,8.48
	c-3.298,1.697-5.004,4.944-5.238,7.063c0,0,7.883,5.209,10.048,5.71c3.063,0.706,3.654-5.026,0.845-11.123
	c-1.015-2.202,0.059-4.947,1.551-6.119c3.299-2.591,3.942-8.356,2.058-11.42"/>
<path fill="#F3B37C" d="M29.925,88.452c0,0-0.343-8.449,5.824-8.564c4.711-0.087,7.529,5.358,7.765,9.365l-9.593,0.114l-1.598-5.253
	l-1.37,4.795L29.925,88.452z"/>
<path fill="#304454" d="M42.256,62.418c-0.651-1.233-2.408-0.761-3.605-0.254c-0.323,1.322-0.319,2.972,0.452,4.921
	c0.52,1.307,0.386,3.087-0.013,4.682c1.912-0.1,2.339-1.233,2.14-1.698c-0.343-0.8-0.687-2.514,0-3.427
	C41.915,65.73,43.285,64.359,42.256,62.418z"/>
<polygon fill="#D78334" points="59.501,88.91 63.268,87.996 63.611,84.456 61.669,82.745 60.071,84.228 "/>
<path fill="#EFEFEF" d="M74.459,34.557c0,0,5.023,3.312,5.937,10.049c0.913,6.736-5.367,15.072-5.367,15.072
	c1.885,3.064,1.243,8.829-2.055,11.42c-1.494,1.172-2.566,3.917-1.553,6.119c2.808,6.097,2.217,11.829-0.847,11.123
	c-2.165-0.501-10.047-5.71-10.047-5.71c0.235-2.12,1.941-5.367,5.238-7.063c1.048-0.538,3.014-5.634,1.884-8.48
	c-2.213-5.58,1.886-8.718,1.886-8.718s-7.98-3.485-7.296-10.794C62.925,40.265,69.89,32.958,74.459,34.557z"/>
<path fill="#F3B37C" d="M58.473,88.452c0,0-0.345-8.449,5.823-8.564c4.711-0.087,7.53,5.358,7.766,9.365l-9.592,0.114l-1.599-5.253
	l-1.37,4.795L58.473,88.452z"/>
<path fill="#304454" d="M70.803,62.418c-0.651-1.233-2.409-0.761-3.606-0.254c-0.322,1.322-0.319,2.972,0.452,4.921
	c0.519,1.307,0.386,3.087-0.013,4.682c1.911-0.1,2.339-1.233,2.141-1.698c-0.343-0.8-0.686-2.514,0-3.427
	C70.461,65.73,71.831,64.359,70.803,62.418z"/>
<path fill="#304454" d="M49.457,38.788c0.33-1.185,2.513-3.425,3.883-1.941c1.814,1.965-0.113,2.97,0.456,3.997
	c0.571,1.027,2.055,0.228,2.627,1.37c0.571,1.142-1.37,3.083-3.653,1.941C50.485,43.013,48.887,40.844,49.457,38.788z"/>
<path fill="#304454" d="M80.482,45.753c-0.489-1.042-1.173-1.967-2.027-1.832c-2.168,0.343-2.397,2.512-1.37,4.224
	C78.113,49.858,76.969,51,75.944,51c-1.029,0-3.496-0.438-4.113,1.028c-0.912,2.169,2.17,4.339,4.455,2.398
	c0.894-0.761,1.736-1.153,2.485-1.301C79.757,50.842,80.535,48.23,80.482,45.753z"/>
<path fill="#304454" d="M68.555,77.452c-0.47,1.885,2.321,1.402,3.123,2.738c0.507,0.846,0.868,2.471,1.489,3.117
	c-0.18-1.804-0.749-3.923-1.746-6.091c-0.092-0.198-0.159-0.399-0.219-0.605C70.004,76.456,68.783,76.541,68.555,77.452z"/>
<path fill="#304454" d="M67.011,31.468c-4.219,1.613-8.934,4.509-14.019,4.573c-0.63,0.008-1.262-0.008-1.89-0.039
	c0.017,0.03,0.037,0.062,0.055,0.092c-2.027-0.208-5.117,2.138-5.245,4.027c-0.221,3.351,1.807,5.276-0.554,7.083
	c-2.361,1.805,1.528,5.97,2.918,4.304c0.402-0.483,1.055-0.636,1.769-0.701c-0.377,1.965,2.469,4.57,3.618,3.192
	c0.914-1.097,3.099-0.523,4.443-0.972c2.082-0.693,2.082-2.36,2.917-4.443c0.833-2.083,2.915-1.11,3.747-2.36
	c0.834-1.25-0.971-3.194-2.776-2.917c-1.581,0.242-1.672-2.387-3.811-3.977c3.063-1.607,4.353-4.636,7.027-4.429
	C67.411,35.068,68.042,32.979,67.011,31.468z"/>
<ellipse fill="#D1D3D4" cx="34.694" cy="39.336" rx="9.294" ry="9.77"/>
<ellipse transform="matrix(0.9904 0.1381 -0.1381 0.9904 7.1089 -4.2543)" fill="#D1D3D4" cx="34.215" cy="49.106" rx="9.294" ry="9.77"/>
<path fill="#304454" d="M28.926,56.342c0.991,2.436,2.65,4.791,4.91,6.824c1.642-0.164,2.249-2.581,1.343-3.488
	c-1.029-1.027-2.055-0.342-2.855-1.369c-0.799-1.029,0.343-2.855-1.258-3.425C30.205,54.575,29.446,55.459,28.926,56.342z"/>
<path fill="#304454" d="M37.531,28.956c0,0,0.292-8.891,6.422-9.11c6.131-0.216,10.799,5.423,7.882,8.675
	c-2.92,3.253-12.258,3.036-12.258,3.036L37.531,28.956z"/>
<path fill="#304454" d="M21.58,23.955c0,0-7.601-6.58-10.87-3.333c-3.268,3.25-0.895,10.128,3.303,10.967
	c4.197,0.842,8.718-4.523,8.718-4.523L21.58,23.955z"/>
<ellipse fill="#EFEFEF" cx="28.903" cy="34.294" rx="13.946" ry="15.463"/>
<path fill="#304454" d="M39.346,24.053c-2.555-3.202-6.284-5.223-10.443-5.223c-0.862,0-1.699,0.091-2.518,0.258
	c-0.735,1.067-1.22,2.352-1.038,3.244c0.452,2.178,2.113,2.107,3.798,1.243c1.682-0.868,4.161-0.718,5.662,1.236
	C35.652,25.903,39.364,26.336,39.346,24.053z"/>
<path fill="#F4DBC5" d="M34.449,22.994c-0.766-0.513-1.18-0.89-1.333-1.811c0,0,1.511-1.838,1.528-3.441
	c0.023-1.956-1.168-3.805-0.658-4.343c0.488-0.519,3.217-0.039,4.067,3.71c0.684,3.028-1.294,6.39-1.294,6.39
	S35.493,23.69,34.449,22.994z"/>
<path fill="#F4DBC5" d="M23.592,22.994c0.766-0.513,1.181-0.89,1.332-1.811c0,0-1.509-1.838-1.529-3.441
	c-0.021-1.956,1.17-3.805,0.662-4.343c-0.488-0.519-3.221-0.039-4.068,3.71c-0.684,3.028,1.293,6.39,1.293,6.39
	S22.549,23.69,23.592,22.994z"/>
<ellipse transform="matrix(0.9996 0.0272 -0.0272 0.9996 1.0831 -0.5951)" fill="#304454" cx="22.384" cy="39.46" rx="1.082" ry="1.504"/>
<ellipse transform="matrix(0.9996 0.0272 -0.0272 0.9996 1.0793 -0.9469)" fill="#304454" cx="35.297" cy="39.145" rx="1.082" ry="1.504"/>
<g>
	<path fill="#F4DBC5" d="M40.424,49.606c0,4.773-5.092,8.64-11.373,8.64c-6.277,0-11.367-3.867-11.367-8.64
		c0-4.773,5.09-8.643,11.367-8.643C35.333,40.964,40.424,44.833,40.424,49.606z"/>
	<g>
		
			<ellipse transform="matrix(0.9077 0.4196 -0.4196 0.9077 21.9502 -3.5764)" fill="#F4DBC5" cx="19.105" cy="48.106" rx="2.669" ry="2.028"/>
		
			<ellipse transform="matrix(0.7602 0.6497 -0.6497 0.7602 36.7084 -1.1365)" opacity="0.7" fill="#C75E72" cx="19.894" cy="49.16" rx="2.266" ry="1.722"/>
	</g>
	<g>
		
			<ellipse transform="matrix(0.9671 -0.2543 0.2543 0.9671 -10.845 11.4879)" fill="#F4DBC5" cx="39.007" cy="47.687" rx="2.669" ry="2.028"/>
		
			<ellipse transform="matrix(0.8184 -0.5746 0.5746 0.8184 -20.8465 30.8122)" opacity="0.7" fill="#C75E72" cx="38.332" cy="48.392" rx="2.266" ry="1.722"/>
	</g>
</g>
<path fill="#304454" d="M67.324,65.993c-0.703-1.833-2.068-3.102-2.906-1.831c-0.453,0.687-1.121,0.868-1.841,0.913
	c0.589-2.89-1.968-6.966-3.262-5.004c-1.031,1.562-3.148,0.551-4.536,1.12c-2.152,0.878-2.333,3.353-3.39,6.386
	c-0.467,1.341-1.114,1.776-1.773,2c2.558,0.222,5.309,0.158,8.243-0.266C61.571,68.776,64.702,67.604,67.324,65.993z"/>
</svg>
