<?xml version="1.0" encoding="utf-8"?>
<!-- Generator: Adobe Illustrator 17.0.0, SVG Export Plug-In . SVG Version: 6.00 Build 0)  -->
<!DOCTYPE svg PUBLIC "-//W3C//DTD SVG 1.1//EN" "http://www.w3.org/Graphics/SVG/1.1/DTD/svg11.dtd">
<svg version="1.1" id="Layer_1" xmlns="http://www.w3.org/2000/svg" xmlns:xlink="http://www.w3.org/1999/xlink" x="0px" y="0px"
	 width="100px" height="100px" viewBox="0 0 100 100" enable-background="new 0 0 100 100" xml:space="preserve">
<path fill="#E08B51" d="M48.476,83.999c0.863-1.351,0.759-3.116,0.209-4.906c-16.35-2.269-19.77-12.588-14.458-17.421
	c4.511-4.102,13.221-3.983,19.915,3.373c0.593,0.651,0.916,1.383,1.086,2.151l0.047-0.016c0,0,1.461,5.333,1.503,10.983
	c0.116,0.195,0.126,0.387-0.003,0.561c-0.041,4.3-0.952,8.687-3.998,10.969C49.566,92.094,45.963,87.935,48.476,83.999z"/>
<g>
	<g>
		
			<linearGradient id="SVGID_1_" gradientUnits="userSpaceOnUse" x1="-6953.4639" y1="-8122.6025" x2="-6944.835" y2="-8115.6147" gradientTransform="matrix(-0.637 0.3391 0.2875 0.4968 -2025.2141 6406.6968)">
			<stop  offset="0" style="stop-color:#F7A996"/>
			<stop  offset="1" style="stop-color:#F15D4E"/>
		</linearGradient>
		<path fill="url(#SVGID_1_)" d="M68,18.886c-1.427-0.876-2.405-1.681-2.405-1.681s-0.543-1.042-0.45-2.516
			c2.438-0.532,5.427-0.221,5.427-0.221L68,18.886z"/>
		<g>
			<path fill="#F6AF7F" d="M65.595,17.205c0,0-1.252-2.404,0.372-5.066c1.064-1.747,2.734-4.139,3.239-6.249
				c1.372-5.719,7.899-1.274,9.57,4.572c1.158,4.059,0.899,9.754-3.783,10.548C71.034,21.682,65.595,17.205,65.595,17.205z"/>
			<path fill="#E08B51" d="M68,18.886c-1.427-0.876-2.405-1.681-2.405-1.681s-0.543-1.042-0.45-2.516
				c2.438-0.532,5.427-0.221,5.427-0.221L68,18.886z"/>
		</g>
		<path fill="#F4DBC5" d="M71.915,18.997c0,0-3.402-2.271-2.372-5.575c1.214-3.886,0.542-7.941,1.925-9.098
			c1.685-1.411,4.228,1.503,5.181,2.692c1.42,1.763,2.724,5.955,2.294,8.857c-0.305,2.064-0.786,3.657-3.816,4.91
			C72.094,22.039,71.915,18.997,71.915,18.997z"/>
	</g>
	<path opacity="0.3" fill="#E08B51" d="M71.209,18.252c0,0-1.983-1.822-1.252-3.756c0.859-2.275,0.584-4.88,1.456-5.435
		c0.476-0.302,1.306,1.052,1.818,1.503c0.318,0.28,0.341-0.464,0.602-0.12c0.261,0.344,0.193,1.551,0.342,1.788
		c0.16,0.255,0.601-0.304,0.742,0.051c0.121,0.304-0.183,1.146-0.085,1.497c0.077,0.274,0.561,0.049,0.619,0.337
		c0.07,0.351-0.557,0.992-0.522,1.345c0.071,0.707,0.745,1.111,0.628,1.688c-0.25,1.248-0.592,2.183-2.466,2.601
		C71.217,20.168,71.209,18.252,71.209,18.252z"/>
</g>
<path fill="#F6AF7F" d="M52.126,21.27c0,0-2.096-1.946-5.172-1.332c-2.016,0.403-4.834,1.153-7.077,0.919
	c-6.074-0.625-3.264,6.867,2.176,10.339c3.773,2.413,9.546,4.059,11.521,0.004C55.244,27.768,52.126,21.27,52.126,21.27z"/>
<path fill="#E08B51" d="M53.697,25.439c-0.517-1.607-1.571-4.169-1.571-4.169s-0.91-0.845-2.41-1.247
	c-1.143,2.07-1.586,4.934-1.586,4.934L53.697,25.439z"/>
<path fill="#F4DBC5" d="M52.33,27.695c0,0-1.42-3.89-4.991-4.031c-4.199-0.167-8.092-2.129-9.598-1.239
	c-1.838,1.09,0.442,4.4,1.392,5.676c1.413,1.889,5.284,4.48,8.301,5.042c2.142,0.403,3.86,0.486,5.88-1.894
	C55.335,28.863,52.33,27.695,52.33,27.695z"/>
<path opacity="0.3" fill="#E08B51" d="M51.134,26.612c0,0-0.769-2.36-3.017-2.332c-2.642,0.033-5.034-1.054-6.013-0.455
	c-0.703,0.432-0.531,1.294-0.157,2.085c0.261,0.552,1.151,1.11,1.38,1.422c0.224,0.303,0.029,0.59,0.435,0.913
	c0.258,0.205,1.075,0.159,1.381,0.352c0.246,0.155-0.026,0.554,0.239,0.692c0.813,0.423,2.448-0.497,2.486,0.852
	c0.037,1.339,2.418,0.176,3.769-1.362C52.991,27.238,51.134,26.612,51.134,26.612z"/>
<path fill="#E08B51" d="M85.312,63.646c-0.165-1.594-1.345-2.911-2.89-3.97c-14.21,8.399-23.309,2.451-22.159-4.638
	c0.977-6.018,7.87-11.346,17.687-9.754c0.869,0.14,1.578,0.513,2.189,1.008l0.027-0.042c0,0,4.462,3.265,8.012,7.661
	c0.212,0.081,0.34,0.224,0.347,0.441c2.644,3.391,4.661,7.392,3.697,11.074C91.203,69.305,85.794,68.292,85.312,63.646z"/>
<path fill="#F6AF7F" d="M60.764,43.474c0,0-4.397,2.769-10.691,2.095c-11.552-1.24-19.221-0.196-24.537,7.808
	c-7.128,10.727-0.373,32.116,21.73,27.761c32.403-6.385,31.169-42.47,31.169-42.47L60.764,43.474z"/>
<path fill="#F4DBC5" d="M23.349,66.655c0,0-6.795,1.119-11.987-1.082c-0.76-0.322,1.25-0.093,0.448-0.603
	c-0.695-0.442-3.526-1.742-4.24-2.349c-0.423-0.359,1.275,0.032,0.848-0.392c-0.826-0.821-3.133-3.029-3.67-3.961
	c-0.444-0.77,0.839-0.25,0.58-1.065c-0.163-0.514-1.44-3.658-1.534-4.181c-0.115-0.644,0.971,1.332,0.957,0.686
	C4.739,53.2,3.941,50.102,3.989,49.6c0.092-0.95,1.106,0.707,1.398-0.191c1.565-4.816,5.884-8.573,11.628-8.02
	c11.198,1.082,9.81,15.386,2.656,15.552c-6.658,0.149-7.343-5.596-4.022-8.085c0,0-0.647,1.787-0.202,3.152
	c0.303,0.934,1.302,1.696,2.65,1.442c3.629-0.7,3.155-7.192-2.127-7.088c-4.387,0.086-8.116,13.488,7.113,11.864L23.349,66.655z"/>
<path fill="#F6AF7F" d="M27.189,62.692c0,0-9.588,4.544-15.793-1.927C5,54.095,10.121,41.72,19.04,42.374
	c9.303,0.685,7.815,13.204,1.852,13.515c-5.549,0.284-5.986-4.715-3.163-6.964c0,0-0.58,1.575-0.241,2.756
	c0.231,0.808,1.046,1.45,2.174,1.198c3.039-0.695,2.795-6.351-1.608-6.138c-3.657,0.177-7.073,11.963,5.65,10.192L27.189,62.692z"/>
<path fill="#F4DBC5" d="M44.771,73.469c-11.128,2.193-18.361-2.141-21.896-8.354c0.957,9.675,8.898,19.201,24.343,16.158
	c32.403-6.385,31.169-42.47,31.169-42.47l-3.168,0.862C73.387,50.764,66.982,69.092,44.771,73.469z"/>
<path opacity="0.3" fill="#E08B51" d="M53.886,79.24c-2.592-8.237,0.471-11.149,0.471-11.149l6.034,8.03
	C58.406,77.342,56.241,78.405,53.886,79.24z"/>
<path opacity="0.3" fill="#E08B51" d="M43.158,81.714c-2.69,0.092-5.092-0.132-7.226-0.612l0.843-3.49
	c3.198,2.823,7.132,3.62,9.229,3.845C45.098,81.59,44.15,81.68,43.158,81.714z"/>
<path opacity="0.3" fill="#E08B51" d="M75.051,58.353c-6.976-0.799-16.214-4.909-21.834-15.673c1.52,0.033,3.145,0.154,4.878,0.341
	c5.006,0.536,8.502-1.666,8.502-1.666l14.053-3.822C80.649,37.533,81.032,48.714,75.051,58.353z"/>
<path fill="#F6AF7F" d="M24.87,83.251c1.621-0.41,2.908-1.67,3.912-3.21c-9.312-11.164-3.695-20.188,3.611-20.345
	c6.203-0.133,12.001,5.074,10.874,14.012c-0.099,0.791-0.444,1.479-0.919,2.101l0.044,0.017c0,0-3.111,4.483-7.424,8.347
	c-0.072,0.201-0.212,0.337-0.433,0.38c-3.332,2.897-7.319,5.342-11.133,5.1C19.385,89.393,20.145,84.446,24.87,83.251z"/>
<path fill="#F6AF7F" d="M76.903,71.335c-1.379,0.817-3.14,0.654-4.91,0.044c-1.719-16.417-11.917-20.182-16.925-15.035
	c-4.252,4.37-4.424,13.08,2.702,20.017c0.63,0.614,1.352,0.962,2.114,1.158l-0.018,0.047c0,0,5.281,1.639,10.926,1.871
	c0.191,0.122,0.382,0.139,0.561,0.016c4.299,0.103,8.714-0.659,11.097-3.627C84.957,72.696,80.921,68.955,76.903,71.335z"/>
<path fill="#F6AF7F" d="M69.049,15.578c0,0-6.05-0.794-10.733,1.602c-3.265,1.67-6.946,3.955-8.921,8.618
	c-2.688,6.346,0.831,13.782,0.847,17.828c0.042,10.486,13.242,13.337,23.332,8.773c9.945-4.499,18.521-16.235,10.415-24.017
	C79.598,24.166,76.368,16.513,69.049,15.578z"/>
<path fill="#F4DBC5" d="M50.971,46.621c-0.733,5.951,11.766,10.687,22.87,5.613c9.928-4.537,15.662-14.201,12.782-20.751
	C84.173,25.911,51.465,42.605,50.971,46.621z"/>
<ellipse transform="matrix(0.9205 -0.3908 0.3908 0.9205 -9.9644 25.5952)" fill="#F4DBC5" cx="57.903" cy="37.279" rx="7.114" ry="8.659"/>
<ellipse transform="matrix(0.9205 -0.3908 0.3908 0.9205 -5.8328 31.6046)" fill="#F4DBC5" cx="74.733" cy="30.133" rx="6.482" ry="8.659"/>
<g>
	
		<ellipse transform="matrix(-0.9095 0.4158 -0.4158 -0.9095 156.9409 31.5435)" fill="#304454" cx="75.036" cy="32.857" rx="1.43" ry="1.988"/>
	
		<ellipse transform="matrix(-0.9095 0.4158 -0.4158 -0.9095 129.248 50.1469)" fill="#304454" cx="59.165" cy="39.144" rx="1.43" ry="1.988"/>
</g>
<g>
	<g>
		<path fill="#F6AF7F" d="M58.099,18.603c0,0-1.37-4.589-6.235-2.953c0,0,4.65,0.43,5.17,3.193L58.099,18.603z"/>
		<path fill="#F6AF7F" d="M56.736,18.527c0,0-1.661-1.313-3.528-0.826c0,0,2.745,0.28,3.253,1.35L56.736,18.527z"/>
	</g>
	<path fill="#F6AF7F" d="M58.557,18.537c0,0,2.823-3.869-1.425-6.75c0,0,2.473,3.961,0.589,6.048L58.557,18.537z"/>
</g>
<path fill="#C75E72" d="M74.075,42.788c-0.414,1.933-8.729,2.185-7.041,5.318c0.521,1.681,2.982,3.079,4.929,2.829
	c2.161-0.277,3.423-1.978,3.449-4.115C75.424,45.796,74.901,43.351,74.075,42.788z"/>
<path fill="#F4DBC5" d="M77.415,37.02c-1.967-2.082-5.148-2.372-7.105-0.646c-0.906,0.799-3.628,1.738-4.941,1.895
	c-2.596,0.31-4.491,2.868-4.233,5.715c0.258,2.846,2.561,4.404,5.168,4.593c1.05,0.076,3.44-0.469,3.489-3.055
	c1.978,1.877,5.756,0.056,7.64-1.606C79.391,42.19,79.382,39.103,77.415,37.02z"/>
<path fill="#304454" d="M71.104,41.243c0,0-0.146,2.45-1.417,3.107c-0.768,0.396-1.675-0.113-2.753-1.067
	c-1.241-1.101,0.303-2.524,1.151-2.921C68.854,40.002,70.721,39.269,71.104,41.243z"/>
</svg>
