<?xml version="1.0" encoding="utf-8"?>
<!-- Generator: Adobe Illustrator 17.0.0, SVG Export Plug-In . SVG Version: 6.00 Build 0)  -->
<!DOCTYPE svg PUBLIC "-//W3C//DTD SVG 1.1//EN" "http://www.w3.org/Graphics/SVG/1.1/DTD/svg11.dtd">
<svg version="1.1" id="Layer_1" xmlns="http://www.w3.org/2000/svg" xmlns:xlink="http://www.w3.org/1999/xlink" x="0px" y="0px"
	 width="100px" height="100px" viewBox="0 0 100 100" enable-background="new 0 0 100 100" xml:space="preserve">
<path fill="#EAE2C1" d="M79.68,50.94c-0.223-3.493-0.747-6.856-1.527-10.047c-0.356-1.456-0.765-2.876-1.223-4.256
	c-1.414-4.261-3.29-8.141-5.51-11.514c-2.543-3.864-5.531-7.06-8.775-9.411c-3.964-2.874-8.306-4.488-12.683-4.488
	c-5.162,0-10.214,2.246-14.661,6.129c-3.543,3.094-6.7,7.227-9.218,12.115c-0.608,1.18-1.177,2.403-1.706,3.666
	c-1.755,4.184-3.066,8.797-3.795,13.694c-0.165,1.111-0.292,2.241-0.396,3.379c-0.145,1.581-0.23,3.186-0.251,4.811
	c-0.003,0.255-0.014,0.508-0.014,0.764c0,3.014,0.277,5.769,0.782,8.289c3.583,17.867,18.727,23.738,29.258,23.738
	c9.178,0,19.288-4.164,25.072-13.819c1.562-2.608,2.81-5.613,3.637-9.049c0.734-3.049,1.139-6.432,1.139-10.172
	C79.811,53.475,79.76,52.201,79.68,50.94z"/>
<path opacity="0.5" fill="#C9C2A6" d="M66.143,72.649c-12.016,0-30.041-7.64-30.041-32.026c0-10.676,2.785-20.543,7.218-28.264
	c-12.691,4.815-23.218,22.503-23.218,43.257c0,24.387,18.025,32.026,30.041,32.026c10.103,0,21.333-5.047,26.681-16.909
	C73.324,72.033,69.665,72.649,66.143,72.649z"/>
</svg>
