<?xml version="1.0" encoding="utf-8"?>
<!-- Generator: Adobe Illustrator 17.0.0, SVG Export Plug-In . SVG Version: 6.00 Build 0)  -->
<!DOCTYPE svg PUBLIC "-//W3C//DTD SVG 1.1//EN" "http://www.w3.org/Graphics/SVG/1.1/DTD/svg11.dtd">
<svg version="1.1" id="Layer_1" xmlns="http://www.w3.org/2000/svg" xmlns:xlink="http://www.w3.org/1999/xlink" x="0px" y="0px"
	 width="100px" height="100px" viewBox="0 0 100 100" enable-background="new 0 0 100 100" xml:space="preserve">
<path fill="#688DA7" d="M48.054,70.099c-5.49-2.183-6.688-0.864-6.688-0.864s-0.205,0.579-0.477,1.504
	c-0.186,0.631-0.402,1.421-0.606,2.308c-0.214,0.924-0.415,1.948-0.556,2.996c-0.101,0.753-0.169,1.516-0.188,2.263
	c-0.021,0.76,0.011,1.497,0.111,2.188c0.273,1.854,1.047,3.352,2.698,3.891c1.754,0.574,3.487-0.201,5.046-1.547
	c0.469-0.405,0.921-0.861,1.356-1.349c0.512-0.575,0.995-1.192,1.444-1.819c0.446-0.622,0.858-1.251,1.23-1.854
	c0.454-0.741,0.851-1.444,1.172-2.044c0.602-1.132,0.945-1.905,0.945-1.905S53.542,72.284,48.054,70.099z"/>
<path fill="#688DA7" d="M79.152,68.918c-5.57-1.967-6.716-0.602-6.716-0.602s-0.183,0.587-0.417,1.523
	c-0.161,0.637-0.344,1.435-0.516,2.33c-0.177,0.932-0.338,1.964-0.438,3.016c-0.071,0.756-0.109,1.521-0.099,2.268
	c0.01,0.759,0.07,1.496,0.198,2.182c0.344,1.842,1.177,3.309,2.848,3.783c1.775,0.504,3.476-0.338,4.981-1.744
	c0.453-0.423,0.887-0.896,1.302-1.4c0.489-0.596,0.948-1.231,1.374-1.875c0.42-0.638,0.807-1.283,1.154-1.901
	c0.427-0.758,0.794-1.476,1.091-2.088c0.558-1.155,0.87-1.941,0.87-1.941S84.723,70.886,79.152,68.918z"/>
<path fill="#688DA7" d="M59.786,34.049c5.394,2.367,4.247,24.341-6.541,28.809c-10.789,4.468-16.608-32.55-8.904-37.809
	C52.045,19.791,59.786,34.049,59.786,34.049L59.786,34.049z"/>
<g>
	<path fill="#688DA7" d="M79.839,57.858c0,0,9.186-3.967,9.517,0.873c0.329,4.841,1.624,8.247,3.133,8.107
		c1.509-0.142,0.719,1.528,0.719,1.528s-1.828,0.254-3.272-1.71c-1.444-1.964-3.697-5.028-5.352-4.539
		C82.926,62.609,79.839,57.858,79.839,57.858z"/>
	<path fill="#688DA7" d="M91.371,66.999c0.3-0.311,0.29-0.532,0.29-0.532s2.715,0.4,2.836,1.225c0.122,0.825-0.295,2.14,0.841,1.927
		c1.135-0.213-0.202,1.374-0.491,1.699c-0.903,1.018-2.18,0.408-2.259-0.722c-0.078-1.133-1.305-0.665-1.436-1.85
		c-0.131-1.185-0.533-1.33-0.533-1.33S91.07,67.311,91.371,66.999z"/>
</g>
<g>
	<path fill="#BDCCCC" d="M86.737,82.145c1.493-2.12,2.873-6.995,2.987-11.003c0.141-4.938,0.471-15.822-5.498-19.628
		c-5.968-3.804-10.68-7.879-24.815-3.532c-14.137,4.346-11.622,5.162-16.335,9.237c-3.575,3.092-2.446,17.588,1.46,24.293
		c1.391-0.216,3.131-0.383,5.265-0.383c2.014,0,3.921,0.264,5.585,0.618c1.718-2.186,2.139-4.692,2.139-4.692
		s5.029,1.901,11.31,1.086c6.284-0.816,7.541-2.716,7.541-2.716s0.241,4.383,1.498,6.665c1.291-0.172,2.823-0.301,4.67-0.301
		C84.016,81.789,85.429,81.933,86.737,82.145z"/>
	<path fill="#BDCCCC" d="M44.536,81.513c1.242,2.135,2.764,3.486,4.51,3.421c3.075-0.116,5.063-1.565,6.34-3.187
		c-1.664-0.354-3.571-0.618-5.585-0.618C47.668,81.13,45.928,81.297,44.536,81.513z"/>
	<path fill="#BDCCCC" d="M82.544,81.789c-1.846,0-3.379,0.129-4.67,0.301c0.879,1.59,2.148,3.01,3.956,3.234
		c1.408,0.174,3.333-0.945,4.907-3.178C85.429,81.933,84.016,81.789,82.544,81.789z"/>
</g>
<path fill="#BDCCCC" d="M41.109,34.775c0,0,8.734-10.167,21.587-8.962c9.25,0.867,19.524,7.093,17.212,24.728
	C77.594,68.175,63.465,79.97,55.564,73.225c-7.213-6.157-6.648-22.261-7.517-26.019c-0.867-3.758-2.601-6.071-2.601-8.384
	C45.446,36.509,41.109,34.775,41.109,34.775z"/>
<path opacity="0.3" fill="#688DA7" d="M45.735,40.082c0,0,5.807-8.581,14.854-7.733c6.512,0.61,15.549,7.45,13.922,19.863
	c-1.629,12.413-14.532,20.225-18.602,14.934c-4.069-5.291-7.091-15.258-7.701-17.904c-0.61-2.645,0.579-4.684,0.579-6.312
	C48.787,41.302,45.735,40.082,45.735,40.082z"/>
<path fill="#BDCCCC" d="M41.842,33.51c-6.368-0.434-7.211,8.483-11.842,11.94c-9.736,7.268-23.014,1.629-17.455-11.53
	c4.803-11.368,0.339-19.758-4.268-19.238c-3.826,0.433-4.062,2.474-2.938,2.966c0.229,0.1,0.511,0.142,0.833,0.086
	c1.911-0.329-0.913,1.479-1.748,2.639c-0.279,0.389-0.278,0.856-0.046,1.285c0.5,0.923,2.075,1.676,4.279,1.123
	c1.964-0.492,2.957-0.481,3.11,0.49c0.101,0.628-0.147,1.651-0.719,3.21c-0.766,2.084-4.545,8.16-5.789,14.708
	c0.037-0.001,0.071-0.008,0.107-0.008c1.092,0,1.978,0.669,1.978,1.496c0,0.826-0.885,1.495-1.978,1.495
	c-0.164,0-0.321-0.02-0.473-0.048c-0.116,2.093,0.106,4.18,0.84,6.151c0.145-0.127,0.3-0.248,0.475-0.35
	c1.119-0.654,2.427-0.497,2.92,0.348c0.494,0.847-0.011,2.062-1.13,2.716c-0.215,0.125-0.436,0.211-0.656,0.277
	c1.151,1.582,2.756,3.032,4.941,4.274c0.029,0.016,0.056,0.029,0.083,0.044c0.07-0.211,0.156-0.423,0.275-0.629
	c0.685-1.184,1.928-1.748,2.776-1.258c0.849,0.491,0.982,1.848,0.296,3.033c-0.072,0.125-0.154,0.239-0.237,0.35
	c0.317,0.125,0.63,0.244,0.941,0.352c2.275,0.79,4.43,1.304,6.441,1.622c-0.021-0.161-0.034-0.327-0.036-0.496
	c-0.01-1.475,0.753-2.677,1.706-2.684c0.954-0.007,1.737,1.181,1.748,2.658c0.002,0.312-0.036,0.607-0.098,0.886
	c7.543,0.449,13.132-4.65,12.621-0.938c-0.51,3.711,0.263,6.382,5.075,6.04c1.67-0.118,5.347-2.066,7.372-4.787
	C60.947,48.707,48.21,33.944,41.842,33.51z"/>
<path fill="#BDCCCC" d="M7.348,42.677c0-0.827-0.885-1.496-1.978-1.496c-0.036,0-0.07,0.007-0.107,0.008
	c-0.184,0.972-0.312,1.954-0.366,2.935c0.152,0.028,0.309,0.048,0.473,0.048C6.463,44.172,7.348,43.502,7.348,42.677z"/>
<path fill="#BDCCCC" d="M9.132,50.273c-0.494-0.845-1.801-1.002-2.92-0.348c-0.176,0.103-0.33,0.223-0.475,0.35
	c0.387,1.035,0.915,2.036,1.609,2.991c0.22-0.066,0.441-0.153,0.656-0.277C9.121,52.335,9.626,51.12,9.132,50.273z"/>
<path fill="#BDCCCC" d="M15.42,55.697c-0.848-0.49-2.09,0.074-2.776,1.258c-0.118,0.206-0.205,0.418-0.275,0.629
	c1.059,0.597,2.095,1.092,3.109,1.496c0.084-0.111,0.165-0.225,0.237-0.35C16.402,57.545,16.269,56.188,15.42,55.697z"/>
<path fill="#BDCCCC" d="M24.532,57.873c-0.953,0.007-1.716,1.209-1.706,2.684c0.001,0.17,0.015,0.335,0.036,0.496
	c1.156,0.182,2.266,0.301,3.32,0.363c0.063-0.279,0.101-0.574,0.098-0.886C26.269,59.055,25.486,57.866,24.532,57.873z"/>
<path fill="#FFFDFD" stroke="#BDCCCC" stroke-miterlimit="10" d="M41.989,56.544c-1.937-0.618-2.649,1.331-6.604,0.354
	c-5.347-1.32-7.229-5.068-7.71-4.939c-0.48,0.13-0.168,7.299,5.873,9.641c6.04,2.341,7.835,0.979,8.758,0.593
	C43.83,61.556,44.912,57.479,41.989,56.544z"/>
<ellipse fill="#304454" cx="41.109" cy="46.108" rx="1.253" ry="2.082"/>
</svg>
