<?xml version="1.0" encoding="utf-8"?>
<!-- Generator: Adobe Illustrator 17.0.0, SVG Export Plug-In . SVG Version: 6.00 Build 0)  -->
<!DOCTYPE svg PUBLIC "-//W3C//DTD SVG 1.1//EN" "http://www.w3.org/Graphics/SVG/1.1/DTD/svg11.dtd">
<svg version="1.1" id="Layer_1" xmlns="http://www.w3.org/2000/svg" xmlns:xlink="http://www.w3.org/1999/xlink" x="0px" y="0px"
	 width="100px" height="100px" viewBox="0 0 100 100" enable-background="new 0 0 100 100" xml:space="preserve">
<path fill="#FFFFFF" d="M56.368,48.582c0.058,0.159,0.06,0.319,0.03,0.474c-0.059,0.301-0.211,0.6-0.353,0.879
	c2.465,0.328,5.298-0.227,7.827-0.607c3.076-0.547,6.108-1.237,9.102-2.024c-2.944,0.884-5.929,1.677-8.984,2.331
	c-2.637,0.44-5.276,1.197-8.173,0.845c-0.013,0.044-0.036,0.091-0.042,0.132c-0.01,0.064-0.016,0.123-0.01,0.18
	c0.004,0.086,0.047,0.188,0.103,0.297l19.261,3.224l-18.796-2.524c0.23,0.329,0.462,0.684,0.396,1.104
	c-0.023,0.121-0.071,0.228-0.132,0.328c2.455,0.46,4.554,1.589,6.718,2.478c2.81,1.306,5.522,2.73,8.154,4.232
	c-2.701-1.415-5.484-2.753-8.335-3.961c-2.223-0.869-4.662-1.94-7.002-2.26c-0.079,0.063-0.16,0.124-0.24,0.183
	c-0.363,0.259-0.707,0.512-0.799,0.731c-0.024,0.05-0.041,0.108-0.05,0.172c-0.086,0.427,0.145,1.083,0.055,1.652
	c1.219,1.07,2.431,2.431,3.58,3.942c5.615,3.138,12.228,5.422,15.072,5.013c9.492-1.366,3.013-9.603,3.178-10.739
	c0.142-0.96,9.597-8.207,0.693-11.149c-3.032-1.001-11.555-0.462-18.445,1.332c-1.454,1.013-2.925,1.905-4.34,2.599
	C55.337,47.723,56.109,47.983,56.368,48.582z"/>
<path fill="#C75E72" d="M56.368,48.582c0.058,0.159,0.06,0.319,0.03,0.474c-0.059,0.301-0.211,0.6-0.353,0.879
	c2.465,0.328,5.298-0.227,7.827-0.607c3.076-0.547,6.108-1.237,9.102-2.024c-2.944,0.884-5.929,1.677-8.984,2.331
	c-2.637,0.44-5.276,1.197-8.173,0.845c-0.013,0.044-0.036,0.091-0.042,0.132c-0.01,0.064-0.016,0.123-0.01,0.18
	c0.004,0.086,0.047,0.188,0.103,0.297l19.261,3.224l-18.796-2.524c0.23,0.329,0.462,0.684,0.396,1.104
	c-0.023,0.121-0.071,0.228-0.132,0.328c2.455,0.46,4.554,1.589,6.718,2.478c2.81,1.306,5.522,2.73,8.154,4.232
	c-2.701-1.415-5.484-2.753-8.335-3.961c-2.223-0.869-4.662-1.94-7.002-2.26c-0.079,0.063-0.16,0.124-0.24,0.183
	c-0.363,0.259-0.707,0.512-0.799,0.731c-0.024,0.05-0.041,0.108-0.05,0.172c-0.086,0.427,0.145,1.083,0.055,1.652
	c1.219,1.07,2.431,2.431,3.58,3.942c5.615,3.138,12.228,5.422,15.072,5.013c9.492-1.366,3.013-9.603,3.178-10.739
	c0.142-0.96,9.597-8.207,0.693-11.149c-3.032-1.001-11.555-0.462-18.445,1.332c-1.454,1.013-2.925,1.905-4.34,2.599
	C55.337,47.723,56.109,47.983,56.368,48.582z"/>
<path fill="#7A3440" d="M56.333,51.789l18.796,2.524l-19.261-3.224c0.096,0.187,0.246,0.399,0.408,0.618
	C56.295,51.734,56.314,51.762,56.333,51.789z"/>
<path fill="#7A3440" d="M63.99,49.636c3.056-0.654,6.04-1.447,8.984-2.331c-2.993,0.787-6.025,1.476-9.102,2.024
	c-2.529,0.38-5.362,0.935-7.827,0.607c-0.1,0.195-0.18,0.376-0.229,0.545C58.714,50.833,61.354,50.076,63.99,49.636z"/>
<path fill="#7A3440" d="M56.133,53.71c2.34,0.319,4.779,1.391,7.002,2.26c2.851,1.208,5.634,2.546,8.335,3.961
	c-2.633-1.502-5.345-2.927-8.154-4.232c-2.164-0.889-4.263-2.018-6.718-2.478C56.482,53.41,56.314,53.568,56.133,53.71z"/>
<path fill="#FFFFFF" d="M46.811,43.933c0.111,0.016,0.209,0.02,0.292,0.01c0.266-0.027,0.629-0.263,1.008-0.506
	c0.182-0.112,0.372-0.227,0.575-0.312c1.314-2.061,1.616-4.869,2.025-7.316c0.374-2.808,0.583-5.622,0.677-8.433
	c0.026,2.797-0.062,5.604-0.317,8.429c-0.349,2.378-0.371,4.856-1.609,7.217c0.228,0.047,0.42,0.148,0.584,0.282l9.4-15.613
	L50.54,43.826c0.263,0.319,0.514,0.618,0.744,0.713c0.078,0.035,0.173,0.059,0.283,0.075c0.088,0.014,0.188,0.017,0.29,0.02
	c1.146-2.706,3.438-4.45,5.395-6.377c2.246-2.007,4.587-3.893,6.983-5.689c-2.326,1.883-4.594,3.854-6.747,5.928
	c-1.835,1.873-4.039,3.906-4.947,6.135c0.197-0.002,0.395,0.001,0.586,0.026c0.233,0.034,0.469,0.103,0.654,0.26
	c0.448,0.417,0.432,1.065,0.478,1.579c1.445-0.632,3.126-1.183,4.919-1.649c5.665-3.948,11.038-9.709,11.533-12.543
	c1.492-8.568-9.192-5.554-10.34-6.048c-0.97-0.417-5.687-10.769-11.539-4.038c-2.107,2.424-4.297,10.648-4.32,17.34
	c0.589,1.409,1.076,2.809,1.419,4.137C46.248,43.792,46.552,43.899,46.811,43.933z"/>
<path fill="#C75E72" d="M46.811,43.933c0.111,0.016,0.209,0.02,0.292,0.01c0.266-0.027,0.629-0.263,1.008-0.506
	c0.182-0.112,0.372-0.227,0.575-0.312c1.314-2.061,1.616-4.869,2.025-7.316c0.374-2.808,0.583-5.622,0.677-8.433
	c0.026,2.797-0.062,5.604-0.317,8.429c-0.349,2.378-0.371,4.856-1.609,7.217c0.228,0.047,0.42,0.148,0.584,0.282l9.4-15.613
	L50.54,43.826c0.263,0.319,0.514,0.618,0.744,0.713c0.078,0.035,0.173,0.059,0.283,0.075c0.088,0.014,0.188,0.017,0.29,0.02
	c1.146-2.706,3.438-4.45,5.395-6.377c2.246-2.007,4.587-3.893,6.983-5.689c-2.326,1.883-4.594,3.854-6.747,5.928
	c-1.835,1.873-4.039,3.906-4.947,6.135c0.197-0.002,0.395,0.001,0.586,0.026c0.233,0.034,0.469,0.103,0.654,0.26
	c0.448,0.417,0.432,1.065,0.478,1.579c1.445-0.632,3.126-1.183,4.919-1.649c5.665-3.948,11.038-9.709,11.533-12.543
	c1.492-8.568-9.192-5.554-10.34-6.048c-0.97-0.417-5.687-10.769-11.539-4.038c-2.107,2.424-4.297,10.648-4.32,17.34
	c0.589,1.409,1.076,2.809,1.419,4.137C46.248,43.792,46.552,43.899,46.811,43.933z"/>
<path fill="#FFFFFF" d="M54.437,47.118c0.07,0.123,0.219,0.227,0.4,0.328c1.415-0.694,2.886-1.586,4.34-2.599
	c-1.793,0.466-3.474,1.017-4.919,1.649C54.28,46.751,54.317,46.976,54.437,47.118z"/>
<linearGradient id="SVGID_1_" gradientUnits="userSpaceOnUse" x1="39.4395" y1="84.5525" x2="8.3514" y2="84.5525" gradientTransform="matrix(0.9877 0.1564 -0.1564 0.9877 55.3305 -39.7258)">
	<stop  offset="0" style="stop-color:#DF1F26"/>
	<stop  offset="1" style="stop-color:#531210"/>
</linearGradient>
<path fill="url(#SVGID_1_)" d="M54.437,47.118c0.07,0.123,0.219,0.227,0.4,0.328c1.415-0.694,2.886-1.586,4.34-2.599
	c-1.793,0.466-3.474,1.017-4.919,1.649C54.28,46.751,54.317,46.976,54.437,47.118z"/>
<linearGradient id="SVGID_2_" gradientUnits="userSpaceOnUse" x1="14.7258" y1="59.2784" x2="14.7258" y2="88.5725" gradientTransform="matrix(0.9877 0.1564 -0.1564 0.9877 55.3305 -39.7258)">
	<stop  offset="0" style="stop-color:#DF1F26"/>
	<stop  offset="1" style="stop-color:#531210"/>
</linearGradient>
<path fill="url(#SVGID_2_)" d="M54.437,47.118c0.07,0.123,0.219,0.227,0.4,0.328c1.415-0.694,2.886-1.586,4.34-2.599
	c-1.793,0.466-3.474,1.017-4.919,1.649C54.28,46.751,54.317,46.976,54.437,47.118z"/>
<path fill="#7A3440" d="M50.501,43.779c0.014,0.016,0.026,0.031,0.039,0.047l8.904-16.135l-9.4,15.613
	C50.217,43.445,50.362,43.616,50.501,43.779z"/>
<path fill="#7A3440" d="M49.46,43.023c1.238-2.361,1.261-4.839,1.609-7.217c0.256-2.825,0.344-5.632,0.317-8.429
	c-0.094,2.811-0.303,5.626-0.677,8.433c-0.408,2.447-0.711,5.255-2.025,7.316c0.223-0.093,0.462-0.15,0.727-0.118
	C49.43,43.01,49.443,43.019,49.46,43.023z"/>
<path fill="#7A3440" d="M52.54,44.63c0.908-2.228,3.112-4.262,4.947-6.135c2.153-2.074,4.421-4.045,6.747-5.928
	c-2.396,1.797-4.736,3.683-6.983,5.689c-1.956,1.927-4.248,3.671-5.395,6.377C52.068,44.639,52.301,44.632,52.54,44.63z"/>
<path fill="#FFFFFF" d="M39.374,51.342c-0.196-0.292-0.364-0.608-0.307-0.973c0.087-0.45,0.481-0.735,0.837-1
	c0.097-0.069,0.191-0.138,0.281-0.205c-1.689-2.07-4.878-3.302-7.563-4.513c-2.847-1.186-5.749-2.237-8.682-3.186
	c2.958,0.844,5.887,1.786,8.787,2.878c2.72,1.17,5.699,2.025,7.919,4.384c0.019-0.029,0.045-0.059,0.057-0.086
	c0.023-0.052,0.04-0.108,0.053-0.173c0.028-0.147,0.017-0.326-0.004-0.515L26.763,34.651l13.924,12.33
	c0.003-0.057-0.003-0.116,0.006-0.171c0.027-0.152,0.087-0.307,0.193-0.44c0.206-0.227,0.491-0.353,0.792-0.438
	c-2.09-1.769-3.146-4.051-4.454-6.135c-1.421-2.545-2.685-5.138-3.841-7.749c1.266,2.579,2.644,5.135,4.165,7.624
	c1.396,2.132,2.844,4.626,4.883,6.103c0.339-0.057,0.636-0.115,0.795-0.256c0.486-0.309,0.526-1.506,1.378-1.912
	c0.069-0.029,0.141-0.035,0.211-0.048c-0.214-1.217-0.308-2.573-0.304-4.001c-2.458-5.887-6.666-11.891-9.405-13.146
	c-8.569-3.928-8.696,6.169-9.572,7.002c-0.738,0.703-13.109,1.551-7.823,8.653c1.932,2.594,10.129,7.106,17.25,9.155
	C36.499,51.182,37.992,51.217,39.374,51.342z"/>
<path fill="#C75E72" d="M39.374,51.342c-0.196-0.292-0.364-0.608-0.307-0.973c0.087-0.45,0.481-0.735,0.837-1
	c0.097-0.069,0.191-0.138,0.281-0.205c-1.689-2.07-4.878-3.302-7.563-4.513c-2.847-1.186-5.749-2.237-8.682-3.186
	c2.958,0.844,5.887,1.786,8.787,2.878c2.72,1.17,5.699,2.025,7.919,4.384c0.019-0.029,0.045-0.059,0.057-0.086
	c0.023-0.052,0.04-0.108,0.053-0.173c0.028-0.147,0.017-0.326-0.004-0.515L26.763,34.651l13.924,12.33
	c0.003-0.057-0.003-0.116,0.006-0.171c0.027-0.152,0.087-0.307,0.193-0.44c0.206-0.227,0.491-0.353,0.792-0.438
	c-2.09-1.769-3.146-4.051-4.454-6.135c-1.421-2.545-2.685-5.138-3.841-7.749c1.266,2.579,2.644,5.135,4.165,7.624
	c1.396,2.132,2.844,4.626,4.883,6.103c0.339-0.057,0.636-0.115,0.795-0.256c0.486-0.309,0.526-1.506,1.378-1.912
	c0.069-0.029,0.141-0.035,0.211-0.048c-0.214-1.217-0.308-2.573-0.304-4.001c-2.458-5.887-6.666-11.891-9.405-13.146
	c-8.569-3.928-8.696,6.169-9.572,7.002c-0.738,0.703-13.109,1.551-7.823,8.653c1.932,2.594,10.129,7.106,17.25,9.155
	C36.499,51.182,37.992,51.217,39.374,51.342z"/>
<path fill="#FFFFFF" d="M44.814,43.558c0.167-0.032,0.335-0.04,0.499-0.016c0.208,0.031,0.414,0.09,0.616,0.152
	c-0.343-1.329-0.83-2.728-1.419-4.137C44.506,40.985,44.601,42.341,44.814,43.558z"/>
<linearGradient id="SVGID_3_" gradientUnits="userSpaceOnUse" x1="2.7375" y1="59.2768" x2="2.7375" y2="88.5728" gradientTransform="matrix(0.9877 0.1564 -0.1564 0.9877 55.3305 -39.7258)">
	<stop  offset="0" style="stop-color:#DF1F26"/>
	<stop  offset="1" style="stop-color:#531210"/>
</linearGradient>
<path fill="url(#SVGID_3_)" d="M44.814,43.558c0.167-0.032,0.335-0.04,0.499-0.016c0.208,0.031,0.414,0.09,0.616,0.152
	c-0.343-1.329-0.83-2.728-1.419-4.137C44.506,40.985,44.601,42.341,44.814,43.558z"/>
<linearGradient id="SVGID_4_" gradientUnits="userSpaceOnUse" x1="-26.2044" y1="81.9513" x2="5.0073" y2="81.9513" gradientTransform="matrix(0.9877 0.1564 -0.1564 0.9877 55.3305 -39.7258)">
	<stop  offset="0" style="stop-color:#DF1F26"/>
	<stop  offset="1" style="stop-color:#531210"/>
</linearGradient>
<path fill="url(#SVGID_4_)" d="M44.814,43.558c0.167-0.032,0.335-0.04,0.499-0.016c0.208,0.031,0.414,0.09,0.616,0.152
	c-0.343-1.329-0.83-2.728-1.419-4.137C44.506,40.985,44.601,42.341,44.814,43.558z"/>
<path fill="#7A3440" d="M40.687,46.981l-13.924-12.33l13.989,13.303C40.72,47.647,40.67,47.308,40.687,46.981z"/>
<path fill="#7A3440" d="M40.647,48.729c-2.22-2.359-5.199-3.214-7.919-4.384c-2.9-1.093-5.829-2.035-8.787-2.878
	c2.933,0.95,5.835,2,8.682,3.186c2.685,1.211,5.874,2.443,7.563,4.513C40.39,49.012,40.555,48.866,40.647,48.729z"/>
<path fill="#7A3440" d="M37.548,39.672c-1.521-2.488-2.899-5.045-4.165-7.624c1.155,2.611,2.42,5.204,3.841,7.749
	c1.309,2.084,2.364,4.366,4.454,6.135c0.251-0.071,0.512-0.117,0.753-0.158C40.392,44.298,38.943,41.804,37.548,39.672z"/>
<path fill="#FFFFFF" d="M44.509,58.724c-0.078-0.035-0.171-0.06-0.281-0.076c-0.421-0.063-1.022,0.028-1.558-0.042
	c-0.23-0.036-0.463-0.104-0.654-0.258c-0.017-0.016-0.025-0.035-0.041-0.051c-2.278,1.02-4.259,3.035-6.104,4.725
	c-2.132,2.076-4.135,4.242-6.042,6.466c1.802-2.276,3.703-4.502,5.749-6.651c1.856-1.764,3.506-3.79,6.103-5.04
	c-0.062-0.195-0.089-0.402-0.106-0.604l-18.056,7.766L41.5,56.503c-0.027-0.141-0.066-0.266-0.141-0.356
	c-0.142-0.249-0.59-0.419-1.028-0.65c-2.594,1.392-5.447,1.578-8.159,2.078c-3.121,0.431-6.246,0.716-9.354,0.901
	c3.11-0.29,6.229-0.682,9.324-1.217c2.555-0.517,5.476-0.966,7.636-2.128c-0.146-0.127-0.273-0.271-0.35-0.448
	c-0.059-0.159-0.058-0.321-0.029-0.475c0.108-0.565,0.556-1.13,0.621-1.559c0.01-0.064,0.016-0.125,0.009-0.178
	c-0.003-0.073-0.034-0.159-0.076-0.249c-1.523-0.138-3.223-0.492-4.991-1.001c-7.168,0.183-15.303,1.997-17.555,4.034
	c-6.789,6.139,3.817,9.368,4.424,10.375c0.513,0.851-2.415,11.727,6.706,9.387c3.077-0.791,9.53-5.662,13.934-10.715
	c0.58-1.996,1.306-3.895,2.155-5.507C44.586,58.77,44.547,58.74,44.509,58.724z"/>
<path fill="#C75E72" d="M44.509,58.724c-0.078-0.035-0.171-0.06-0.281-0.076c-0.421-0.063-1.022,0.028-1.558-0.042
	c-0.23-0.036-0.463-0.104-0.654-0.258c-0.017-0.016-0.025-0.035-0.041-0.051c-2.278,1.02-4.259,3.035-6.104,4.725
	c-2.132,2.076-4.135,4.242-6.042,6.466c1.802-2.276,3.703-4.502,5.749-6.651c1.856-1.764,3.506-3.79,6.103-5.04
	c-0.062-0.195-0.089-0.402-0.106-0.604l-18.056,7.766L41.5,56.503c-0.027-0.141-0.066-0.266-0.141-0.356
	c-0.142-0.249-0.59-0.419-1.028-0.65c-2.594,1.392-5.447,1.578-8.159,2.078c-3.121,0.431-6.246,0.716-9.354,0.901
	c3.11-0.29,6.229-0.682,9.324-1.217c2.555-0.517,5.476-0.966,7.636-2.128c-0.146-0.127-0.273-0.271-0.35-0.448
	c-0.059-0.159-0.058-0.321-0.029-0.475c0.108-0.565,0.556-1.13,0.621-1.559c0.01-0.064,0.016-0.125,0.009-0.178
	c-0.003-0.073-0.034-0.159-0.076-0.249c-1.523-0.138-3.223-0.492-4.991-1.001c-7.168,0.183-15.303,1.997-17.555,4.034
	c-6.789,6.139,3.817,9.368,4.424,10.375c0.513,0.851-2.415,11.727,6.706,9.387c3.077-0.791,9.53-5.662,13.934-10.715
	c0.58-1.996,1.306-3.895,2.155-5.507C44.586,58.77,44.547,58.74,44.509,58.724z"/>
<path fill="#FFFFFF" d="M39.521,51.555c-0.049-0.069-0.098-0.141-0.146-0.213c-1.382-0.125-2.875-0.161-4.413-0.121
	c1.769,0.509,3.468,0.863,4.991,1.001C39.86,52.025,39.695,51.795,39.521,51.555z"/>
<linearGradient id="SVGID_5_" gradientUnits="userSpaceOnUse" x1="-26.1955" y1="92.8534" x2="5.0074" y2="92.8534" gradientTransform="matrix(0.9877 0.1564 -0.1564 0.9877 55.3305 -39.7258)">
	<stop  offset="0" style="stop-color:#DF1F26"/>
	<stop  offset="1" style="stop-color:#531210"/>
</linearGradient>
<path fill="url(#SVGID_5_)" d="M39.521,51.555c-0.049-0.069-0.098-0.141-0.146-0.213c-1.382-0.125-2.875-0.161-4.413-0.121
	c1.769,0.509,3.468,0.863,4.991,1.001C39.86,52.025,39.695,51.795,39.521,51.555z"/>
<linearGradient id="SVGID_6_" gradientUnits="userSpaceOnUse" x1="-21.6655" y1="108.4843" x2="1.6687" y2="88.9046" gradientTransform="matrix(0.9877 0.1564 -0.1564 0.9877 55.3305 -39.7258)">
	<stop  offset="0" style="stop-color:#DF1F26"/>
	<stop  offset="1" style="stop-color:#531210"/>
</linearGradient>
<path fill="url(#SVGID_6_)" d="M39.521,51.555c-0.049-0.069-0.098-0.141-0.146-0.213c-1.382-0.125-2.875-0.161-4.413-0.121
	c1.769,0.509,3.468,0.863,4.991,1.001C39.86,52.025,39.695,51.795,39.521,51.555z"/>
<path fill="#7A3440" d="M23.517,64.961l18.056-7.766c-0.022-0.251-0.033-0.489-0.072-0.691L23.517,64.961z"/>
<path fill="#7A3440" d="M35.576,62.838c-2.046,2.149-3.946,4.374-5.749,6.651c1.908-2.224,3.911-4.39,6.042-6.466
	c1.846-1.69,3.826-3.705,6.104-4.725c-0.141-0.147-0.236-0.316-0.296-0.499C39.082,59.048,37.433,61.074,35.576,62.838z"/>
<path fill="#7A3440" d="M32.142,57.259c-3.094,0.535-6.213,0.927-9.324,1.217c3.108-0.185,6.233-0.47,9.354-0.901
	c2.712-0.5,5.565-0.687,8.159-2.078c-0.198-0.104-0.39-0.223-0.554-0.366C37.617,56.293,34.696,56.743,32.142,57.259z"/>
<path fill="#FFFFFF" d="M65.932,76.004c0.12-2.947-3.163-10.236-7.253-15.614c-1.695-0.947-3.295-1.97-4.676-3.023
	c-0.55,0.137-1.128,0.156-1.396,0.361c0.15,2.474,1.826,5.042,3.156,7.347c1.527,2.47,3.191,4.86,4.949,7.182
	c-1.846-2.248-3.604-4.567-5.236-6.987c-1.272-2.114-2.876-4.135-3.408-6.713c-0.183,0.413-0.402,0.859-0.852,1.086l2.56,17.558
	l-3.253-17.479c-0.013-0.002-0.025,0-0.038-0.002c-0.538-0.079-1.078-0.336-1.502-0.391c-0.058-0.008-0.104-0.003-0.153-0.003
	c0.906,2.85,0.169,5.524-0.164,8.167c-0.51,2.812-1.174,5.583-1.941,8.304c0.658-2.756,1.207-5.554,1.598-8.375
	c0.276-2.608,0.765-5.575-0.112-7.915c-0.165,0.091-0.343,0.205-0.525,0.32c-0.377,0.235-0.795,0.493-1.299,0.429
	c-0.288-0.046-0.509-0.189-0.702-0.362c-0.802,1.419-1.916,2.921-3.213,4.408c-1.73,5.955-2.174,12.741-0.812,15.143
	c4.375,7.723,11.054-0.381,12.304-0.59C55.02,78.681,65.581,84.552,65.932,76.004z"/>
<path fill="#C75E72" d="M65.932,76.004c0.12-2.947-3.163-10.236-7.253-15.614c-1.695-0.947-3.295-1.97-4.676-3.023
	c-0.55,0.137-1.128,0.156-1.396,0.361c0.15,2.474,1.826,5.042,3.156,7.347c1.527,2.47,3.191,4.86,4.949,7.182
	c-1.846-2.248-3.604-4.567-5.236-6.987c-1.272-2.114-2.876-4.135-3.408-6.713c-0.183,0.413-0.402,0.859-0.852,1.086l2.56,17.558
	l-3.253-17.479c-0.013-0.002-0.025,0-0.038-0.002c-0.538-0.079-1.078-0.336-1.502-0.391c-0.058-0.008-0.104-0.003-0.153-0.003
	c0.906,2.85,0.169,5.524-0.164,8.167c-0.51,2.812-1.174,5.583-1.941,8.304c0.658-2.756,1.207-5.554,1.598-8.375
	c0.276-2.608,0.765-5.575-0.112-7.915c-0.165,0.091-0.343,0.205-0.525,0.32c-0.377,0.235-0.795,0.493-1.299,0.429
	c-0.288-0.046-0.509-0.189-0.702-0.362c-0.802,1.419-1.916,2.921-3.213,4.408c-1.73,5.955-2.174,12.741-0.812,15.143
	c4.375,7.723,11.054-0.381,12.304-0.59C55.02,78.681,65.581,84.552,65.932,76.004z"/>
<path fill="#FFFFFF" d="M55.099,56.448c0,0,0,0.001,0,0.001c-0.025,0.154-0.082,0.307-0.188,0.444
	c-0.232,0.255-0.563,0.388-0.907,0.474c1.381,1.053,2.98,2.076,4.676,3.023C57.529,58.879,56.317,57.518,55.099,56.448z"/>
<linearGradient id="SVGID_7_" gradientUnits="userSpaceOnUse" x1="39.4413" y1="96.6926" x2="8.3512" y2="96.6926" gradientTransform="matrix(0.9877 0.1564 -0.1564 0.9877 55.3305 -39.7258)">
	<stop  offset="0" style="stop-color:#DF1F26"/>
	<stop  offset="1" style="stop-color:#531210"/>
</linearGradient>
<path fill="url(#SVGID_7_)" d="M55.099,56.448c0,0,0,0.001,0,0.001c-0.025,0.154-0.082,0.307-0.188,0.444
	c-0.232,0.255-0.563,0.388-0.907,0.474c1.381,1.053,2.98,2.076,4.676,3.023C57.529,58.879,56.317,57.518,55.099,56.448z"/>
<linearGradient id="SVGID_8_" gradientUnits="userSpaceOnUse" x1="16.4194" y1="122.4577" x2="16.4194" y2="93.367" gradientTransform="matrix(0.9877 0.1564 -0.1564 0.9877 55.3305 -39.7258)">
	<stop  offset="0" style="stop-color:#DF1F26"/>
	<stop  offset="1" style="stop-color:#531210"/>
</linearGradient>
<path fill="url(#SVGID_8_)" d="M55.099,56.448c0,0,0,0.001,0,0.001c-0.025,0.154-0.082,0.307-0.188,0.444
	c-0.232,0.255-0.563,0.388-0.907,0.474c1.381,1.053,2.98,2.076,4.676,3.023C57.529,58.879,56.317,57.518,55.099,56.448z"/>
<path fill="#FFFFFF" d="M45.292,59.485c-0.232-0.284-0.457-0.551-0.667-0.69c-0.85,1.613-1.575,3.512-2.155,5.507
	c1.297-1.487,2.411-2.989,3.213-4.408C45.541,59.767,45.413,59.625,45.292,59.485z"/>
<linearGradient id="SVGID_9_" gradientUnits="userSpaceOnUse" x1="-14.2346" y1="117.3399" x2="9.0992" y2="97.7606" gradientTransform="matrix(0.9877 0.1564 -0.1564 0.9877 55.3305 -39.7258)">
	<stop  offset="0" style="stop-color:#DF1F26"/>
	<stop  offset="1" style="stop-color:#531210"/>
</linearGradient>
<path fill="url(#SVGID_9_)" d="M45.292,59.485c-0.232-0.284-0.457-0.551-0.667-0.69c-0.85,1.613-1.575,3.512-2.155,5.507
	c1.297-1.487,2.411-2.989,3.213-4.408C45.541,59.767,45.413,59.625,45.292,59.485z"/>
<linearGradient id="SVGID_10_" gradientUnits="userSpaceOnUse" x1="4.8094" y1="122.4533" x2="4.8094" y2="93.3678" gradientTransform="matrix(0.9877 0.1564 -0.1564 0.9877 55.3305 -39.7258)">
	<stop  offset="0" style="stop-color:#DF1F26"/>
	<stop  offset="1" style="stop-color:#531210"/>
</linearGradient>
<path fill="url(#SVGID_10_)" d="M45.292,59.485c-0.232-0.284-0.457-0.551-0.667-0.69c-0.85,1.613-1.575,3.512-2.155,5.507
	c1.297-1.487,2.411-2.989,3.213-4.408C45.541,59.767,45.413,59.625,45.292,59.485z"/>
<path fill="#7A3440" d="M50.523,59.722l3.253,17.479l-2.56-17.558c-0.009,0.004-0.015,0.011-0.023,0.016
	C50.972,59.747,50.74,59.751,50.523,59.722z"/>
<path fill="#7A3440" d="M52.067,58.557c0.532,2.578,2.136,4.599,3.408,6.713c1.633,2.42,3.391,4.739,5.236,6.987
	c-1.758-2.322-3.422-4.712-4.949-7.182c-1.33-2.306-3.006-4.874-3.156-7.347c-0.01,0.008-0.024,0.012-0.033,0.02
	C52.353,57.887,52.222,58.21,52.067,58.557z"/>
<path fill="#7A3440" d="M48.209,59.507c0.877,2.341,0.389,5.308,0.112,7.915c-0.391,2.82-0.94,5.618-1.598,8.375
	c0.768-2.72,1.432-5.491,1.941-8.304c0.333-2.643,1.07-5.317,0.164-8.167c-0.046-0.001-0.097-0.009-0.138-0.004
	C48.554,59.337,48.389,59.408,48.209,59.507z"/>
<path fill="#7A3440" d="M54.578,54.73c0.017-0.091,0.042-0.18,0.081-0.267c0.185-0.389,0.59-0.64,0.94-0.898
	c0.357-0.254,0.635-0.506,0.667-0.737c0.05-0.232-0.131-0.546-0.385-0.888c-0.24-0.343-0.542-0.695-0.583-1.115
	c-0.011-0.096-0.001-0.188,0.014-0.279c0.113-0.577,0.561-1.143,0.623-1.559c0.021-0.107,0.015-0.198-0.014-0.274
	c-0.112-0.482-1.357-0.708-1.88-1.368c-0.446-0.72-0.155-1.841-0.58-2.117c-0.092-0.078-0.228-0.127-0.408-0.152
	c-0.422-0.066-1.024,0.028-1.56-0.046c-0.142-0.02-0.28-0.051-0.414-0.109c-0.416-0.191-0.675-0.567-0.953-0.888
	c-0.269-0.329-0.537-0.58-0.788-0.607c-0.25-0.045-0.591,0.119-0.959,0.356c-0.371,0.229-0.75,0.514-1.215,0.578
	c-0.143,0.018-0.286,0.01-0.429-0.01c-0.532-0.081-1.075-0.335-1.495-0.39c-0.184-0.026-0.329-0.017-0.444,0.032
	c-0.496,0.144-0.603,1.289-1.274,1.85c-0.726,0.484-1.983,0.353-2.259,0.779c-0.051,0.064-0.087,0.15-0.107,0.256
	c-0.083,0.413,0.152,1.077,0.062,1.658c-0.017,0.09-0.042,0.181-0.081,0.266c-0.186,0.391-0.591,0.639-0.939,0.899
	c-0.356,0.256-0.637,0.505-0.668,0.738c-0.048,0.229,0.131,0.545,0.383,0.888c0.241,0.344,0.544,0.696,0.586,1.117
	c0.006,0.093,0,0.183-0.016,0.274c-0.11,0.576-0.56,1.142-0.622,1.558c-0.019,0.107-0.015,0.2,0.014,0.278
	c0.112,0.479,1.355,0.707,1.88,1.37c0.446,0.72,0.155,1.839,0.579,2.116c0.092,0.074,0.228,0.123,0.409,0.151
	c0.422,0.063,1.022-0.028,1.558,0.045c0.143,0.021,0.285,0.054,0.415,0.112c0.414,0.188,0.68,0.565,0.951,0.887
	c0.271,0.331,0.539,0.579,0.793,0.608c0.248,0.043,0.59-0.12,0.959-0.358c0.37-0.228,0.748-0.513,1.206-0.579
	c0.146-0.017,0.293-0.011,0.433,0.009c0.536,0.079,1.075,0.336,1.497,0.393c0.184,0.024,0.329,0.016,0.443-0.032
	c0.498-0.143,0.604-1.289,1.276-1.85c0.726-0.484,1.985-0.353,2.256-0.778c0.057-0.067,0.088-0.152,0.109-0.261
	C54.723,55.971,54.486,55.307,54.578,54.73z M50.204,57.251c-0.165,0.066-0.335,0.067-0.497,0.044
	c-0.375-0.055-0.755-0.236-1.05-0.275c-0.074-0.012-0.141-0.015-0.204-0.004c-0.401,0.018-0.93,0.716-1.613,0.653
	c-0.676-0.131-0.936-0.944-1.313-1.073c-0.055-0.021-0.121-0.039-0.198-0.05c-0.296-0.049-0.716,0.016-1.089-0.032
	c-0.166-0.024-0.326-0.073-0.459-0.182c-0.469-0.438-0.208-1.241-0.46-1.541c-0.183-0.323-1.106-0.451-1.351-1.026
	c-0.041-0.109-0.041-0.223-0.022-0.332c0.077-0.396,0.392-0.79,0.436-1.089c0.007-0.046,0.012-0.089,0.008-0.126
	c0.008-0.354-0.744-0.854-0.675-1.47c0.144-0.604,1.032-0.871,1.146-1.209c0.015-0.036,0.025-0.076,0.035-0.122
	c0.06-0.299-0.105-0.763-0.041-1.16c0.019-0.107,0.056-0.215,0.132-0.309c0.434-0.475,1.354-0.34,1.639-0.597
	c0.34-0.215,0.37-1.053,0.965-1.336c0.162-0.066,0.334-0.069,0.498-0.046c0.373,0.057,0.75,0.234,1.048,0.274
	c0.075,0.01,0.147,0.014,0.205,0.009c0.401-0.021,0.93-0.717,1.617-0.656c0.671,0.133,0.934,0.944,1.31,1.072
	c0.054,0.024,0.119,0.041,0.197,0.051c0.293,0.045,0.715-0.02,1.088,0.031c0.166,0.024,0.328,0.073,0.459,0.183
	c0.471,0.437,0.208,1.24,0.46,1.54c0.183,0.323,1.107,0.452,1.354,1.025c0.038,0.112,0.039,0.223,0.021,0.33
	c-0.076,0.396-0.391,0.792-0.437,1.091c-0.008,0.044-0.009,0.085-0.007,0.127c-0.008,0.354,0.743,0.854,0.676,1.47
	c-0.147,0.605-1.031,0.873-1.146,1.21c-0.017,0.037-0.027,0.076-0.037,0.12c-0.058,0.3,0.105,0.762,0.042,1.157
	c-0.019,0.11-0.059,0.216-0.133,0.314c-0.43,0.475-1.353,0.342-1.636,0.599C50.827,56.128,50.799,56.965,50.204,57.251z"/>
<path fill="#FFFFFF" d="M55.099,56.449c0,0,0-0.001,0-0.001c0.09-0.569-0.141-1.225-0.055-1.652c0.009-0.063,0.025-0.122,0.05-0.172
	c0.092-0.219,0.436-0.472,0.799-0.731c0.08-0.059,0.161-0.12,0.24-0.183c0.181-0.142,0.35-0.3,0.465-0.49
	c0.061-0.1,0.108-0.207,0.132-0.328c0.065-0.42-0.166-0.775-0.396-1.104c-0.02-0.027-0.038-0.056-0.057-0.082
	c-0.162-0.219-0.312-0.431-0.408-0.618c-0.056-0.108-0.099-0.211-0.103-0.297c-0.006-0.057,0-0.117,0.01-0.18
	c0.006-0.041,0.029-0.088,0.042-0.132c0.049-0.168,0.129-0.35,0.229-0.545c0.142-0.28,0.294-0.579,0.353-0.879
	c0.029-0.155,0.027-0.315-0.03-0.474c-0.259-0.6-1.031-0.859-1.531-1.137c-0.182-0.101-0.33-0.205-0.4-0.328
	c-0.119-0.142-0.156-0.367-0.179-0.622c-0.046-0.514-0.029-1.162-0.478-1.579c-0.186-0.157-0.421-0.227-0.654-0.26
	c-0.191-0.026-0.389-0.028-0.586-0.026c-0.239,0.002-0.472,0.009-0.683,0.004c-0.103-0.003-0.202-0.006-0.29-0.02
	c-0.11-0.016-0.205-0.04-0.283-0.075c-0.23-0.095-0.481-0.394-0.744-0.713c-0.013-0.016-0.025-0.031-0.039-0.047
	c-0.139-0.163-0.284-0.334-0.457-0.475c-0.164-0.134-0.355-0.235-0.584-0.282c-0.017-0.003-0.03-0.012-0.048-0.015
	c-0.265-0.033-0.504,0.024-0.727,0.118c-0.203,0.085-0.393,0.2-0.575,0.312c-0.379,0.243-0.742,0.479-1.008,0.506
	c-0.083,0.01-0.181,0.006-0.292-0.01c-0.259-0.034-0.562-0.141-0.881-0.238c-0.202-0.062-0.408-0.121-0.616-0.152
	c-0.164-0.024-0.332-0.016-0.499,0.016c-0.07,0.013-0.142,0.019-0.211,0.048c-0.852,0.406-0.892,1.603-1.378,1.912
	c-0.159,0.141-0.456,0.199-0.795,0.256c-0.241,0.041-0.502,0.086-0.753,0.158c-0.301,0.086-0.586,0.212-0.792,0.438
	c-0.106,0.133-0.166,0.288-0.193,0.44c-0.009,0.055-0.003,0.114-0.006,0.171c-0.017,0.327,0.033,0.666,0.065,0.973
	c0.021,0.189,0.032,0.368,0.004,0.515c-0.013,0.065-0.03,0.121-0.053,0.173c-0.012,0.028-0.038,0.058-0.057,0.086
	c-0.092,0.138-0.257,0.284-0.461,0.437c-0.09,0.067-0.184,0.136-0.281,0.205c-0.355,0.265-0.75,0.549-0.837,1
	c-0.058,0.365,0.11,0.681,0.307,0.973c0.049,0.072,0.098,0.144,0.146,0.213c0.175,0.239,0.34,0.469,0.432,0.667
	c0.042,0.09,0.073,0.176,0.076,0.249c0.007,0.054,0.001,0.114-0.009,0.178c-0.065,0.429-0.514,0.994-0.621,1.559
	c-0.028,0.153-0.029,0.315,0.029,0.475c0.076,0.177,0.203,0.321,0.35,0.448c0.164,0.143,0.356,0.262,0.554,0.366
	c0.438,0.231,0.887,0.401,1.028,0.65c0.074,0.089,0.113,0.215,0.141,0.356c0.039,0.202,0.05,0.44,0.072,0.691
	c0.017,0.202,0.045,0.409,0.106,0.604c0.06,0.183,0.155,0.353,0.296,0.499c0.016,0.016,0.024,0.035,0.041,0.051
	c0.191,0.154,0.424,0.222,0.654,0.258c0.535,0.07,1.137-0.021,1.558,0.042c0.11,0.016,0.203,0.042,0.281,0.076
	c0.038,0.016,0.077,0.045,0.116,0.071c0.21,0.14,0.435,0.406,0.667,0.69c0.121,0.14,0.249,0.281,0.391,0.409
	c0.193,0.173,0.414,0.316,0.702,0.362c0.504,0.064,0.922-0.194,1.299-0.429c0.183-0.116,0.36-0.229,0.525-0.32
	c0.18-0.099,0.345-0.17,0.482-0.185c0.041-0.006,0.092,0.003,0.138,0.004c0.05,0,0.096-0.005,0.153,0.003
	c0.424,0.055,0.964,0.312,1.502,0.391c0.013,0.002,0.025,0,0.038,0.002c0.218,0.029,0.449,0.025,0.67-0.063
	c0.009-0.004,0.015-0.011,0.023-0.016c0.449-0.227,0.669-0.673,0.852-1.086c0.154-0.347,0.285-0.67,0.506-0.809
	c0.009-0.008,0.023-0.012,0.033-0.02c0.269-0.205,0.847-0.225,1.396-0.361c0.344-0.086,0.675-0.218,0.907-0.474
	C55.017,56.756,55.073,56.603,55.099,56.449z M54.529,56.645c-0.271,0.425-1.53,0.294-2.256,0.778
	c-0.672,0.561-0.778,1.707-1.276,1.85c-0.114,0.048-0.26,0.056-0.443,0.032c-0.422-0.057-0.961-0.314-1.497-0.393
	c-0.14-0.02-0.286-0.026-0.433-0.009c-0.458,0.066-0.836,0.35-1.206,0.579c-0.369,0.239-0.711,0.402-0.959,0.358
	c-0.254-0.03-0.522-0.278-0.793-0.608c-0.272-0.321-0.537-0.699-0.951-0.887c-0.13-0.058-0.272-0.091-0.415-0.112
	c-0.535-0.073-1.136,0.018-1.558-0.045c-0.181-0.028-0.317-0.077-0.409-0.151c-0.424-0.277-0.133-1.396-0.579-2.116
	c-0.524-0.663-1.768-0.891-1.88-1.37c-0.028-0.078-0.033-0.17-0.014-0.278c0.062-0.417,0.512-0.982,0.622-1.558
	c0.016-0.091,0.021-0.181,0.016-0.274c-0.042-0.421-0.345-0.774-0.586-1.117c-0.252-0.342-0.431-0.659-0.383-0.888
	c0.031-0.232,0.312-0.482,0.668-0.738c0.349-0.26,0.754-0.508,0.939-0.899c0.039-0.085,0.064-0.176,0.081-0.266
	c0.091-0.581-0.145-1.245-0.062-1.658c0.021-0.106,0.057-0.191,0.107-0.256c0.275-0.425,1.533-0.294,2.259-0.779
	c0.672-0.561,0.778-1.706,1.274-1.85c0.115-0.049,0.261-0.058,0.444-0.032c0.42,0.055,0.963,0.31,1.495,0.39
	c0.143,0.02,0.286,0.028,0.429,0.01c0.465-0.064,0.844-0.35,1.215-0.578c0.368-0.237,0.709-0.401,0.959-0.356
	c0.251,0.026,0.52,0.277,0.788,0.607c0.278,0.321,0.537,0.697,0.953,0.888c0.134,0.058,0.271,0.09,0.414,0.109
	c0.535,0.074,1.138-0.021,1.56,0.046c0.181,0.025,0.316,0.074,0.408,0.152c0.425,0.276,0.134,1.397,0.58,2.117
	c0.522,0.66,1.768,0.886,1.88,1.368c0.028,0.077,0.034,0.168,0.014,0.274c-0.062,0.415-0.51,0.981-0.623,1.559
	c-0.015,0.091-0.024,0.183-0.014,0.279c0.041,0.419,0.343,0.771,0.583,1.115c0.254,0.342,0.435,0.656,0.385,0.888
	c-0.032,0.23-0.31,0.482-0.667,0.737c-0.351,0.258-0.756,0.509-0.94,0.898c-0.039,0.086-0.064,0.175-0.081,0.267
	c-0.092,0.578,0.145,1.241,0.061,1.654C54.617,56.492,54.586,56.578,54.529,56.645z"/>
<path fill="#EEC65E" d="M52.807,55.316c0.074-0.098,0.114-0.204,0.133-0.314c0.063-0.394-0.1-0.857-0.042-1.157
	c0.01-0.044,0.021-0.083,0.037-0.12c0.115-0.338,0.999-0.605,1.146-1.21c0.067-0.616-0.684-1.116-0.676-1.47
	c-0.002-0.042-0.001-0.083,0.007-0.127c0.046-0.3,0.36-0.695,0.437-1.091c0.019-0.107,0.018-0.218-0.021-0.33
	c-0.246-0.573-1.171-0.702-1.354-1.025c-0.252-0.299,0.011-1.103-0.46-1.54c-0.131-0.11-0.293-0.159-0.459-0.183
	c-0.373-0.051-0.795,0.014-1.088-0.031c-0.078-0.01-0.144-0.027-0.197-0.051c-0.376-0.127-0.64-0.939-1.31-1.072
	c-0.688-0.06-1.216,0.636-1.617,0.656c-0.058,0.005-0.13,0.002-0.205-0.009c-0.298-0.04-0.675-0.217-1.048-0.274
	c-0.164-0.022-0.336-0.02-0.498,0.046c-0.595,0.284-0.625,1.121-0.965,1.336c-0.284,0.257-1.204,0.123-1.639,0.597
	c-0.076,0.094-0.113,0.202-0.132,0.309c-0.064,0.398,0.101,0.861,0.041,1.16c-0.01,0.046-0.021,0.086-0.035,0.122
	c-0.114,0.338-1.002,0.605-1.146,1.209c-0.069,0.616,0.683,1.116,0.675,1.47c0.004,0.037-0.001,0.08-0.008,0.126
	c-0.044,0.3-0.358,0.693-0.436,1.089c-0.019,0.109-0.019,0.223,0.022,0.332c0.245,0.575,1.168,0.703,1.351,1.026
	c0.252,0.3-0.009,1.103,0.46,1.541c0.133,0.108,0.293,0.157,0.459,0.182c0.373,0.047,0.793-0.017,1.089,0.032
	c0.077,0.011,0.144,0.029,0.198,0.05c0.377,0.129,0.638,0.941,1.313,1.073c0.684,0.062,1.212-0.635,1.613-0.653
	c0.063-0.01,0.13-0.008,0.204,0.004c0.295,0.039,0.675,0.22,1.05,0.275c0.162,0.023,0.332,0.022,0.497-0.044
	c0.595-0.286,0.623-1.123,0.967-1.336C51.454,55.658,52.377,55.791,52.807,55.316z"/>
</svg>
