<?xml version="1.0" encoding="utf-8"?>
<!-- Generator: Adobe Illustrator 17.0.0, SVG Export Plug-In . SVG Version: 6.00 Build 0)  -->
<!DOCTYPE svg PUBLIC "-//W3C//DTD SVG 1.1//EN" "http://www.w3.org/Graphics/SVG/1.1/DTD/svg11.dtd">
<svg version="1.1" id="Layer_1" xmlns="http://www.w3.org/2000/svg" xmlns:xlink="http://www.w3.org/1999/xlink" x="0px" y="0px"
	 width="100px" height="100px" viewBox="0 0 100 100" enable-background="new 0 0 100 100" xml:space="preserve">
<path fill="#D78334" d="M52.549,74.156c1.361,1.231,8.829,3.007,13.49-3.028c3.035-3.931-4.037-1.897-5.654-2.124
	c-1.662-0.236-2.973-3.137-6.042-2.41C51.024,67.381,49.601,71.489,52.549,74.156z"/>
<path fill="#D78334" d="M59.656,78.848c0,0,2.079-2.695,2.85-2.08c0.47,0.377-0.307,5.316-1.078,6.857
	c-0.771,1.54-3.697-0.309-3.697-0.309L59.656,78.848z"/>
<path fill="#F89C44" d="M43.515,77.708c0,0-10.047-3.315-11.623-13.096C29.943,52.533,15.45,55.334,11.67,58.28
	c0,0,7.951,3.812,8.518,14.846c0.469,9.175,14.314,14.028,22.024,6.461L43.515,77.708z"/>
<path fill="#F4953F" d="M47.48,66.827c0,0-10.695,11.178-8.107,17.832c2.323,5.968,17.539,6.779,21.664,6.042
	c2.051-0.367,5.012-11.237,3.389-11.79c-1.457-0.496-3.242,2.21-3.242,2.21S58.28,66.26,52.385,65.817
	C46.492,65.376,47.48,66.827,47.48,66.827z"/>
<radialGradient id="SVGID_1_" cx="-102.7788" cy="-280.0366" r="13.6298" gradientTransform="matrix(1 0 0 1 156.5614 350.093)" gradientUnits="userSpaceOnUse">
	<stop  offset="0" style="stop-color:#FEE6D3"/>
	<stop  offset="0.2916" style="stop-color:#FEE4D0"/>
	<stop  offset="0.5223" style="stop-color:#FEDEC6"/>
	<stop  offset="0.732" style="stop-color:#FDD3B6"/>
	<stop  offset="0.9283" style="stop-color:#FCC4A0"/>
	<stop  offset="1" style="stop-color:#FBBD97"/>
</radialGradient>
<path fill="url(#SVGID_1_)" d="M61.184,81.122c0,0-2.855-14.591-8.644-15.281l0.625,6.021
	C53.165,71.863,56.918,80.143,61.184,81.122z"/>
<path fill="#D14E3F" d="M53.27,66.006c-1.727-0.142-3.917-0.342-5.463,1.045c-2.54,2.276-1.825,6.565,2.039,7.499
	c1.083,0.262,5.4-0.574,8.396-2.696C56.989,69.124,55.333,66.689,53.27,66.006z"/>
<path fill="#FEDCBD" d="M53.238,66.003c-0.222-0.019-0.452-0.036-0.685-0.053l0.613,5.912c0,0,0.372,0.821,1.013,1.974
	c1.368-0.449,2.824-1.106,4.06-1.982C56.98,69.115,55.315,66.67,53.238,66.003z"/>
<radialGradient id="SVGID_2_" cx="-208.0086" cy="-437.5453" r="54.8934" gradientTransform="matrix(0.748 0 0 0.748 203.9988 352.5419)" gradientUnits="userSpaceOnUse">
	<stop  offset="0" style="stop-color:#FFE600"/>
	<stop  offset="0.2916" style="stop-color:#FFE400"/>
	<stop  offset="0.5223" style="stop-color:#FFDD00"/>
	<stop  offset="0.732" style="stop-color:#FFD100"/>
	<stop  offset="0.9283" style="stop-color:#FEC00F"/>
	<stop  offset="1" style="stop-color:#FDB913"/>
</radialGradient>
<path fill="url(#SVGID_2_)" d="M38.213,26.524c0,0,7.302-5.441,16.036-4.438c0,0,3.327-8.366,8.769-10.229
	c0,0,3.654,6.456,3.776,12.424c0,0,11.081,14.7,11.939,22.003c0,0,7.159-0.143,8.733-1.002c0,0,2.733-1.167,0.685,1.357
	c-3.414,4.207-13.498,13.444-23.163,17.114c-11.726,4.451-22.336,6.298-30.069,0c-7.331-5.974-6.586-26.347-6.586-26.347
	s-4.152-8.447-4.295-14.747C28.668,21.481,38.213,26.524,38.213,26.524z"/>
<path fill="#F89C44" d="M38.213,26.524c0,0,7.649-5.854,16.383-4.852c0,0,2.98-7.953,8.421-9.815c0,0,3.654,6.456,3.776,12.424
	c0,0,11.081,14.7,11.939,22.003c0,0,7.159-0.143,8.733-1.002c0,0,2.733-1.167,0.685,1.357c-3.414,4.207-13.498,13.444-23.163,17.114
	c-11.726,4.451-22.336,6.298-30.069,0c-7.331-5.974-6.586-26.347-6.586-26.347s-4.152-8.447-4.295-14.747
	C28.668,21.481,38.213,26.524,38.213,26.524z"/>
<path fill="#F4DBC5" d="M27.2,57.26l-0.204,2.641l-2.21-0.442v2.358L22.28,61.67v2.359l-2.652-0.296l-0.963,2.53
	c-2.466-5.809-6.994-7.983-6.994-7.983C14.286,56.241,22.031,54.276,27.2,57.26z"/>
<path fill="#F4953F" d="M47.215,74.156c1.361,1.231,8.829,3.007,13.49-3.028c3.035-3.931-4.037-1.897-5.654-2.124
	c-1.662-0.236-2.973-3.137-6.042-2.41C45.69,67.381,44.267,71.489,47.215,74.156z"/>
<path fill="#F4DBC5" d="M58.126,21.908c0,0,5.115,0.325,8.669,2.373c-0.123-5.968-3.776-12.424-3.776-12.424
	S57.892,16.017,58.126,21.908z"/>
<ellipse fill="#304454" cx="56.862" cy="48.018" rx="1.389" ry="2.308"/>
<ellipse transform="matrix(0.9832 -0.1828 0.1828 0.9832 -6.7452 13.5049)" fill="#304454" cx="69.897" cy="43.348" rx="1.041" ry="2.308"/>
<g opacity="0.5">
	<path fill="#D78334" d="M59.782,14.664c0,0,0.192-0.512,0.566-1.303c-0.483,0.381-0.934,0.804-1.359,1.249
		C59.254,14.628,59.516,14.633,59.782,14.664z"/>
	<path fill="#D78334" d="M87.973,45.106c-4.717,4.26-11.345,9.187-17.798,11.637c-11.726,4.451-22.336,6.298-30.069,0
		c-7.331-5.974-6.586-26.347-6.586-26.347s-1.527-3.115-2.761-6.968c-2.419-0.75-4.934-1.224-6.72-0.77
		c0.143,6.3,4.295,14.747,4.295,14.747s-0.745,20.373,6.586,26.347c7.733,6.298,18.343,4.451,30.069,0
		c9.665-3.67,19.75-12.906,23.163-17.114C89.607,44.844,88.65,44.915,87.973,45.106z"/>
</g>
<path fill="none" stroke="#414042" stroke-width="0.5" stroke-linecap="round" stroke-linejoin="round" d="M43.658,65.497
	c0,0-2.485,1.356-3.615,3.05"/>
<path fill="none" stroke="#414042" stroke-width="0.5" stroke-linecap="round" stroke-linejoin="round" d="M41.512,64.82
	c0,0-2.824,0.791-3.84,1.694"/>
<path fill="#F4DBC5" d="M24.161,22.943c-0.037,0.084-0.067,0.17-0.1,0.254c0.353,6.233,4.272,14.209,4.272,14.209
	c1.98-4.294,6.669-7.642,6.669-7.642C32.08,25.988,24.161,22.943,24.161,22.943z"/>
<ellipse fill="#304454" cx="87.469" cy="45.711" rx="2.792" ry="2.363"/>
</svg>
