<?xml version="1.0" encoding="utf-8"?>
<!-- Generator: Adobe Illustrator 17.0.0, SVG Export Plug-In . SVG Version: 6.00 Build 0)  -->
<!DOCTYPE svg PUBLIC "-//W3C//DTD SVG 1.1//EN" "http://www.w3.org/Graphics/SVG/1.1/DTD/svg11.dtd">
<svg version="1.1" id="Layer_1" xmlns="http://www.w3.org/2000/svg" xmlns:xlink="http://www.w3.org/1999/xlink" x="0px" y="0px"
	 width="100px" height="100px" viewBox="0 0 100 100" enable-background="new 0 0 100 100" xml:space="preserve">
<path fill="#F89C44" d="M85.426,72.409c-0.662,1.502-2.209,1.758-2.53,1.843c-15.059,3.998-44.051,3.587-64.593,0
	c-0.327-0.057-2.318,0.258-3.091-2.344c-0.773-2.602-2.051-9.538-2.051-9.538c0-0.307,0.288-0.554,0.643-0.554h73.247
	c0.356,0,0.644,0.247,0.644,0.554C87.695,62.371,86.088,70.908,85.426,72.409z"/>
<g>
	<g>
		<g>
			<path fill="#563F32" d="M88.375,54.535c-0.214,0.536-0.31,0.505-0.645,0.817c-0.34-0.238-0.728,0.758-1.15,0.675
				c-0.478,0.963-0.981-0.091-1.504,0.59c-0.522,0.548-1.059,0.625-1.597,0.469c-1.293,0.525-2.622,0.713-3.968,0.858
				c-1.345,0.03-2.708,0.435-4.067,0.605c-2.944,0.369-5.908,0.641-8.882,0.841c-1.487,0.1-2.976,0.182-4.466,0.248
				c-1.49-0.051-2.982,0.543-4.472,0.155c-1.607,0.284-3.213,0.291-4.819,0.077c-1.607,0.01-3.214,0.004-4.819-0.017
				c-3.211-0.043-6.417-0.149-9.613-0.318c-3.003-0.159-6.017-0.367-9.005-0.667c-1.494-0.15-2.981-0.324-4.457-0.527
				c-1.475-0.287-2.94-0.245-4.386-0.703c-0.92,0.086-1.836-0.342-2.738-0.568c-0.902,0.339-1.784-0.582-2.637-0.735
				c-0.71-0.509-1.631-0.551-2.368-0.966c-0.738-0.416-1.292-0.927-1.27-1.546c-0.01,0.276-1.828,2.64-0.403,7.079
				c0.145,0.451,0.675,0.584,1.133,1.323c0.458,0.278,1.059,0.5,1.61,1.064c0.573-0.015,1.202,0.32,1.864,0.41
				c0.663-0.258,1.358,0.039,2.062,0.636c0.706,0.054,1.421-0.055,2.123,0.28c0.702,0.192,1.391,0.402,2.045,0.393
				c1.294,0.509,2.577-0.113,3.854,0.692c1.279-0.066,2.553,0.457,3.833,0.665c2.56,0.416,5.141,0.758,7.814,0.916
				c2.097,0.124,4.119,0.205,6.064,0.251c1.944,0.046,3.815-0.889,5.605,0.041c1.791,0.257,3.506,0.256,5.143-0.123
				c1.638-0.109,3.197,0.086,4.68-0.238c1.482,0.231,2.886,0.203,4.213-0.306c1.326-0.027,2.574-0.612,3.743-0.327
				c1.17-0.429,2.259-0.211,3.271-0.303c1.487-0.134,2.968-0.253,4.439-0.393c1.471-0.358,2.929-0.462,4.372-0.523
				c1.442,0.222,2.87-0.659,4.273-0.879c0.749-0.285,1.532,0.023,2.265-0.713c0.732-0.203,1.411-0.854,1.95-1.034
				c0.453-0.377,0.438-0.48,0.728-1.211c0.479-0.962,1.279-2.413,1.206-4.065c-0.074-1.037-0.596-2.752-1.009-3.183
				C88.368,54.485,88.396,54.589,88.375,54.535"/>
			<g>
				<path fill="#793C2D" d="M36.844,48.538c6.68-0.337,13.386-0.37,20.056-0.133c6.286,0.222,12.59,0.661,18.731,1.564
					c2.793,0.411,5.596,0.91,8.211,1.694c1.184,0.355,2.375,0.771,3.345,1.362c0.697,0.424,1.348,1.014,1.215,1.701
					c-0.153,0.789-1.198,1.375-2.11,1.781c-0.995,0.444-2.09,0.777-3.193,1.065c-2.62,0.682-5.368,1.118-8.107,1.469
					c-6.2,0.793-12.516,1.127-18.792,1.249c-6.619,0.128-13.249-0.007-19.823-0.441c-6.027-0.397-12.173-0.975-17.907-2.299
					c-1.245-0.288-2.475-0.616-3.637-1.035c-1.067-0.385-2.196-0.859-2.877-1.559c-1.465-1.505,1.134-2.737,2.886-3.343
					c3.197-1.106,6.814-1.649,10.291-2.087C29.01,49.036,32.927,48.736,36.844,48.538"/>
			</g>
		</g>
	</g>
</g>
<path fill="#FFD96E" d="M63.538,55.206l-0.352,4.78c0,0,12.081,1.511,13.431,2.003c1.35,0.491,3.813,2.985,4.693,4.025
	c0.879,1.039,4.927-4.365,5.631-7.275c0.703-2.909,0-3.533-1.408-4.78C84.124,52.712,64.945,53.751,63.538,55.206z"/>
<path fill="#FFD96E" d="M23.244,58.767c0,0,1.232,3.506,4.751,8.086c2.932,3.818,6.371,1.195,7.39-0.008
	c3.168-3.741,19.883-6.056,20.939-7.629c1.055-1.572-35.543-8.311-35.894-5.84C20.077,55.847,23.244,58.767,23.244,58.767z"/>
<g>
	<path fill="#E95946" d="M86.509,53.482c-0.12,0.283-0.176,0.538-0.362,0.787c-0.189,0.244-0.404,0.452-0.637,0.636
		c-0.528,0.414-1.118,0.713-1.712,0.968c-1.427,0.606-2.93,0.978-4.426,1.25c-3.239,0.588-6.522,0.798-9.797,0.812
		c-3.529,0.015-7.063-0.215-10.569-0.695c-3.294-0.451-6.614-1.088-9.783-2.269c-1.007-0.375-2.009-0.811-2.94-1.402
		c-0.776-0.489-2.01-1.334-1.975-2.547c-0.031,1.083-0.005,1.802-0.037,2.886c-0.028,0.947,0.675,2.042,1.276,2.516
		c1.249,0.986,2.997,1.367,4.428,1.871c2.835,1.005,5.559,2.153,8.491,2.586c8.054,1.186,14.082,0.229,17.976-0.235
		c2.454-0.292,4.877-0.446,7.202-1.46c0.826-0.366,1.73-0.821,2.33-1.618c0.252-0.352,0.248-0.751,0.411-1.171
		c0.538-1.392,0.099-2.078,0.147-3.118C86.528,53.346,86.521,53.414,86.509,53.482"/>
	<g>
		<path fill="#D14E3F" d="M58.268,46.414c3.671-0.171,7.354-0.054,11.014,0.317c3.449,0.349,6.907,0.902,10.271,1.889
			c1.53,0.45,3.064,0.983,4.493,1.781c0.647,0.361,1.297,0.78,1.824,1.359c0.379,0.416,0.731,0.987,0.652,1.632
			c-0.091,0.742-0.671,1.271-1.175,1.636c-0.55,0.397-1.155,0.687-1.763,0.934c-1.445,0.587-2.958,0.937-4.465,1.207
			c-3.412,0.612-6.883,0.788-10.33,0.765c-3.636-0.025-7.275-0.299-10.881-0.854c-3.306-0.508-6.675-1.189-9.812-2.565
			c-0.68-0.299-1.353-0.636-1.987-1.058c-0.583-0.387-1.198-0.859-1.566-1.535c-0.79-1.453,0.648-2.559,1.615-3.092
			c1.766-0.973,3.757-1.406,5.67-1.743C53.961,46.711,56.115,46.514,58.268,46.414"/>
	</g>
</g>
<g>
	<path fill="#E95946" d="M59.587,54.313c-0.12,0.284-0.175,0.538-0.361,0.787c-0.19,0.244-0.404,0.453-0.637,0.636
		c-0.528,0.414-1.119,0.714-1.713,0.968c-1.426,0.606-2.929,0.978-4.425,1.25c-3.239,0.587-6.521,0.798-9.797,0.812
		c-3.529,0.015-7.063-0.215-10.569-0.695c-3.295-0.451-6.615-1.087-9.783-2.269c-1.006-0.375-2.008-0.811-2.939-1.403
		c-0.776-0.489-2.01-1.334-1.975-2.547c-0.032,1.084-0.005,1.803-0.038,2.886c-0.027,0.947,0.675,2.043,1.276,2.517
		c1.25,0.986,2.998,1.367,4.429,1.871c2.834,1.006,5.559,2.153,8.49,2.586c8.055,1.186,14.082,0.229,17.977-0.235
		c2.453-0.292,4.877-0.446,7.201-1.461c0.826-0.365,1.731-0.821,2.33-1.618c0.252-0.352,0.248-0.751,0.411-1.171
		c0.538-1.392,0.098-2.078,0.147-3.118C59.607,54.178,59.6,54.245,59.587,54.313"/>
	<g>
		<path fill="#D14E3F" d="M31.347,47.246c3.671-0.171,7.354-0.054,11.014,0.317c3.45,0.349,6.908,0.902,10.271,1.89
			c1.53,0.449,3.065,0.983,4.493,1.78c0.647,0.361,1.298,0.78,1.824,1.36c0.378,0.416,0.731,0.986,0.652,1.631
			c-0.091,0.741-0.67,1.271-1.174,1.635c-0.551,0.397-1.156,0.687-1.764,0.934c-1.445,0.587-2.957,0.937-4.465,1.208
			c-3.412,0.612-6.883,0.788-10.33,0.764c-3.635-0.025-7.276-0.299-10.881-0.853c-3.306-0.509-6.675-1.189-9.812-2.565
			c-0.681-0.299-1.353-0.636-1.987-1.058c-0.582-0.387-1.197-0.859-1.565-1.535c-0.791-1.453,0.648-2.558,1.615-3.092
			c1.766-0.973,3.757-1.406,5.671-1.743C27.04,47.542,29.194,47.346,31.347,47.246"/>
	</g>
</g>
<path fill="#5F823E" d="M22.63,59.61c0,0,3.189-5.193,5.059-4.039c1.869,1.154-4.509-2.885-4.509-2.885l-2.309,2.501L22.63,59.61z"
	/>
<path fill="#5F823E" d="M45.291,52.02c0,0,1.159,2.47,1.928,2.45c0.77-0.021,7.528-2.701,8.628-2.73
	c1.099-0.029-6.437-2.33-7.431-2.496C47.422,49.078,45.291,52.02,45.291,52.02z"/>
<g>
	<path fill="#5F823E" d="M54.353,55.437c0,0-1.1,1.661-1.869,1.661c-0.77,0-7.589-1.661-8.688-1.661c-1.1,0,6.378-1.661,7.368-1.788
		C52.154,53.521,54.353,55.437,54.353,55.437z"/>
	<path fill="#A9BC65" d="M14.612,47.98c0,0-4.839,1.533-3.959,2.811c0.88,1.278,2.31,2.939,3.079,1.278
		c0.77-1.661,0.44-2.044,0.77-1.661c0.33,0.383,0,2.683,0.77,2.939c0.77,0.256,0.44-1.149,1.54-1.405c1.1-0.256,3.079-0.639,2.859,0
		c-0.22,0.639,0.55,7.155,1.98,6.899c1.43-0.256,2.86,0.383,3.52-0.383c0.66-0.767,1.759-0.894,1.649-1.789
		c-0.11-0.895-1.649-2.044-1.1-2.428c0.55-0.383,1.21-0.894,1.979-0.128c0.77,0.766,1.43,2.3,2.42,2.172
		c0.99-0.128,1.43,0.128,2.529,0c1.099-0.128,3.189,0.767,3.849-0.128c0.66-0.894,2.749-1.917,3.189-1.278
		c0.44,0.639,0.88,2.939,0.88,2.939s2.749,0.894,4.839-0.255c2.09-1.15,1.1-2.683,3.519-2.556c2.419,0.128,1.65,0.256,3.519-0.128
		c1.869-0.383,2.2-0.639,2.75,0.256c0.549,0.894,1.209,1.661,2.199,1.405c0.99-0.255,3.41,0.511,3.63-1.405
		c0.22-1.916,2.419-3.322-1.1-4.855c-3.52-1.533-14.517-2.939-16.827-3.322C40.788,46.575,15.712,46.575,14.612,47.98z"/>
	<path fill="#5F823E" d="M77.09,54.423c0,0-3.312-3.392-5.153-2.593c-1.842,0.8,4.44-1.995,4.44-1.995l2.369,1.62L77.09,54.423z"/>
	<path fill="#A9BC65" d="M88.22,46.153c0,0,4.893,1.448,4.058,2.74c-0.834,1.292-2.205,2.978-3.034,1.331
		c-0.828-1.647-0.512-2.036-0.828-1.647c-0.316,0.389,0.095,2.682-0.665,2.951c-0.76,0.269-0.48-1.141-1.589-1.377
		c-1.109-0.236-3.102-0.584-2.859,0.05c0.242,0.635-0.296,7.162-1.734,6.931c-1.439-0.231-2.846,0.433-3.533-0.321
		c-0.687-0.754-1.791-0.863-1.713-1.759c0.078-0.896,1.576-2.072,1.013-2.446c-0.563-0.374-1.241-0.873-1.983-0.093
		c-0.743,0.78-1.348,2.324-2.342,2.214c-0.994-0.11-1.425,0.153-2.529,0.045c-1.104-0.109-3.161,0.822-3.853-0.06
		c-0.691-0.882-2.816-1.867-3.234-1.221c-0.418,0.647-0.775,2.953-0.775,2.953s-2.717,0.942-4.848-0.17
		c-2.129-1.113-1.194-2.663-3.609-2.492c-2.415,0.17-1.64,0.285-3.523-0.066c-1.883-0.35-2.222-0.6-2.739,0.304
		c-0.518,0.904-1.15,1.682-2.149,1.444c-0.999-0.238-3.391,0.571-3.679-1.341c-0.288-1.912-2.537-3.278,0.927-4.872
		c3.464-1.595,14.41-3.193,16.705-3.617C62,45.209,87.071,44.767,88.22,46.153z"/>
</g>
<path fill="#F89C44" d="M12.774,48.302c19.351,6.632,74.122,0.589,76.015-0.976c1.893-1.564-3.463-24.416-39.298-25.118
	C21.696,21.664,8.707,39.928,12.774,48.302z"/>
<g opacity="0.5">
	
		<radialGradient id="SVGID_1_" cx="471.7434" cy="344.8713" r="2.7887" gradientTransform="matrix(0.4712 -0.3077 0.3643 1.0098 -308.9148 -165.7637)" gradientUnits="userSpaceOnUse">
		<stop  offset="0" style="stop-color:#FFF3DF"/>
		<stop  offset="0.6966" style="stop-color:#FEE2C9"/>
		<stop  offset="0.9888" style="stop-color:#FBD2B9"/>
	</radialGradient>
	<path fill="url(#SVGID_1_)" d="M40.763,37.652c0.17,0.471-0.034,0.654-0.497,0.957c-0.464,0.303-0.922,0.319-1.024,0.037
		c-0.102-0.282,0.191-0.757,0.655-1.06C40.36,37.283,40.593,37.181,40.763,37.652z"/>
	
		<radialGradient id="SVGID_2_" cx="-597.7551" cy="-624.2676" r="2.7889" gradientTransform="matrix(0.061 0.6702 -0.7721 0.1168 -415.4058 506.5031)" gradientUnits="userSpaceOnUse">
		<stop  offset="0" style="stop-color:#FFF3DF"/>
		<stop  offset="0.6966" style="stop-color:#FEE2C9"/>
		<stop  offset="0.9888" style="stop-color:#FBD2B9"/>
	</radialGradient>
	<path fill="url(#SVGID_2_)" d="M29.392,34.998c-0.36,0.054-0.419-0.252-0.479-0.911c-0.06-0.66,0.067-1.22,0.282-1.253
		c0.216-0.033,0.44,0.475,0.5,1.135C29.755,34.628,29.752,34.944,29.392,34.998z"/>
	
		<radialGradient id="SVGID_3_" cx="-337.0418" cy="744.0051" r="2.7891" gradientTransform="matrix(0.0609 -0.7677 0.887 0.1449 -608.3517 -335.4335)" gradientUnits="userSpaceOnUse">
		<stop  offset="0" style="stop-color:#FFF3DF"/>
		<stop  offset="0.6966" style="stop-color:#FEE2C9"/>
		<stop  offset="0.9888" style="stop-color:#FBD2B9"/>
	</radialGradient>
	<path fill="url(#SVGID_3_)" d="M32.269,29.128c0.414,0.068,0.421,0.429,0.361,1.185c-0.06,0.756-0.31,1.334-0.558,1.294
		c-0.248-0.041-0.401-0.685-0.341-1.441C31.791,29.411,31.855,29.06,32.269,29.128z"/>
	
		<radialGradient id="SVGID_4_" cx="-286.943" cy="758.6794" r="2.7885" gradientTransform="matrix(0.0887 -0.7522 0.8696 0.2038 -605.3295 -331.3523)" gradientUnits="userSpaceOnUse">
		<stop  offset="0" style="stop-color:#FFF3DF"/>
		<stop  offset="0.6966" style="stop-color:#FEE2C9"/>
		<stop  offset="0.9888" style="stop-color:#FBD2B9"/>
	</radialGradient>
	<path fill="url(#SVGID_4_)" d="M30.238,37.226c0.406,0.095,0.4,0.452,0.313,1.192c-0.087,0.74-0.356,1.293-0.599,1.236
		c-0.243-0.057-0.37-0.703-0.283-1.443C29.756,37.472,29.832,37.131,30.238,37.226z"/>
	
		<radialGradient id="SVGID_5_" cx="591.143" cy="183.6973" r="2.789" gradientTransform="matrix(0.4788 -0.1191 0.1468 1.0222 -285.3957 -79.0901)" gradientUnits="userSpaceOnUse">
		<stop  offset="0" style="stop-color:#FFF3DF"/>
		<stop  offset="0.6966" style="stop-color:#FEE2C9"/>
		<stop  offset="0.9888" style="stop-color:#FBD2B9"/>
	</radialGradient>
	<path fill="url(#SVGID_5_)" d="M26.132,39.146c0.069,0.477-0.147,0.573-0.618,0.69c-0.471,0.117-0.886-0.02-0.927-0.306
		c-0.041-0.286,0.308-0.613,0.778-0.73C25.836,38.684,26.063,38.67,26.132,39.146z"/>
	
		<radialGradient id="SVGID_6_" cx="193.3885" cy="636.8958" r="2.7887" gradientTransform="matrix(0.3111 -0.5678 0.6612 0.6738 -448.7075 -278.7645)" gradientUnits="userSpaceOnUse">
		<stop  offset="0" style="stop-color:#FFF3DF"/>
		<stop  offset="0.6966" style="stop-color:#FEE2C9"/>
		<stop  offset="0.9888" style="stop-color:#FBD2B9"/>
	</radialGradient>
	<path fill="url(#SVGID_6_)" d="M34.224,39.763c0.308,0.314,0.191,0.604-0.115,1.163c-0.306,0.558-0.704,0.858-0.889,0.67
		c-0.185-0.188-0.087-0.794,0.219-1.353C33.745,39.684,33.916,39.449,34.224,39.763z"/>
	
		<radialGradient id="SVGID_7_" cx="441.0685" cy="270.4767" r="2.7887" gradientTransform="matrix(0.5196 -0.2488 0.2973 1.1118 -274.841 -156.0051)" gradientUnits="userSpaceOnUse">
		<stop  offset="0" style="stop-color:#FFF3DF"/>
		<stop  offset="0.6966" style="stop-color:#FEE2C9"/>
		<stop  offset="0.9888" style="stop-color:#FBD2B9"/>
	</radialGradient>
	<path fill="url(#SVGID_7_)" d="M36.564,35.58c0.139,0.518-0.09,0.678-0.601,0.923c-0.511,0.245-0.993,0.191-1.076-0.12
		c-0.083-0.311,0.264-0.762,0.775-1.006C36.172,35.132,36.425,35.061,36.564,35.58z"/>
	
		<radialGradient id="SVGID_8_" cx="208.2344" cy="609.243" r="2.7886" gradientTransform="matrix(0.3047 -0.5617 0.6541 0.6602 -421.9086 -252.2582)" gradientUnits="userSpaceOnUse">
		<stop  offset="0" style="stop-color:#FFF3DF"/>
		<stop  offset="0.6966" style="stop-color:#FEE2C9"/>
		<stop  offset="0.9888" style="stop-color:#FBD2B9"/>
	</radialGradient>
	<path fill="url(#SVGID_8_)" d="M41.673,32.193c0.305,0.308,0.19,0.595-0.11,1.147c-0.3,0.552-0.692,0.85-0.874,0.666
		c-0.183-0.185-0.089-0.782,0.211-1.335C41.2,32.118,41.367,31.885,41.673,32.193z"/>
	
		<radialGradient id="SVGID_9_" cx="474.4323" cy="-205.6771" r="2.789" gradientTransform="matrix(0.4512 0.2562 -0.2867 0.956 -223.5242 112.6781)" gradientUnits="userSpaceOnUse">
		<stop  offset="0" style="stop-color:#FFF3DF"/>
		<stop  offset="0.6966" style="stop-color:#FEE2C9"/>
		<stop  offset="0.9888" style="stop-color:#FBD2B9"/>
	</radialGradient>
	<path fill="url(#SVGID_9_)" d="M50.441,39.445c-0.134,0.446-0.354,0.366-0.798,0.114c-0.444-0.252-0.739-0.673-0.658-0.94
		c0.08-0.268,0.505-0.28,0.949-0.028C50.377,38.842,50.575,39,50.441,39.445z"/>
	
		<radialGradient id="SVGID_10_" cx="447.8963" cy="76.0234" r="2.7892" gradientTransform="matrix(0.5729 -0.0249 0.04 1.2209 -211.722 -49.9321)" gradientUnits="userSpaceOnUse">
		<stop  offset="0" style="stop-color:#FFF3DF"/>
		<stop  offset="0.6966" style="stop-color:#FEE2C9"/>
		<stop  offset="0.9888" style="stop-color:#FBD2B9"/>
	</radialGradient>
	<path fill="url(#SVGID_10_)" d="M49.58,33.096c0.018,0.569-0.246,0.63-0.809,0.654c-0.563,0.025-1.029-0.233-1.041-0.574
		c-0.011-0.342,0.436-0.639,1-0.663C49.294,32.49,49.561,32.527,49.58,33.096z"/>
	
		<radialGradient id="SVGID_11_" cx="494.925" cy="16.1096" r="2.7886" gradientTransform="matrix(0.5678 0.0606 -0.0587 1.2083 -201.5906 -7.506)" gradientUnits="userSpaceOnUse">
		<stop  offset="0" style="stop-color:#FFF3DF"/>
		<stop  offset="0.6966" style="stop-color:#FEE2C9"/>
		<stop  offset="0.9888" style="stop-color:#FBD2B9"/>
	</radialGradient>
	<path fill="url(#SVGID_11_)" d="M80.012,43.543c-0.027,0.563-0.293,0.584-0.851,0.524c-0.559-0.06-0.998-0.382-0.981-0.72
		c0.016-0.338,0.482-0.564,1.041-0.504C79.779,42.902,80.04,42.979,80.012,43.543z"/>
	
		<radialGradient id="SVGID_12_" cx="150.4781" cy="752.7031" r="2.7891" gradientTransform="matrix(0.215 -0.5937 0.6893 0.4697 -478.2789 -219.6871)" gradientUnits="userSpaceOnUse">
		<stop  offset="0" style="stop-color:#FFF3DF"/>
		<stop  offset="0.6966" style="stop-color:#FEE2C9"/>
		<stop  offset="0.9888" style="stop-color:#FBD2B9"/>
	</radialGradient>
	<path fill="url(#SVGID_12_)" d="M74.328,43.398c0.321,0.219,0.249,0.513,0.038,1.097c-0.212,0.584-0.54,0.951-0.733,0.82
		c-0.193-0.132-0.178-0.711,0.034-1.295C73.879,43.436,74.006,43.179,74.328,43.398z"/>
	
		<radialGradient id="SVGID_13_" cx="75.2061" cy="-412.0673" r="2.7894" gradientTransform="matrix(0.3957 0.4995 -0.5685 0.833 -244.1715 343.9631)" gradientUnits="userSpaceOnUse">
		<stop  offset="0" style="stop-color:#FFF3DF"/>
		<stop  offset="0.6966" style="stop-color:#FEE2C9"/>
		<stop  offset="0.9888" style="stop-color:#FBD2B9"/>
	</radialGradient>
	<path fill="url(#SVGID_13_)" d="M20.294,40.663c-0.265,0.389-0.471,0.191-0.861-0.301c-0.389-0.491-0.576-1.079-0.417-1.312
		c0.159-0.233,0.604-0.024,0.993,0.467C20.398,40.009,20.559,40.274,20.294,40.663z"/>
	
		<radialGradient id="SVGID_14_" cx="-201.9027" cy="-404.956" r="2.7885" gradientTransform="matrix(0.1946 0.7192 -0.826 0.4004 -228.1876 348.3825)" gradientUnits="userSpaceOnUse">
		<stop  offset="0" style="stop-color:#FFF3DF"/>
		<stop  offset="0.6966" style="stop-color:#FEE2C9"/>
		<stop  offset="0.9888" style="stop-color:#FBD2B9"/>
	</radialGradient>
	<path fill="url(#SVGID_14_)" d="M66.593,43.526c-0.385,0.187-0.509-0.131-0.7-0.838c-0.192-0.707-0.159-1.372,0.072-1.483
		c0.231-0.112,0.574,0.37,0.765,1.078C66.921,42.989,66.978,43.339,66.593,43.526z"/>
	
		<radialGradient id="SVGID_15_" cx="-124.6199" cy="-363.7809" r="2.7889" gradientTransform="matrix(0.2132 0.7278 -0.8355 0.4397 -196.6762 287.3278)" gradientUnits="userSpaceOnUse">
		<stop  offset="0" style="stop-color:#FFF3DF"/>
		<stop  offset="0.6966" style="stop-color:#FEE2C9"/>
		<stop  offset="0.9888" style="stop-color:#FBD2B9"/>
	</radialGradient>
	<path fill="url(#SVGID_15_)" d="M80.311,39.242c-0.389,0.205-0.522-0.115-0.731-0.83c-0.21-0.716-0.19-1.396,0.044-1.519
		c0.233-0.123,0.593,0.358,0.803,1.073C80.636,38.682,80.701,39.036,80.311,39.242z"/>
	
		<radialGradient id="SVGID_16_" cx="406.2533" cy="-100.0897" r="2.7882" gradientTransform="matrix(0.5457 0.2338 -0.259 1.1577 -183.842 48.3769)" gradientUnits="userSpaceOnUse">
		<stop  offset="0" style="stop-color:#FFF3DF"/>
		<stop  offset="0.6966" style="stop-color:#FEE2C9"/>
		<stop  offset="0.9888" style="stop-color:#FBD2B9"/>
	</radialGradient>
	<path fill="url(#SVGID_16_)" d="M65.006,29.504c-0.12,0.54-0.384,0.478-0.92,0.248c-0.537-0.23-0.913-0.679-0.841-1.003
		c0.073-0.324,0.566-0.4,1.103-0.17C64.885,28.809,65.127,28.964,65.006,29.504z"/>
	
		<radialGradient id="SVGID_17_" cx="445.6733" cy="255.9611" r="2.7896" gradientTransform="matrix(0.5391 -0.2965 0.3528 1.1542 -259.7879 -130.7898)" gradientUnits="userSpaceOnUse">
		<stop  offset="0" style="stop-color:#FFF3DF"/>
		<stop  offset="0.6966" style="stop-color:#FEE2C9"/>
		<stop  offset="0.9888" style="stop-color:#FBD2B9"/>
	</radialGradient>
	<path fill="url(#SVGID_17_)" d="M72.711,33.02c0.165,0.538-0.071,0.722-0.601,1.014c-0.531,0.292-1.041,0.266-1.139-0.057
		c-0.099-0.323,0.251-0.821,0.782-1.113C72.282,32.572,72.546,32.481,72.711,33.02z"/>
	
		<radialGradient id="SVGID_18_" cx="403.9368" cy="314.24" r="2.7892" gradientTransform="matrix(0.5115 -0.3572 0.4223 1.0965 -283.3155 -167.1512)" gradientUnits="userSpaceOnUse">
		<stop  offset="0" style="stop-color:#FFF3DF"/>
		<stop  offset="0.6966" style="stop-color:#FEE2C9"/>
		<stop  offset="0.9888" style="stop-color:#FBD2B9"/>
	</radialGradient>
	<path fill="url(#SVGID_18_)" d="M57.939,33.41c0.197,0.511-0.023,0.721-0.526,1.072c-0.504,0.352-1.007,0.388-1.125,0.081
		c-0.118-0.307,0.194-0.84,0.697-1.192C57.488,33.02,57.742,32.898,57.939,33.41z"/>
	
		<radialGradient id="SVGID_19_" cx="403.8097" cy="-139.5055" r="2.7893" gradientTransform="matrix(0.4825 0.2704 -0.3025 1.0224 -181.5508 58.2932)" gradientUnits="userSpaceOnUse">
		<stop  offset="0" style="stop-color:#FFF3DF"/>
		<stop  offset="0.6966" style="stop-color:#FEE2C9"/>
		<stop  offset="0.9888" style="stop-color:#FBD2B9"/>
	</radialGradient>
	<path fill="url(#SVGID_19_)" d="M56.492,26.816c-0.141,0.477-0.377,0.393-0.852,0.126c-0.475-0.266-0.79-0.713-0.706-1
		c0.085-0.286,0.538-0.302,1.012-0.036C56.421,26.173,56.633,26.339,56.492,26.816z"/>
	
		<radialGradient id="SVGID_20_" cx="428.1665" cy="-241.1408" r="2.7883" gradientTransform="matrix(0.4257 0.3353 -0.3785 0.9002 -203.1558 109.3218)" gradientUnits="userSpaceOnUse">
		<stop  offset="0" style="stop-color:#FFF3DF"/>
		<stop  offset="0.6966" style="stop-color:#FEE2C9"/>
		<stop  offset="0.9888" style="stop-color:#FBD2B9"/>
	</radialGradient>
	<path fill="url(#SVGID_20_)" d="M71.141,37.813c-0.176,0.42-0.389,0.3-0.808-0.03c-0.418-0.33-0.672-0.802-0.566-1.053
		c0.106-0.252,0.531-0.189,0.95,0.141C71.135,37.201,71.317,37.393,71.141,37.813z"/>
	
		<radialGradient id="SVGID_21_" cx="-476.2729" cy="-474.6675" r="2.7885" gradientTransform="matrix(0.0581 0.7306 -0.8418 0.1094 -312.9905 444.8419)" gradientUnits="userSpaceOnUse">
		<stop  offset="0" style="stop-color:#FFF3DF"/>
		<stop  offset="0.6966" style="stop-color:#FEE2C9"/>
		<stop  offset="0.9888" style="stop-color:#FBD2B9"/>
	</radialGradient>
	<path fill="url(#SVGID_21_)" d="M58.088,47.135c-0.392,0.051-0.453-0.283-0.51-1.002c-0.057-0.719,0.088-1.326,0.323-1.357
		c0.236-0.031,0.473,0.527,0.53,1.246C58.487,46.741,58.481,47.084,58.088,47.135z"/>
	
		<radialGradient id="SVGID_22_" cx="91.8277" cy="639.1026" r="2.7887" gradientTransform="matrix(0.2266 -0.6556 0.7609 0.4956 -454.8643 -219.5543)" gradientUnits="userSpaceOnUse">
		<stop  offset="0" style="stop-color:#FFF3DF"/>
		<stop  offset="0.6966" style="stop-color:#FEE2C9"/>
		<stop  offset="0.9888" style="stop-color:#FBD2B9"/>
	</radialGradient>
	<path fill="url(#SVGID_22_)" d="M53.769,35.718c0.355,0.231,0.28,0.555,0.057,1.2c-0.223,0.645-0.576,1.055-0.789,0.917
		c-0.213-0.139-0.205-0.774,0.018-1.419C53.279,35.771,53.414,35.487,53.769,35.718z"/>
	
		<radialGradient id="SVGID_23_" cx="-10.0375" cy="629.7741" r="2.7885" gradientTransform="matrix(0.1969 -0.7079 0.8207 0.4334 -466.1101 -252.0454)" gradientUnits="userSpaceOnUse">
		<stop  offset="0" style="stop-color:#FFF3DF"/>
		<stop  offset="0.6966" style="stop-color:#FEE2C9"/>
		<stop  offset="0.9888" style="stop-color:#FBD2B9"/>
	</radialGradient>
	<path fill="url(#SVGID_23_)" d="M50.288,26.52c0.383,0.202,0.324,0.548,0.131,1.244c-0.194,0.697-0.537,1.163-0.766,1.041
		c-0.229-0.121-0.259-0.784-0.065-1.48C49.781,26.628,49.905,26.317,50.288,26.52z"/>
	
		<radialGradient id="SVGID_24_" cx="386.4124" cy="-96.0066" r="2.7889" gradientTransform="matrix(0.5548 0.1971 -0.2164 1.1779 -191.0825 63.6981)" gradientUnits="userSpaceOnUse">
		<stop  offset="0" style="stop-color:#FFF3DF"/>
		<stop  offset="0.6966" style="stop-color:#FEE2C9"/>
		<stop  offset="0.9888" style="stop-color:#FBD2B9"/>
	</radialGradient>
	<path fill="url(#SVGID_24_)" d="M45.383,28.713c-0.101,0.549-0.367,0.505-0.913,0.312c-0.546-0.194-0.939-0.618-0.878-0.947
		c0.061-0.33,0.552-0.44,1.098-0.246C45.235,28.025,45.484,28.164,45.383,28.713z"/>
	
		<radialGradient id="SVGID_25_" cx="272.6142" cy="-209.7711" r="2.7885" gradientTransform="matrix(0.5194 0.3541 -0.3983 1.0993 -187.8934 162.6478)" gradientUnits="userSpaceOnUse">
		<stop  offset="0" style="stop-color:#FFF3DF"/>
		<stop  offset="0.6966" style="stop-color:#FEE2C9"/>
		<stop  offset="0.9888" style="stop-color:#FBD2B9"/>
	</radialGradient>
	<path fill="url(#SVGID_25_)" d="M38.249,30.868c-0.186,0.513-0.442,0.393-0.954,0.044c-0.511-0.348-0.834-0.88-0.723-1.187
		c0.112-0.307,0.616-0.275,1.127,0.073C38.21,30.147,38.434,30.355,38.249,30.868z"/>
	
		<radialGradient id="SVGID_26_" cx="-10.0484" cy="783.4936" r="2.7889" gradientTransform="matrix(0.1632 -0.6235 0.7226 0.3599 -528.5505 -244.8128)" gradientUnits="userSpaceOnUse">
		<stop  offset="0" style="stop-color:#FFF3DF"/>
		<stop  offset="0.6966" style="stop-color:#FEE2C9"/>
		<stop  offset="0.9888" style="stop-color:#FBD2B9"/>
	</radialGradient>
	<path fill="url(#SVGID_26_)" d="M37.271,42.099c0.337,0.168,0.291,0.471,0.13,1.085c-0.161,0.614-0.455,1.029-0.657,0.928
		c-0.202-0.101-0.237-0.679-0.076-1.293C36.829,42.206,36.934,41.931,37.271,42.099z"/>
	
		<radialGradient id="SVGID_27_" cx="443.7004" cy="380.3209" r="2.789" gradientTransform="matrix(0.465 -0.3261 0.3854 0.9969 -326.9777 -190.9782)" gradientUnits="userSpaceOnUse">
		<stop  offset="0" style="stop-color:#FFF3DF"/>
		<stop  offset="0.6966" style="stop-color:#FEE2C9"/>
		<stop  offset="0.9888" style="stop-color:#FBD2B9"/>
	</radialGradient>
	<path fill="url(#SVGID_27_)" d="M27.681,43.725c0.179,0.465-0.02,0.656-0.478,0.977c-0.458,0.321-0.916,0.354-1.023,0.076
		c-0.108-0.279,0.176-0.765,0.633-1.086C27.27,43.372,27.501,43.261,27.681,43.725z"/>
	
		<radialGradient id="SVGID_28_" cx="-260.8289" cy="757.082" r="2.7883" gradientTransform="matrix(0.1365 -0.771 0.8923 0.3059 -620.4075 -388.6496)" gradientUnits="userSpaceOnUse">
		<stop  offset="0" style="stop-color:#FFF3DF"/>
		<stop  offset="0.6966" style="stop-color:#FEE2C9"/>
		<stop  offset="0.9888" style="stop-color:#FBD2B9"/>
	</radialGradient>
	<path fill="url(#SVGID_28_)" d="M20.966,42.229c0.416,0.143,0.389,0.512,0.254,1.271c-0.134,0.759-0.445,1.303-0.695,1.218
		c-0.249-0.086-0.343-0.77-0.209-1.528C20.451,42.431,20.55,42.086,20.966,42.229z"/>
	
		<radialGradient id="SVGID_29_" cx="360.9173" cy="331.689" r="2.7891" gradientTransform="matrix(0.5195 -0.3214 0.3811 1.1129 -291.5862 -218.9203)" gradientUnits="userSpaceOnUse">
		<stop  offset="0" style="stop-color:#FFF3DF"/>
		<stop  offset="0.6966" style="stop-color:#FEE2C9"/>
		<stop  offset="0.9888" style="stop-color:#FBD2B9"/>
	</radialGradient>
	<path fill="url(#SVGID_29_)" d="M24.228,34.621c0.177,0.519-0.048,0.713-0.559,1.029c-0.511,0.316-1.012,0.32-1.118,0.009
		c-0.107-0.311,0.221-0.82,0.732-1.136C23.794,34.206,24.05,34.102,24.228,34.621z"/>
	
		<radialGradient id="SVGID_30_" cx="489.5854" cy="-60.9413" r="2.7885" gradientTransform="matrix(0.5179 0.1262 -0.1354 1.1006 -218.6891 49.1482)" gradientUnits="userSpaceOnUse">
		<stop  offset="0" style="stop-color:#FFF3DF"/>
		<stop  offset="0.6966" style="stop-color:#FEE2C9"/>
		<stop  offset="0.9888" style="stop-color:#FBD2B9"/>
	</radialGradient>
	<path fill="url(#SVGID_30_)" d="M44.418,45.51c-0.063,0.513-0.308,0.499-0.818,0.375c-0.509-0.124-0.891-0.475-0.854-0.783
		c0.038-0.308,0.482-0.457,0.991-0.333C44.247,44.894,44.481,44.997,44.418,45.51z"/>
	
		<radialGradient id="SVGID_31_" cx="470.6887" cy="29.3503" r="2.7888" gradientTransform="matrix(0.5515 0.0416 -0.0371 1.1739 -208.498 -12.4893)" gradientUnits="userSpaceOnUse">
		<stop  offset="0" style="stop-color:#FFF3DF"/>
		<stop  offset="0.6966" style="stop-color:#FEE2C9"/>
		<stop  offset="0.9888" style="stop-color:#FBD2B9"/>
	</radialGradient>
	<path fill="url(#SVGID_31_)" d="M51.507,43.043c-0.018,0.547-0.274,0.576-0.817,0.534c-0.542-0.041-0.974-0.341-0.964-0.669
		c0.01-0.328,0.459-0.562,1.001-0.521C51.27,42.429,51.525,42.495,51.507,43.043z"/>
	
		<radialGradient id="SVGID_32_" cx="464.1834" cy="-168.3693" r="2.7881" gradientTransform="matrix(0.4699 0.247 -0.2758 0.9961 -209.0675 92.7244)" gradientUnits="userSpaceOnUse">
		<stop  offset="0" style="stop-color:#FFF3DF"/>
		<stop  offset="0.6966" style="stop-color:#FEE2C9"/>
		<stop  offset="0.9888" style="stop-color:#FBD2B9"/>
	</radialGradient>
	<path fill="url(#SVGID_32_)" d="M56.488,41.532c-0.128,0.464-0.357,0.39-0.819,0.147c-0.463-0.243-0.775-0.666-0.697-0.944
		c0.077-0.279,0.515-0.308,0.977-0.065C56.41,40.912,56.617,41.067,56.488,41.532z"/>
	
		<radialGradient id="SVGID_33_" cx="399.2137" cy="-201.841" r="2.7896" gradientTransform="matrix(0.4531 0.3193 -0.3595 0.9588 -183.8447 94.0954)" gradientUnits="userSpaceOnUse">
		<stop  offset="0" style="stop-color:#FFF3DF"/>
		<stop  offset="0.6966" style="stop-color:#FEE2C9"/>
		<stop  offset="0.9888" style="stop-color:#FBD2B9"/>
	</radialGradient>
	<path fill="url(#SVGID_33_)" d="M70.455,30.066c-0.168,0.447-0.392,0.338-0.838,0.024c-0.446-0.314-0.726-0.787-0.625-1.055
		c0.101-0.268,0.544-0.231,0.989,0.083C70.427,29.432,70.622,29.618,70.455,30.066z"/>
	
		<radialGradient id="SVGID_34_" cx="-51.883" cy="-399.4028" r="2.7889" gradientTransform="matrix(0.2717 0.6667 -0.7638 0.5656 -230.5336 290.0576)" gradientUnits="userSpaceOnUse">
		<stop  offset="0" style="stop-color:#FFF3DF"/>
		<stop  offset="0.6966" style="stop-color:#FEE2C9"/>
		<stop  offset="0.9888" style="stop-color:#FBD2B9"/>
	</radialGradient>
	<path fill="url(#SVGID_34_)" d="M60.302,32.107c-0.356,0.263-0.513-0.022-0.78-0.679c-0.267-0.656-0.31-1.315-0.097-1.474
		c0.214-0.158,0.604,0.245,0.871,0.9C60.563,31.512,60.658,31.843,60.302,32.107z"/>
	
		<radialGradient id="SVGID_35_" cx="-22.9021" cy="664.2056" r="2.7887" gradientTransform="matrix(0.1248 -0.6927 0.8017 0.2795 -464.9931 -166.2239)" gradientUnits="userSpaceOnUse">
		<stop  offset="0" style="stop-color:#FFF3DF"/>
		<stop  offset="0.6966" style="stop-color:#FEE2C9"/>
		<stop  offset="0.9888" style="stop-color:#FBD2B9"/>
	</radialGradient>
	<path fill="url(#SVGID_35_)" d="M65.936,33.664c0.374,0.13,0.349,0.463,0.226,1.144c-0.123,0.682-0.405,1.171-0.628,1.092
		c-0.224-0.078-0.307-0.694-0.184-1.375C65.472,33.844,65.563,33.534,65.936,33.664z"/>
	
		<radialGradient id="SVGID_36_" cx="575.6398" cy="289.5857" r="2.7889" gradientTransform="matrix(0.4561 -0.2497 0.2971 0.9765 -286.8158 -100.8806)" gradientUnits="userSpaceOnUse">
		<stop  offset="0" style="stop-color:#FFF3DF"/>
		<stop  offset="0.6966" style="stop-color:#FEE2C9"/>
		<stop  offset="0.9888" style="stop-color:#FBD2B9"/>
	</radialGradient>
	<path fill="url(#SVGID_36_)" d="M63.403,38.607c0.139,0.455-0.06,0.611-0.509,0.856c-0.449,0.245-0.88,0.223-0.963-0.05
		c-0.083-0.273,0.213-0.694,0.662-0.939C63.041,38.228,63.265,38.151,63.403,38.607z"/>
	
		<radialGradient id="SVGID_37_" cx="475.2506" cy="436.143" r="2.7885" gradientTransform="matrix(0.3974 -0.3863 0.4535 0.854 -333.6798 -156.8511)" gradientUnits="userSpaceOnUse">
		<stop  offset="0" style="stop-color:#FFF3DF"/>
		<stop  offset="0.6966" style="stop-color:#FEE2C9"/>
		<stop  offset="0.9888" style="stop-color:#FBD2B9"/>
	</radialGradient>
	<path fill="url(#SVGID_37_)" d="M54.628,31.942c0.211,0.398,0.046,0.612-0.345,0.991c-0.391,0.38-0.81,0.494-0.937,0.255
		c-0.127-0.239,0.087-0.74,0.478-1.12C54.214,31.688,54.416,31.543,54.628,31.942z"/>
</g>
</svg>
