<?xml version="1.0" encoding="utf-8"?>
<!-- Generator: Adobe Illustrator 17.0.0, SVG Export Plug-In . SVG Version: 6.00 Build 0)  -->
<!DOCTYPE svg PUBLIC "-//W3C//DTD SVG 1.1//EN" "http://www.w3.org/Graphics/SVG/1.1/DTD/svg11.dtd">
<svg version="1.1" id="Layer_1" xmlns="http://www.w3.org/2000/svg" xmlns:xlink="http://www.w3.org/1999/xlink" x="0px" y="0px"
	 width="100px" height="100px" viewBox="0 0 100 100" enable-background="new 0 0 100 100" xml:space="preserve">
<path fill="#BDCCCC" d="M89.196,53.063c-0.939,0.433-2.111,1.159-2.913,1.905c0.962-0.898,2.025-1.751,2.483-3.023
	c-0.802-0.03-1.688,0.492-2.481,0.703c0.957-0.863,3.148-2.889,2.775-4.352c-0.537-0.001-1.127,0.371-1.637,0.193
	c1.289-1.332,2.238-3.504,1.416-5.262c-0.802,1.128-1.277,2.485-2.189,3.621c-1.066,1.328-2.204,2.339-3.556,3.339
	c-2.76,2.04-5.711,3.473-9.006,4.284c-2.507,0.617-5.498,1.132-7.961,0.511c-0.928-0.234-1.473-0.331-2.472-0.134
	c-0.358,0.071-0.655,0.155-0.899,0.216c-0.363-0.449-0.616-0.902-0.723-1.379c-0.569-0.901-1.109-2.367-1.022-3.554
	c0.162-0.084,0.331-0.16,0.483-0.255c0.365-0.229,0.856-0.841,1.366-0.712c0.862,0.218,0.796,1.544,0.812,2.094
	c0.574-0.396,0.658-1.298,0.697-1.883c0.346,0.279,0.49,0.752,0.519,1.164c0.276-0.268,0.494-0.638,0.517-1.017
	c0.081,0.108,0.231,0.186,0.309,0.343c0.175-0.59,0.269-1.211,0.45-1.79l0.104,0.027c0.118,0.258,0.214,0.527,0.173,0.806
	c0.373-0.561,0.23-1.219,0.271-1.836c0.452,0.273,0.539,0.927,0.525,1.363c0.343-0.282,0.519-1.111,0.482-1.52
	c0.257,0.108,0.364,0.369,0.51,0.552c0.145-0.439,0.133-0.857,0.212-1.291c0.096-0.526,0.264-1.028,0.303-1.565
	c0.059-0.819-0.052-1.641-0.331-2.427c-0.211-0.593-0.521-1.148-0.848-1.7c-0.128-0.215-0.536-0.7-0.447-0.963
	c0.004-0.012,4.148-12.202-9.435-18.446c-0.967-0.445-1.38-2.135-1.017-3.087c0.394-1.032,1.705-1.449,2.746-1.597
	c-1.307-0.307-2.302-0.542-3.27,0.498c-0.816,0.878-0.726,1.84-0.705,2.914c-0.454-1.294-1.29-2.626-2.519-3.485
	c-1.673-1.169-3.65-1.634-5.653-2.057c1.157,0.333,2.323,0.906,3.236,1.453c1.398,0.837,1.865,1.84,2.603,3.057
	c-0.93-1.07-2.783-1.674-4.225-2.121c-1.415-0.439-3.926-0.952-5.366-0.423c2.641-0.019,6.151,0.31,7.128,2.71
	c-1.099-0.324-2.084-0.814-3.257-1.04c-1.574-0.302-3.06-0.361-4.672-0.349c-2.769,0.02-5.83,0.948-7.937,2.43
	c1.687-0.195,3.315-0.874,5.077-0.962c1.746-0.088,3.573-0.205,5.107,0.663c-0.907-0.513-3.701,0.089-4.631,0.252
	c-3.377,0.592-6.452,2.093-8.632,4.377c-0.982,1.029-1.767,2.185-2.38,3.4c-0.289,0.574-0.431,1.486-1.009,1.885
	c-0.583,0.402-1.541,0.283-2.217,0.503c-1.321,0.431-1.736,1.045-2.588,1.904c0.329-0.383,0.858-0.676,1.386-0.829
	c-0.773,0.862-1.59,1.481-2.057,2.481c0.588-0.383,1.223-0.637,1.848-0.944c-0.433,0.444-1.453,1.362-1.348,1.94
	c0.34-0.253,0.729-0.493,1.033-0.762c-0.327,0.66-1.102,1.283-1.122,2.03c0.305-0.222,0.687-0.48,1.033-0.705
	c-0.172,1.481-1.051,2.854-0.511,4.377c0.611-0.388,0.426-1.206,0.922-1.662c0.086,0.546-0.194,1.103-0.075,1.664
	c0.144,0.685,0.676,1.45,1.13,2.004c0.454,0.555,0.985,1.177,1.586,1.738c5.743,4.369-6.261,6.917-6.761,19.868
	c-0.445,0.959-0.449,1.965-0.539,2.979c-0.075,0.846-0.391,1.947-0.242,2.775c0.404-0.663,0.686-1.236,1.288-1.805
	c0.1-0.095,0.232-0.198,0.351-0.306c-0.355,0.848-0.651,1.673-0.617,2.627c0.006-0.96,1.105-1.662,1.371-2.538
	c-0.572,1.837-0.344,3.232,0.442,4.941c-0.232-0.694-0.087-1.557,0.093-2.202c-0.075,2.171-1.185,10.856,12.619,16.461
	c1.384,1.22,9.746,3.348,9.793,2.205c1.784,2.255,8.046,1.668,10.119,0.279c0.471,1.087,11.858-2.058,13.519-2.652
	c1.964-0.702,3.653-1.936,5.027-3.285c-0.01,0.545-0.814,1.326-1.298,1.583c0.94-0.381,2.226-0.98,3.116-1.589
	c1.152-0.789,2.917-2.259,3.28-3.519c0.496,0.883-0.073,2.069-0.837,2.742c2.048-1.08,2.691-3.348,2.85-5.191
	c0.34,0.518,0.526,1.211,0.517,1.836c0.311-0.507,0.706-1.079,0.77-1.703c0.073-0.715-0.333-1.42-0.254-2.117
	c1.339,0.589,1.458,1.921,1.65,3.067c0.383-1.364,0.261-2.74,0.341-4.152c0.972,0.884,1.319,1.939,1.787,3.052
	c0.191-2.448-0.239-4.061-2.553-5.562c0.543,0.311,1.077,0.76,1.59,1.148c-1.404-1.938-2.892-3.032-5.672-3.222
	c-0.362-0.461-0.73-0.891-1.097-1.319c0.392-0.215,0.703-0.465,0.825-0.767c-0.466-0.249-1.108-0.213-1.719-0.237
	c-0.009-0.009-0.017-0.019-0.026-0.028c1.139-0.022,2.308-0.622,3.348-1.071c1.838-0.793,3.464-1.753,4.878-3.242
	c-1.095,0.029-2.33,0.07-3.44,0.161c2.319-0.645,5.288-2.819,6.027-5.22c-0.506,0.022-1.202,0.141-1.814,0.368
	C87.505,56.598,89.157,54.41,89.196,53.063z"/>
<g>
	<path fill="#EFEFEF" d="M23.492,70.283c0.06,0.127,0.116,0.252,0.183,0.383C23.594,70.548,23.538,70.418,23.492,70.283z"/>
	<path fill="#EFEFEF" d="M65.875,47.799c0.114,0.244,0.208,0.499,0.168,0.763c0.362-0.53,0.223-1.153,0.263-1.737
		c0.439,0.258,0.524,0.877,0.51,1.289c0.333-0.266,0.504-1.051,0.468-1.438c0.25,0.102,0.354,0.349,0.495,0.522
		c0.141-0.415,0.129-0.81,0.206-1.221c0.093-0.498,0.256-0.972,0.294-1.48c0.057-0.775-0.05-1.552-0.321-2.296
		c-0.205-0.561-0.506-1.086-0.823-1.608c-0.124-0.204-0.52-0.662-0.434-0.911c0.004-0.011,4.028-11.541-9.162-17.446
		c-0.939-0.421-1.34-2.019-0.988-2.919c0.383-0.976,1.656-1.371,2.667-1.51c-1.269-0.291-2.235-0.513-3.175,0.471
		c-0.792,0.83-0.705,1.74-0.685,2.756c-0.441-1.224-1.252-2.484-2.446-3.296c-1.625-1.105-3.544-1.545-5.49-1.946
		c1.124,0.315,2.256,0.857,3.143,1.374c1.358,0.792,1.811,1.74,2.528,2.891c-0.903-1.012-2.702-1.583-4.102-2.006
		c-1.375-0.415-3.813-0.9-5.211-0.4c2.564-0.018,5.973,0.293,6.922,2.563c-1.067-0.306-2.024-0.77-3.163-0.983
		c-1.529-0.286-2.971-0.342-4.537-0.33c-2.689,0.019-5.661,0.896-7.707,2.299c1.638-0.184,3.22-0.826,4.93-0.91
		c1.696-0.083,3.47-0.194,4.959,0.627c-0.88-0.485-3.594,0.084-4.497,0.238c-3.28,0.56-6.265,1.98-8.383,4.14
		c-0.954,0.973-1.716,2.066-2.311,3.216c-0.281,0.542-0.418,1.405-0.979,1.782c-0.566,0.381-1.497,0.267-2.153,0.476
		c-1.283,0.408-1.686,0.989-2.513,1.8c0.319-0.362,0.834-0.639,1.346-0.784c-0.75,0.816-1.544,1.401-1.998,2.347
		c0.571-0.362,1.188-0.602,1.794-0.892c-0.421,0.419-1.411,1.288-1.309,1.835c0.33-0.24,0.708-0.467,1.003-0.721
		c-0.318,0.624-1.07,1.214-1.089,1.92c0.296-0.21,0.667-0.454,1.003-0.666c-0.167,1.4-1.02,2.699-0.496,4.14
		c0.594-0.367,0.414-1.141,0.895-1.572c0.083,0.516-0.188,1.043-0.073,1.574c0.14,0.648,0.657,1.372,1.097,1.895
		c0.441,0.525,0.957,1.113,1.54,1.644c5.576,4.133-6.08,6.542-6.565,18.79c-0.432,0.907-0.436,1.858-0.523,2.817
		c-0.073,0.8-0.38,1.842-0.235,2.625c0.392-0.627,0.666-1.169,1.25-1.707c0.098-0.09,0.225-0.187,0.341-0.289
		c-0.344,0.802-0.632,1.582-0.6,2.485c0.006-0.908,1.073-1.572,1.332-2.4c-0.556,1.738-0.334,3.057,0.429,4.673
		c-0.225-0.657-0.084-1.473,0.09-2.083c-0.073,2.054-1.151,10.267,12.254,15.568c1.344,1.154,9.464,3.167,9.509,2.086
		c1.732,2.133,7.813,1.578,9.826,0.264c0.458,1.028,11.514-1.946,13.128-2.508c1.907-0.664,3.547-1.831,4.881-3.107
		c-0.01,0.516-0.79,1.254-1.26,1.497c0.913-0.36,2.162-0.927,3.026-1.503c1.118-0.746,2.833-2.136,3.185-3.328
		c0.482,0.835-0.071,1.957-0.813,2.593c1.989-1.021,2.613-3.167,2.768-4.909c0.33,0.49,0.511,1.145,0.502,1.737
		c0.302-0.48,0.686-1.021,0.748-1.611c0.071-0.676-0.323-1.343-0.247-2.003c1.3,0.557,1.416,1.817,1.602,2.9
		c0.372-1.29,0.254-2.592,0.331-3.927c0.944,0.836,1.281,1.834,1.735,2.886c0.186-2.315-0.232-3.841-2.479-5.26
		c0.528,0.294,1.046,0.719,1.544,1.085c-1.364-1.833-2.809-2.867-5.508-3.047c-7.241-8.979-15.759-11.11-16.553-14.535
		c-0.552-0.852-1.077-2.239-0.992-3.361c0.157-0.08,0.322-0.152,0.469-0.241c0.355-0.217,0.831-0.796,1.327-0.674
		c0.837,0.206,0.773,1.46,0.788,1.98c0.558-0.374,0.639-1.228,0.677-1.78c0.336,0.264,0.475,0.711,0.504,1.101
		c0.268-0.253,0.48-0.604,0.502-0.962c0.079,0.102,0.225,0.176,0.3,0.325c0.17-0.558,0.261-1.146,0.437-1.693"/>
	<path fill="#EFEFEF" d="M47.423,15.793c-0.373-0.077-0.748-0.153-1.121-0.231C46.668,15.607,47.045,15.687,47.423,15.793z"/>
</g>
<path fill="#D78334" d="M38.567,40.581c0,0,3.361,0.519,5.622,4.735c0,0-2.702,4.076-5.665,3.487
	C38.524,48.803,24.39,42.979,38.567,40.581z"/>
<path fill="#EEC65E" d="M36.712,37.306c1.162-1.539,2.226-1.644,3.794-1.055c1.41,0.528,1.768,0.995,1.919,2.686
	c1.516,2.091,2.232,5.191,1.764,6.38c-0.465,1.182-7.659-3.037-14.912,0.313C27.423,43.453,32.576,38.8,36.712,37.306z"/>
<path fill="#A75E26" d="M38.889,37.836c-0.853-0.131-1.736,0.535-1.974,1.482c-0.239,0.945,1.29-0.163,2.144-0.034
	c0.851,0.127,0.702,1.441,0.941,0.497C40.24,38.833,39.741,37.962,38.889,37.836z"/>
<path opacity="0.18" fill="#010101" d="M49.417,25.206c-2.287,2.746-4.735,2.134-5.299,1.865c0,0,0.169-3.171-0.123-7.101
	c3.215-0.917,6.946-0.784,11.435,0.931c4.445,1.699,7.451,4.355,9.519,7.582c-0.06-0.01-0.113-0.015-0.174-0.027
	C64.775,28.457,54.675,18.904,49.417,25.206z"/>
<path fill="#D14E3F" d="M47.166,24.816c-2.163,2.837-2.885,1.911-3.505,1.672c0,0-7.634-10.055,1.608-19.205
	c0,0,7.375-8.295,11.837-1.035c0,0,3.441,5.013-6.507,9.595c0,0,3.748,1.088,7.227-2.953c0,0,2.968-5.149,5.697,0.109
	c0,0,3.387,5.206-3.969,7.985c0,0,6.835-0.658,6.724,3.488c0,0,0.463,3.339-2.54,2.82C63.739,27.291,52.127,18.303,47.166,24.816z"
	/>
<ellipse transform="matrix(0.8968 0.4424 -0.4424 0.8968 18.5119 -13.1474)" fill="#304454" cx="37.44" cy="33.11" rx="1.082" ry="1.504"/>
<ellipse transform="matrix(0.8968 0.4424 -0.4424 0.8968 21.9965 -17.8687)" fill="#304454" cx="49.303" cy="38.219" rx="1.082" ry="1.504"/>
<path fill="#D14E3F" d="M41.08,57.993c-0.868,2.177-3.177,3.291-5.159,2.49c-1.492-0.603-2.37-2.121-2.341-3.763
	c-1.108,1.207-2.787,1.69-4.28,1.087c-1.981-0.802-2.882-3.215-2.011-5.391c0.613-1.541,1.962-2.682,3.557-3.076
	c0,0,4.001-1.26,5.981-1.556c0,0,2.172,2.202,3.795,4.865C41.944,54.553,41.734,56.36,41.08,57.993z"/>
<path opacity="0.6" fill="#D7DDDD" d="M57.981,59.465c0.871-0.175,1.724-0.551,2.589-0.507c-0.221,1.293,0.229,0.876,1.39,0.631
	c0.847-0.179,1.305-0.109,2.085,0.067c2.069,0.467,4.603-0.005,6.729-0.554c2.795-0.721,5.31-1.944,7.674-3.662
	c1.158-0.842,2.136-1.689,3.058-2.795c0.788-0.945,1.212-2.065,1.908-3.003c0.665,1.426-0.173,3.221-1.283,4.334
	c0.427,0.137,0.931-0.177,1.385-0.186c0.29,1.192-1.593,2.888-2.415,3.611c0.672-0.186,1.43-0.629,2.106-0.618
	c-0.408,1.049-1.319,1.766-2.146,2.518c0.69-0.624,1.691-1.239,2.491-1.61c-0.069,1.381-2.294,3.89-3.596,4.354
	c0.541-0.525,1.701-0.793,2.41-0.838c-0.664,1.979-3.206,3.81-5.175,4.378c0.939-0.093,1.982-0.148,2.907-0.191
	c-1.218,1.243-2.608,2.058-4.172,2.739c-1.088,0.473-2.344,1.15-3.497,0.886c0.66,0.172,1.554-0.05,2.122,0.235
	c-0.384,0.882-2.657,1.32-3.505,1.536c-1.13,0.288-2.198,0.549-3.335,0.515c-3.983-0.119-8.563-1.939-11.278-4.626
	c-1.268-1.256-2.563-3.331-2.148-5.315c0.401-1.916,3.026-3.509,4.829-2.865C58.886,58.828,58.399,59.381,57.981,59.465z"/>
<path fill="#EFEFEF" d="M58.755,53.942c0.998-0.182,1.971-0.597,2.967-0.525c-0.224,1.488,0.284,1.018,1.615,0.762
	c0.971-0.187,1.499-0.095,2.401,0.126c2.392,0.588,5.296,0.101,7.731-0.483c3.2-0.767,6.065-2.122,8.746-4.052
	c1.313-0.946,2.419-1.902,3.453-3.158c0.885-1.074,1.347-2.358,2.125-3.424c0.798,1.663-0.124,3.717-1.375,4.977
	c0.495,0.168,1.068-0.183,1.589-0.183c0.362,1.383-1.766,3.3-2.695,4.116c0.769-0.2,1.63-0.694,2.409-0.665
	c-0.445,1.202-1.477,2.01-2.411,2.859c0.779-0.705,1.917-1.392,2.829-1.801c-0.048,1.594-2.549,4.441-4.036,4.947
	c0.61-0.594,1.939-0.877,2.754-0.911c-0.718,2.271-3.6,4.327-5.852,4.937c1.078-0.086,2.277-0.124,3.341-0.152
	c-1.373,1.408-2.953,2.317-4.737,3.066c-1.241,0.521-2.67,1.273-4.003,0.942c0.763,0.214,1.788-0.021,2.447,0.322
	c-0.421,1.01-3.027,1.463-3.997,1.692c-1.294,0.306-2.516,0.583-3.826,0.517c-4.586-0.23-9.899-2.44-13.086-5.608
	c-1.489-1.48-3.027-3.909-2.596-6.19c0.416-2.204,3.4-3.984,5.49-3.198C59.782,53.227,59.235,53.855,58.755,53.942z"/>
</svg>
