<?xml version="1.0" encoding="utf-8"?>
<!-- Generator: Adobe Illustrator 17.0.0, SVG Export Plug-In . SVG Version: 6.00 Build 0)  -->
<!DOCTYPE svg PUBLIC "-//W3C//DTD SVG 1.1//EN" "http://www.w3.org/Graphics/SVG/1.1/DTD/svg11.dtd">
<svg version="1.1" id="Layer_1" xmlns="http://www.w3.org/2000/svg" xmlns:xlink="http://www.w3.org/1999/xlink" x="0px" y="0px"
	 width="100px" height="100px" viewBox="0 0 100 100" enable-background="new 0 0 100 100" xml:space="preserve">
<path fill="#FCD0A1" d="M93.008,60.207c0,0,3.474-4.911-0.239-11.139c-3.713-6.228-12.217-6.228-14.373-6.228
	c-2.156,0-16.289-1.677-24.315-4.192c-8.024-2.515-22.397-8.504-24.673-9.702c-2.276-1.198-8.863-1.318-8.983,11.019
	c0,0,21.2,12.456,29.824,14.253c8.623,1.797,22.996,6.228,26.35,6.587C79.954,61.166,87.619,63.92,93.008,60.207z"/>
<path fill="#E8B986" d="M89.655,58.65c0,0,2.875-9.821-11.019-10.42c-13.894-0.599-26.47-3.473-32.818-5.749
	c-6.348-2.276-16.769-7.187-19.883-9.223c-3.114-2.036-5.27,2.276-5.509,6.708c0,0,33.177,14.612,39.166,15.69
	C66.844,56.962,86.9,60.447,89.655,58.65z"/>
<path fill="#B35138" d="M14.078,38.169c2.635-2.875,5.51-2.036,6.947-1.557c1.437,0.479,1.318,1.078,17.368,7.426
	c16.049,6.348,40.243,9.582,40.243,9.582c2.396,0.359,2.875,0.24,9.821,1.198c6.947,0.958,7.546,8.504,2.635,11.019
	c-4.911,2.515-21.2,0-29.225-0.838c-8.024-0.838-20.721-4.671-30.063-8.025c-9.342-3.354-17.247-10.899-17.727-11.378
	C13.599,45.116,11.443,41.043,14.078,38.169z"/>
<g>
	<path fill="#9B3924" d="M61.867,64.998c-8.024-0.838-20.721-4.671-30.063-8.025c-9.342-3.354-17.247-10.899-17.727-11.378
		c-0.451-0.451-2.385-4.083-0.416-6.906c1.589,1.522,4.144,3.032,6.175,4.314c2.867,1.811,7.092,2.565,25.952,9.657
		c18.861,7.092,38.929,7.545,40.438,7.696c1.509,0.15,2.68,0.939,1.207,2.263c-1.234,1.109,1.299,3.075,3.009,2.9
		c0.605-0.062,1.288-0.286,1.929-0.555c-0.374,0.331-0.799,0.626-1.279,0.872C86.182,68.352,69.892,65.837,61.867,64.998z"/>
</g>
<g>
	
		<linearGradient id="SVGID_1_" gradientUnits="userSpaceOnUse" x1="-472.477" y1="38.0002" x2="-403.4916" y2="38.0002" gradientTransform="matrix(-1 0 0 1 -380.7337 0)">
		<stop  offset="0.2143" style="stop-color:#FDC075"/>
		<stop  offset="1" style="stop-color:#DE9354"/>
	</linearGradient>
	<path fill="url(#SVGID_1_)" d="M29.409,28.947c2.276,1.197,16.202,6.864,24.226,9.38c8.025,2.515,22.605,4.514,24.761,4.514
		c1.976,0,9.282,0.004,13.347,4.799c-6.422-5.541-18.644-1.014-38.561-5.692c-11.945-2.805-15.843-6.639-26.557-10.863
		c-1.753-0.692-2.85-0.762-3.868-0.388C24.931,27.645,27.995,28.202,29.409,28.947z"/>
</g>
<linearGradient id="SVGID_2_" gradientUnits="userSpaceOnUse" x1="-469.6432" y1="58.0603" x2="-387.2838" y2="58.0603" gradientTransform="matrix(-1 0 0 1 -380.7337 0)">
	<stop  offset="0.2143" style="stop-color:#FDC075"/>
	<stop  offset="1" style="stop-color:#DE9354"/>
</linearGradient>
<path fill="url(#SVGID_2_)" d="M88.91,66.489c0,0-1.593,1.092-7.399-2.449c-6.221-3.794-13.295-4.312-18.206-5.27
	c-4.911-0.958-33.536-10.42-36.651-11.618c-3.114-1.198-11.78-5.811-13.295-6.348c-3.713-1.318-8.656-0.827-6.108,6.109
	c2.156,5.869,6.228,11.378,21.559,20.122c15.331,8.744,39.987,10.757,51.144,7.187C85.942,72.304,88.91,68.285,88.91,66.489z"/>
<g>
	<path fill="#FCD0A1" d="M13.361,40.81c1.514,0.538,10.18,5.15,13.295,6.348c3.114,1.198,31.74,10.66,36.651,11.618
		c4.91,0.958,11.985,1.477,18.205,5.27c5.807,3.542,7.399,2.449,7.399,2.449c0,1.514-2.117,4.602-6.364,6.684
		c-0.211-1.276-0.55-2.263-0.771-2.558c-0.679-0.905-4.753-0.905-7.243-2.037c-2.49-1.132-13.806-3.169-17.653-3.848
		c-3.848-0.679-8.827-0.905-10.638-1.358c-1.811-0.452-5.206-2.037-6.79-2.49c-1.584-0.453-0.905-0.226-4.3-0.905
		C31.758,59.305,16.594,49.12,12.52,47.083c-2.817-1.408-3.794-4.223-4.353-6.425C9.551,39.967,11.594,40.183,13.361,40.81z"/>
</g>
<g>
	<path fill="#9B3924" d="M75.762,58.567c1.552-0.377,3.407-0.745,5.711-0.745l0,0c0.932,0,1.938,0.061,3.027,0.207l0,0h-0.001
		c0.5,0.068,0.958-0.28,1.025-0.775l0,0c0.068-0.496-0.281-0.952-0.78-1.019l0,0c-1.17-0.157-2.259-0.223-3.271-0.223l0,0
		c-2.5,0-4.528,0.404-6.144,0.798l0,0c-1.608,0.398-2.831,0.757-3.564,0.745l0,0c-0.218,0-0.387-0.025-0.526-0.068l0,0
		c-0.75-0.204-1.925-1.32-3.312-2.586l0,0c-1.405-1.251-3.126-2.636-5.407-3.206l0,0c-0.704-0.175-1.394-0.246-2.064-0.246l0,0
		c-2.833,0.026-5.285,1.144-7.61,1.119l0,0c-0.727-0.001-1.44-0.096-2.18-0.347l0,0c-1.875-0.637-2.94-1.71-4.397-2.979l0,0
		c-1.441-1.259-3.26-2.633-6.372-3.425l0,0c-0.899-0.231-1.75-0.318-2.553-0.316l0,0c-2.329,0.012-4.217,0.669-5.917,0.653l0,0
		c-0.453,0-0.895-0.041-1.341-0.141l0,0c-0.542-0.131-0.835-0.372-1.214-0.864l0,0c-0.368-0.488-0.731-1.212-1.237-2.017l0,0
		c-1-1.623-2.749-3.491-6.437-4.217l0,0c-0.491-0.101-0.972,0.215-1.074,0.704l0,0c-0.101,0.49,0.216,0.968,0.709,1.069l0,0
		c2.44,0.509,3.656,1.408,4.511,2.384l0,0c0.86,0.983,1.31,2.119,2.064,3.153l0,0c0.498,0.683,1.237,1.329,2.278,1.553l0,0
		c0.596,0.133,1.178,0.185,1.741,0.185l0,0c2.127-0.016,3.97-0.667,5.917-0.655l0,0c0.673,0.001,1.363,0.072,2.097,0.26l0,0
		c2.801,0.728,4.243,1.838,5.63,3.035l0,0c1.373,1.188,2.703,2.548,5.008,3.331l0,0c0.948,0.32,1.876,0.442,2.767,0.442l0,0
		c2.854-0.025,5.311-1.144,7.61-1.119l0,0c0.544,0,1.079,0.056,1.622,0.191l0,0c1.795,0.443,3.286,1.592,4.633,2.797l0,0
		c1.365,1.193,2.484,2.458,3.98,2.965l0,0c0.354,0.111,0.714,0.153,1.074,0.153l0,0C72.974,59.353,74.203,58.939,75.762,58.567
		L75.762,58.567z"/>
</g>
<g>
	<path fill="#F6B21A" d="M75.777,58.227c1.543-0.377,3.386-0.745,5.678-0.745l0,0c0.926,0,1.926,0.061,3.009,0.207l0,0h-0.001
		c0.497,0.068,0.953-0.28,1.019-0.775l0,0c0.067-0.496-0.28-0.952-0.776-1.019l0,0c-1.163-0.156-2.246-0.223-3.251-0.223l0,0
		c-2.485,0-4.503,0.404-6.108,0.798l0,0c-1.6,0.398-2.815,0.757-3.544,0.745l0,0c-0.216,0-0.385-0.025-0.522-0.068l0,0
		c-0.747-0.204-1.914-1.32-3.293-2.586l0,0c-1.397-1.251-3.108-2.636-5.376-3.206l0,0c-0.7-0.175-1.386-0.245-2.052-0.245l0,0
		c-2.816,0.026-5.254,1.144-7.566,1.119l0,0c-0.722-0.001-1.432-0.096-2.167-0.346l0,0c-1.865-0.637-2.924-1.71-4.372-2.979l0,0
		c-1.432-1.259-3.241-2.633-6.335-3.424l0,0c-0.893-0.231-1.739-0.318-2.538-0.317l0,0c-2.315,0.012-4.192,0.669-5.883,0.653l0,0
		c-0.45,0-0.889-0.041-1.333-0.14l0,0c-0.539-0.131-0.83-0.373-1.207-0.864l0,0c-0.365-0.488-0.727-1.212-1.23-2.017l0,0
		c-0.994-1.623-2.732-3.491-6.399-4.217l0,0c-0.489-0.101-0.967,0.215-1.068,0.704l0,0c-0.101,0.49,0.215,0.968,0.704,1.069l0,0
		c2.426,0.509,3.634,1.408,4.485,2.384l0,0c0.855,0.983,1.302,2.119,2.052,3.153l0,0c0.495,0.683,1.23,1.329,2.264,1.553l0,0
		c0.592,0.133,1.171,0.185,1.731,0.185l0,0c2.115-0.016,3.948-0.667,5.883-0.654l0,0c0.67,0.001,1.355,0.071,2.085,0.26l0,0
		c2.784,0.728,4.218,1.838,5.597,3.035l0,0c1.365,1.188,2.688,2.548,4.979,3.33l0,0c0.942,0.32,1.865,0.442,2.751,0.442l0,0
		c2.838-0.025,5.28-1.144,7.566-1.119l0,0c0.541,0,1.073,0.056,1.611,0.191l0,0c1.785,0.442,3.267,1.592,4.607,2.797l0,0
		c1.357,1.193,2.47,2.458,3.957,2.965l0,0c0.352,0.111,0.71,0.153,1.068,0.153l0,0C73.005,59.013,74.227,58.599,75.777,58.227
		L75.777,58.227z"/>
</g>
<g>
	<path fill="#FBD702" d="M71.802,57.929c2.038-0.013,4.916-1.544,9.652-1.542l0,0c0.956,0,1.987,0.063,3.099,0.214l0,0
		c0.124,0.016,0.237-0.07,0.255-0.194l0,0c0.016-0.125-0.07-0.238-0.194-0.255l0,0c-1.133-0.153-2.184-0.217-3.16-0.217l0,0
		c-4.818,0.002-7.827,1.555-9.652,1.542l0,0c-0.27,0-0.509-0.032-0.728-0.101l0,0c-2.081-0.621-4.474-4.726-8.628-5.78l0,0
		c-0.64-0.16-1.268-0.224-1.887-0.224l0,0c-2.617,0.006-5.057,1.125-7.567,1.119l0,0c-0.783,0-1.573-0.107-2.386-0.383l0,0
		c-4.03-1.347-4.686-4.83-10.658-6.389l0,0c-0.831-0.215-1.618-0.295-2.368-0.295l0,0c-2.172,0.003-4.033,0.657-5.882,0.653l0,0
		c-0.491,0-0.983-0.045-1.484-0.157l0,0c-1.429-0.311-1.893-1.63-2.861-3.181l0,0c-0.961-1.536-2.46-3.2-5.961-3.914l0,0
		c-0.122-0.025-0.242,0.054-0.267,0.176l0,0c-0.025,0.122,0.054,0.242,0.176,0.267l0,0c3.391,0.705,4.729,2.233,5.669,3.712l0,0
		c0.932,1.464,1.431,2.982,3.145,3.381l0,0c0.538,0.12,1.064,0.168,1.583,0.168l0,0c1.955-0.004,3.804-0.657,5.882-0.654l0,0
		c0.719,0,1.465,0.077,2.255,0.281l0,0c5.784,1.482,6.345,4.889,10.626,6.38l0,0c0.864,0.293,1.706,0.406,2.531,0.406l0,0
		c2.641-0.006,5.082-1.125,7.567-1.119l0,0c0.587,0.001,1.177,0.062,1.776,0.21l0,0c3.953,0.973,6.223,4.976,8.602,5.773l0,0
		c0.27,0.085,0.553,0.121,0.853,0.121l0,0C71.794,57.929,71.798,57.929,71.802,57.929L71.802,57.929z"/>
</g>
</svg>
