<?xml version="1.0" encoding="utf-8"?>
<!-- Generator: Adobe Illustrator 17.0.0, SVG Export Plug-In . SVG Version: 6.00 Build 0)  -->
<!DOCTYPE svg PUBLIC "-//W3C//DTD SVG 1.1//EN" "http://www.w3.org/Graphics/SVG/1.1/DTD/svg11.dtd">
<svg version="1.1" id="Layer_1" xmlns="http://www.w3.org/2000/svg" xmlns:xlink="http://www.w3.org/1999/xlink" x="0px" y="0px"
	 width="100px" height="100px" viewBox="0 0 100 100" enable-background="new 0 0 100 100" xml:space="preserve">
<path fill="#D78334" d="M34.876,45.522c0,0-0.876,9.259,5.881,11.511c6.757,2.253,21.771,0.501,21.771,0.501
	s6.632-3.379,5.13-11.887L34.876,45.522z"/>
<path fill="#D78334" d="M39.782,57.899c0,0,8.363,32.029,8.616,32.589c0.253,0.56,3.771,0.797,4.278-0.404
	c0.507-1.201,10.8-32.426,10.8-32.426L39.782,57.899z"/>
<g>
	<g>
		<path fill="#F4953F" d="M52.13,58.34l0.078,0.004l10.327,2.081c0.199,0.038,0.307,0.173,0.244,0.297
			c-0.051,0.103-0.196,0.167-0.355,0.167c-0.037,0-0.078-0.004-0.115-0.013l-10.185-2.053l-11.507,2.181
			c-0.034,0.006-0.071,0.009-0.108,0.009c-0.162,0-0.311-0.066-0.358-0.169c-0.061-0.126,0.054-0.256,0.253-0.295l11.615-2.203
			L52.13,58.34z"/>
	</g>
	<g>
		<path fill="#F4953F" d="M40.651,61.376c0.041,0,0.083,0.004,0.124,0.013l10.618,2.369l10.51-2.329
			c0.04-0.009,0.082-0.013,0.123-0.013c0.154,0,0.3,0.061,0.353,0.159c0.068,0.124-0.034,0.261-0.229,0.304l-9.625,2.132
			l8.138,1.817c0.196,0.043,0.297,0.177,0.229,0.304c-0.054,0.096-0.199,0.158-0.354,0.158c-0.041,0-0.085-0.004-0.125-0.015
			l-9.023-2.012l-9.368,2.076c-0.04,0.009-0.081,0.013-0.125,0.013c-0.155,0-0.301-0.062-0.355-0.158
			c-0.068-0.124,0.038-0.261,0.23-0.304l8.486-1.88l-9.733-2.172c-0.196-0.045-0.297-0.18-0.229-0.304
			C40.349,61.437,40.495,61.376,40.651,61.376z"/>
	</g>
	<g>
		<path fill="#F4953F" d="M60.238,67.385c0.157,0,0.304,0.062,0.357,0.161c0.068,0.124-0.034,0.259-0.233,0.302l-8.216,1.817
			l6.828,1.503c0.196,0.045,0.301,0.18,0.233,0.304c-0.054,0.098-0.199,0.159-0.355,0.159c-0.041,0-0.081-0.005-0.122-0.013
			l-7.723-1.7l-7.399,1.638c-0.044,0.009-0.084,0.013-0.125,0.013c-0.155,0-0.301-0.062-0.355-0.161
			c-0.068-0.124,0.034-0.259,0.229-0.301l6.507-1.438l-7.696-1.693c-0.196-0.043-0.297-0.18-0.229-0.302
			c0.054-0.099,0.199-0.161,0.355-0.161c0.04,0,0.081,0.004,0.121,0.013l8.588,1.89l9.112-2.017
			C60.156,67.389,60.198,67.385,60.238,67.385z"/>
	</g>
	<g>
		<path fill="#F4953F" d="M58.06,73.73c0.155,0,0.3,0.062,0.353,0.16c0.068,0.122-0.034,0.259-0.23,0.301l-5.997,1.345l5.004,1.098
			c0.196,0.043,0.301,0.178,0.233,0.302c-0.054,0.099-0.2,0.161-0.355,0.161c-0.041,0-0.084-0.005-0.125-0.013l-5.892-1.293
			l-6.054,1.355c-0.04,0.008-0.084,0.013-0.125,0.013c-0.155,0-0.301-0.06-0.355-0.158c-0.068-0.124,0.034-0.259,0.229-0.304
			l5.165-1.156l-5.858-1.284c-0.196-0.043-0.301-0.178-0.233-0.302c0.053-0.098,0.201-0.16,0.356-0.16
			c0.04,0,0.081,0.004,0.12,0.013l6.75,1.479l6.885-1.541C57.975,73.735,58.018,73.73,58.06,73.73z"/>
	</g>
	<g>
		<path fill="#F4953F" d="M45.764,79.698c0.044,0,0.089,0.005,0.133,0.016l5.524,1.331l4.327-1.019
			c0.042-0.01,0.086-0.015,0.129-0.015c0.152,0,0.296,0.059,0.354,0.156c0.071,0.122-0.027,0.259-0.223,0.306l-3.523,0.828
			l2.534,0.61c0.196,0.047,0.294,0.184,0.22,0.306c-0.058,0.096-0.199,0.154-0.351,0.154c-0.044,0-0.088-0.004-0.132-0.015
			l-3.338-0.805l-5.027,1.181c-0.04,0.011-0.084,0.015-0.128,0.015c-0.152,0-0.297-0.058-0.355-0.154
			c-0.071-0.124,0.03-0.261,0.223-0.306l4.219-0.993l-4.719-1.137c-0.193-0.047-0.291-0.184-0.216-0.308
			C45.471,79.757,45.613,79.698,45.764,79.698z"/>
	</g>
	<g>
		<g>
			<path fill="#F4953F" d="M62.778,60.722c-0.011,0.022-0.028,0.042-0.047,0.06c-0.007,0.007-0.015,0.013-0.024,0.02
				c-0.015,0.011-0.032,0.022-0.05,0.032c-0.01,0.005-0.02,0.011-0.031,0.015c-0.02,0.009-0.042,0.015-0.065,0.021
				c-0.01,0.003-0.02,0.006-0.031,0.008c-0.034,0.006-0.07,0.011-0.107,0.011c-0.037,0-0.078-0.004-0.115-0.013l-10.185-2.053
				l-11.507,2.181c-0.034,0.006-0.071,0.009-0.108,0.009c-0.162,0-0.311-0.066-0.358-0.169c-0.011-0.023-0.016-0.046-0.016-0.069
				V60.9c0,0.023,0.005,0.046,0.016,0.069c0.047,0.103,0.196,0.169,0.358,0.169c0.037,0,0.074-0.002,0.108-0.009l11.507-2.181
				l10.185,2.053c0.037,0.009,0.078,0.013,0.115,0.013c0.037,0,0.073-0.004,0.107-0.01c0.011-0.002,0.02-0.006,0.031-0.009
				c0.023-0.006,0.045-0.012,0.065-0.021c0.011-0.005,0.021-0.009,0.031-0.015c0.018-0.009,0.035-0.02,0.05-0.032
				c0.008-0.006,0.017-0.013,0.024-0.02c0.004-0.004,0.01-0.007,0.014-0.012c0.012-0.014,0.023-0.029,0.031-0.044
				c0.001-0.001,0.001-0.003,0.002-0.004c0.007-0.013,0.011-0.026,0.014-0.039c0.003-0.011,0.004-0.023,0.004-0.034v-0.125
				C62.796,60.673,62.791,60.697,62.778,60.722z"/>
			<path fill="#F4953F" d="M62.382,61.728c-0.01,0.019-0.025,0.036-0.041,0.054c-0.014,0.015-0.033,0.027-0.052,0.039
				c-0.01,0.006-0.018,0.014-0.029,0.019c-0.032,0.017-0.069,0.031-0.111,0.04l-9.625,2.132v0.125l9.625-2.132
				c0.042-0.009,0.079-0.023,0.111-0.04c0.011-0.006,0.018-0.012,0.028-0.019c0.02-0.013,0.038-0.025,0.053-0.04
				c0.003-0.002,0.007-0.004,0.01-0.007c0.012-0.014,0.022-0.028,0.03-0.043c0-0.001,0-0.002,0.001-0.003
				c0.001-0.001,0.001-0.003,0.002-0.005c0.005-0.01,0.01-0.021,0.012-0.032c0.003-0.012,0.004-0.024,0.004-0.036v-0.125
				c0,0.023-0.006,0.046-0.016,0.068C62.383,61.724,62.383,61.727,62.382,61.728z"/>
			<path fill="#F4953F" d="M50.258,64.011l-9.733-2.172c-0.155-0.036-0.25-0.127-0.25-0.225v0.125c0,0.098,0.096,0.189,0.25,0.225
				l9.733,2.172V64.011z"/>
			<path fill="#F4953F" d="M60.847,66.186c-0.008,0.007-0.017,0.015-0.026,0.021c-0.015,0.011-0.031,0.02-0.048,0.029
				c-0.01,0.005-0.021,0.011-0.032,0.016c-0.02,0.008-0.042,0.015-0.064,0.02c-0.01,0.003-0.021,0.006-0.032,0.009
				c-0.034,0.006-0.07,0.01-0.106,0.01c-0.041,0-0.085-0.004-0.125-0.015l-9.023-2.012l-9.368,2.076
				c-0.04,0.009-0.081,0.013-0.125,0.013c-0.155,0-0.301-0.062-0.355-0.158c-0.014-0.026-0.02-0.052-0.02-0.078v0.125
				c0,0.026,0.006,0.052,0.02,0.078c0.054,0.096,0.199,0.158,0.355,0.158c0.044,0,0.084-0.004,0.125-0.013l9.368-2.076l9.023,2.012
				c0.041,0.011,0.085,0.015,0.125,0.015c0.036,0,0.072-0.004,0.106-0.01c0.011-0.002,0.021-0.006,0.032-0.009
				c0.022-0.005,0.044-0.012,0.064-0.02c0.012-0.005,0.022-0.01,0.032-0.015c0.017-0.009,0.034-0.018,0.048-0.029
				c0.01-0.007,0.018-0.014,0.026-0.021c0.005-0.005,0.013-0.01,0.018-0.015c0.011-0.012,0.02-0.025,0.027-0.038
				c0.001-0.001,0.002-0.003,0.002-0.004c0.007-0.013,0.011-0.026,0.015-0.039c0.003-0.012,0.004-0.024,0.004-0.036v-0.125
				c0,0.026-0.007,0.054-0.021,0.08C60.882,66.152,60.865,66.169,60.847,66.186z"/>
			<path fill="#F4953F" d="M60.598,67.696c-0.009,0.019-0.025,0.036-0.041,0.053c-0.015,0.015-0.033,0.027-0.052,0.04
				c-0.01,0.006-0.018,0.013-0.029,0.019c-0.033,0.017-0.07,0.031-0.113,0.04l-8.216,1.817v0.125l8.216-1.817
				c0.043-0.009,0.08-0.023,0.113-0.04c0.011-0.006,0.02-0.013,0.029-0.019c0.019-0.013,0.038-0.025,0.052-0.04
				c0.003-0.003,0.008-0.005,0.011-0.008c0.012-0.014,0.022-0.028,0.029-0.042c0-0.001,0-0.001,0.001-0.002
				c0-0.001,0-0.001,0.001-0.002c0.005-0.011,0.01-0.023,0.013-0.035c0.003-0.011,0.004-0.023,0.004-0.035v-0.125
				c0,0.024-0.006,0.048-0.017,0.07C60.599,67.695,60.599,67.695,60.598,67.696z"/>
			<path fill="#F4953F" d="M49.866,69.667l-7.696-1.693c-0.154-0.034-0.25-0.127-0.25-0.224v0.125c0,0.098,0.096,0.19,0.25,0.224
				l7.696,1.693V69.667z"/>
			<path fill="#F4953F" d="M59.162,71.525c-0.008,0.008-0.017,0.015-0.027,0.022c-0.014,0.01-0.03,0.019-0.047,0.029
				c-0.011,0.006-0.021,0.011-0.033,0.016c-0.02,0.008-0.041,0.014-0.063,0.02c-0.011,0.003-0.021,0.006-0.033,0.008
				c-0.034,0.006-0.07,0.01-0.106,0.01c-0.041,0-0.081-0.005-0.122-0.013l-7.723-1.7l-7.399,1.638
				c-0.044,0.009-0.084,0.013-0.125,0.013c-0.155,0-0.301-0.062-0.355-0.161c-0.014-0.026-0.021-0.052-0.021-0.078v0.124
				c0,0.026,0.007,0.053,0.021,0.079c0.054,0.098,0.199,0.161,0.355,0.161c0.041,0,0.081-0.005,0.125-0.013l7.399-1.637l7.723,1.7
				c0.041,0.008,0.081,0.013,0.122,0.013c0.036,0,0.072-0.004,0.106-0.01c0.011-0.002,0.021-0.005,0.032-0.008
				c0.022-0.005,0.044-0.011,0.064-0.02c0.012-0.005,0.022-0.01,0.033-0.016c0.017-0.008,0.033-0.018,0.048-0.029
				c0.01-0.007,0.018-0.014,0.027-0.022c0.006-0.005,0.013-0.009,0.018-0.015c0.011-0.012,0.021-0.025,0.028-0.039
				c0.001-0.001,0.001-0.002,0.002-0.003c0.007-0.013,0.011-0.026,0.015-0.039c0.003-0.011,0.004-0.023,0.004-0.034v-0.125
				c0,0.025-0.007,0.052-0.021,0.077C59.196,71.491,59.179,71.508,59.162,71.525z"/>
			<path fill="#F4953F" d="M58.416,74.04c-0.01,0.019-0.025,0.036-0.041,0.052c-0.015,0.015-0.034,0.028-0.054,0.041
				c-0.009,0.006-0.017,0.013-0.028,0.018c-0.032,0.017-0.069,0.031-0.111,0.04l-5.997,1.345v0.124l5.997-1.344
				c0.042-0.009,0.078-0.023,0.111-0.04c0.011-0.005,0.018-0.012,0.028-0.018c0.02-0.013,0.039-0.026,0.054-0.041
				c0.002-0.003,0.006-0.005,0.009-0.007c0.013-0.014,0.023-0.028,0.031-0.043c0-0.001,0-0.002,0.001-0.002
				c0.001-0.001,0.001-0.003,0.002-0.004c0.005-0.011,0.009-0.022,0.012-0.033c0.003-0.012,0.004-0.024,0.004-0.035v-0.124
				c0,0.023-0.006,0.047-0.017,0.069C58.417,74.038,58.417,74.039,58.416,74.04z"/>
			<path fill="#F4953F" d="M49.913,75.54l-5.858-1.284c-0.156-0.034-0.254-0.126-0.254-0.225v0.125c0,0.099,0.098,0.191,0.254,0.225
				l5.858,1.284V75.54z"/>
			<path fill="#F4953F" d="M57.377,76.991c-0.008,0.007-0.016,0.015-0.026,0.021c-0.014,0.011-0.031,0.021-0.048,0.029
				c-0.011,0.006-0.021,0.011-0.032,0.016c-0.02,0.009-0.042,0.014-0.064,0.02c-0.01,0.003-0.021,0.006-0.032,0.009
				c-0.034,0.006-0.07,0.01-0.106,0.01c-0.041,0-0.084-0.005-0.125-0.013l-5.892-1.293l-6.054,1.355
				c-0.04,0.008-0.084,0.013-0.125,0.013c-0.155,0-0.301-0.06-0.355-0.158c-0.014-0.026-0.021-0.053-0.021-0.079v0.125
				c0,0.026,0.007,0.053,0.021,0.079c0.054,0.098,0.199,0.159,0.355,0.159c0.041,0,0.085-0.005,0.125-0.013l6.054-1.355l5.892,1.293
				c0.04,0.009,0.084,0.013,0.125,0.013c0.037,0,0.072-0.004,0.106-0.01c0.011-0.002,0.021-0.006,0.032-0.009
				c0.023-0.006,0.044-0.012,0.064-0.02c0.012-0.005,0.022-0.01,0.032-0.015c0.017-0.009,0.034-0.019,0.048-0.03
				c0.01-0.007,0.018-0.014,0.026-0.021c0.006-0.005,0.013-0.009,0.018-0.015c0.011-0.013,0.021-0.026,0.028-0.04
				c0.001-0.001,0.001-0.002,0.002-0.004c0.007-0.013,0.011-0.026,0.015-0.039c0.003-0.011,0.004-0.023,0.004-0.035v-0.125
				c0,0.026-0.007,0.052-0.021,0.077C57.413,76.956,57.395,76.974,57.377,76.991z"/>
			<path fill="#F4953F" d="M56.236,80.322c-0.009,0.019-0.024,0.036-0.041,0.053c-0.014,0.014-0.032,0.027-0.051,0.039
				c-0.01,0.006-0.017,0.014-0.028,0.019c-0.032,0.016-0.068,0.031-0.109,0.041l-3.523,0.828v0.125l3.523-0.828
				c0.041-0.01,0.077-0.024,0.109-0.041c0.011-0.006,0.019-0.013,0.029-0.02c0.019-0.012,0.036-0.025,0.05-0.039
				c0.002-0.003,0.007-0.005,0.009-0.007c0.012-0.014,0.022-0.028,0.03-0.043c0-0.001,0.001-0.002,0.001-0.003
				c0.001-0.002,0.001-0.003,0.002-0.005c0.005-0.011,0.01-0.021,0.012-0.032c0.003-0.012,0.004-0.023,0.004-0.035V80.25
				c0,0.023-0.006,0.045-0.016,0.067C56.237,80.319,56.237,80.32,56.236,80.322z"/>
			<path fill="#F4953F" d="M50.349,81.296l-4.719-1.137c-0.149-0.036-0.241-0.126-0.241-0.222v0.125
				c0,0.096,0.092,0.186,0.241,0.222l4.719,1.137V81.296z"/>
			<path fill="#F4953F" d="M55.192,82.27c-0.008,0.008-0.017,0.015-0.027,0.022c-0.015,0.01-0.031,0.019-0.048,0.028
				c-0.011,0.005-0.021,0.011-0.032,0.016c-0.02,0.008-0.042,0.014-0.064,0.019c-0.01,0.003-0.02,0.006-0.031,0.008
				c-0.034,0.006-0.069,0.01-0.105,0.01c-0.044,0-0.088-0.004-0.132-0.015l-3.338-0.805l-5.027,1.181
				c-0.04,0.011-0.084,0.015-0.128,0.015c-0.152,0-0.297-0.058-0.355-0.154c-0.016-0.027-0.023-0.054-0.023-0.081v0.125
				c0,0.027,0.007,0.054,0.023,0.081c0.057,0.096,0.203,0.154,0.355,0.154c0.044,0,0.088-0.004,0.128-0.015l5.027-1.181l3.338,0.805
				c0.044,0.011,0.088,0.015,0.132,0.015c0.036,0,0.071-0.004,0.105-0.01c0.011-0.002,0.02-0.005,0.031-0.008
				c0.022-0.005,0.044-0.011,0.064-0.019c0.011-0.005,0.021-0.01,0.032-0.016c0.017-0.008,0.033-0.017,0.048-0.028
				c0.01-0.007,0.018-0.015,0.027-0.022c0.006-0.005,0.015-0.01,0.02-0.016c0.01-0.011,0.018-0.022,0.026-0.034
				c0.002-0.003,0.004-0.007,0.006-0.01c0.007-0.013,0.012-0.027,0.015-0.04c0.002-0.011,0.004-0.023,0.004-0.034v-0.125
				c0,0.028-0.008,0.056-0.025,0.084C55.226,82.237,55.21,82.254,55.192,82.27z"/>
			<path fill="#F4953F" d="M54.351,86.542c-0.009,0.019-0.023,0.036-0.04,0.053c-0.014,0.015-0.033,0.027-0.052,0.04
				c-0.009,0.006-0.016,0.012-0.025,0.017c-0.032,0.017-0.067,0.031-0.107,0.04l-2.132,0.501v0.125l2.132-0.501
				c0.04-0.01,0.075-0.023,0.107-0.039c0.01-0.006,0.018-0.013,0.027-0.019c0.019-0.012,0.037-0.024,0.051-0.039
				c0.002-0.002,0.006-0.004,0.008-0.006c0.013-0.014,0.022-0.028,0.03-0.043c0-0.001,0.001-0.002,0.001-0.003
				c0.001-0.002,0.001-0.005,0.003-0.006c0.004-0.01,0.009-0.02,0.011-0.031c0.003-0.012,0.004-0.024,0.004-0.036v-0.124
				c0,0.023-0.006,0.044-0.016,0.066C54.353,86.537,54.352,86.539,54.351,86.542z"/>
			<path fill="#F4953F" d="M49.951,87.168l-2.744-0.73c-0.145-0.037-0.232-0.126-0.232-0.219v0.125c0,0.093,0.088,0.182,0.232,0.219
				l2.744,0.73V87.168z"/>
			<path fill="#F4953F" d="M53.802,87.989c-0.008,0.007-0.016,0.015-0.026,0.022c-0.014,0.01-0.031,0.018-0.047,0.026
				c-0.011,0.005-0.021,0.011-0.033,0.016c-0.019,0.007-0.04,0.013-0.062,0.018c-0.011,0.003-0.021,0.007-0.033,0.009
				c-0.033,0.006-0.068,0.01-0.103,0.01c-0.047,0-0.098-0.007-0.146-0.019l-2.388-0.634l-2.987,0.7
				c-0.044,0.01-0.088,0.015-0.132,0.015c-0.152,0-0.294-0.058-0.351-0.154c-0.016-0.028-0.023-0.055-0.023-0.083v0.125
				c0,0.027,0.007,0.056,0.023,0.083c0.057,0.096,0.199,0.154,0.351,0.154c0.044,0,0.088-0.004,0.132-0.015l2.987-0.7l2.388,0.634
				c0.047,0.012,0.098,0.019,0.146,0.019c0.036,0,0.07-0.003,0.103-0.009c0.012-0.002,0.022-0.006,0.034-0.009
				c0.021-0.005,0.041-0.01,0.06-0.018c0.012-0.005,0.023-0.011,0.034-0.017c0.016-0.008,0.031-0.016,0.046-0.026
				c0.01-0.007,0.019-0.015,0.028-0.023c0.008-0.007,0.017-0.013,0.024-0.02c0.007-0.008,0.013-0.016,0.019-0.024
				c0.003-0.005,0.006-0.01,0.008-0.015c0.007-0.014,0.013-0.027,0.016-0.041c0.003-0.012,0.004-0.024,0.004-0.036v-0.125
				c0,0.03-0.009,0.061-0.028,0.091C53.835,87.961,53.818,87.975,53.802,87.989z"/>
		</g>
		<g>
			<path fill="#F4953F" d="M47.352,85.981c0.047,0,0.096,0.006,0.142,0.018l3.483,0.927l2.885-0.679
				c0.043-0.01,0.088-0.014,0.131-0.014c0.154,0,0.297,0.059,0.352,0.153c0.071,0.124-0.027,0.261-0.22,0.306l-2.132,0.501
				l1.649,0.439c0.192,0.051,0.28,0.191,0.203,0.312c-0.061,0.09-0.199,0.146-0.348,0.146c-0.047,0-0.098-0.007-0.146-0.019
				l-2.388-0.634l-2.987,0.7c-0.044,0.01-0.088,0.015-0.132,0.015c-0.152,0-0.294-0.058-0.351-0.154
				c-0.071-0.124,0.027-0.261,0.223-0.306l2.233-0.524l-2.744-0.73c-0.192-0.049-0.284-0.191-0.203-0.31
				C47.066,86.035,47.206,85.981,47.352,85.981z"/>
		</g>
	</g>
</g>
<path fill="#F4953F" d="M63.78,58.159c0,0.415-0.336,0.751-0.751,0.751H39.506c-0.415,0-0.751-0.336-0.751-0.751v-0.876
	c0-0.414,0.336-0.751,0.751-0.751h23.523c0.415,0,0.751,0.336,0.751,0.751V58.159z"/>
<path fill="#F89C44" d="M69.034,45.709c0,0.207-0.48,0.376-1.074,0.376H34.324c-0.593,0-1.074-0.168-1.074-0.376v-0.438
	c0-0.207,0.48-0.375,1.074-0.375h33.637c0.593,0,1.074,0.168,1.074,0.375V45.709z"/>
<path fill="#C75E72" d="M64.978,10.407c0.125,0.022-5.708-1.983-11.424-0.708c-5.748,0.903-11.379,5.086-11.583,8.891
	c0.099-0.434-9.364,1.833-11.195,8.604c-1.687,6.189,1.641,7.169,1.548,7.225c0.01-0.226-2.227,3.185-2.727,6.174
	c-0.594,3.061,0.549,5.698,5.121,5.558c-0.024,0.135,0.134,1.733,3.947,0.521c1.894-0.612,6.061-1.848,10.701-1.881
	c4.731-0.096,12.849,3.233,16.012,3.591c0.358,0.04,4.882,0.424,6.784-4.487c2.585-7.409-4.488-15.072-4.615-14.583
	c-0.112,0.012,4.476-0.147-0.91-5.394C58.708,17.76,62.511,12.372,64.978,10.407z"/>
<path fill="#9A4757" d="M41.971,18.589c0.099-0.434-9.364,1.833-11.195,8.604c-1.687,6.189,1.641,7.169,1.548,7.225
	c0.01-0.226-2.227,3.185-2.727,6.174c-0.594,3.061,0.549,5.698,5.121,5.558c-0.024,0.135,0.134,1.733,3.947,0.521
	c3.373-1.205,11.955-2.361,20.724-0.462c-7.261-3.331-11.793-4.62-14.677-6.952c-2.852-2.029-4.056-5.101-3.92-5.041
	c3.879,0.694,8.895,1.383,12.773,2.927c3.905,1.375,6.672,3.605,6.694,3.494c0.531,0.351,1.282,0.583,1.745,0.351
	c2.631-0.809-1.865-6.603-7.482-8.211c-5.561-2.182-12.629-1.278-14.627-4.169c-2.505-3.861,2.449-7.505,2.532-7.371
	c3.791,2.844,8.56,3.919,12.54,5.215c3.956,1.145,7.124,2.512,7.15,2.449c1.399-0.417-0.773-1.557-0.784-1.533
	c-6.99-3.2-10.036-6.02-10.69-9.508c-0.708-3.284,0.977-7.237,2.211-8.003C48.103,10.483,42.387,14.581,41.971,18.589z"/>
</svg>
