<?xml version="1.0" encoding="utf-8"?>
<!-- Generator: Adobe Illustrator 17.0.0, SVG Export Plug-In . SVG Version: 6.00 Build 0)  -->
<!DOCTYPE svg PUBLIC "-//W3C//DTD SVG 1.1//EN" "http://www.w3.org/Graphics/SVG/1.1/DTD/svg11.dtd">
<svg version="1.1" id="Layer_1" xmlns="http://www.w3.org/2000/svg" xmlns:xlink="http://www.w3.org/1999/xlink" x="0px" y="0px"
	 width="100px" height="100px" viewBox="0 0 100 100" enable-background="new 0 0 100 100" xml:space="preserve">
<g>
	<polygon fill="#304454" stroke="#304454" stroke-miterlimit="10" points="66.97,55.5 68.62,55.962 70.042,56.73 71.261,57.76 
		72.492,58.792 73.521,60.087 74.391,61.594 74.958,61.266 74.05,59.695 72.974,58.343 71.687,57.259 70.39,56.169 68.897,55.361 
		67.145,54.87 66.97,55.5 	"/>
	<polygon fill="#304454" stroke="#304454" stroke-miterlimit="10" points="64.319,68.756 65.235,70.204 65.777,71.727 
		65.993,73.308 66.215,74.899 66.112,76.55 65.75,78.252 66.39,78.387 66.768,76.613 66.874,74.889 66.644,73.221 66.412,71.543 
		65.844,69.943 64.871,68.405 64.319,68.756 	"/>
	<polygon fill="#304454" stroke="#304454" stroke-miterlimit="10" points="55.907,76.29 56.823,77.739 57.365,79.262 57.58,80.842 
		57.803,82.433 57.7,84.084 57.337,85.786 57.978,85.922 58.355,84.147 58.462,82.423 58.232,80.755 57.999,79.078 57.431,77.478 
		56.459,75.94 55.907,76.29 	"/>
	<path fill="#2D353A" d="M55.889,28.34c0.567-0.286,1.13-0.538,1.697-0.757c0.584-0.224,1.176-0.413,1.764-0.564
		c3.024-0.771,5.897-0.47,8.144,1.103l0,0l0,0l0,0c1.257,0.874,2.202,2.068,2.855,3.49c0.157,0.347,0.301,0.705,0.422,1.077
		c0.622,1.874,0.79,4.066,0.515,6.401c0.293,0.679,0.543,1.381,0.758,2.103c0.236,0.774,0.426,1.565,0.568,2.371
		c0.74,4.133,0.343,8.68-1.233,13.113c-0.05,0.617-0.125,1.241-0.227,1.864c-0.102,0.638-0.229,1.274-0.375,1.901
		c-0.773,3.253-2.175,6.457-4.239,9.411l0,0l0,0c-4.014,5.75-9.764,9.48-15.822,10.863c-6.066,1.383-12.432,0.407-17.673-3.246l0,0
		l0,0l0,0l0,0C27.81,73.814,24.701,68.172,23.91,62c-0.79-6.16,0.725-12.845,4.742-18.597l0,0l0,0l0,0l0,0
		c1.434-2.057,3.087-3.847,4.9-5.372c0.29-0.245,0.59-0.484,0.895-0.718c1.545-1.194,3.192-2.194,4.908-3.001
		c0.694-0.579,1.406-1.115,2.135-1.611c0.737-0.503,1.489-0.967,2.26-1.387C47.649,29.174,51.869,28.136,55.889,28.34L55.889,28.34z
		"/>
	<path fill-rule="evenodd" clip-rule="evenodd" fill="#D14E3F" d="M26.113,44.031c8.421-12.063,24.126-15.644,35.083-8.001
		c10.951,7.651,13.003,23.63,4.581,35.697c-8.421,12.062-24.133,15.648-35.083,8.001C19.739,72.08,17.687,56.101,26.113,44.031z"/>
	<g>
		<path fill-rule="evenodd" clip-rule="evenodd" fill="#FFFFFF" d="M54.299,31.39c1.096-1.575,3.259-1.96,4.831-0.862
			c1.444,1.01,1.888,2.92,1.097,4.442c-2.043-1.15-4.229-1.918-6.472-2.334C53.85,32.199,54.03,31.773,54.299,31.39L54.299,31.39z"
			/>
		<path fill-rule="evenodd" clip-rule="evenodd" fill="#FFFFFF" d="M63.572,37.304c1.157-1.269,3.101-1.511,4.545-0.5
			c1.57,1.095,1.958,3.258,0.86,4.829c-0.271,0.389-0.609,0.705-0.983,0.941C66.832,40.613,65.354,38.83,63.572,37.304
			L63.572,37.304z"/>
	</g>
	<g>
		<path fill-rule="evenodd" clip-rule="evenodd" fill="#E6E7E8" d="M55.042,30.614c1.17-0.892,2.82-0.969,4.088-0.086
			c0.464,0.32,0.823,0.733,1.068,1.201C58.549,31.086,56.811,30.718,55.042,30.614L55.042,30.614z"/>
		<path fill-rule="evenodd" clip-rule="evenodd" fill="#E6E7E8" d="M66.623,36.213c0.523,0.072,1.036,0.266,1.494,0.591
			c1.268,0.884,1.764,2.46,1.33,3.862C68.738,39.047,67.794,37.542,66.623,36.213L66.623,36.213z"/>
	</g>
	<polygon fill="#304454" points="64.529,27.414 65.074,25.789 65.234,24.185 65.073,22.598 64.909,21.002 64.421,19.422 
		63.659,17.854 64.251,17.566 65.04,19.204 65.554,20.855 65.725,22.53 65.897,24.209 65.725,25.907 65.146,27.627 64.529,27.414 	
		"/>
	<polygon fill="#304454" points="69.18,30.666 70.516,29.594 71.969,28.884 73.515,28.492 75.071,28.092 76.723,28.009 
		78.455,28.178 78.518,27.527 76.712,27.351 74.987,27.438 73.356,27.854 71.715,28.274 70.189,29.018 68.77,30.157 69.18,30.666 	
		"/>
	<path fill-rule="evenodd" clip-rule="evenodd" fill="#7A3440" d="M36.685,58.914c5.351-11.051,15.047-19.406,25.003-22.644
		c-0.164-0.122-0.324-0.247-0.492-0.365c-10.957-7.643-26.662-4.061-35.083,8.001c-8.427,12.07-6.375,28.049,4.581,35.697
		c0.947,0.661,1.932,1.233,2.942,1.728C31.93,74.878,32.803,66.931,36.685,58.914z"/>
	<path fill-rule="evenodd" clip-rule="evenodd" fill="#2D353A" d="M31.033,46.676c1.164-1.385,3.206-1.895,4.566-1.142
		c1.361,0.755,1.523,2.486,0.359,3.871c-1.164,1.385-3.21,1.898-4.57,1.146C30.027,49.797,29.871,48.06,31.033,46.676z"/>
	<path fill-rule="evenodd" clip-rule="evenodd" fill="#2D353A" d="M52.683,58.911c0.406-1.763-0.524-3.237-2.08-3.289
		c-1.553-0.051-3.142,1.336-3.548,3.099c-0.406,1.763,0.527,3.229,2.082,3.282C50.692,62.056,52.277,60.675,52.683,58.911z"/>
	<path fill-rule="evenodd" clip-rule="evenodd" fill="#2D353A" d="M47.987,74.107c0.446-1.935-0.576-3.552-2.283-3.61
		c-1.704-0.056-3.449,1.466-3.895,3.402c-0.446,1.935,0.578,3.544,2.285,3.602C45.802,77.558,47.542,76.042,47.987,74.107z"/>
	<path fill-rule="evenodd" clip-rule="evenodd" fill="#2D353A" d="M66.233,51.93c-0.608-1.89-2.314-2.756-3.81-1.932
		c-1.493,0.825-2.211,3.026-1.603,4.916c0.608,1.891,2.312,2.748,3.808,1.923C66.123,56.013,66.841,53.82,66.233,51.93z"/>
	<path fill-rule="evenodd" clip-rule="evenodd" fill="#2D353A" d="M44.787,33.953c1.761-0.414,3.703,0.4,4.342,1.817
		c0.639,1.419-0.267,2.903-2.028,3.317c-1.762,0.414-3.708-0.4-4.347-1.816C42.115,35.852,43.028,34.367,44.787,33.953z"/>
	<path fill-rule="evenodd" clip-rule="evenodd" fill="#2D353A" d="M23.192,64.004c-0.382-1.769,0.466-3.695,1.895-4.309
		c1.43-0.613,2.898,0.319,3.28,2.088c0.382,1.769-0.466,3.7-1.894,4.314C25.043,66.71,23.574,65.77,23.192,64.004z"/>
</g>
</svg>
