<?xml version="1.0" encoding="utf-8"?>
<!-- Generator: Adobe Illustrator 17.0.0, SVG Export Plug-In . SVG Version: 6.00 Build 0)  -->
<!DOCTYPE svg PUBLIC "-//W3C//DTD SVG 1.1//EN" "http://www.w3.org/Graphics/SVG/1.1/DTD/svg11.dtd">
<svg version="1.1" id="Layer_1" xmlns="http://www.w3.org/2000/svg" xmlns:xlink="http://www.w3.org/1999/xlink" x="0px" y="0px"
	 width="100px" height="100px" viewBox="0 0 100 100" enable-background="new 0 0 100 100" xml:space="preserve">
<path fill="#BDCCCC" d="M33.571,23.201l4.968,55.705c0,0,10.053,4.791,23.063,0.223l4.258-55.928H33.571L33.571,23.201z"/>
<ellipse fill="#97ADAC" cx="49.755" cy="23.151" rx="16.196" ry="3.556"/>
<ellipse fill="#BDCCCC" cx="49.756" cy="22.962" rx="14.726" ry="3.233"/>
<path fill="#97ADAC" d="M61.332,77.835c0,1.356-5.008,2.456-11.187,2.456c-6.178,0-11.187-1.1-11.187-2.456
	c0-1.357,5.008-2.457,11.187-2.457C56.324,75.378,61.332,76.478,61.332,77.835L61.332,77.835z"/>
<path fill="#C1D8D6" d="M50.22,75.355c-1.669,0-3.246,0.085-4.647,0.237c1.396-0.137,2.943-0.214,4.572-0.214
	c2.383,0,4.592,0.164,6.407,0.443C54.791,75.528,52.598,75.355,50.22,75.355L50.22,75.355z"/>
<path fill="#ADC3C1" d="M50.145,75.378c-1.629,0-3.176,0.076-4.572,0.214c-3.471,0.377-5.859,1.162-5.859,2.069
	c0,1.274,4.703,2.306,10.505,2.306c5.802,0,10.505-1.033,10.505-2.306c0-0.752-1.638-1.42-4.174-1.841
	C54.737,75.542,52.528,75.378,50.145,75.378L50.145,75.378z"/>
<path fill="#F3F3F3" d="M63.318,40.42l-3.137,36.819c0.413-0.1,0.646-0.169,0.646-0.169c-0.138,0.193-0.338,0.463-0.758,0.753
	c0.533-0.282,0.828-0.591,0.828-0.916l2.99-37.356C63.887,39.853,63.686,40.144,63.318,40.42z"/>
<path fill="#F3F3F3" d="M38.015,41.224c0.868,9.692,1.794,23.101,2.272,30.269c0.983,2.927,1.689,3.214,1.689,3.214
	c5.112,3.779,11.738,3.581,15.619,3.022l1.476-35.854c-2.472,0.474-5.704,0.762-9.244,0.762
	C44.872,42.638,40.519,42.074,38.015,41.224z"/>
<path fill="#F3F3F3" d="M37.535,41.049c-1.124-0.444-1.767-0.954-1.767-1.498l1.825,20.761l-0.631-7.663
	c1.046,9.91,2.227,15.379,3.179,18.393L37.535,41.049z"/>
<path fill="#F7F8F8" d="M37.284,38.157c-0.967,0.419-1.516,0.892-1.516,1.394c0,0.544,0.643,1.054,1.767,1.498l-0.13-1.498
	L37.284,38.157z"/>
<path fill="#F7F8F8" d="M37.713,37.985c0.049,0.506,0.099,1.029,0.149,1.566c0.051,0.543,0.102,1.102,0.153,1.673
	c2.504,0.85,6.857,1.414,11.812,1.414c3.54,0,6.772-0.288,9.244-0.762l0.095-2.325l0.095-2.289
	c-2.495-0.496-5.803-0.798-9.434-0.798C44.666,36.464,40.158,37.075,37.713,37.985z"/>
<path fill="#F3F3F3" d="M63.456,38.791l-0.065,0.76l-0.074,0.869c0.368-0.276,0.569-0.567,0.569-0.869
	C63.887,39.289,63.737,39.035,63.456,38.791z"/>
<path opacity="0.5" fill="#FFFDFD" d="M64.633,24.981c-1.164,0.759-4.926,1.434-4.926,1.434l-0.446,10.847
	c2.02,0.401,3.505,0.931,4.195,1.529L64.633,24.981z"/>
<path fill="#FFFFFF" d="M59.261,37.262l-0.095,2.289l-0.095,2.325c1.989-0.381,3.483-0.884,4.246-1.455l0.074-0.869l0.065-0.76
	C62.766,38.193,61.281,37.664,59.261,37.262z"/>
<path fill="#FFFFFF" d="M57.604,77.728c1.128-0.163,2.02-0.355,2.577-0.489l3.137-36.819c-0.763,0.571-2.257,1.074-4.246,1.455
	C59.072,41.876,57.833,72.091,57.604,77.728z"/>
<path fill="#FED16E" d="M60.181,77.239l3.137-36.819L60.181,77.239z"/>
<path fill="#E9A322" d="M57.949,78.544c0.104-0.034,0.22-0.077,0.342-0.125c-0.216,0.068-0.456,0.138-0.723,0.21
	C57.698,78.601,57.825,78.573,57.949,78.544z"/>
<path fill="#E9A322" d="M57.596,77.73l-0.037,0.9l0.01-0.001c-0.001,0,0.013-0.321,0.036-0.901L57.596,77.73z"/>
<path fill="#C7C6C6" d="M60.827,77.07c0,0-0.233,0.069-0.646,0.169l-0.025,0.295c0,0-0.263,0.381-1.865,0.885
	c-0.122,0.049-0.238,0.091-0.342,0.125c0.891-0.209,1.613-0.453,2.12-0.722C60.488,77.533,60.689,77.263,60.827,77.07z"/>
<path fill="#E0E1E0" d="M57.949,78.544c-0.157,0.051-0.29,0.083-0.381,0.085l-0.01,0.001l0.037-0.9
	c-3.881,0.559-10.508,0.757-15.619-3.022c0,0-0.706-0.287-1.689-3.214c0.204,3.065,0.326,4.992,0.326,4.992l-0.473-5.444
	c-0.952-3.014-2.133-8.483-3.179-18.393l0.631,7.663l1.399,16.968c0,0,1.791,2.25,10.925,2.193c6.57-0.041,9.079-0.91,10.153-1.651
	C59.562,78.091,58.84,78.335,57.949,78.544z"/>
<path fill="#E9A322" d="M57.949,78.544c-0.124,0.029-0.251,0.057-0.381,0.085C57.659,78.627,57.792,78.595,57.949,78.544z"/>
<path fill="#FDB814" d="M60.155,77.534l0.025-0.295L60.155,77.534z"/>
<path fill="#F3F3F3" d="M57.604,77.728c-0.023,0.58-0.036,0.901-0.036,0.901c0.267-0.072,0.507-0.142,0.723-0.21
	c1.601-0.504,1.865-0.885,1.865-0.885l0.025-0.295C59.623,77.374,58.732,77.565,57.604,77.728z"/>
<path fill="#BBBBBB" d="M40.613,76.486c0,0-0.122-1.927-0.326-4.992c-0.048-0.144-0.097-0.295-0.147-0.451L40.613,76.486z"/>
</svg>
