<?xml version="1.0" encoding="utf-8"?>
<!-- Generator: Adobe Illustrator 17.0.0, SVG Export Plug-In . SVG Version: 6.00 Build 0)  -->
<!DOCTYPE svg PUBLIC "-//W3C//DTD SVG 1.1//EN" "http://www.w3.org/Graphics/SVG/1.1/DTD/svg11.dtd">
<svg version="1.1" id="Layer_1" xmlns="http://www.w3.org/2000/svg" xmlns:xlink="http://www.w3.org/1999/xlink" x="0px" y="0px"
	 width="100px" height="100px" viewBox="0 0 100 100" enable-background="new 0 0 100 100" xml:space="preserve">
<linearGradient id="SVGID_1_" gradientUnits="userSpaceOnUse" x1="64.3403" y1="-249.3182" x2="59.5773" y2="-248.8659" gradientTransform="matrix(1.0324 0 0 1.0324 6.4314 342.054)">
	<stop  offset="0" style="stop-color:#FDD1B0"/>
	<stop  offset="0.2444" style="stop-color:#F3C2A0"/>
	<stop  offset="0.6591" style="stop-color:#DFA27E"/>
	<stop  offset="1" style="stop-color:#CC8461"/>
</linearGradient>
<path fill="url(#SVGID_1_)" d="M69.996,85.449c0,0,0.829-0.115,1.389,0.279c0.799,0.557,1.74,0,1.034-0.86
	c-0.708-0.862-3.473-1.231-4.144-0.956C67.604,84.189,69.996,85.449,69.996,85.449z"/>
<linearGradient id="SVGID_2_" gradientUnits="userSpaceOnUse" x1="63.4479" y1="-248.7101" x2="58.4195" y2="-249.3752" gradientTransform="matrix(1.0324 0 0 1.0324 6.4314 342.054)">
	<stop  offset="0" style="stop-color:#FDD1B0"/>
	<stop  offset="0.2444" style="stop-color:#F3C2A0"/>
	<stop  offset="0.6591" style="stop-color:#DFA27E"/>
	<stop  offset="1" style="stop-color:#CC8461"/>
</linearGradient>
<path fill="url(#SVGID_2_)" d="M69.759,85.767c0,0,0.826-0.117,1.386,0.275c0.801,0.562,1.743,0.003,1.036-0.857
	c-0.707-0.86-2.847-1.466-3.519-1.189C67.99,84.273,69.759,85.767,69.759,85.767z"/>
<radialGradient id="SVGID_3_" cx="-119.8546" cy="1300.3125" r="5.0349" gradientTransform="matrix(0.6092 0.1037 0.1037 -0.6092 4.5423 892.1689)" gradientUnits="userSpaceOnUse">
	<stop  offset="0.2472" style="stop-color:#FEE6D3"/>
	<stop  offset="1" style="stop-color:#FDD1B0"/>
</radialGradient>
<path fill="url(#SVGID_3_)" d="M68.068,82.423c0,0,0.275,1.565,1.956,1.774c1.029,0.128,1.887,1.644,1.164,2.206
	c-0.644,0.499-0.638,0.068-1.397-0.564c-0.487-0.413-1.169-0.285-1.864-0.215c-0.795,0.078-1.391-0.734-2.149-0.674
	c-0.755,0.052-1.824,0.841-2.147,0.553c-0.298-0.264-0.425-1.437,2.199-3.06c0.248-0.154,0.225-0.737,0.518-0.927
	C67.035,81.077,68.068,82.423,68.068,82.423z"/>
<path fill="#D14E3F" d="M53.266,64.18c0,0,8.526,3.203,12.346,8.442c3.298,4.526,3.253,8.069,2.516,10.123l-0.568-0.63l-0.648,0.484
	l-0.405-0.719l-0.677,0.564c0,0,0.835-5.263-4.31-9.992c-5.826-5.343-9.473-3.797-9.473-3.797L53.266,64.18z"/>
<path fill="#D14E3F" d="M46.923,65.063c0,0-9.051-1.009-14.832,1.931c-4.989,2.542-6.553,5.719-6.832,7.885l0.794-0.305l0.359,0.724
	l0.686-0.455l0.35,0.808c0,0,1.637-5.067,8.368-6.95c7.614-2.127,10.167,0.904,10.167,0.904L46.923,65.063z"/>
<g>
	<path fill="#D14E3F" d="M44.169,18.934c0,0,0.785-3.951-1.523-5.602c-2.174-1.554-3.752-4.518-2.575-5.414
		c1.177-0.894,2.19-1.706,3.111-0.792c0.887,0.87,0.725,2.297,2.42,3.53c0.461,0.34,1.098,0.742,2.155,1.236
		c0.896,0.418,1.255,1.72,0.557,2.744c-1.032,1.515-0.833,3.859-2.003,5.338C44.287,22.523,44.169,18.934,44.169,18.934z"/>
	<path fill="#D14E3F" d="M50.227,35.884c0,0-6.135-4.183-6.457-12.056c-0.04-1.053,0.093-3.161,0.234-4.439
		c0.026-0.227-0.724-0.946-1.155-1.594c0.209,0.06,0.942,0.408,1.399,0.706c0.218-0.215,0.339-0.512,0.555-0.784l0.389,0.815
		l0.525-0.87l0.499,0.818l0.434-0.7c0,0,0.269,0.214,0.456,0.457c0.217-0.108,0.487-0.053,1.162-0.403
		c-0.839,0.943-1.227,1.369-1.271,1.592c-0.264,1.267-1.061,3.512-0.554,5.263c0.479,1.672,0.754,6.394,5.86,7.886
		C53.898,33.041,50.227,35.884,50.227,35.884z"/>
	<path fill="#D14E3F" d="M40.354,9.738c0,0-1.126-0.87-0.895-1.515c0.236-0.65,1.912-0.708,2.172,0.374"/>
	<path fill="#D14E3F" d="M40.812,9.25c0,0-1.129-0.868-0.896-1.516c0.234-0.648,1.914-0.705,2.172,0.374"/>
	<path fill="#D14E3F" d="M41.441,8.79c0,0-1.127-0.87-0.896-1.515c0.234-0.65,1.914-0.711,2.174,0.377"/>
	<path fill="#D14E3F" d="M42.02,8.518c0,0-1.129-0.867-0.898-1.518c0.237-0.646,1.917-0.705,2.174,0.376"/>
</g>
<g>
	<path fill="#D14E3F" d="M71.87,29.699c0,0,2.19-3.382,4.994-2.961c2.642,0.394,5.841-0.632,5.616-2.093
		c-0.224-1.463-0.384-2.751-1.681-2.738c-1.242,0.01-2.122,1.147-4.195,0.857c-0.564-0.081-1.303-0.232-2.405-0.614
		c-0.936-0.324-2.101,0.361-2.313,1.581c-0.313,1.806-2.089,3.353-2.278,5.226C69.287,32.195,71.87,29.699,71.87,29.699z"/>
	<path fill="#D14E3F" d="M55.724,37.653c0,0,7.316,1.267,13.024-4.16c0.765-0.731,2.137-2.336,2.925-3.352
		c0.142-0.181,1.18-0.172,1.938-0.339c-0.19-0.105-0.958-0.363-1.496-0.468c-0.005-0.305,0.115-0.603,0.147-0.946l-0.844,0.309
		l0.227-0.988l-0.929,0.24l0.178-0.808c0,0-0.344-0.028-0.648,0.013c-0.079-0.227-0.313-0.377-0.554-1.095
		c-0.055,1.26-0.069,1.834-0.195,2.025c-0.694,1.093-1.68,3.259-3.263,4.168c-1.508,0.863-4.994,4.063-9.698,1.581
		C55.066,33.057,55.724,37.653,55.724,37.653z"/>
	<path fill="#D14E3F" d="M81.009,25.753c0,0,1.414,0.16,1.697-0.465c0.285-0.627-0.879-1.839-1.82-1.241"/>
	<path fill="#D14E3F" d="M81.022,25.085c0,0,1.415,0.165,1.698-0.462c0.284-0.63-0.883-1.837-1.82-1.241"/>
	<path fill="#D14E3F" d="M80.891,24.316c0,0,1.413,0.165,1.697-0.465c0.284-0.627-0.881-1.839-1.822-1.239"/>
	<path fill="#D14E3F" d="M80.665,23.718c0,0,1.414,0.162,1.697-0.465c0.282-0.627-0.882-1.839-1.823-1.241"/>
</g>
<path fill="#D14E3F" d="M46.892,45.808c0,0-2.471-11.591,2.871-14.368c3.89-2.02,10.551-0.186,10.292,5.863
	c-0.275,6.412-8.65,10.355-8.65,10.355L46.892,45.808z"/>
<radialGradient id="SVGID_4_" cx="-138.7692" cy="-40.3465" r="3.3305" gradientTransform="matrix(1.1919 0 0 1.1919 220.5861 82.2468)" gradientUnits="userSpaceOnUse">
	<stop  offset="0" style="stop-color:#F69896"/>
	<stop  offset="0.4376" style="stop-color:#F9B2A2"/>
	<stop  offset="1" style="stop-color:#FDD1B0"/>
</radialGradient>
<path fill="url(#SVGID_4_)" d="M59.504,34.277c-1.483-3.219-5.623-4.259-8.73-3.255c-0.293,0.557-0.461,1.173-0.461,1.827
	c0,2.351,2.119,4.256,4.734,4.256C57.104,37.104,58.848,35.929,59.504,34.277z"/>
<radialGradient id="SVGID_5_" cx="594.1853" cy="142.4699" r="17.2761" gradientTransform="matrix(0.3738 -0.4597 0.4597 0.3738 -232.3373 266.8026)" gradientUnits="userSpaceOnUse">
	<stop  offset="0.2472" style="stop-color:#FEE6D3"/>
	<stop  offset="1" style="stop-color:#FDD1B0"/>
</radialGradient>
<path fill="url(#SVGID_5_)" d="M58.817,54.067c0.196-1.803-0.847-3.765-1.61-4.327c-2.43-1.79-1.728-5.056,0.211-6.744
	c2.17-1.886,4.865-1.539,6.123-1.16c4.445,1.332,6.284,7.384,5.175,11.51c-1.097,4.095-4.568,8.267-8.347,5.903
	C58.534,58.102,58.509,56.882,58.817,54.067z"/>
<path fill="#E2BDA1" d="M57.447,48.797c-0.514-0.956-0.343-4.541,3.385-5.435c4.021-0.961,7.586,3.426,7.733,6.352
	c0.193,3.901-1.853,8.119-4.853,9.255c-1.119,0.421,0.82-3.136-1.973-3.107c-2.226,0.029-2.206-2.253-1.412-3.797
	C61.122,50.522,58.314,50.43,57.447,48.797z"/>
<path fill="#FCC7A3" d="M63.94,51.313c-1.287-1.21-2.942-0.776-3.811-0.413c0.328,0.301,0.464,0.653,0.197,1.166
	c-0.794,1.544-0.813,3.826,1.412,3.797c1.063-0.01,1.44,0.499,1.563,1.108C64.444,55.421,65.334,52.622,63.94,51.313z"/>
<path fill="#DB9E75" d="M63.451,51.904c-0.975-0.915-2.177-0.802-3.011-0.546c0.056,0.202,0.031,0.432-0.114,0.708
	c-0.017,0.039-0.038,0.078-0.056,0.123c-0.011,0.12-0.046,0.254-0.124,0.405c-0.059,0.118-0.115,0.235-0.162,0.358
	c-0.387,1.406-0.07,2.937,1.754,2.911c0.836-0.008,1.25,0.305,1.444,0.739C64.057,55.141,64.591,52.978,63.451,51.904z"/>
<radialGradient id="SVGID_6_" cx="233.1022" cy="-84.9363" r="15.9579" gradientTransform="matrix(0.7877 -0.2138 0.2138 0.7877 -144.7799 173.8614)" gradientUnits="userSpaceOnUse">
	<stop  offset="0.2472" style="stop-color:#FEE6D3"/>
	<stop  offset="1" style="stop-color:#FDD1B0"/>
</radialGradient>
<path fill="url(#SVGID_6_)" d="M33.81,60.851c-1.08-1.453-1.175-3.674-0.799-4.544c1.19-2.772-1.062-5.236-3.589-5.712
	c-2.83-0.53-4.975,1.132-5.871,2.096c-3.162,3.394-1.689,9.542,1.354,12.545c3.018,2.979,8.12,4.823,10.186,0.872
	C36.094,64.192,35.498,63.129,33.81,60.851z"/>
<path fill="#E2BDA1" d="M32.327,55.619c-0.041-1.092-2.001-4.097-5.669-2.984c-3.956,1.202-4.812,6.789-3.458,9.389
	c1.804,3.465,5.703,6.067,8.866,5.534c1.176-0.204-2.297-2.294,0.133-3.679c1.931-1.1,0.762-3.06-0.705-3.987
	C30.026,58.961,32.403,57.459,32.327,55.619z"/>
<path fill="#FCC7A3" d="M27.999,61.065c0.498-1.696,2.145-2.156,3.076-2.281c-0.132,0.426-0.067,0.797,0.418,1.108
	c1.467,0.927,2.637,2.887,0.705,3.987c-0.926,0.528-0.994,1.158-0.792,1.746C29.636,64.867,27.454,62.899,27.999,61.065z"/>
<path fill="#DB9E75" d="M28.717,61.329c0.379-1.28,1.474-1.79,2.323-1.994c0.051,0.204,0.191,0.387,0.453,0.557
	c0.038,0.02,0.076,0.044,0.111,0.073c0.07,0.102,0.168,0.199,0.313,0.29c0.108,0.07,0.216,0.146,0.322,0.225
	c1.04,1.019,1.543,2.498-0.042,3.399c-0.729,0.416-0.924,0.894-0.875,1.369C29.829,64.43,28.277,62.834,28.717,61.329z"/>
<radialGradient id="SVGID_7_" cx="254.8803" cy="-87.6541" r="6.7489" gradientTransform="matrix(0.7877 -0.2138 0.2138 0.7877 -144.7799 173.8614)" gradientUnits="userSpaceOnUse">
	<stop  offset="0" style="stop-color:#FEE6D3"/>
	<stop  offset="1" style="stop-color:#FDD1B0"/>
</radialGradient>
<path fill="url(#SVGID_7_)" d="M61.818,54.028c2.254,8.304-2.652,16.869-10.958,19.121c-8.308,2.253-16.867-2.652-19.122-10.961
	c-2.253-8.307,2.652-16.864,10.959-19.119C51.005,40.815,59.563,45.721,61.818,54.028z"/>
<path fill="#D14E3F" d="M43.466,46.785c3.824-4.364,10.046-2.725,10.046-2.725c-3.255-1.563-7.058-2.01-10.815-0.99
	c-3.755,1.019-6.811,3.326-8.83,6.318C33.868,49.387,38.203,44.867,43.466,46.785z"/>
<path fill="#EEB490" d="M49.573,64.972c0.104,0.382-0.265,0.807-0.819,0.961c-0.555,0.147-1.088-0.037-1.189-0.412
	c-0.104-0.377,0.264-0.805,0.817-0.957C48.938,64.415,49.473,64.598,49.573,64.972z"/>
<path fill="#FEE6D3" d="M47.73,71.12c-2.719,1.542-6.779,0.857-6.498-1.22c0.28-2.083,3.858-2.475,5.541-1.837
	c0.829,0.313,1.759,0.07,1.759,0.07s0.931-0.206,1.526-0.87c1.205-1.338,4.565-2.624,5.769-0.907
	c1.201,1.724-2.099,4.194-5.219,4.063c-0.651-0.024-1.098,0.015-1.48,0.117C49.127,70.537,48.293,70.798,47.73,71.12z"/>
<path fill="#EEB490" d="M47.614,70.642c-2.717,1.544-6.781,0.86-6.499-1.221c0.28-2.08,3.859-2.474,5.541-1.834
	c0.832,0.316,1.757,0.071,1.757,0.071s0.936-0.207,1.53-0.868c1.202-1.34,4.562-2.626,5.767-0.907c1.2,1.72-2.098,4.189-5.219,4.063
	c-0.649-0.026-1.099,0.013-1.479,0.115C49.012,70.062,48.178,70.323,47.614,70.642z"/>
<path fill="#7A3440" d="M47.661,70.83c-2.719,1.544-6.781,0.86-6.501-1.223c0.283-2.08,3.862-2.474,5.542-1.834
	c0.828,0.316,1.759,0.073,1.759,0.073s0.931-0.206,1.526-0.867c1.203-1.34,4.566-2.628,5.767-0.907
	c1.205,1.72-2.096,4.186-5.217,4.061c-0.651-0.026-1.099,0.013-1.48,0.115C49.056,70.247,48.223,70.511,47.661,70.83z"/>
<path fill="#F16253" d="M48.894,69.67c-3.126-0.706-4.924,1.069-4.924,1.069c0.585,0.504,2.211,0.054,3.633-0.045
	c0.122-0.063,0.402-0.149,0.523-0.216c0.706-0.405,1.412-0.502,2.65-0.452c0.191,0.008,0.379,0.005,0.573-0.005
	c1.374-0.735,2.631-1.766,2.631-1.766C52.043,67.368,48.894,69.67,48.894,69.67z"/>
<path fill="#FFFDFD" d="M52.048,66.628c0.103-0.222,0.099-0.661,0.044-1.006c-0.857,0.332-1.64,0.839-2.106,1.357
	c-0.594,0.661-1.526,0.867-1.526,0.867s-0.931,0.243-1.759-0.073c-0.66-0.248-1.604-0.339-2.532-0.235
	c0.065,0.384,0.183,0.768,0.415,0.899C45.925,69.181,51.379,68.026,52.048,66.628z"/>
<path fill="#FFFDFD" d="M54.39,67.431c0.029,0.548-0.667,1.011-2.442,1.784c-1.127,0.491-4.258,1.312-5.651,1.372
	c-1.461,0.055-2.828,0.376-3.291-0.264c-0.534-0.726-1.164-0.544-1.339-0.104c-0.029,0.368,0.192,0.719,0.576,1.034
	c1.343,0.64,3.662,0.575,5.419-0.423c0.562-0.318,1.396-0.582,1.396-0.582c0.381-0.103,0.829-0.142,1.48-0.115
	c1.828,0.073,3.719-0.745,4.727-1.782c0.045-0.045,0.086-0.092,0.124-0.139c0.229-0.47,0.302-0.917,0.195-1.293
	C55.375,66.375,54.329,66.244,54.39,67.431z"/>
<g>
	<path fill="#D14E3F" d="M48.947,47.982c0,0,2.953-0.982,4.691,1.816c0,0-0.737-0.528-1.076-0.564c0,0,0.706,0.535,0.72,1.539
		c0,0-0.5-0.8-1.075-1.119c0,0,0.685,0.8,0.562,1.962C52.768,51.616,51.448,48.421,48.947,47.982z"/>
	<path fill="#D14E3F" d="M48.947,47.744c0,0,2.953-0.985,4.691,1.819c0,0-0.737-0.528-1.076-0.567c0,0,0.706,0.539,0.72,1.542
		c0,0-0.5-0.802-1.075-1.121c0,0,0.685,0.802,0.562,1.962C52.768,51.379,51.448,48.186,48.947,47.744z"/>
</g>
<g>
	<path fill="#D14E3F" d="M41.427,50.608c0,0-3.042-0.653-4.464,2.32c0,0,0.675-0.603,1.008-0.679c0,0-0.645,0.611-0.546,1.609
		c0,0,0.41-0.852,0.946-1.231c0,0-0.591,0.873-0.345,2.009C38.026,54.637,38.991,51.321,41.427,50.608z"/>
	<path fill="#D14E3F" d="M41.401,50.372c0,0-3.042-0.653-4.465,2.32c0,0,0.676-0.603,1.01-0.68c0,0-0.646,0.612-0.546,1.61
		c0,0,0.409-0.852,0.947-1.231c0,0-0.594,0.873-0.345,2.012C38.001,54.404,38.963,51.086,41.401,50.372z"/>
</g>
<path fill="none" stroke="#D14E3F" stroke-width="4.0815" stroke-linecap="round" stroke-linejoin="round" d="M54.085,33.125
	c0,0-2.642-2.744-3.454-7.616c-0.653-3.932,1.573-7.68,4.788-9.261c6.655-3.264,12.273,5.189,5.526,9.111"/>
<linearGradient id="SVGID_8_" gradientUnits="userSpaceOnUse" x1="619.3386" y1="328.0465" x2="627.338" y2="329.3601" gradientTransform="matrix(0.3268 -0.6633 -0.6633 -0.3268 40.4231 596.6208)">
	<stop  offset="0" style="stop-color:#FDD1B0"/>
	<stop  offset="0.3575" style="stop-color:#F3BF9C"/>
	<stop  offset="1" style="stop-color:#E19A75"/>
</linearGradient>
<path fill="url(#SVGID_8_)" d="M28.076,79.097c0,0,1.503-1.808,0.656-3.272c-0.469-0.81-1.459-0.572-1.902-1.278
	c-0.489-0.779-1.386-1.105-1.926-0.97c-1.121,0.28-2.113,2.085-2.113,2.085L28.076,79.097z"/>
<radialGradient id="SVGID_9_" cx="604.0679" cy="231.735" r="3.1788" gradientTransform="matrix(0.475 -0.5667 0.5667 0.475 -396.7357 309.2211)" gradientUnits="userSpaceOnUse">
	<stop  offset="0.2472" style="stop-color:#FEE6D3"/>
	<stop  offset="1" style="stop-color:#FDD1B0"/>
</radialGradient>
<path fill="url(#SVGID_9_)" d="M23.435,77.553c-0.435,0.284-1.411-0.081-1.366-0.946c0.031-0.583,2.136-3.094,3.124-2.451
	C25.693,74.482,24.943,76.557,23.435,77.553z"/>
<radialGradient id="SVGID_10_" cx="606.821" cy="234.2587" r="2.2685" gradientTransform="matrix(0.475 -0.5667 0.5667 0.475 -398.014 310.2172)" gradientUnits="userSpaceOnUse">
	<stop  offset="0.2472" style="stop-color:#FEE6D3"/>
	<stop  offset="1" style="stop-color:#FDD1B0"/>
</radialGradient>
<path fill="url(#SVGID_10_)" d="M24.629,78.598c-0.432,0.284-1.41-0.084-1.364-0.946c0.03-0.583,2.132-3.094,3.122-2.449
	C26.89,75.528,26.138,77.602,24.629,78.598z"/>
<radialGradient id="SVGID_11_" cx="607.5223" cy="236.2896" r="2.2517" gradientTransform="matrix(0.475 -0.5667 0.5667 0.475 -398.0335 310.4428)" gradientUnits="userSpaceOnUse">
	<stop  offset="0.2472" style="stop-color:#FEE6D3"/>
	<stop  offset="1" style="stop-color:#FDD1B0"/>
</radialGradient>
<path fill="url(#SVGID_11_)" d="M25.924,79.402c-0.432,0.288-1.412-0.078-1.366-0.943c0.031-0.58,2.135-3.096,3.125-2.45
	C28.182,76.335,27.433,78.41,25.924,79.402z"/>
<radialGradient id="SVGID_12_" cx="608.1412" cy="238.0756" r="2.3113" gradientTransform="matrix(0.475 -0.5667 0.5667 0.475 -398.3041 310.6049)" gradientUnits="userSpaceOnUse">
	<stop  offset="0.2472" style="stop-color:#FEE6D3"/>
	<stop  offset="1" style="stop-color:#FDD1B0"/>
</radialGradient>
<path fill="url(#SVGID_12_)" d="M27.218,80.04c-0.434,0.287-1.412-0.079-1.368-0.943c0.031-0.583,1.85-2.843,2.84-2.2
	C29.189,77.223,28.725,79.047,27.218,80.04z"/>
<radialGradient id="SVGID_13_" cx="608.7589" cy="231.6497" r="4.5121" gradientTransform="matrix(0.475 -0.5667 0.5667 0.475 -397.0638 309.6752)" gradientUnits="userSpaceOnUse">
	<stop  offset="0.2472" style="stop-color:#FEE6D3"/>
	<stop  offset="1" style="stop-color:#FCC7A3"/>
</radialGradient>
<path fill="url(#SVGID_13_)" d="M24.136,75.018c-0.375-0.363-0.229-1.397,0.623-1.542c0.575-0.097,2.83,1.262,2.417,2.37
	C26.967,76.403,25.433,76.272,24.136,75.018z"/>
<ellipse transform="matrix(0.9747 -0.2236 0.2236 0.9747 -12.8379 10.4883)" fill="#304454" cx="39.884" cy="61.92" rx="1.063" ry="1.765"/>
<ellipse transform="matrix(0.9747 -0.2236 0.2236 0.9747 -11.8857 13.3934)" fill="#304454" cx="53.185" cy="59.169" rx="1.063" ry="1.765"/>
</svg>
