<?xml version="1.0" encoding="utf-8"?>
<!-- Generator: Adobe Illustrator 17.0.0, SVG Export Plug-In . SVG Version: 6.00 Build 0)  -->
<!DOCTYPE svg PUBLIC "-//W3C//DTD SVG 1.1//EN" "http://www.w3.org/Graphics/SVG/1.1/DTD/svg11.dtd">
<svg version="1.1" id="Layer_1" xmlns="http://www.w3.org/2000/svg" xmlns:xlink="http://www.w3.org/1999/xlink" x="0px" y="0px"
	 width="100px" height="100px" viewBox="0 0 100 100" enable-background="new 0 0 100 100" xml:space="preserve">
<path fill="none" stroke="#EDAA84" stroke-width="0.6276" stroke-linecap="round" stroke-linejoin="round" d="M54.443,46.473
	c0,0,4.862-1.503,7.942-0.96"/>
<path fill="none" stroke="#EDAA84" stroke-width="0.6276" stroke-linecap="round" stroke-linejoin="round" d="M55.197,46.391
	c0,0,5.089,0.055,7.853,1.516"/>
<path fill="#D78334" d="M70.707,22.332c-4.788,1.229-6.702,4.026-7.461,6.155c-1.353,3.797-0.062,8.078,1.82,10.636
	c0.395,0.539,1.15,0.655,1.685,0.26c0.537-0.395,0.654-1.15,0.259-1.687c-1.454-1.981-2.543-5.452-1.492-8.399
	c0.82-2.295,2.767-3.853,5.789-4.628c4.358-1.118,6.843,0.976,8.164,2.929c2.197,3.258,2.336,7.907,0.989,9.734
	c-1.013,1.376-2.279,2.242-3.502,3.079c-2.612,1.789-5.315,3.636-4.146,9.72c0.436,2.255,0.062,4.016-1.142,5.381
	c-3.333,3.779-11.773,3.276-11.857,3.271c-0.665-0.042-1.239,0.46-1.282,1.126c-0.045,0.666,0.458,1.239,1.122,1.282
	c0.395,0.026,9.702,0.587,13.824-4.079c1.709-1.937,2.283-4.44,1.705-7.439c-0.871-4.529,0.638-5.56,3.138-7.271
	c1.325-0.905,2.826-1.934,4.084-3.639c2.125-2.884,1.696-8.615-0.937-12.513C78.992,22.577,75.17,21.185,70.707,22.332z"/>
<path fill="#D78334" d="M48.636,63.095c-0.785-0.963-5.44-2.481-9.09,4.684c-3.65,7.16-6.852,1.813-9.27,4.068
	c-2.418,2.255,6.34,1.484,8.88,1.944c2.343,0.429,0.126-1.353,1.131-2.805c0.862-1.25,1.978-1.487,5.003-2.087
	C48.345,68.298,50.04,64.822,48.636,63.095z"/>
<path fill="#D78334" d="M56.463,67.914c0.787,4.523,6.6,7.742,13.275,2.682c6.676-5.06,7.25,1.408,10.538,0.389
	c3.29-1.016-5.272-4.265-7.44-5.855c-2.002-1.463-0.733,1.213-2.334,2.118c-1.376,0.779-3.06-5.11-6.23-5.637
	C58.534,60.672,55.799,64.093,56.463,67.914z"/>
<path fill="#D78334" d="M41.225,39.873c0,0,4.035-6.652,1.217-12.01c-3.643-6.92-15.083-2.96-13.781,5.4
	c0.681,4.381,4.959,7.257,4.959,7.257L41.225,39.873z"/>
<path fill="#F4953F" d="M46.881,59.977c0,0,4.619,3.321,7.597,0.584c4.497-4.139,7.388-3.571,9.322-3.195
	c5.579,1.079,10.481,15.541-3.745,19.207c-13.621,3.508-21.41-11.515-21.41-11.515L46.881,59.977z"/>
<linearGradient id="SVGID_1_" gradientUnits="userSpaceOnUse" x1="-341.4784" y1="259.9409" x2="-338.313" y2="256.12" gradientTransform="matrix(-0.8432 0 0 0.8432 -236.7152 -153.6234)">
	<stop  offset="0" style="stop-color:#FDD1B0"/>
	<stop  offset="1" style="stop-color:#EEB490"/>
</linearGradient>
<path fill="url(#SVGID_1_)" d="M39.358,66.274l2.884-1.753c0,0,1.195,4.587,7.196,4.857c5.068,0.226,9.538-7.918,13.676-4.5
	c2.248,1.855,4.229,4.723,4.012,7.708c-1.475,1.702-3.746,3.131-7.069,3.986C48.827,79.465,41.565,69.771,39.358,66.274z"/>
<path fill="#EEB490" d="M62.585,71.561l4.017,1.579c-1.47,1.458-3.591,2.673-6.547,3.434c-0.575,0.15-1.135,0.255-1.688,0.34
	c1.837-1.8,1.195-3.963,1.195-3.963L62.585,71.561z"/>
<path fill="#EEB490" d="M63.113,64.879c2.248,1.855,4.229,4.723,4.012,7.708c-0.955,1.1-2.25,2.092-3.949,2.884
	c-5.63-1.8-7.566-5.918-6.858-9.323C58.697,64.466,60.95,63.093,63.113,64.879z"/>
<path fill="#F4953F" d="M50.732,63.072c-1.06-0.863-5.952-1.592-8.302,6.95c-2.35,8.544-6.994,3.481-9.101,6.452
	c-2.11,2.971,7.175,0.189,10.016,0.129c2.625-0.061-0.163-1.492,0.596-3.279c0.655-1.545,1.728-2.403,4.859-3.718
	C51.966,68.274,52.63,64.622,50.732,63.072z"/>
<path fill="#F4953F" d="M59.343,40.755c-0.455-3-3.14-4.702-4.669-4.065c-8.084,3.371-11.73-0.342-18.427,0.266
	c1.068-0.863,2.276-1.484,2.276-1.484c-1.462,0.037-2.8,0.86-3.783,1.687c-0.106,0.021-0.212,0.037-0.321,0.058
	c0.912-1.461,2.951-2.866,2.951-2.866c-2.022,0.313-3.614,2.129-4.402,3.221c-6.91,2.084-10.79,9.781-9.819,16.538
	c0.295,2.06,1.292,5.128,2.873,7.436c-0.274,1.497-0.279,3.255,0.554,4.824c0,0-0.06-1.734,0.233-3.374
	c-0.1,1.245,0.034,2.587,0.685,3.813c0,0-0.059-1.713,0.229-3.342c0.003,0.003,0.004,0.005,0.009,0.008
	c0.043,1.05,0.279,2.134,0.867,3.121c0,0-0.097-1.153-0.016-2.474c4.587,3.25,9.244,2.75,13.078,1.895
	c3.774-0.845,5.815-0.179,8.218-2.855c0.693-0.771,0.455-3.741,1.047-4.71C51.531,57.467,60.174,46.199,59.343,40.755z"/>
<path fill="#F4953F" d="M24.789,50.041l-0.858-3.181l-0.082,0.045c-0.629,1.871-0.919,3.85-0.831,5.792
	C23.62,51.175,24.789,50.041,24.789,50.041z"/>
<path fill="none" stroke="#EDAA84" stroke-width="0.6276" stroke-linecap="round" stroke-linejoin="round" d="M49.879,44.989
	c0,0-7.73,3.852-11.313,13.044"/>
<path fill="none" stroke="#EDAA84" stroke-width="0.6276" stroke-linecap="round" stroke-linejoin="round" d="M51.22,46.633
	c0,0-6.469,4.342-8.63,11.439"/>
<path fill="none" stroke="#EDAA84" stroke-width="0.6276" stroke-linecap="round" stroke-linejoin="round" d="M52.597,48.06
	c0,0-4.418,5.052-3.852,11.426"/>
<path fill="#CC8461" d="M52.838,45.428c0.121,0.045,0.254-0.021,0.293-0.142c0.041-0.118-0.025-0.253-0.146-0.295
	c-0.121-0.042-0.252,0.024-0.293,0.145C52.65,45.26,52.713,45.391,52.838,45.428z"/>
<path fill="#CC8461" d="M51.341,44.926c0.12,0.042,0.253-0.026,0.295-0.15c0.041-0.116-0.024-0.245-0.146-0.29
	c-0.121-0.042-0.253,0.021-0.292,0.145C51.157,44.752,51.219,44.883,51.341,44.926z"/>
<path fill="#CC8461" d="M54.548,43.997c0.121,0.045,0.252-0.016,0.293-0.145c0.041-0.118-0.021-0.25-0.143-0.292
	c-0.123-0.039-0.254,0.024-0.296,0.147C54.362,43.826,54.424,43.96,54.548,43.997z"/>
<path fill="#CC8461" d="M57.047,41.873c0.121,0.039,0.25-0.024,0.292-0.147c0.044-0.121-0.022-0.25-0.145-0.292
	c-0.121-0.042-0.251,0.021-0.295,0.144C56.858,41.7,56.923,41.831,57.047,41.873z"/>
<path fill="#CC8461" d="M55.1,42.692c0.12,0.039,0.252-0.024,0.292-0.147c0.042-0.121-0.022-0.252-0.142-0.292
	c-0.124-0.045-0.255,0.024-0.293,0.145C54.913,42.518,54.977,42.649,55.1,42.692z"/>
<path fill="#CC8461" d="M55.95,46.57c0.122,0.045,0.252-0.021,0.293-0.145c0.044-0.118-0.025-0.253-0.143-0.295
	c-0.123-0.037-0.253,0.024-0.293,0.147C55.764,46.402,55.829,46.531,55.95,46.57z"/>
<path fill="#CC8461" d="M57.601,45.07c0.122,0.042,0.251-0.026,0.294-0.142c0.042-0.124-0.025-0.255-0.145-0.297
	c-0.12-0.039-0.253,0.024-0.296,0.145C57.416,44.894,57.48,45.031,57.601,45.07z"/>
<path fill="#CC8461" d="M53.89,47.165c0.118,0.039,0.252-0.024,0.296-0.142c0.038-0.124-0.026-0.255-0.146-0.297
	c-0.121-0.039-0.257,0.026-0.293,0.145C53.703,46.991,53.767,47.128,53.89,47.165z"/>
<path fill="#CC8461" d="M54.648,45.318c0.121,0.045,0.254-0.021,0.295-0.142c0.041-0.118-0.025-0.252-0.145-0.295
	c-0.121-0.039-0.253,0.021-0.295,0.145C54.463,45.149,54.526,45.278,54.648,45.318z"/>
<path fill="#CC8461" d="M51.923,46.662c0.12,0.042,0.253-0.024,0.291-0.144c0.042-0.119-0.021-0.253-0.145-0.295
	c-0.12-0.037-0.25,0.026-0.294,0.144C51.736,46.491,51.8,46.623,51.923,46.662z"/>
<circle fill="#CC8461" cx="56.095" cy="44.295" r="0.232"/>
<path fill="#F4953F" d="M29.979,41.447c0,0-3.607-11.378-12.969-11.212C7.509,30.4,3.898,46.536,13.232,50.341
	c5.486,2.237,11.741-0.016,11.741-0.016L29.979,41.447z"/>
<path fill="#F4DBC5" d="M29.337,43.205c0,0-3.517-0.413-5.131-3.858c-1.371-2.929-0.769-5.444-3.228-6.886
	c-2.458-1.447-6.486-0.9-8.547,0.779c-2.216,1.797-6.351,9.065-1.577,14.504c4.444,5.063,14.282,1.818,14.282,1.818L29.337,43.205z"
	/>
<path fill="#E2BDA1" d="M28.595,43.044c-1.01-0.295-2.837-1.068-4.027-3.023c-1.168,0.084-3.527,3.108-1.752,5.968
	c0.933,1.497,2.539,2,3.692,2.052l2.625-4.552L28.595,43.044z"/>
<path fill="#F4953F" d="M30.985,39.594c0,0-5.352,3.092-6.646,9.16c-1.291,6.076,3.593-0.55,3.593-0.55l1.959-2.455L30.985,39.594z"
	/>
<path fill="#304454" d="M54.674,36.689c0,0,2.732-2.168,4.238-0.921c2.092,1.731,0.431,4.986,0.431,4.986
	S55.447,39.318,54.674,36.689z"/>
<path fill="#F4953F" d="M58.18,62.519c-3.137,3.713-1.801,10.615,6.836,12.597c8.636,1.979,3.78,6.836,6.838,8.815
	c3.06,1.979-0.118-7.176-0.302-10.013c-0.171-2.618-1.482,0.226-3.301-0.455c-1.57-0.589,2.068-5.957,0.338-8.881
	C65.459,59.288,60.826,59.388,58.18,62.519z"/>
<ellipse transform="matrix(0.9491 -0.3151 0.3151 0.9491 -12.0635 15.1135)" fill="#304454" cx="40.714" cy="44.869" rx="1.063" ry="1.765"/>
</svg>
