<?xml version="1.0" encoding="utf-8"?>
<!-- Generator: Adobe Illustrator 17.0.0, SVG Export Plug-In . SVG Version: 6.00 Build 0)  -->
<!DOCTYPE svg PUBLIC "-//W3C//DTD SVG 1.1//EN" "http://www.w3.org/Graphics/SVG/1.1/DTD/svg11.dtd">
<svg version="1.1" id="Layer_1" xmlns="http://www.w3.org/2000/svg" xmlns:xlink="http://www.w3.org/1999/xlink" x="0px" y="0px"
	 width="100px" height="100px" viewBox="0 0 100 100" enable-background="new 0 0 100 100" xml:space="preserve">
<path fill="#DEB958" d="M62.615,47.065c-0.201,0.481-0.346,0.945-0.451,1.385c-2.329,2.408-4.675,6.311-6.435,11.082
	c-3.367,9.131-0.688,10.361,2.748,12.083c3.436,1.722,6.329,3.284,9.696-5.847c1.807-4.899,2.618-9.691,2.461-13.357
	c0.162-0.298,0.317-0.607,0.454-0.934c0.91-2.175,0.833-4.092-0.171-4.28c-0.385-0.072-0.851,0.142-1.33,0.531
	c-0.031-0.058-0.069-0.106-0.102-0.161c0.301-1.442,0.082-2.542-0.663-2.682c-0.509-0.096-1.158,0.299-1.793,0.97
	c-0.073-0.006-0.146-0.018-0.22-0.018c0.206-1.286-0.037-2.239-0.728-2.368C65.077,43.28,63.525,44.89,62.615,47.065z"/>
<path fill="#DEB958" d="M90.447,91.881c0,0-30.732-6.681-32.514-18.599c-2.036-13.615-6.327,2.132-9.82,6.302
	c0,0,12.55,14.094,27.297,13.904L90.447,91.881z"/>
<path fill="#DEB958" d="M41.789,35.039c-0.059,0.518-0.068,1.004-0.046,1.456c-1.563,2.963-2.724,7.367-3.078,12.44
	c-0.679,9.708,2.238,10.14,6.018,10.832c3.781,0.692,6.994,1.382,7.673-8.326c0.364-5.209-0.197-10.037-1.374-13.512
	c0.072-0.331,0.135-0.671,0.175-1.024c0.265-2.343-0.345-4.161-1.362-4.062c-0.39,0.038-0.778,0.374-1.129,0.882
	c-0.046-0.047-0.096-0.082-0.143-0.126c-0.115-1.468-0.632-2.463-1.386-2.389c-0.516,0.051-1.028,0.61-1.45,1.433
	c-0.072,0.015-0.145,0.024-0.217,0.044c-0.162-1.292-0.662-2.139-1.361-2.07C43.093,30.716,42.054,32.696,41.789,35.039z"/>
<path fill="#CCAA4F" d="M35.445,17.467c0,0,0.543-3.823-1.185-4.203c-1.729-0.379-3.457,1.818-2.854,3.348
	c0.601,1.53,3.274,1.874,3.274,1.874L35.445,17.467z"/>
<path fill="#DEB958" d="M12.329,24.633c-7.644,6.85-3.375,24.176,9.535,38.698S51.436,84.073,59.08,77.223
	c7.644-6.85,3.375-24.176-9.535-38.698S19.973,17.783,12.329,24.633z"/>
<path fill="#DEB958" d="M19.554,10.454C10.431,12.279,4.889,23.542,7.177,35.61s11.539,20.372,20.662,18.547
	c9.123-1.825,14.665-13.088,12.377-25.156S28.677,8.629,19.554,10.454z"/>
<g>
	
		<ellipse transform="matrix(0.9677 -0.2522 0.2522 0.9677 -5.5657 6.147)" fill="#304454" cx="21.201" cy="24.789" rx="1.081" ry="1.502"/>
	
		<ellipse transform="matrix(0.9677 -0.2522 0.2522 0.9677 -4.4788 8.6504)" fill="#304454" cx="31.512" cy="21.8" rx="1.081" ry="1.502"/>
</g>
<g>
	<path fill="none" stroke="#CCAA4F" stroke-miterlimit="10" d="M35.715,28.73c0,0,5.65-0.315,8.636,0.935"/>
	<path fill="none" stroke="#CCAA4F" stroke-miterlimit="10" d="M36.004,26.077c0,0,5.16-2.283,8.412-2.171"/>
</g>
<path fill="#DEB958" d="M9.694,23.906c0,0-3.508-1.615-4.367-0.067c-0.858,1.549,0.753,3.832,2.391,3.693
	c1.638-0.138,2.733-2.601,2.733-2.601L9.694,23.906z"/>
<path fill="#CCAA4F" d="M20.124,30.977c0.235-2.677,2.406-4.741,4.849-4.61c1.131,0.06,3.68-0.834,4.737-1.483
	c2.09-1.283,4.973-0.504,6.439,1.739c1.467,2.244,0.67,6.543-1.419,7.827c-1.935,1.188-3.87,5.248-6.223,5.122
	C26.063,39.441,19.889,33.653,20.124,30.977z"/>
<path fill="#DEB958" d="M20.5,29.816c0.227-2.586,2.325-4.581,4.686-4.455c1.093,0.058,3.556-0.806,4.578-1.433
	c2.019-1.24,4.805-0.487,6.222,1.681c1.417,2.168,0.657,4.57-1.09,6.171c-0.704,0.645-2.709,1.602-4.198-0.209
	c-0.35,2.446-4.06,3.277-6.333,3.156C22.004,34.601,20.273,32.402,20.5,29.816z"/>
<path fill="#304454" d="M31.468,28.576c0,0-0.466,1.821-1.518,2.129c-0.635,0.186-1.243-0.329-1.914-1.204
	c-0.772-1.008,0.596-1.853,1.291-2.028C29.958,27.316,31.468,27.037,31.468,28.576z"/>
<g>
	<path fill="none" stroke="#CCAA4F" stroke-miterlimit="10" d="M23.29,31.524c0,0-3.47,4.47-4.138,7.637"/>
	<path fill="none" stroke="#CCAA4F" stroke-miterlimit="10" d="M20.943,30.254c0,0-4.811,2.948-6.566,5.688"/>
</g>
<path fill="#CCAA4F" d="M31.054,37.162c-6.879,5.025-6.116,17.905,1.704,28.77s19.735,15.599,26.614,10.574
	c6.879-5.025,6.116-17.905-1.704-28.77S37.933,32.138,31.054,37.162z"/>
<path fill="#DEB958" d="M37.933,55.456c0.069,0.517,0.179,0.991,0.31,1.423c-0.794,3.255-0.847,7.808,0.045,12.815
	c1.706,9.581,4.64,9.29,8.476,9.04c3.836-0.25,7.12-0.363,5.414-9.944c-0.916-5.141-2.636-9.686-4.624-12.77
	c-0.011-0.339-0.033-0.684-0.08-1.036c-0.314-2.337-1.348-3.952-2.31-3.608c-0.369,0.132-0.663,0.553-0.88,1.13
	c-0.057-0.034-0.113-0.056-0.169-0.088c-0.469-1.396-1.213-2.235-1.927-1.979c-0.488,0.175-0.848,0.842-1.057,1.743
	c-0.066,0.032-0.134,0.058-0.199,0.095c-0.472-1.214-1.163-1.913-1.825-1.676C38.145,50.945,37.619,53.119,37.933,55.456z"/>
<ellipse transform="matrix(0.3496 0.9369 -0.9369 0.3496 96.3328 4.3797)" fill="#DEB958" cx="45.012" cy="71.57" rx="11.006" ry="8.786"/>
<ellipse transform="matrix(0.869 0.4948 -0.4948 0.869 24.9214 -11.5794)" fill="#D14E3F" cx="34.331" cy="41.28" rx="6.187" ry="3.906"/>
<ellipse transform="matrix(-0.6018 0.7987 -0.7987 -0.6018 101.8762 28.3466)" fill="#D14E3F" cx="43.871" cy="39.572" rx="6.187" ry="3.906"/>
<path fill="#E95946" d="M47.212,45.46c0.219,1.343-2.913,1.543-6.67,2.156c-3.757,0.613-6.717,1.408-6.936,0.065
	c-0.219-1.343,2.649-2.929,6.406-3.542C43.769,43.526,46.993,44.117,47.212,45.46z"/>
<ellipse transform="matrix(-0.3332 0.9429 -0.9429 -0.3332 94.4143 10.7899)" fill="#E95946" cx="43.392" cy="38.782" rx="6.187" ry="3.893"/>
<ellipse transform="matrix(0.7485 0.6632 -0.6632 0.7485 35.5285 -12.9856)" fill="#E95946" cx="34.883" cy="40.343" rx="6.996" ry="4.117"/>
<ellipse transform="matrix(0.371 0.9286 -0.9286 0.371 58.0132 -9.4559)" fill="#D14E3F" cx="35.986" cy="38.094" rx="6.187" ry="3.893"/>
<ellipse transform="matrix(-0.0166 0.9999 -0.9999 -0.0166 79.0903 -3.1861)" fill="#D14E3F" cx="41.112" cy="37.3" rx="6.187" ry="3.893"/>
<ellipse transform="matrix(0.1362 0.9907 -0.9907 0.1362 71.168 -5.2576)" fill="#E95946" cx="38.599" cy="38.181" rx="7.014" ry="4.907"/>
<path fill="#DEB958" d="M32.924,38.986c-0.394,0.342-0.73,0.693-1.02,1.04c-3.157,1.121-6.994,3.574-10.691,7.065
	c-7.076,6.681-5.223,8.975-2.911,12.045c2.312,3.07,4.209,5.755,11.285-0.926c3.797-3.585,6.654-7.516,8.143-10.87
	c0.278-0.195,0.554-0.402,0.822-0.635c1.782-1.544,2.565-3.294,1.75-3.91c-0.313-0.236-0.826-0.251-1.428-0.116
	c-0.002-0.066-0.015-0.125-0.02-0.19c0.91-1.158,1.204-2.24,0.599-2.697c-0.414-0.312-1.17-0.247-2.037,0.071
	c-0.063-0.038-0.123-0.08-0.189-0.114c0.756-1.06,0.962-2.022,0.401-2.445C36.812,36.689,34.706,37.442,32.924,38.986z"/>
</svg>
