<?xml version="1.0" encoding="utf-8"?>
<!-- Generator: Adobe Illustrator 17.0.0, SVG Export Plug-In . SVG Version: 6.00 Build 0)  -->
<!DOCTYPE svg PUBLIC "-//W3C//DTD SVG 1.1//EN" "http://www.w3.org/Graphics/SVG/1.1/DTD/svg11.dtd">
<svg version="1.1" id="Layer_1" xmlns="http://www.w3.org/2000/svg" xmlns:xlink="http://www.w3.org/1999/xlink" x="0px" y="0px"
	 width="100px" height="100px" viewBox="0 0 100 100" enable-background="new 0 0 100 100" xml:space="preserve">
<path fill="#D67B72" d="M74.983,65.364c0,0,1.783,0.416,1.807,0.833c0.023,0.415-0.783,1.41-1.276,1.503
	c-0.495,0.091-2.164-0.844-2.164-0.844L74.983,65.364z"/>
<path fill="#D67B72" d="M74.335,66.214c0,0,1.676,0.34,1.837,0.989c0.11,0.452-2.333,2.288-4.043,1.805
	c-1.038-0.291-1.466-0.828-1.466-0.828L74.335,66.214z"/>
<path fill="#E59585" d="M65.624,52.774c0.58,0.314,5.207,3.902,1.044,9.68c-1.028,1.43,4.91,3.022,4.91,3.022
	s1.52-0.677,2.987-0.154c1.97,0.702-4.223,3.06-4.223,3.06s0.349,0.846,0.123,0.902c-0.219,0.053-1.017-1.113-1.124-1.369
	c-0.458-0.293-3.862-1.07-5.552-2.238c-1.714-1.181-8.395-4.843-6.382-9.749C59.742,50.238,64.374,52.09,65.624,52.774z"/>
<path fill="#D67B72" d="M17.492,65.455c0,0-1.392,0.29-1.527,0.022c-0.135-0.266-0.175-1.105,0.121-1.308
	c0.301-0.203,1.475-0.148,1.475-0.148L17.492,65.455z"/>
<path fill="#D67B72" d="M17.45,64.754c0,0-1.334,0.238-1.627-0.146c-0.204-0.267,0.65-2.187,1.919-2.365
	c0.772-0.108,1.207,0.124,1.207,0.124L17.45,64.754z"/>
<path fill="#E59585" d="M36.331,56.766c-1.567,9.698-11.431,5.714-12.843,6.906c-2.356,1.988-5.996,1.782-5.996,1.782
	c-0.874-0.032,1.348-3.106,1.348-3.106l0.897,0.275c0,0-0.891-0.5-0.759-0.604c0.234-0.177,0.729,0.075,1.352,0.385
	c1.976-0.35,1.915-2.748,2.752-2.949c3.256-0.784,2.773-2.153,2.773-2.153c-4.595-5.595,3.08-7.26,3.08-7.26
	S38.073,45.991,36.331,56.766z"/>
<path fill="#E59585" d="M26.447,50.974c0,0-1.553-3.049-4.165-2.968c-2.613,0.079-2.606,2.462-1.121,3.194
	c1.456,0.717,2.304-1.727,2.304-1.727s0.108,2.795-2.346,2.43c-2.606-0.387-2.63-4.813,1.323-4.806
	c2.815,0.006,4.903,2.672,4.903,2.672L26.447,50.974z"/>
<path fill="#F7A996" d="M59.91,53.012c0,0-4.649,0.752-9.662-2.039C41.05,45.846,34.282,44,27.012,48.795
	c-9.747,6.424-11.688,26.662,8.295,30.857c29.295,6.151,41.048-24.391,41.048-24.391L59.91,53.012z"/>
<path fill="#E59585" d="M51.323,79.342c-1.819-7.612,1.136-10.05,1.136-10.05l4.944,7.644
	C55.531,77.914,53.505,78.737,51.323,79.342z"/>
<path fill="#E59585" d="M35.307,79.652c-2.376-0.554-4.426-1.315-6.18-2.239l1.56-2.855c2.133,3.225,5.389,4.85,7.17,5.541
	C37.034,80.001,36.183,79.857,35.307,79.652z"/>
<path fill="#D67B72" d="M13.325,81.299c0,0-1.606,0.334-1.767,0.024c-0.155-0.308-0.205-1.276,0.141-1.51
	c0.347-0.237,1.704-0.173,1.704-0.173L13.325,81.299z"/>
<path fill="#D67B72" d="M13.276,80.488c0,0-1.54,0.274-1.879-0.171c-0.237-0.307,0.751-2.526,2.22-2.731
	c0.888-0.125,1.393,0.142,1.393,0.142L13.276,80.488z"/>
<path fill="#F7A996" d="M35.592,71.129c-1.374,10.929-13.705,6.729-15.341,8.11c-2.721,2.297-6.926,2.061-6.926,2.061
	c-1.009-0.04,1.558-3.591,1.558-3.591l1.033,0.32c0,0-1.028-0.581-0.875-0.699c0.271-0.206,0.844,0.087,1.563,0.444
	c2.282-0.404,2.213-3.176,3.181-3.408c3.765-0.907,3.204-2.488,3.204-2.488c-5.311-6.463-1.359-13.675-1.359-13.675
	S37.16,58.618,35.592,71.129z"/>
<path fill="#E59585" d="M61.208,74.61c-6.963-3.946-14.823-12.372-15.925-26.168c1.58,0.712,3.231,1.563,4.965,2.53
	c5.013,2.792,9.662,2.039,9.662,2.039l16.445,2.25C76.355,55.262,71.775,67.162,61.208,74.61z"/>
<path fill="#D67B72" d="M70.554,76.247c0,0,1.821-0.186,1.98,0.199c0.157,0.385-0.281,1.588-0.717,1.836
	c-0.438,0.247-2.321-0.093-2.321-0.093L70.554,76.247z"/>
<path fill="#D67B72" d="M70.219,77.262c0,0,1.696-0.224,2.059,0.337c0.251,0.392-1.461,2.922-3.235,3.023
	c-1.077,0.062-1.655-0.306-1.655-0.306L70.219,77.262z"/>
<path fill="#F7A996" d="M58.016,67.292c0.65,0.108,6.193,1.995,4.138,8.813c-0.506,1.686,5.626,1.259,5.626,1.259
	s1.217-1.135,2.775-1.118c2.091,0.023-2.997,4.268-2.997,4.268s0.606,0.686,0.41,0.813c-0.19,0.121-1.324-0.721-1.508-0.929
	c-0.528-0.128-4,0.245-5.978-0.309c-2.005-0.559-9.514-1.847-9.207-7.141C51.629,66.809,56.611,67.052,58.016,67.292z"/>
<path fill="#F7A996" d="M74.866,33.251c0,0-0.008-3.128,2.433-5.052c1.601-1.264,3.966-2.885,5.264-4.81
	c3.521-5.216,6.966,2.72,5.868,9.623c-0.764,4.792-3.369,10.552-7.514,8.98C77.411,40.665,74.866,33.251,74.866,33.251z"/>
<linearGradient id="SVGID_1_" gradientUnits="userSpaceOnUse" x1="-7703.5215" y1="-7982.5815" x2="-7693.7144" y2="-7974.6392" gradientTransform="matrix(-0.5816 0.0222 0.0222 0.5816 -4224.8442 4844.5522)">
	<stop  offset="0" style="stop-color:#F7A996"/>
	<stop  offset="1" style="stop-color:#F15D4E"/>
</linearGradient>
<path fill="url(#SVGID_1_)" d="M76.117,36.22c-0.793-1.636-1.251-2.969-1.251-2.969s-0.003-1.356,0.691-2.834
	c2.208,0.696,4.511,2.547,4.511,2.547L76.117,36.22z"/>
<path fill="#E59585" d="M76.117,36.22c-0.793-1.636-1.251-2.969-1.251-2.969s-0.003-1.356,0.691-2.834
	c2.208,0.696,4.511,2.547,4.511,2.547L76.117,36.22z"/>
<path fill="#D67B72" d="M79.257,38.337c0,0-1.815-4.089,0.413-6.981c2.622-3.401,3.78-7.939,5.392-8.43
	c1.965-0.598,2.81,3.716,3.086,5.435c0.415,2.55-0.286,7.554-1.856,10.338c-1.116,1.979-2.177,3.382-5.171,3.13
	C78.124,41.576,79.257,38.337,79.257,38.337z"/>
<path fill="#F7A996" d="M59.21,33.848c0,0-0.234-3.117-2.812-4.852c-1.69-1.138-4.173-2.574-5.614-4.397
	c-3.908-4.931-6.739,3.244-5.115,10.042c1.123,4.72,4.16,10.266,8.173,8.386C57.238,41.434,59.21,33.848,59.21,33.848z"/>
<path fill="#E59585" d="M57.64,38.403c0.668-1.691,1.57-4.554,1.57-4.554s-0.101-1.353-0.907-2.773
	C56.159,31.937,54,33.958,54,33.958L57.64,38.403z"/>
<path fill="#D67B72" d="M55.217,39.254c0,0,1.498-4.216-0.945-6.93c-2.872-3.191-4.371-7.629-6.013-7.997
	c-2.006-0.446-2.52,3.922-2.667,5.657c-0.214,2.574,0.864,7.51,2.643,10.165c1.261,1.888,2.426,3.206,5.392,2.728
	C56.597,42.397,55.217,39.254,55.217,39.254z"/>
<path fill="#F7A996" d="M76.704,32.674c0,0-4.766-2.805-9.522-2.465c-3.315,0.237-7.196,0.839-10.495,4.03
	c-4.49,4.342-5.553,11.506-5.609,15.173c-0.145,9.686,6.323,15.818,16.358,15.584c9.891-0.231,17.86-6.695,17.197-16.347
	C84.257,43.144,82.479,36.047,76.704,32.674z"/>
<path fill="#D67B72" d="M73.561,55.336c0,0-2.274-5.09-5.776-4.957c-2.115,0.082-4.425,2.301-5.575,5.635
	c-1.319,3.842,3.689,5.017,5.974,4.842C70.259,60.693,75.124,60.006,73.561,55.336z"/>
<g opacity="0.4">
	<path opacity="0.4" fill="#FFFFFF" d="M65.51,57.513c-0.652,0.025-1.2-0.484-1.225-1.135c-0.025-0.652,0.483-1.2,1.132-1.226
		c0.654-0.024,1.203,0.484,1.226,1.136C66.671,56.939,66.162,57.488,65.51,57.513z"/>
	<circle opacity="0.4" fill="#FFFFFF" cx="70.391" cy="56.144" r="1.181"/>
</g>
<path fill="#F7A996" d="M68.939,30.742c0,0,0.235-2.104-2.027-2.278c0,0,1.817,0.978,1.552,2.192L68.939,30.742z"/>
<path fill="#F7A996" d="M68.397,30.476c0,0-0.449-0.821-1.293-0.946c0,0,1.069,0.588,1.09,1.111L68.397,30.476z"/>
<g>
	
		<ellipse transform="matrix(-0.9996 0.0272 -0.0272 -0.9996 152.6225 95.1838)" fill="#304454" cx="75.663" cy="48.631" rx="1.296" ry="1.802"/>
	
		<ellipse transform="matrix(-0.9996 0.0272 -0.0272 -0.9996 121.6812 94.8506)" fill="#304454" cx="60.195" cy="48.254" rx="1.296" ry="1.802"/>
</g>
<g>
	<circle fill="#304454" cx="66.007" cy="56.216" r="0.5"/>
	<path fill="#304454" d="M69.871,56.569c0.275-0.01,0.49-0.242,0.479-0.517c-0.01-0.277-0.243-0.492-0.519-0.48
		c-0.275,0.009-0.489,0.241-0.482,0.518C69.362,56.365,69.594,56.58,69.871,56.569z"/>
</g>
</svg>
