<?xml version="1.0" encoding="utf-8"?>
<!-- Generator: Adobe Illustrator 17.0.0, SVG Export Plug-In . SVG Version: 6.00 Build 0)  -->
<!DOCTYPE svg PUBLIC "-//W3C//DTD SVG 1.1//EN" "http://www.w3.org/Graphics/SVG/1.1/DTD/svg11.dtd">
<svg version="1.1" id="Layer_1" xmlns="http://www.w3.org/2000/svg" xmlns:xlink="http://www.w3.org/1999/xlink" x="0px" y="0px"
	 width="100px" height="100px" viewBox="0 0 100 100" enable-background="new 0 0 100 100" xml:space="preserve">
<path fill="#DEB958" d="M46.84,77.614c0,0,1.131,0.679,3.055-0.34c0-2.245,0.227-7.102,0.359-9.742
	c-2.403-0.4-4.724-0.854-7.068-1.1C44.181,69.897,45.383,73.64,46.84,77.614z"/>
<path fill="#DEB958" d="M65.99,69.24c1.303,3.56,2.439,8.168,2.439,8.168s1.003,0.552,2.578-0.411
	c0.8-3.214,1.62-10.086,2.994-16.334C70.983,63.276,68.149,66.038,65.99,69.24z"/>
<path fill="#CCAA4F" d="M47.487,69.698c0.365-0.731,1.499-0.691,2.683-0.423c0.03-0.64,0.059-1.232,0.085-1.742
	c-2.403-0.4-4.724-0.854-7.068-1.1c0.995,3.465,2.198,7.208,3.654,11.182c0,0,1.131,0.679,3.055-0.34
	c0-0.264,0.003-0.566,0.009-0.895C46.456,76.65,46.529,71.853,47.487,69.698z"/>
<path fill="#CCAA4F" d="M70.628,75.418c-0.945-3.592,0.585-6.772,2.389-9.74c0.296-1.663,0.621-3.36,0.984-5.014
	c-3.018,2.612-5.852,5.374-8.011,8.577c1.303,3.56,2.439,8.168,2.439,8.168s1.003,0.552,2.578-0.411
	c0.077-0.31,0.154-0.655,0.232-1.03C70.886,75.87,70.628,75.676,70.628,75.418z"/>
<path fill="#304454" d="M46.84,77.614c0,0-0.483,2.16-0.035,3.709c0.378,0.344,3.134,0.585,4.132-0.793
	c-0.069-0.791-0.639-2.551-1.043-3.256C49.895,77.274,48.012,78.141,46.84,77.614z"/>
<path fill="#304454" d="M68.29,77.348c0,0,1.147,0.687,2.814-0.395c0.764,0.884,1.257,3.987,1.257,3.987s-2.402,1.814-4.472,0.779
	C67.889,81.719,67.278,78.795,68.29,77.348z"/>
<path fill="#F1D285" d="M20.312,31.062c0,0-8.791,5.166-4.438,9.065c4.348,3.894,9.461,2.674,9.834,0.935
	c2.858,1.49,7.555-0.366,7.555-0.366s0.496,16.267,9.19,39.987c0,0,1.242,0.747,3.352-0.373c0-3.477,0.497-12.664,0.497-12.664
	s10.929,3.104,16.517,1.49c0.87,3.725,1.118,10.678,1.118,10.678s0.869,0.745,2.607,0.124c1.738-3.601,4.594-12.418,7.948-18.875
	c3.352-6.458,4.472-20.367-6.21-19.87c-10.68,0.497-19.62-0.372-22.602-3.228c-2.98-2.856-2.732-6.955-2.359-10.183
	c0.373-3.23-3.228-7.452-6.831-6.955c-3.601,0.496-9.967,2.489-12.543,4.345C21.5,26.938,20.312,31.062,20.312,31.062z"/>
<path opacity="0.5" fill="#DEB958" d="M67.73,66.577c-6.76,1.56-13.521,0.26-20.281-1.04c-1.04-0.26-2.86-0.781-3.64-2.341
	c1.82,4.421,1.56,8.841,0.78,13.261c0,0.78-1.82,1.56-2.08,0.78c-2.34-6.24-3.861-12.709-4.867-19.415
	c-1.391-9.271-3.632-19.763-0.593-27.647c-2.92,7.574-12.042,7.64-12.367,8.408c-0.72,1.698-9.095,1.301-9.095,1.301
	c3,3.449,9.095,3.491,10.084,1.178c0.04-0.094,0.084-0.183,0.131-0.267c1.66,1.913,7.424-0.099,7.424-0.099
	s0.497,16.268,9.19,39.988c0,0,1.242,0.745,3.353-0.373c0-3.478,0.496-12.666,0.496-12.666s10.929,3.104,16.517,1.49
	c0.869,3.725,1.118,10.68,1.118,10.68s0.824,0.7,2.465,0.17C64.102,76.082,64.639,70.182,67.73,66.577z"/>
<path fill="#DEB958" d="M35.266,24.715c1.746-0.437,2.922-1.851,3.528-3.604c-0.741-0.278-1.521-0.392-2.302-0.284
	c-3.296,0.454-8.773,2.364-11.773,3.923C28.142,25.544,31.785,25.534,35.266,24.715z"/>
<path fill="#F4953F" d="M72.879,44.297c0,0-0.248-4.718,5.712-4.718c5.961,0,7.699,3.973,5.837,10.307
	c-1.862,6.333-1.615,8.817,0.497,8.196c0,0,0.373-0.744-0.249-0.744c0,0,1.118-0.249,1.118,0.993c0,1.241-2.36,2.111-4.347-0.124
	c-0.124,1.241,2.111,1.862,2.857,1.862c-1.118,1.367-4.595,1.987-6.086-1.49c-1.49-3.478-1.366-5.464-1.366-5.464
	s-0.621-6.334-1.49-6.582C75.362,46.533,73.376,46.658,72.879,44.297z"/>
<path fill="#2C8FC0" d="M79.23,51.722c-0.014-0.346-0.022-0.684-0.022-1.006C79.124,51.052,79.15,51.387,79.23,51.722z"/>
<path fill="#D78334" d="M79.23,51.722c-0.08-0.335-0.105-0.67-0.022-1.006C79.208,51.038,79.216,51.376,79.23,51.722
	c0.168,0.705,0.583,1.41,0.758,2.114c0.52-3.38,1.56-8.321-2.86-9.1c0.78-0.52,1.56-0.26,2.34,0c-0.52-1.56-3.12-0.78-3.381-1.56
	c-0.26-1.82,2.601-1.3,4.161-1.3c-0.763-0.508-1.28-1.514-2.032-2.288c-5.572,0.196-5.338,4.709-5.338,4.709
	c0.497,2.36,2.484,2.236,2.484,2.236c0.87,0.248,1.49,6.582,1.49,6.582s-0.124,1.986,1.366,5.464
	c1.159,2.702,3.517,2.929,5.034,2.255C80.234,59.344,79.366,55.071,79.23,51.722z"/>
<path fill="#304454" d="M42.454,80.684c0,0-0.53,2.37-0.039,4.071c0.415,0.378,3.44,0.643,4.537-0.869
	c-0.076-0.87-0.702-2.801-1.145-3.575C45.807,80.312,43.74,81.264,42.454,80.684z"/>
<path fill="#304454" d="M63.814,79.726c0,0,0.983,0.908,2.835,0.189c0.567,1.021,0.416,4.159,0.416,4.159s-2.722,1.285-4.537-0.151
	C62.529,83.924,62.529,80.937,63.814,79.726z"/>
<path fill="#F4953F" d="M37.475,23.024c0,0-4.718,2.11-8.815,1.241c-4.1-0.869-8.197-6.21-4.472-9.066
	c-0.248,1.366,0.249,4.346,4.472,3.849c-1.12,0-2.485-2.359-1.368-3.849c0.375,0.745,1.368,2.98,4.72,1.863
	c3.352-1.118,10.059-2.98,13.287,1.986c3.228,4.969,2.359,13.787,9.935,13.536c0.993-0.124,0.869-1.738-0.373-1.738
	c2.359-0.249,6.334,8.073-4.097,9.066c-3.106,1.118-9.066-2.235-9.19-7.203C41.45,27.742,42.443,22.277,37.475,23.024L37.475,23.024
	z"/>
<path fill="#D78334" d="M57.275,33.131c-0.217,0.545-0.61,0.996-1.267,1.294c-2.082,1.039-4.941,0.52-7.282-0.781
	c0.261,1.039,0.52,1.82,1.821,1.82c-6.76,1.298-8.321-6.501-7.54-11.7c0.261,1.56,1.559,3.38,3.38,3.641
	c-1.587-2.184-1.054-5.276-0.945-8.121c-0.046-0.078-0.093-0.158-0.143-0.236c-2.125-3.27-5.762-3.58-8.952-3.089
	c-1.414,2.897-2.54,6.071-6.599,4.945c0.52,0.779,1.04,0.779,2.079,0.779c-1.833,1.1-4.055,1.683-6.117,1.201
	c0.901,0.665,1.926,1.162,2.95,1.381c4.097,0.869,8.815-1.241,8.815-1.241c4.969-0.747,3.975,4.718,4.1,9.684
	c0.124,4.968,6.084,8.321,9.19,7.203C57.473,39.272,58.222,35.604,57.275,33.131L57.275,33.131z"/>
<path fill="#F1D285" d="M38.388,25.241c0,0-1.302-2.848,0.733-4.802c2.035-1.953,2.035-1.953,2.035-1.953s1.302,3.093,0.57,5.372
	C41.236,25.566,39.609,26.543,38.388,25.241z"/>
<path fill="#F6A5BF" d="M35.8,17.696c0.002,0.009,0.005,0.017,0.007,0.025l0,0l0,0C35.807,17.717,35.804,17.709,35.8,17.696
	L35.8,17.696z"/>
<path fill="#CCAA4F" d="M40.638,20.309c0,0-2.127,1.458-1.762,3.403c0.365,1.944,1.641,0.668,1.945,0
	C41.124,23.043,40.638,20.309,40.638,20.309z"/>
<path fill="#E8C4DD" d="M50.867,40.186c0,0-0.016,0.025-0.045,0.074c0.031,0.007,0.06,0.014,0.091,0.021
	C50.896,40.25,50.881,40.217,50.867,40.186L50.867,40.186z"/>
<ellipse fill="#304454" cx="28.306" cy="30.417" rx="0.924" ry="1.535"/>
</svg>
