<?xml version="1.0" encoding="utf-8"?>
<!-- Generator: Adobe Illustrator 17.0.0, SVG Export Plug-In . SVG Version: 6.00 Build 0)  -->
<!DOCTYPE svg PUBLIC "-//W3C//DTD SVG 1.1//EN" "http://www.w3.org/Graphics/SVG/1.1/DTD/svg11.dtd">
<svg version="1.1" id="Layer_1" xmlns="http://www.w3.org/2000/svg" xmlns:xlink="http://www.w3.org/1999/xlink" x="0px" y="0px"
	 width="100px" height="100px" viewBox="0 0 100 100" enable-background="new 0 0 100 100" xml:space="preserve">
<path opacity="0.8" fill="#CCAA4F" d="M39.12,76.691c0,0-13.43,8.475-20.741,4.809c-3.261-1.639-0.874-5.497,3.491-4.821
	c4.809,0.745,9.847-7.035,9.847-7.035L39.12,76.691z"/>
<path fill="#E2E2E2" d="M82.559,67.956c-0.441-0.662-1.191-1.035-1.963-1.012c-0.204-0.397-0.685-0.568-1.095-0.381
	c-0.13,0.059-0.238,0.148-0.319,0.254c-0.611-0.339-1.369-0.394-2.054-0.081c-0.432,0.197-0.772,0.512-1.002,0.889
	c-0.246,0.013-0.493,0.069-0.731,0.178c-0.722,0.329-1.153,1.033-1.175,1.776c-0.02,0.007-0.039,0.015-0.059,0.024
	c-0.422,0.192-0.608,0.69-0.416,1.113c0.011,0.025,0.024,0.049,0.036,0.071c-0.236,0.566-0.246,1.224,0.029,1.826
	c0.155,0.339,0.382,0.622,0.655,0.839c-0.131,0.224-0.155,0.506-0.039,0.76c0.002,0.004,0.005,0.008,0.007,0.013
	c-0.402,0.351-0.546,0.937-0.313,1.448c0.284,0.624,1.02,0.898,1.643,0.614c0.172-0.079,0.316-0.192,0.431-0.328
	c0.24,0.201,0.583,0.258,0.886,0.12c0.045-0.021,0.087-0.045,0.126-0.072c0.58,0.384,1.338,0.469,2.017,0.16
	c0.261-0.119,0.486-0.285,0.669-0.484c0.223,0.016,0.454-0.022,0.671-0.121c0.303-0.138,0.532-0.373,0.667-0.65
	c0.308,0.021,0.624-0.032,0.924-0.169c0.716-0.327,1.135-1.039,1.122-1.779c0.24-0.161,0.336-0.476,0.212-0.748
	c-0.013-0.028-0.029-0.055-0.045-0.08c0.51-0.428,0.695-1.157,0.405-1.793c-0.068-0.15-0.158-0.282-0.263-0.397
	c0.132-0.362,0.129-0.774-0.044-1.152C83.349,68.364,82.98,68.07,82.559,67.956z M78.163,71.553c0.005,0.001,0.01,0.001,0.015,0.002
	c-0.005,0.01-0.009,0.02-0.013,0.031C78.164,71.574,78.163,71.564,78.163,71.553z"/>
<path fill="#EEC65E" d="M54.317,22.49c0,0,4.994-4.183,9.652-4.262c3.053-0.052,7.175,0.204,11.098-1.044
	c10.614-3.366,0.157,10.771-11.591,18.872c-8.152,5.628-19.049,10.663-19.222,4.321C44.111,35.007,54.317,22.49,54.317,22.49z"/>
<path fill="#F7A996" d="M51.921,32.429c0,0,4.426-6.198,9.623-7.398c6.111-1.412,12.889-5.418,14.497-4.507
	c1.959,1.117-3.342,6.688-5.487,8.854c-3.185,3.21-10.318,8.148-14.982,9.822c-3.313,1.195-5.823,1.795-7.247-1.198
	C46.902,35.005,51.921,32.429,51.921,32.429z"/>
<path fill="#CCAA4F" d="M52.35,31.902c-1.642-0.851-2.987-1.355-2.987-1.355s-1.385-0.051-2.92,0.591
	c0.631,2.231,2.438,4.598,2.438,4.598L52.35,31.902z"/>
<path fill="#EEC65E" d="M43.851,56.978c0,0,3.866,2.69,9.593,2.343c10.511-0.641,17.411,0.623,21.891,8.091
	c6.007,10.009-1,29.094-20.831,24.229C25.432,84.51,28.052,51.89,28.052,51.89L43.851,56.978z"/>
<path opacity="0.5" fill="#CCAA4F" d="M30.842,71.455c7.779-0.229,15.332-0.596,22.602-12.134c-1.681-0.108-0.437-3.488-2.367-3.445
	c-5.578,0.122-9.219-2.683-9.219-2.683l-15.475-7.333C26.383,45.859,27.443,57.775,30.842,71.455z"/>
<path fill="#EEC65E" d="M32.743,24.519c0,0-0.129-6.193-2.262-10.109c-1.399-2.572-3.454-5.885-4.628-9.754
	c-3.183-10.482-5.729,5.083-4.507,18.8c0.85,9.522,3.287,21.04,6.698,18.109C30.93,39.088,32.743,24.519,32.743,24.519z"/>
<path fill="#F7A996" d="M29.279,34.398c0,0,1.345-8.018-0.651-13.841C26.279,13.71,25.11,4.673,23.735,3.631
	c-1.675-1.27-2.197,7.236-2.353,10.627c-0.237,5.031,0.569,14.97,2.009,20.551c1.023,3.967,1.975,6.791,4.476,6.422
	C30.371,40.862,29.279,34.398,29.279,34.398z"/>
<path fill="#EEC65E" d="M31.231,32.495c0,0,4.766-2.805,9.522-2.465c3.315,0.237,7.196,0.839,10.495,4.03
	c4.49,4.342,5.553,11.506,5.609,15.173c0.145,9.686-6.323,15.818-16.358,15.584c-9.891-0.231-17.86-6.695-17.197-16.347
	C23.678,42.966,25.455,35.868,31.231,32.495z"/>
<path fill="#EEC65E" d="M38.349,30.424c0,0,1.648-3.013,4.744-3.47c0,0-3.921,2.159-4.002,4.078L38.349,30.424z"/>
<ellipse transform="matrix(0.9996 0.0272 -0.0272 0.9996 1.381 -0.8758)" fill="#304454" cx="32.838" cy="50.254" rx="1.296" ry="1.802"/>
<ellipse transform="matrix(0.9996 0.0272 -0.0272 0.9996 1.3869 -1.3062)" fill="#304454" cx="48.641" cy="50.254" rx="1.296" ry="1.802"/>
<ellipse transform="matrix(-0.9924 -0.1227 0.1227 -0.9924 76.6369 120.2715)" fill="#CDA245" cx="42.023" cy="57.775" rx="2.266" ry="1.722"/>
<path fill="#EEC65E" d="M39.289,30.082c0,0,2.683-2.144,5.715-1.371c0,0-4.451,0.479-5.265,2.218L39.289,30.082z"/>
<path opacity="0.5" fill="#CCAA4F" d="M50.425,90.096c0.018,0.003,0.034,0.002,0.052,0.005c1.498,0.232,3.018-0.363,4.401-1.293
	c-3.814-12.612,4.069-18.151,10.22-15.694c5.222,2.086,8.214,8.484,4.109,15.542c-0.363,0.625-0.894,1.077-1.511,1.427l0.031,0.03
	c0,0-1.37,0.863-3.468,1.918c-2.699,0.451-5.79,0.351-9.288-0.508C53.354,91.127,51.852,90.64,50.425,90.096z"/>
<path fill="#EEC65E" d="M52.955,91.566c1.498,0.232,3.018-0.363,4.401-1.293c-3.814-12.612,4.069-18.151,10.22-15.694
	c5.222,2.086,8.214,8.484,4.109,15.542c-0.363,0.625-0.894,1.077-1.511,1.427l0.031,0.03c0,0-4.183,2.638-9.151,4.334
	c-0.131,0.142-0.296,0.206-0.495,0.163c-3.806,1.237-7.999,1.864-11.095,0.311C46.203,94.747,48.59,90.89,52.955,91.566z"/>
<g opacity="0.5">
	<path fill="#CCAA4F" d="M39.913,83.129c2.38-2.057,4.096-4.695,4.096-4.695l5.388,4.992c0,0-0.336,3.536-3.603,4.992
		C43.5,86.844,41.565,85.048,39.913,83.129z"/>
</g>
<path fill="#EEC65E" d="M50.051,83.232c0,0-14.32,8.997-22.106,5.122c-3.472-1.733-0.924-5.824,3.726-5.112
	c5.124,0.784,10.501-7.467,10.501-7.467L50.051,83.232z"/>
<path fill="none" stroke="#CDA245" stroke-miterlimit="10" d="M52.704,57.311c0,0,3.604,0.163,5.419,1.175"/>
<path fill="none" stroke="#CDA245" stroke-miterlimit="10" d="M53.055,55.594c0,0,3.418-1.158,5.473-0.872"/>
<g>
	<path fill="none" stroke="#CDA245" stroke-width="1.0157" stroke-miterlimit="10" d="M30.709,59.094c0,0-3.718,0.163-5.591,1.175"
		/>
	<path fill="none" stroke="#CDA245" stroke-width="1.0157" stroke-miterlimit="10" d="M30.347,57.376c0,0-3.526-1.158-5.647-0.872"
		/>
</g>
</svg>
