<?xml version="1.0" encoding="utf-8"?>
<!-- Generator: Adobe Illustrator 17.0.0, SVG Export Plug-In . SVG Version: 6.00 Build 0)  -->
<!DOCTYPE svg PUBLIC "-//W3C//DTD SVG 1.1//EN" "http://www.w3.org/Graphics/SVG/1.1/DTD/svg11.dtd">
<svg version="1.1" id="Layer_1" xmlns="http://www.w3.org/2000/svg" xmlns:xlink="http://www.w3.org/1999/xlink" x="0px" y="0px"
	 width="100px" height="100px" viewBox="0 0 100 100" enable-background="new 0 0 100 100" xml:space="preserve">
<path fill="#BDCCCC" d="M28.114,58.487c0,0-13.851-7.765-14.108-15.938c-0.115-3.65,4.68-3.261,5.9,0.771
	c1.585,5.239,10.875,5.303,10.875,5.303L28.114,58.487z"/>
<path fill="#BDCCCC" d="M55.048,53.891c0,0-12.893-26.952-27.928-16.288c-0.347,0.246-0.678,0.523-0.997,0.822
	c-0.556,0.07-2.687,0.42-3.734,1.675c0,0,1.298-0.446,2.452-0.513c-0.762,0.322-1.616,0.815-2.122,1.554c0,0,0.758-0.347,1.634-0.58
	c-5.886,9.112-2.29,28.888,27.431,25.779C81.086,63.277,55.048,53.891,55.048,53.891z"/>
<path opacity="0.5" fill="#688DA7" d="M67.673,63.498c0,0-12.893-26.952-27.928-16.288c-0.347,0.246-3.642,3.191-2.766,2.959
	c-5.886,9.112-2.29,28.888,27.431,25.779C93.711,72.884,67.673,63.498,67.673,63.498z"/>
<path fill="#BDCCCC" d="M35.731,39.915c0,0,18.849-24.082,5.739-31.2C27.896,1.341,22.058,28.806,28.057,39.867L35.731,39.915z"/>
<g>
	<path fill="#4D677A" d="M31.769,9.791c-0.946,0.908-1.788,2.048-2.521,3.357c5.134-0.653,12.842,2.529,16.519,7.023
		c0.261-1.335,0.381-2.637,0.322-3.88C42.987,13.104,37.235,10.291,31.769,9.791z"/>
	<path fill="#4D677A" d="M27.407,17.432c-0.381,1.163-0.699,2.386-0.952,3.644c4.975-1.513,13.281,0.586,17.613,4.612
		c0.379-0.93,0.717-1.867,1.008-2.8C41.349,18.897,33.913,16.652,27.407,17.432z"/>
	<path fill="#4D677A" d="M25.759,26.56c-0.061,1.15-0.07,2.293-0.024,3.421c4.52-1.328,11.033-0.697,15.403,1.698
		c0.443-0.783,0.883-1.602,1.308-2.443C38.852,26.621,31.744,25.305,25.759,26.56z"/>
	<path fill="#4D677A" d="M27.348,38.348c3.156-1.099,6.951-1.532,10.31-1.099c0.521-0.761,1.12-1.659,1.746-2.659
		c-3.507-0.997-8.528-0.803-13.006,0.653C26.646,36.348,26.963,37.389,27.348,38.348z"/>
</g>
<path fill="#BDCCCC" d="M69.984,71.377c0,0,6.572,13.848,2.034,20.652c-2.024,3.038-4.881,0.723-4.16-3.529
	c0.862-5.077-5.773-10.638-5.773-10.638L69.984,71.377z"/>
<path fill="#BDCCCC" d="M42.709,76.284c0,0,5.109,15.036,13.098,16.785c3.566,0.777,4.137-3.723,0.318-5.943
	c-4.208-2.446-3.23-11.663-3.23-11.663L42.709,76.284z"/>
<path fill="#BDCCCC" d="M58.485,51.741c0,0,7.276-14.447,12.606-12.453c6.224,2.335,4.669,19.46,4.669,19.46L58.485,51.741z"/>
<path fill="#4D677A" d="M59.942,51.661c0,0,6.79-13.151,11.092-11.31c3.563,1.519,3.79,13.568,3.79,13.568L59.942,51.661z"/>
<path fill="#BDCCCC" d="M37.825,67.86c0,0-11.127-11.746-7.44-16.084c4.308-5.064,19.886,2.207,19.886,2.207L37.825,67.86z"/>
<path fill="#4D677A" d="M38.244,66.459c0,0-10.068-10.848-6.881-14.269c2.64-2.835,14.052,1.032,14.052,1.032L38.244,66.459z"/>
<path fill="#BDCCCC" d="M52.836,44.498c0.661-1.312,1.769-2.367,1.769-2.367c-1.088,0.271-2.022,1.109-2.737,1.978
	c0.376-1.573,1.5-3.032,1.5-3.032c-1.648,0.694-2.698,2.765-3.19,3.982c-15.712,4.306-16.731,23.378-17.841,29.407
	c0,0,10.582,14.941,31.75,8.558c18.849-5.682,18.834-26.458,18.834-26.458C75.708,49.387,63.902,42.861,52.836,44.498z"/>
<path fill="#688DA7" d="M36.104,73.781c1.273,6.281,9.287,8.169,15.389,1.914c4.12-4.224,4.77-10.886,2.131-14.164
	c-2.637-3.274-8.319-4.347-10.457,2.399C41.326,69.749,35.27,69.66,36.104,73.781z"/>
<path fill="#688DA7" d="M79.361,63.098c1.53,6.22-4.911,11.351-13.098,8.297c-5.53-2.067-8.958-7.813-7.97-11.902
	c0.988-4.086,5.671-7.481,10.482-2.293C72.921,61.678,78.361,59.012,79.361,63.098z"/>
<path fill="#FFFDFD" d="M57.862,67.615c6.606-1.953,13.536,2.067,15.406,6.851c1.401,3.577-6.055,8.453-9.025,9.495
	c-3.115,1.086-12.452,2.175-13.853-2.182C49.339,78.504,51.014,69.637,57.862,67.615z"/>
<path fill="#688DA7" d="M57.862,67.615c-1.473,0.436-2.704,1.188-3.722,2.131c3.865,2.006,5.367,7.491,5.367,7.491l2.374-0.975
	c-1.298-3.991-0.334-7.153,0.505-9.109C60.904,67.038,59.374,67.169,57.862,67.615z"/>
<g>
	<path d="M63.272,77.237c0,0-0.566,0.436-1.599,0.561c-1.089,0.131,0.322-1.137,0.322-1.137l0.868-0.162L63.272,77.237z"/>
	<path d="M58.681,78.756c0,0,0.712,0,1.605-0.532c0.944-0.561-0.944-0.704-0.944-0.704l-0.788,0.401L58.681,78.756z"/>
	<path fill="#304454" d="M58.168,78.66c0,0-0.904-1.809,0.136-3.029c1.105-1.303,2.674-1.599,4.083-0.927
		c1.41,0.672,1.352,1.949,1.352,1.949l-3.19,0.061l-1.054,0.372L58.168,78.66z"/>
	<path fill="#304454" d="M61.64,79.74c-0.487,0.162-1.491-0.341-1.472-0.812c0.021-0.529,0.18-0.714-0.134-1.01
		c-0.282-0.271-0.722-0.162-0.873,0.146c-0.105,0.21-0.01,0.433-0.054,0.548c-0.224,0.545-1.411,0.357-0.901-1.013
		c0.513-1.37,2.104-1.851,2.104-1.851c0.989-0.306,1.833-0.245,2.744,0.201c1.405,0.688,0.349,1.615-0.088,1.284
		c-0.114-0.086-0.239-0.252-0.408-0.312c-0.323-0.115-0.717-0.041-0.822,0.338c-0.185,0.65,0.283,0.519,0.581,0.879
		C62.66,78.546,62.113,79.587,61.64,79.74z"/>
</g>
<path fill="#304454" d="M54.905,82.403c0,0,7.864,2.637,14.472-4.822c0,0-2.307,3.554-7.037,5.09
	C58.399,83.954,54.905,82.403,54.905,82.403z"/>
<path fill="#BDCCCC" d="M62.386,67.153c0,0-6.715-2.746-7.353-20.193l-5.785,2.283c0,0,7.951,13.96,4.892,20.502
	C58.324,70.051,62.386,67.153,62.386,67.153z"/>
<path fill="none" stroke="#FFFFFF" stroke-width="0.3997" stroke-linecap="round" stroke-linejoin="round" d="M68.663,74.889
	c0,0,2.868-3.994,6.555-5.016"/>
<path fill="none" stroke="#FFFFFF" stroke-width="0.3997" stroke-linecap="round" stroke-linejoin="round" d="M69.585,76.428
	c0,0,3.788-1.436,6.758,0.306"/>
<path fill="none" stroke="#FFFFFF" stroke-width="0.3997" stroke-linecap="round" stroke-linejoin="round" d="M52.79,81.135
	c0,0-4.607,1.64-6.657,4.612"/>
<path fill="none" stroke="#FFFFFF" stroke-width="0.3997" stroke-linecap="round" stroke-linejoin="round" d="M52.481,79.09
	c0,0-2.763-0.309-5.835,0.717"/>
<ellipse transform="matrix(0.9761 -0.2175 0.2175 0.9761 -12.676 15.8602)" fill="#304454" cx="65.711" cy="65.514" rx="1.253" ry="2.082"/>
<ellipse transform="matrix(0.9761 -0.2175 0.2175 0.9761 -14.0065 12.8949)" fill="#304454" cx="51.575" cy="70.076" rx="1.253" ry="2.082"/>
</svg>
