<?xml version="1.0" encoding="utf-8"?>
<!-- Generator: Adobe Illustrator 17.0.0, SVG Export Plug-In . SVG Version: 6.00 Build 0)  -->
<!DOCTYPE svg PUBLIC "-//W3C//DTD SVG 1.1//EN" "http://www.w3.org/Graphics/SVG/1.1/DTD/svg11.dtd">
<svg version="1.1" id="Layer_1" xmlns="http://www.w3.org/2000/svg" xmlns:xlink="http://www.w3.org/1999/xlink" x="0px" y="0px"
	 width="100px" height="100px" viewBox="0 0 100 100" enable-background="new 0 0 100 100" xml:space="preserve">
<ellipse transform="matrix(-0.92 -0.392 0.392 -0.92 118.8569 177.3502)" fill="#42A8C1" cx="77.533" cy="76.542" rx="17.238" ry="7.031"/>
<path fill="#49BBD6" d="M46.194,50.747c-2.019-18.247,5.381-28.973,14.55-29.513c12.391-0.729,19.891,7.066,17.891,23.932
	c-0.408,3.442,16.797,29.293,0.297,37.52c-14.125,3.875-61.049,6.228-61.947-11.306C15.885,49.905,46.467,53.208,46.194,50.747z"/>
<ellipse transform="matrix(-1 -0.0038 0.0038 -1 44.4827 146.1741)" fill="#49BBD6" cx="22.381" cy="73.045" rx="14.359" ry="5.857"/>
<path fill="#42A8C1" d="M60.622,79.162c-8.09-5.018-12.944-11.02-14.991-7.72c-1.31,2.112-5.311,9.322-3.534,13.415
	c7.5,0.937,19.441,1.719,26.574,0.967C66.688,83.551,63.928,81.213,60.622,79.162z"/>
<path fill="#49BBD6" d="M69.462,91.556c3.083-2.295,0.199-9.922-6.442-17.036S48.495,63.5,45.412,65.795
	c-3.083,2.295-0.199,9.922,6.442,17.036S66.379,93.851,69.462,91.556z"/>
<path fill="#42A8C1" d="M51.165,40.711c1.484-3.831,5.551-5.938,9.084-4.706c1.636,0.57,5.759,0.342,7.588-0.161
	c3.615-0.995,7.517,1.376,8.716,5.296c1.199,3.92-0.76,7.903-4.375,8.898c-3.347,0.921-13.901,1.025-17.303-0.161
	C51.342,48.645,49.681,44.541,51.165,40.711z"/>
<path fill="#49BBD6" d="M52.212,39.167c1.434-3.702,5.364-5.738,8.778-4.548c1.581,0.551,5.565,0.331,7.332-0.155
	c3.493-0.961,7.264,1.33,8.422,5.117c1.158,3.788-0.734,7.637-4.227,8.599c-3.234,0.89-6.626,0.483-8.043-2.809
	c-1.555,3.443-5.39,3.8-8.677,2.654C52.383,46.834,50.778,42.868,52.212,39.167z"/>
<g>
	
		<ellipse transform="matrix(0.9996 0.0272 -0.0272 0.9996 0.994 -1.5943)" fill="#304454" cx="59.018" cy="35.688" rx="1.081" ry="1.502"/>
	
		<ellipse transform="matrix(0.9996 0.0272 -0.0272 0.9996 0.998 -1.8867)" fill="#304454" cx="69.753" cy="35.688" rx="1.081" ry="1.502"/>
</g>
<path fill="#42A8C1" d="M68.542,40.412c0,0-1.669,2.83-3.584,2.835c-1.157,0.002-1.926-1.158-2.628-2.952
	c-0.806-2.068,1.902-2.821,3.153-2.777C66.619,37.561,69.291,37.827,68.542,40.412z"/>
<path fill="#49BBD6" d="M68.617,38.753c0,0-1.31,3.013-3.21,3.253c-1.148,0.144-2.053-0.913-2.97-2.608
	c-1.053-1.954,1.542-3.033,2.789-3.142C66.36,36.16,69.044,36.097,68.617,38.753z"/>
<g>
	<path fill="none" stroke="#378FA4" stroke-miterlimit="10" d="M72.189,43.237c0,0,4.577,3.327,6.101,6.183"/>
	<path fill="none" stroke="#378FA4" stroke-miterlimit="10" d="M74.09,41.363c0,0,5.442,1.492,7.89,3.635"/>
</g>
<g>
	<path fill="none" stroke="#378FA4" stroke-miterlimit="10" d="M56.424,42.61c0,0-4.577,3.327-6.101,6.183"/>
	<path fill="none" stroke="#378FA4" stroke-miterlimit="10" d="M54.523,40.736c0,0-5.442,1.492-7.89,3.635"/>
</g>
<path fill="#49BBD6" d="M71.059,86.277c-1.534-1.791-3.28-2.584-3.9-1.772c-0.359,0.471-0.25,1.381,0.194,2.409
	c-1.153-0.915-2.232-1.2-2.692-0.597c-0.265,0.347-0.269,0.936-0.082,1.63c-1.238-1.067-2.434-1.441-2.925-0.799
	c-0.62,0.812,0.121,2.922,1.655,4.713c1.534,1.791,3.28,2.584,3.9,1.772c0.265-0.347,0.269-0.936,0.082-1.63
	c1.238,1.067,2.434,1.441,2.925,0.799c0.359-0.471,0.25-1.381-0.194-2.409c1.153,0.915,2.232,1.2,2.692,0.597
	C73.333,90.178,72.593,88.067,71.059,86.277z"/>
<path fill="#42A8C1" d="M92.704,78.171c-1.774-1.553-3.615-2.09-4.113-1.197c-0.288,0.517-0.051,1.403,0.535,2.356
	c-1.271-0.742-2.38-0.869-2.75-0.207c-0.213,0.381-0.132,0.965,0.152,1.625c-1.377-0.879-2.615-1.079-3.009-0.373
	c-0.498,0.892,0.536,2.875,2.31,4.429c1.774,1.553,3.615,2.09,4.113,1.197c0.213-0.381,0.132-0.965-0.152-1.625
	c1.378,0.879,2.615,1.079,3.009,0.373c0.288-0.517,0.051-1.403-0.535-2.356c1.271,0.742,2.38,0.869,2.75,0.207
	C95.512,81.707,94.478,79.724,92.704,78.171z"/>
</svg>
