<?xml version="1.0" encoding="utf-8"?>
<!-- Generator: Adobe Illustrator 17.0.0, SVG Export Plug-In . SVG Version: 6.00 Build 0)  -->
<!DOCTYPE svg PUBLIC "-//W3C//DTD SVG 1.1//EN" "http://www.w3.org/Graphics/SVG/1.1/DTD/svg11.dtd">
<svg version="1.1" id="Layer_1" xmlns="http://www.w3.org/2000/svg" xmlns:xlink="http://www.w3.org/1999/xlink" x="0px" y="0px"
	 width="100px" height="100px" viewBox="0 0 100 100" enable-background="new 0 0 100 100" xml:space="preserve">
<path fill="#4D677A" d="M71.392,49.982c0,0,3.47-2.506,4.143-2.121c0.675,0.385,0.098,2.891,0.098,2.891L71.392,49.982z"/>
<path fill="#BDCCCC" d="M75.147,65.694c0,0,1.754,0.438,2.851-0.44c1.094-0.875,0.218-2.961,0.218-2.961L75.147,65.694z"/>
<path fill="#4D677A" d="M32.938,77.643c0,0-4.385,2.849-5.811,5.81c0,0,8.661-4.715,13.267-4.824
	C40.394,78.63,35.459,77.643,32.938,77.643z"/>
<path fill="#4D677A" d="M45.103,45.563c0,0,8.065-9.326,14.996-7.942c0,0-5.743,6.015-4.821,10.572
	c0.032,0.153,0.069,0.305,0.117,0.456C56.823,53.248,45.103,45.563,45.103,45.563z"/>
<path fill="#7A3440" d="M27.969,64.071c0,0-7.271,9.745-5.06,12.108c3.46-0.14,9.711-2.581,9.711-2.581l4.802-4.267L27.969,64.071z"
	/>
<path fill="#4D677A" d="M85.969,49.066c-0.337-4.053,1.069-9.387,2.131-13.647l-2.039-0.947l2.754-1.511
	c1.059-3.162,2.652-6.274,4.946-9.212c0,0-6.628,2.92-11.787,8.217c-4.789,4.914-2.619,17.762-2.619,17.762
	s-20.075,0.237-36.844-6.614c-20.358-8.313-38.844-18.139-38.26-9.681c0.472,6.85,8.738,23.617,12.518,26.216
	c3.778,2.596,15.968,6.112,15.587,7.559C31.175,71.693,21.729,75,22.909,76.18c1.182,1.181,36.843,14.408,58.571-17.477
	c0,0,8.688,10.85,16.883,10.748C89.657,60.847,88.121,56.853,85.969,49.066z"/>
<path fill="#FFFDFD" d="M30.409,65.366c0,0-0.152,2.058,0.075,2.288c0.228,0.23,1.296-1.447,1.296-1.447L30.409,65.366z"/>
<path fill="#FFFDFD" d="M28.192,64.064c0,0-0.154,2.058,0.076,2.288c0.228,0.228,1.296-1.45,1.296-1.45L28.192,64.064z"/>
<path fill="#FFFDFD" d="M26.319,74.143c0,0-1.514-1.4-1.837-1.363c-0.321,0.035,0.326,1.916,0.326,1.916L26.319,74.143z"/>
<path fill="#BDCCCC" d="M84.078,51.381c0,0-7.335,15.834-28.683,15.235c-21.149-0.591-39.571-22.083-44.294-27.753
	c-3.238-3.882-5.448-6.189-6.815-6.364c-0.039,0.284-0.058,0.591-0.034,0.934c0.472,6.85,8.738,23.617,12.518,26.216
	c3.778,2.596,15.968,6.112,15.587,7.559C31.175,71.693,21.729,75,22.909,76.18c1.173,1.174,37.211,14.56,58.571-17.477
	C83.035,54.906,84.078,51.381,84.078,51.381z"/>
<g>
	<path fill="#688DA7" d="M40.543,48.429c0,0,1.569,3.848-1.619,8.43C38.924,56.859,40.63,52.534,40.543,48.429z"/>
	<path fill="#688DA7" d="M42.184,49.698c0,0,1.567,3.847-1.619,8.43C40.565,58.128,42.27,53.803,42.184,49.698z"/>
	<path fill="#688DA7" d="M43.512,50.931c0,0,1.57,3.845-1.619,8.43C41.894,59.361,43.599,55.034,43.512,50.931z"/>
</g>
<path fill="#304454" d="M50.018,71.903c-0.63-4.159-2.394-4.159-2.773-7.437c0,0,0.122-0.227,0.253-0.504
	c0,0,9.576,6.806,12.728,7.687c0,0,0.397,7.973,7.562,10.083c-0.063,0.179-0.063,0.343-0.063,0.541
	C67.725,82.274,51.608,82.395,50.018,71.903z"/>
<path fill="#4D677A" d="M50.27,71.397c-0.63-4.158-2.395-4.158-2.772-7.434c0,0,3.906,1.762,6.68,1.513c0,0,3.149,4.789,6.3,5.672
	c0,0,0.756,7.559,7.309,10.585C67.788,81.733,51.86,81.889,50.27,71.397z"/>
<ellipse fill="#304454" cx="33.034" cy="49.902" rx="1.253" ry="2.082"/>
</svg>
