<?xml version="1.0" encoding="utf-8"?>
<!-- Generator: Adobe Illustrator 17.0.0, SVG Export Plug-In . SVG Version: 6.00 Build 0)  -->
<!DOCTYPE svg PUBLIC "-//W3C//DTD SVG 1.1//EN" "http://www.w3.org/Graphics/SVG/1.1/DTD/svg11.dtd">
<svg version="1.1" id="Layer_1" xmlns="http://www.w3.org/2000/svg" xmlns:xlink="http://www.w3.org/1999/xlink" x="0px" y="0px"
	 width="100px" height="100px" viewBox="0 0 100 100" enable-background="new 0 0 100 100" xml:space="preserve">
<path fill="#BDCCCC" d="M93.649,50.737c0-2.695-1.087-5.136-2.84-6.914c0.313-0.961,0.485-1.98,0.485-3.047
	c0-3.194-1.525-6.023-3.881-7.82c4.326-4.137,1.132-11.097,1.132-11.097c-0.204,2.447-3.296,5.407-4.967,6.84
	c-0.578-0.962-1.559-1.655-2.712-1.844c-1.85-4.246-5.999-7.25-10.873-7.455c-1.029-1.632-2.836-2.725-4.909-2.725
	c-1.976,0-3.717,0.992-4.768,2.5c-0.777-0.22-1.596-0.342-2.444-0.342c-1.547,0-3.009,0.397-4.282,1.091
	c-1.616-0.68-3.392-1.056-5.251-1.056c-4.839,0-9.082,2.544-11.469,6.368c-0.306-0.052-0.618-0.086-0.939-0.086
	c-0.857,0-1.663,0.205-2.383,0.558c-0.776-0.644-1.759-1.046-2.845-1.046c-1.913,0-3.534,1.2-4.179,2.884
	c-3.928,0.529-6.961,3.887-6.961,7.963c0,3.635,2.423,6.705,5.74,7.697c0,0.034-0.005,0.065-0.005,0.096
	c0,1.812,0.899,3.413,2.273,4.381c-1.029,2.014-1.61,4.295-1.61,6.712c0,2.499,0.635,4.843,1.73,6.906
	c-0.648,0.777-1.054,1.764-1.054,2.857c0,2.476,2.007,4.48,4.482,4.48c0.13,0,0.251-0.027,0.378-0.038
	c0.957,1.558,2.663,2.606,4.626,2.606c0.14,0,0.275-0.01,0.411-0.02c2.124,4.325,6.559,7.314,11.706,7.314
	c1.695,0,3.306-0.335,4.791-0.92c2.367,1.607,5.224,2.551,8.299,2.551c3.036,0,5.856-0.917,8.202-2.485
	c0.915,0.669,2.033,1.076,3.254,1.076c2.719,0,4.969-1.966,5.433-4.554c1.708-0.859,2.912-2.572,3.008-4.594
	c3.027-1.274,5.52-3.537,7.122-6.373c2.666-0.529,4.679-2.877,4.679-5.698c0-0.81-0.168-1.581-0.468-2.282
	C93.251,53.874,93.649,52.354,93.649,50.737z M54.482,48.932c-0.029-0.065-0.052-0.13-0.078-0.195
	c0.053,0.052,0.106,0.099,0.162,0.144C54.537,48.901,54.509,48.914,54.482,48.932z"/>
<path fill="#563F32" d="M35.767,40.427c0,0,4.695-6.052,1.338-11.847c-3.459-5.973-12.727-4.727-13.778,1.877
	c-1.094,6.888,7.661,8.307,8.872,4.042c1.124-3.971-2.2-5.286-4.202-3.686c0,0,1.168-0.107,1.913,0.375
	c0.51,0.329,0.81,1.048,0.449,1.817c-0.982,2.067-4.784,0.761-3.901-2.392c0.733-2.619,9.314-2.746,5.978,6.135L35.767,40.427z"/>
<path fill="#F4DBC5" d="M42.1,38.356c0,0-10.816-3.391-17.383-1.048c-6.509,2.331-4.821,8.461-9.899,11.541
	c-5.298,3.217-4.208,12.525,3.404,12.863c1.447,0.063,2.574-0.655,4.041-0.579c1.358,0.076,0.309,1.391,1.904,1.817
	c6.192,1.636,12.787-1.408,14.989-2.309C42.791,59.148,42.1,38.356,42.1,38.356z"/>
<path fill="#E3AC8A" d="M42.1,38.356c0,0-10.816-3.391-17.383-1.048c-0.908,0.327-1.659,0.731-2.286,1.185
	c0.495,2.791,2.539,5.043,5.21,5.837c0,0.032-0.003,0.058-0.003,0.091c0,1.681,0.836,3.164,2.114,4.066
	c-0.956,1.871-1.501,3.988-1.501,6.233c0,2.312,0.58,4.491,1.594,6.406c-0.525,0.626-0.867,1.413-0.945,2.271
	c4.534-0.226,8.616-2.084,10.256-2.757C42.791,59.148,42.1,38.356,42.1,38.356z"/>
<path fill="#F4DBC5" d="M35.51,63.425c0,0-11.698,3.326-7.234,8.166c2.696,2.929,7.066-1.442,7.988-7.069L35.51,63.425z"/>
<path fill="#F4DBC5" d="M42.926,69.404c0,0-12.885,3.661-7.969,8.997c2.97,3.22,7.783-1.588,8.805-7.793L42.926,69.404z"/>
<path fill="#F4DBC5" d="M82.654,60.063c0,0,4.497,12.094,9.243,6.962c2.868-3.094-2.119-7.348-8.15-7.854L82.654,60.063z"/>
<path fill="#F4DBC5" d="M77.995,66.295c0,0,4.668,12.554,9.598,7.231c2.978-3.214-2.202-7.631-8.466-8.156L77.995,66.295z"/>
<path fill="#EFEFEF" d="M70.245,24.176c0,2.985-2.416,5.402-5.398,5.402c-2.979,0-5.398-2.417-5.398-5.402
	c0-2.979,2.418-5.396,5.398-5.396C67.829,18.781,70.245,21.197,70.245,24.176z"/>
<path fill="#E2E2E2" d="M90.799,56.697c0,2.982-2.42,5.399-5.401,5.399c-2.979,0-5.399-2.416-5.399-5.399
	c0-2.982,2.42-5.396,5.399-5.396C88.379,51.301,90.799,53.715,90.799,56.697z"/>
<circle fill="#E2E2E2" cx="72" cy="71.264" r="5.138"/>
<path fill="#EFEFEF" d="M37.076,30.356c0,2.299-1.863,4.164-4.159,4.164c-2.301,0-4.165-1.865-4.165-4.164
	c0-2.299,1.864-4.16,4.165-4.16C35.213,26.196,37.076,28.058,37.076,30.356z"/>
<path fill="#E2E2E2" d="M37.468,62.877c0,2.3-1.864,4.161-4.164,4.161c-2.299,0-4.163-1.861-4.163-4.161
	c0-2.302,1.864-4.164,4.163-4.164C35.604,58.713,37.468,60.575,37.468,62.877z"/>
<path fill="#EFEFEF" d="M81.042,30.75c0,0,5.333-4.033,5.593-7.155c0,0,3.644,7.933-2.603,11.445L81.042,30.75z"/>
<path fill="#EFEFEF" d="M91.375,50.415c0-2.503-1.009-4.77-2.638-6.421c0.291-0.893,0.451-1.839,0.451-2.83
	c0-4.205-2.837-7.736-6.699-8.809c0.029-0.179,0.046-0.366,0.046-0.553c0-1.798-1.312-3.284-3.031-3.567
	c-1.781-4.086-5.851-6.942-10.591-6.942c-1.985,0-3.852,0.499-5.485,1.385c-1.434-1.182-3.272-1.893-5.279-1.893
	c-1.437,0-2.794,0.369-3.976,1.013c-1.501-0.631-3.15-0.981-4.877-0.981c-4.494,0-8.434,2.363-10.651,5.913
	c-0.284-0.048-0.574-0.08-0.872-0.08c-2.008,0-3.739,1.173-4.554,2.871c-0.969-0.457-2.04-0.721-3.181-0.721
	c-4.123,0-7.467,3.344-7.467,7.471c0,3.376,2.251,6.227,5.331,7.148c0,0.031-0.004,0.061-0.004,0.089
	c0,1.683,0.835,3.169,2.111,4.069c-0.956,1.87-1.495,3.988-1.495,6.233c0,3.983,1.697,7.565,4.403,10.074
	c-0.013,0.156-0.02,0.317-0.02,0.482c0,2.795,2.263,5.056,5.056,5.056c0.13,0,0.256-0.009,0.382-0.019
	c1.973,4.017,6.091,6.793,10.871,6.793c1.574,0,3.071-0.311,4.449-0.854c2.198,1.492,4.851,2.369,7.708,2.369
	c4.532,0,8.546-2.195,11.048-5.577c0.711,0.379,1.521,0.594,2.381,0.594c2.714,0,4.921-2.136,5.049-4.821
	c4.286-1.804,7.46-5.719,8.223-10.448C90.087,55.786,91.375,53.251,91.375,50.415z M54.929,48.557
	c0.049,0.048,0.099,0.092,0.15,0.134c-0.027,0.018-0.053,0.031-0.078,0.048C54.974,48.678,54.952,48.618,54.929,48.557z"/>
<path fill="#563F32" d="M32.086,38.018c0,0,7.279-8.021,16.173-4.766c9.167,3.356,9.7,16.569,0.76,19.649
	c-9.326,3.211-13.446-8.636-7.802-11.368c5.256-2.537,7.901,1.77,6.163,4.949c0,0-0.137-1.652-0.991-2.573
	c-0.583-0.63-1.659-0.872-2.64-0.181c-2.638,1.874,0.112,6.85,4.287,4.848c3.468-1.663,1.543-13.645-10.008-6.823L32.086,38.018z"/>
<path fill="#EFEFEF" d="M35.517,41.805c0,1.795-1.456,3.252-3.254,3.252c-1.794,0-3.247-1.457-3.247-3.252
	c0-1.797,1.454-3.255,3.247-3.255C34.06,38.55,35.517,40.008,35.517,41.805z"/>
<ellipse transform="matrix(0.9904 0.1382 -0.1382 0.9904 7.0936 -2.867)" fill="#304454" cx="24.188" cy="49.637" rx="0.938" ry="1.559"/>
<g>
	<path fill="#E2E2E2" d="M88.737,43.972c0.291-0.893,0.451-1.839,0.451-2.83c0-1.476-0.356-2.865-0.976-4.097
		c0.233,0.843,0.367,1.727,0.367,2.645c0,3.091-1.405,5.854-3.61,7.679c-0.832,5.155-4.292,9.424-8.963,11.39
		c-0.139,2.926-2.544,5.255-5.503,5.255c-0.937,0-1.821-0.234-2.596-0.647c-2.727,3.687-7.102,6.079-12.043,6.079
		c-3.114,0-6.006-0.956-8.402-2.583c-1.503,0.592-3.134,0.931-4.85,0.931c-5.21,0-9.7-3.026-11.85-7.405
		c-0.138,0.01-0.275,0.02-0.416,0.02c-0.041,0-0.08-0.005-0.121-0.006c0.713,1.292,1.62,2.463,2.694,3.459
		c-0.013,0.156-0.02,0.317-0.02,0.482c0,2.795,2.263,5.056,5.056,5.056c0.13,0,0.256-0.009,0.382-0.019
		c1.973,4.017,6.091,6.793,10.871,6.793c1.574,0,3.071-0.311,4.449-0.854c2.198,1.492,4.851,2.369,7.708,2.369
		c4.532,0,8.546-2.195,11.048-5.577c0.711,0.379,1.521,0.594,2.381,0.594c2.714,0,4.921-2.136,5.049-4.821
		c4.286-1.803,7.46-5.719,8.223-10.448c2.024-1.673,3.312-4.209,3.312-7.044C91.375,47.89,90.366,45.623,88.737,43.972z"/>
	<path fill="#E2E2E2" d="M49.013,37.81c-0.056-0.045-0.11-0.093-0.164-0.146c0.026,0.066,0.049,0.132,0.079,0.198
		C48.955,37.844,48.983,37.83,49.013,37.81z"/>
</g>
</svg>
