<?xml version="1.0" encoding="utf-8"?>
<!-- Generator: Adobe Illustrator 17.0.0, SVG Export Plug-In . SVG Version: 6.00 Build 0)  -->
<!DOCTYPE svg PUBLIC "-//W3C//DTD SVG 1.1//EN" "http://www.w3.org/Graphics/SVG/1.1/DTD/svg11.dtd">
<svg version="1.1" id="Layer_1" xmlns="http://www.w3.org/2000/svg" xmlns:xlink="http://www.w3.org/1999/xlink" x="0px" y="0px"
	 width="100px" height="100px" viewBox="0 0 100 100" enable-background="new 0 0 100 100" xml:space="preserve">
<path fill="#688DA7" d="M27.503,28.378c15.288,4.336,14.737,15.677,14.815,26.085c0.126,16.965,7.65,17.786,7.65,17.786l6.678,0.322
	c0,0,2.956,2.195-9.137,6.838c-10.887,4.177-15.779-9.055-16.842-16.213c-0.506-3.417-1.125-10.448-9.101-11.334
	c-6.689-0.741-10.237-4.075-11.284-8.799C8.551,35.263,13.76,24.479,27.503,28.378z"/>
<path fill="#304454" d="M56.575,73.63c-0.746-0.332-1.589-0.727-2.51-1.186l-4.098-0.195c0,0-7.524-0.821-7.65-17.786
	c-0.078-10.408,0.474-21.749-14.815-26.085c-3.978-1.128-7.239-1.023-9.824-0.116c1.137,0.85,2.68,0.864,4.759,1.128
	c14.057,1.772,17.927,9.945,17.475,20.132c-0.507,11.396,1.747,26.751,10.005,27.734c0.942,0.112,2.539-0.948,3.296-0.886
	C55.335,75.16,56.228,74.252,56.575,73.63z"/>
<path fill="#304454" d="M51.762,76.798c-0.745-0.336-1.586-0.734-2.506-1.186l-3.519-0.763c0,0-8.065-0.257-8.229-17.221
	c-0.127-13.171,1.486-21.37-13.804-25.706c-3.978-1.128-7.978-1.139-8.484-0.633c-0.504,0.886,0.208,1.953,2.278,2.282
	c16.844,2.654,18.236,9.493,17.097,21.525c-1.076,11.356,2.888,23.963,11.143,24.943c0.945,0.112,1.906-0.564,2.667-0.506
	C50.523,78.324,51.416,77.42,51.762,76.798z"/>
<path fill="#304454" d="M80.531,71.645c0,0-2.096,3.135-7.529,2.003c-5.432-1.124-5.022-4.817-5.022-4.817l7.891-1.845
	L80.531,71.645z"/>
<g>
	<path fill="#304454" d="M66.875,74.039c2.754-2.318,9.146-2.271,9.963,4.517c0.543,4.502-3.658,11.496-3.658,11.496l0.877,0.662
		l-6.325-0.137C67.732,90.577,60.488,79.417,66.875,74.039z"/>
	<path fill="#304454" d="M72.824,89.723c0,0,2.054,0.966,1.156,1.939c-0.805,0.875-2.964-0.622-2.696-1.541l0.449-0.619
		L72.824,89.723z"/>
	<path fill="#304454" d="M71.874,89.741c0,0,2.246,1.175,1.072,2.231c-0.88,0.792-2.958-0.625-2.692-1.541l0.446-0.622
		L71.874,89.741z"/>
	<path fill="#304454" d="M70.69,89.723c0,0,2.316,0.937,1.072,2.228c-0.823,0.857-2.958-0.622-2.693-1.541l0.449-0.622L70.69,89.723
		z"/>
	<path fill="#304454" d="M69.222,89.694c0,0,2.165,1.06,1.074,2.228c-0.924,0.991-3.698-0.738-2.879-2.025l0.629-0.134
		L69.222,89.694z"/>
</g>
<path fill="#688DA7" d="M66.457,20.45c0,0-11.779-13.16-16.827-9.536c-5.898,4.231,0.611,21.828,0.611,21.828L66.457,20.45z"/>
<path fill="#4D677A" d="M64.895,20.78c0,0-10.893-11.923-14.901-8.766c-3.323,2.619-0.139,15.381-0.139,15.381L64.895,20.78z"/>
<path fill="#688DA7" d="M71.621,20.45c0,0,11.777-13.16,16.827-9.536c5.897,4.231-0.613,21.828-0.613,21.828L71.621,20.45z"/>
<path fill="#4D677A" d="M73.184,20.78c0,0,10.893-11.923,14.903-8.766c3.322,2.619,0.137,15.381,0.137,15.381L73.184,20.78z"/>
<path fill="#688DA7" d="M57.716,41.646c0,0,2.649,15.717-9.482,24.755c-9.87,7.352-10.153,17.456-0.555,22.44
	c11.251,5.841,24.881,3.794,26.857-9.598c1.691-11.478-8.227-28.071-8.227-28.071L57.716,41.646z"/>
<path fill="#304454" d="M61.291,91.85c-2.175-0.34-4.028-1.092-3.965-2.683c0.108-2.836,1.792-6.6,1.436-9.425
	c-0.929-7.443-7.806-7.161-10.817-4.597c-4.02,3.418-3.067,8.914-1.537,12.962c0.405,0.257,0.824,0.503,1.271,0.734
	C52.136,91.155,56.958,92.222,61.291,91.85z"/>
<path fill="#4D677A" d="M70.987,60.734c-0.904,0.394-1.564,1.327-1.257,2.307c-0.787,0.275-1.796,0.593-1.873,2.058
	c-0.08,1.465,1.508,2.629,3.021,2.065c0.814,1.874,1.569,4.438,3.617,5.902C73.949,68.842,72.511,64.462,70.987,60.734z"/>
<path fill="#4D677A" d="M63.356,63.367c0,2.401,1.951,4.354,4.356,4.354c2.407,0,4.356-1.953,4.356-4.354
	c0-2.408-1.949-4.354-4.356-4.354C65.307,59.013,63.356,60.958,63.356,63.367z"/>
<path fill="#4D677A" d="M59.047,70.032c1.808-0.43,3.242-1.862,5.245-3.367c1.288,1.993,4.296-0.011,2.727-2.079
	c1.78-1.038,0.968-3.92-0.863-3.917c-0.027-0.835-0.036-1.895-1.407-2.401c-1.376-0.51-1.174,0.691-1.083,2.3
	c-2.71,0.297-8.368,0.062-10.253,3.779C52.056,67.027,54.25,71.178,59.047,70.032z"/>
<path fill="#4D677A" d="M48.234,66.401c-4.092,3.048-6.531,6.567-7.303,9.999c1.928-4.083,5.692-6.857,8.997-8.957
	c6.439-4.083,19.021-8.25,19.021-8.25L57.005,53.06C55.841,57.573,53.36,62.585,48.234,66.401z"/>
<path fill="#688DA7" d="M47.444,29.274c-4.139,11.808,2.081,24.737,13.889,28.874c11.81,4.137,24.735-2.08,28.876-13.891
	c4.133-11.808-2.083-24.737-13.893-28.874C64.508,11.247,51.581,17.467,47.444,29.274z"/>
<path fill="#304454" d="M68.804,36.88c0,0-1.852-11.728-2.127-22.668c1.461-0.137,2.944-0.137,4.434,0.015
	C71.052,21.087,70.26,26.472,68.804,36.88z"/>
<path fill="#304454" d="M63.511,14.747c0.246,6.557,0.358,11.45,0.349,21.655c0,0-3.027-10.745-4.069-20.408
	C60.991,15.471,62.235,15.055,63.511,14.747z"/>
<path fill="#304454" d="M76.315,15.384c0.41,0.145,0.816,0.304,1.215,0.47c-0.114,5.269-1.364,11.518-4.285,20.339
	c0,0,0.617-12.473,0.445-21.551C74.571,14.841,75.446,15.08,76.315,15.384z"/>
<circle fill="#4D677A" cx="71.216" cy="54.508" r="2.568"/>
<path fill="none" stroke="#000000" stroke-width="0.4539" stroke-linecap="round" stroke-linejoin="round" d="M81.19,54.101
	c0,0,3.604,0.163,5.419,1.175"/>
<path fill="none" stroke="#000000" stroke-width="0.4539" stroke-linecap="round" stroke-linejoin="round" d="M81.541,52.384
	c0,0,3.418-1.158,5.474-0.872"/>
<path fill="none" stroke="#000000" stroke-width="0.4539" stroke-linecap="round" stroke-linejoin="round" d="M56.259,54.101
	c0,0-3.604,0.163-5.419,1.175"/>
<path fill="none" stroke="#000000" stroke-width="0.4539" stroke-linecap="round" stroke-linejoin="round" d="M55.908,52.384
	c0,0-3.418-1.158-5.473-0.872"/>
<radialGradient id="SVGID_1_" cx="230.6697" cy="-83.3702" r="0.6728" gradientTransform="matrix(-1.0449 0 0 1.0449 311.2972 150.9962)" gradientUnits="userSpaceOnUse">
	<stop  offset="0" style="stop-color:#B77049"/>
	<stop  offset="0.1682" style="stop-color:#AF6743"/>
	<stop  offset="0.4479" style="stop-color:#9B5231"/>
	<stop  offset="0.8023" style="stop-color:#7C3216"/>
	<stop  offset="1" style="stop-color:#681D00"/>
</radialGradient>
<circle fill="url(#SVGID_1_)" cx="70.668" cy="63.414" r="0.354"/>
<g>
	<path fill="#4D677A" d="M47.286,74.592c3.009-2.557,10.021-2.539,10.956,4.904c0.62,4.94-3.954,12.632-3.954,12.632l0.965,0.723
		l-6.942-0.116C48.312,92.736,40.307,80.53,47.286,74.592z"/>
	<path fill="#4D677A" d="M53.895,91.77c0,0,2.257,1.053,1.277,2.123c-0.879,0.965-3.253-0.669-2.964-1.674l0.486-0.684L53.895,91.77
		z"/>
	<path fill="#4D677A" d="M52.854,91.799c0,0,2.47,1.276,1.188,2.441c-0.962,0.875-3.253-0.669-2.962-1.678l0.487-0.683
		L52.854,91.799z"/>
	<path fill="#4D677A" d="M51.556,91.781c0,0,2.546,1.016,1.186,2.441c-0.898,0.944-3.251-0.665-2.962-1.678l0.486-0.68
		L51.556,91.781z"/>
	<path fill="#4D677A" d="M49.943,91.759c0,0,2.381,1.15,1.188,2.441c-1.007,1.089-4.061-0.792-3.168-2.213l0.692-0.149
		L49.943,91.759z"/>
</g>
<path fill="#688DA7" d="M81.011,65.884c-1.475-1.815-4.506-2.922-5.808-4.155c1.159-2.047-1.618-3.28-2.237-1.161
	c-1.35-1.732-3.242,0.311-2.316,1.508c-0.848-0.116-1.759,0.04-1.698,1.504c0.04,0.886,1.736,1.081,1.969,0.81
	c1.085,2.502,2.228,7.866,6.336,8.56C80.218,73.449,83.696,69.175,81.011,65.884z"/>
<path fill="#688DA7" d="M58.522,69.607c2.083-1.063,3.799-3.798,5.274-4.814c1.76,1.555,3.543-0.904,1.597-1.949
	c1.982-0.962,0.372-3.233-0.989-2.578c0.289-0.807,0.326-1.733-1.119-1.975c-0.875-0.149-1.42,1.472-1.202,1.757
	c-2.673,0.542-8.157,0.539-9.688,4.416C51.287,67.256,54.742,71.548,58.522,69.607z"/>
<ellipse fill="#304454" cx="60.438" cy="47.463" rx="1.389" ry="2.308"/>
<ellipse fill="#304454" cx="78.92" cy="47.463" rx="1.389" ry="2.308"/>
</svg>
