<?xml version="1.0" encoding="utf-8"?>
<!-- Generator: Adobe Illustrator 17.0.0, SVG Export Plug-In . SVG Version: 6.00 Build 0)  -->
<!DOCTYPE svg PUBLIC "-//W3C//DTD SVG 1.1//EN" "http://www.w3.org/Graphics/SVG/1.1/DTD/svg11.dtd">
<svg version="1.1" id="Layer_1" xmlns="http://www.w3.org/2000/svg" xmlns:xlink="http://www.w3.org/1999/xlink" x="0px" y="0px"
	 width="100px" height="100px" viewBox="0 0 100 100" enable-background="new 0 0 100 100" xml:space="preserve">
<path fill="#BED575" d="M39.258,61.977c0,0,0.998-5.096-0.787-9.202c-1.244-2.862-8.165,0.337-16.665,4.848
	c-9.577,5.083-17.402-2.586-14.065,6.228c3.29,8.688,11.501,13.73,19.843,10.131C32.341,71.932,38.072,68.144,39.258,61.977z"/>
<path fill="#D0E285" d="M73.249,56.884c0,0-1.939-3.657-1.526-7.202c0.287-2.471,6.306-1.63,13.833-0.153
	c8.48,1.664,12.677-5.995,12.168,1.501c-0.502,7.387-5.6,13.131-12.795,12.314C80.826,62.88,75.578,61.314,73.249,56.884z"/>
<path fill="#D0E285" d="M48.646,73.711c0,0-0.998-5.096,0.787-9.202c1.244-2.862,8.165,0.337,16.665,4.848
	c9.577,5.083,17.402-2.586,14.065,6.228c-3.29,8.688-11.501,13.73-19.843,10.131C55.563,83.666,49.831,79.878,48.646,73.711z"/>
<ellipse fill="#BED575" cx="54.791" cy="47.709" rx="34.813" ry="23.051"/>
<path fill="#BED575" d="M26.399,42.726c0,12.183,13.282,22.06,29.665,22.06s29.665-9.877,29.665-22.06S72.041,14.967,55.658,14.967
	S26.399,30.543,26.399,42.726z"/>
<g>
	<polygon fill="#A9BC65" points="47.439,45.425 55.928,50.786 64.816,46.115 65.215,36.083 56.726,30.721 47.838,35.392 	"/>
	<path fill="#A9BC65" d="M43.446,45.612l0.399-10.032l-8.489-5.362l-6.43,3.379c-1.622,3.34-2.526,6.791-2.526,10.006
		c0,0.531,0.034,1.057,0.084,1.579l8.075,5.1L43.446,45.612z"/>
	<path fill="#A9BC65" d="M58.524,18.921l0.319,8.954l7.194,5.341l6.876-3.613l-0.285-8c-3.008-2.158-6.4-3.845-10.033-4.821
		L58.524,18.921z"/>
	<path fill="#A9BC65" d="M68.019,47.49l8.489,5.361l8.517-4.476c0.18-0.606,0.325-1.222,0.436-1.846l0.181-4.544
		c-0.141-1.49-0.468-3.014-0.968-4.545l-7.368-4.654l-8.888,4.671L68.019,47.49z"/>
	<path fill="#A9BC65" d="M35.707,29.324l7.507,4.794l9.603-5.187l2.096-9.982l-4.127-2.636c-5.211,0.993-9.924,3.508-13.785,6.846
		L35.707,29.324z"/>
	<path fill="#A9BC65" d="M77.048,25.373l-0.141,3.56l5.521,3.487C81.015,29.934,79.196,27.537,77.048,25.373z"/>
	<path fill="#A9BC65" d="M73.267,61.57l0.224-5.646l-8.489-5.361l-8.888,4.671l-0.399,10.032l0.623,0.393
		C62.649,65.615,68.484,64.107,73.267,61.57z"/>
	<path fill="#A9BC65" d="M53.461,63.873l0.399-10.032l-8.489-5.362l-8.888,4.671l-0.272,6.843c4.006,2.685,9.002,4.564,14.53,5.309
		L53.461,63.873z"/>
	<path fill="#A9BC65" d="M83.913,51.219l-7.637,4.013l-0.184,4.642C79.553,57.518,82.261,54.559,83.913,51.219z"/>
	<path fill="#A9BC65" d="M33.473,57.893l0.207-5.22l-6.522-4.119C28.239,52.06,30.441,55.246,33.473,57.893z"/>
</g>
<path opacity="0.7" fill="#A9BC65" d="M36.797,38.269c0,0,4.475-2.634,8.941-2.315c3.113,0.222,6.757,0.788,9.855,3.784
	c4.216,4.077,5.214,10.804,5.267,14.247c0.136,9.095-5.938,14.853-15.36,14.633c-9.287-0.217-16.771-6.286-16.148-15.35
	C29.705,48.101,31.375,41.436,36.797,38.269z"/>
<g>
	<g>
		<path fill="#D0E285" d="M22.369,57.201c0,0,1.616-4.345,4.838-6.677c2.245-1.626,5.04-3.321,8.789-3.053
			c5.101,0.365-2.892,6.997,1.323,14.283c4.749,8.209,14.096,5.881,7.547,11.11c-6.455,5.154-14.873,5.299-19.393-1.217
			C22.894,67.932,20.397,62.449,22.369,57.201z"/>
		<g>
			<path fill="#D0E285" d="M21.024,28.396c0,0,4.475-2.634,8.941-2.315c3.113,0.222,6.757,0.788,9.855,3.784
				c4.216,4.077,5.214,10.804,5.267,14.247c0.136,9.095-5.938,14.853-15.36,14.633c-9.287-0.217-16.771-6.286-16.148-15.35
				C13.932,38.228,15.602,31.563,21.024,28.396z"/>
			<g>
				
					<ellipse transform="matrix(-0.988 -0.1546 0.1546 -0.988 59.3012 91.2066)" fill="#304454" cx="33.198" cy="43.297" rx="1.177" ry="1.636"/>
				
					<ellipse transform="matrix(-0.988 -0.1546 0.1546 -0.988 32.4013 83.3402)" fill="#304454" cx="19.442" cy="40.41" rx="1.177" ry="1.636"/>
			</g>
		</g>
		<ellipse fill="#C75E72" cx="25.899" cy="50.412" rx="3.279" ry="2.931"/>
	</g>
	<ellipse fill="#D0E285" cx="23.247" cy="47.481" rx="5.08" ry="3.438"/>
</g>
</svg>
