<?xml version="1.0" encoding="utf-8"?>
<!-- Generator: Adobe Illustrator 17.0.0, SVG Export Plug-In . SVG Version: 6.00 Build 0)  -->
<!DOCTYPE svg PUBLIC "-//W3C//DTD SVG 1.1//EN" "http://www.w3.org/Graphics/SVG/1.1/DTD/svg11.dtd">
<svg version="1.1" id="Layer_1" xmlns="http://www.w3.org/2000/svg" xmlns:xlink="http://www.w3.org/1999/xlink" x="0px" y="0px"
	 width="100px" height="100px" viewBox="0 0 100 100" enable-background="new 0 0 100 100" xml:space="preserve">
<ellipse transform="matrix(0.92 -0.392 0.392 0.92 -28.6772 15.817)" fill="#9A4757" cx="24.397" cy="78.138" rx="17.238" ry="7.031"/>
<path fill="#C75E72" d="M66.833,48.838c-1.857-2.391-3.465-4.599-4.876-6.634C52.079,27.961,51.81,22.21,42.641,21.67
	C30.25,20.941,22.75,28.736,24.75,45.603c0.408,3.442-16.797,29.293-0.297,37.52c14.125,3.875,58.672,5.943,61.947-11.307
	C88.173,62.478,89,59.304,66.833,48.838z"/>
<ellipse transform="matrix(1 -0.0038 0.0038 1 -0.2799 0.3097)" fill="#C75E72" cx="81.004" cy="73.48" rx="14.359" ry="5.857"/>
<path fill="#9A4757" d="M61.822,78.299c-8.517-4.255-16.828-4.888-18.563-1.414c-1.111,2.224-1.506,4.872,0.639,8.785
	c7.554,0.245,19.516-0.071,26.551-1.474C68.265,82.113,65.302,80.038,61.822,78.299z"/>
<ellipse transform="matrix(0.8946 0.4469 -0.4469 0.8946 42.7865 -18.6008)" fill="#C75E72" cx="60.819" cy="81.389" rx="17.238" ry="7.031"/>
<path fill="#9A4757" d="M47.918,40.373c-1.484-3.831-5.551-5.938-9.084-4.706c-1.636,0.57-5.759,0.342-7.588-0.161
	c-3.615-0.995-7.517,1.376-8.716,5.296c-1.199,3.92,0.76,7.903,4.375,8.898c3.347,0.921,13.901,1.025,17.303-0.161
	C47.741,48.307,49.402,44.203,47.918,40.373z"/>
<ellipse fill="#9A4757" cx="30.997" cy="52.055" rx="1.583" ry="9.364"/>
<ellipse transform="matrix(0.9945 0.1045 -0.1045 0.9945 5.6767 -4.2685)" fill="#9A4757" cx="43.584" cy="52.055" rx="1.583" ry="9.364"/>
<g>
	
		<ellipse transform="matrix(0.9892 -0.1466 0.1466 0.9892 -7.3161 4.8634)" fill="#FFFDFD" cx="29.329" cy="52.055" rx="1.583" ry="9.364"/>
	<ellipse fill="#FFFDFD" cx="42.315" cy="51.89" rx="1.583" ry="9.364"/>
	<path fill="#C75E72" d="M46.871,38.829c-1.434-3.702-5.364-5.738-8.778-4.548c-1.581,0.551-5.565,0.331-7.332-0.155
		c-3.493-0.961-7.264,1.33-8.422,5.117c-1.158,3.788,0.734,7.637,4.227,8.599c3.234,0.89,6.626,0.483,8.043-2.809
		c1.555,3.443,5.39,3.8,8.677,2.654C46.7,46.496,48.305,42.53,46.871,38.829z"/>
	<g>
		
			<ellipse transform="matrix(-0.9996 0.0272 -0.0272 -0.9996 81.0773 69.5957)" fill="#304454" cx="40.065" cy="35.35" rx="1.081" ry="1.502"/>
		
			<ellipse transform="matrix(-0.9996 0.0272 -0.0272 -0.9996 59.6103 69.8881)" fill="#304454" cx="29.329" cy="35.35" rx="1.081" ry="1.502"/>
	</g>
	<g>
		<path fill="#9A4757" d="M30.541,42.293c0,0,1.669,2.83,3.584,2.835c1.157,0.002,1.926-1.158,2.628-2.952
			c0.806-2.068-1.902-2.821-3.153-2.777C32.463,39.442,29.792,39.708,30.541,42.293z"/>
		<path fill="#C75E72" d="M30.465,40.634c0,0,1.31,3.013,3.21,3.253c1.148,0.144,2.053-0.913,2.97-2.608
			c1.053-1.954-1.542-3.033-2.789-3.142C32.723,38.04,30.039,37.978,30.465,40.634z"/>
	</g>
	<circle fill="#9A4757" cx="41.146" cy="41.403" r="0.314"/>
	<circle fill="#9A4757" cx="38.983" cy="44.814" r="0.314"/>
	<circle fill="#9A4757" cx="43.898" cy="44.814" r="0.314"/>
	<circle fill="#9A4757" cx="26.933" cy="40.776" r="0.314"/>
	<circle fill="#9A4757" cx="24.71" cy="43.901" r="0.314"/>
	<circle fill="#9A4757" cx="29.643" cy="44.814" r="0.314"/>
</g>
<g>
	<path fill="none" stroke="#9A4757" stroke-miterlimit="10" d="M42.466,43.86c0,0,4.577,3.327,6.101,6.183"/>
	<path fill="none" stroke="#9A4757" stroke-miterlimit="10" d="M44.366,41.987c0,0,5.442,1.492,7.89,3.635"/>
</g>
<g>
	<path fill="none" stroke="#9A4757" stroke-miterlimit="10" d="M26.701,43.233c0,0-4.577,3.327-6.101,6.183"/>
	<path fill="none" stroke="#9A4757" stroke-miterlimit="10" d="M24.8,41.359c0,0-5.442,1.492-7.89,3.635"/>
</g>
</svg>
