<?xml version="1.0" encoding="utf-8"?>
<!-- Generator: Adobe Illustrator 17.0.0, SVG Export Plug-In . SVG Version: 6.00 Build 0)  -->
<!DOCTYPE svg PUBLIC "-//W3C//DTD SVG 1.1//EN" "http://www.w3.org/Graphics/SVG/1.1/DTD/svg11.dtd">
<svg version="1.1" id="Layer_1" xmlns="http://www.w3.org/2000/svg" xmlns:xlink="http://www.w3.org/1999/xlink" x="0px" y="0px"
	 width="100px" height="100px" viewBox="0 0 100 100" enable-background="new 0 0 100 100" xml:space="preserve">
<path fill="#BDCCCC" d="M87.373,68.015c-2.467-2.235-8.019,1.71-8.019,1.71s1.401-5.339-1.315-6.969
	c-2.628-1.578-2.628-1.71-4.338-3.68c0,0-2.265,3.538-0.787,7.231c0.787,1.971,1.971,2.892,3.812,3.943c0,0-0.022,0.026-0.043,0.051
	c-0.007,0.008-0.015,0.017-0.023,0.026c-0.037,0.042-0.093,0.1-0.165,0.171c-0.01,0.01-0.023,0.021-0.033,0.031
	c-0.075,0.072-0.167,0.155-0.277,0.248c-0.012,0.01-0.021,0.018-0.033,0.028c-0.117,0.097-0.26,0.206-0.418,0.319
	c-0.031,0.022-0.063,0.044-0.095,0.067c-0.169,0.118-0.357,0.241-0.571,0.368c-0.018,0.011-0.04,0.022-0.059,0.033
	c-0.199,0.116-0.422,0.234-0.661,0.353c-0.055,0.027-0.108,0.055-0.166,0.082c-0.256,0.122-0.537,0.244-0.839,0.363
	c-0.078,0.031-0.162,0.061-0.243,0.091c-0.278,0.104-0.575,0.204-0.891,0.301c-0.853,0.26-1.839,0.488-2.991,0.649
	c0,0,9.623-34.571-25.201-37.379c-22.569-1.822-29.336,14.487-30.093,19.292c-1.694,10.767,0.259,21.082,1.806,23.756h-0.001
	c0.005,0.009,0.01,0.018,0.015,0.027c4.086,6.954,13.954,11.77,26.695,12.012c4.206,0.08,13.34-0.65,20.868-3.187
	c0.72-0.243,1.415-0.513,2.088-0.807c0.011-0.005,0.022-0.01,0.034-0.015c0.661-0.289,1.299-0.6,1.915-0.93
	c0.019-0.01,0.037-0.021,0.055-0.031c0.608-0.327,1.194-0.671,1.758-1.028c0.019-0.012,0.037-0.024,0.055-0.036
	c0.562-0.358,1.103-0.729,1.621-1.109c0.016-0.012,0.031-0.023,0.046-0.035c0.521-0.384,1.02-0.776,1.497-1.174
	c0.007-0.005,0.013-0.011,0.019-0.016c1.19-0.995,2.242-2.018,3.157-3.006l0,0c0.01-0.01,0.018-0.02,0.028-0.031
	c0.182-0.197,0.358-0.392,0.529-0.586c0-0.001,0.001-0.001,0.001-0.002c2.494-2.825,3.824-5.222,4.009-5.565
	c0.015-0.028,0.025-0.046,0.025-0.046s8.807,3.026,13.146-2.496C93.289,71.039,90.061,70.452,87.373,68.015z"/>
<ellipse fill="#6E6F71" cx="42.49" cy="37.829" rx="1.141" ry="0.527"/>
<g opacity="0.1">
	<path fill="#688DA7" d="M74.731,60.261c-0.1,0.431-0.166,0.669-0.166,0.669c0.241-0.034,0.471-0.072,0.698-0.111
		C75.09,60.651,74.919,60.471,74.731,60.261z"/>
	<path fill="#688DA7" d="M79.354,69.724c0,0,0.114-0.443,0.214-1.103c-0.569,0.552-1.171,1.104-1.823,1.649
		c-0.007,0.005-0.013,0.011-0.019,0.016c-0.477,0.398-0.976,0.79-1.497,1.174c-0.016,0.012-0.031,0.023-0.046,0.035
		c-0.518,0.38-1.059,0.751-1.621,1.109c-0.019,0.012-0.037,0.024-0.055,0.036c-0.564,0.358-1.15,0.701-1.758,1.028
		c-0.019,0.01-0.037,0.021-0.055,0.031c-0.616,0.329-1.254,0.64-1.915,0.93c-0.011,0.005-0.022,0.01-0.034,0.015
		c-0.673,0.293-1.369,0.564-2.088,0.807c-7.527,2.537-16.662,3.267-20.868,3.187c-12.742-0.242-22.61-5.058-26.695-12.012
		c-0.005-0.009-0.01-0.018-0.015-0.027h0.001c-1.435-2.479-3.213-11.529-2.115-21.416c-3.289,3.946-4.719,8.105-5.042,10.161
		c-1.694,10.767,0.259,21.082,1.806,23.756h-0.001c0.005,0.009,0.01,0.018,0.015,0.027c4.086,6.954,13.954,11.77,26.695,12.012
		c4.206,0.08,13.34-0.65,20.868-3.187c0.72-0.243,1.415-0.513,2.088-0.807c0.011-0.005,0.022-0.01,0.034-0.015
		c0.661-0.289,1.299-0.6,1.915-0.93c0.019-0.01,0.037-0.021,0.055-0.031c0.608-0.327,1.194-0.671,1.758-1.028
		c0.019-0.012,0.037-0.024,0.055-0.036c0.562-0.358,1.103-0.729,1.621-1.109c0.016-0.012,0.031-0.023,0.046-0.035
		c0.521-0.384,1.02-0.776,1.497-1.174c0.007-0.005,0.013-0.011,0.019-0.016c1.19-0.995,2.242-2.018,3.157-3.006l0,0
		c0.01-0.01,0.018-0.02,0.028-0.031c0.182-0.197,0.358-0.392,0.529-0.586c0-0.001,0.001-0.001,0.001-0.002
		c2.494-2.825,3.824-5.222,4.009-5.565c0.015-0.028,0.025-0.046,0.025-0.046s8.807,3.026,13.146-2.496c0,0-3.229-0.587-5.917-3.025
		C84.906,65.78,79.354,69.724,79.354,69.724z"/>
</g>
<path fill="#808184" d="M41.456,38.049c0.18,0.181,0.574,0.307,1.035,0.307c0.46,0,0.854-0.126,1.034-0.307
	c-0.181-0.179-0.574-0.305-1.034-0.305C42.03,37.743,41.636,37.87,41.456,38.049z"/>
<ellipse fill="#304454" cx="39.376" cy="76.308" rx="1.253" ry="2.082"/>
<ellipse fill="#304454" cx="20.375" cy="76.308" rx="1.253" ry="2.082"/>
<path fill="#49BBD6" d="M42.028,36.843c0,0-2.247-14.516,5.557-18.794c7.221-3.96,11.797,2.853,11.775,4.763
	c-0.014,1.164-1.008,2.014-2.535,0.903c-1.528-1.111-1.493-4.48-4.411-5.071c-2.727-0.551-6.776,0.064-8.995,6.699
	C41.543,30.954,42.028,36.843,42.028,36.843z"/>
<path fill="#49BBD6" d="M42.028,22.013c0,0-2.121-6.282-6.339-6.72c-4.767-0.495-9.299,3.161-9.325,6.095
	c-0.013,1.459,1.85,1.772,3.725-0.312c1.876-2.084,2.865-4.637,6.434-4.194C39.287,17.224,42.028,22.013,42.028,22.013z"/>
<path fill="#49BBD6" d="M43.626,17.464c0,0,1.407-3.994,4.671-6.287c3.265-2.292,7.028-2.159,6.832-0.494
	c-0.19,1.615-3.344,0.56-6.435,2.157C45.531,14.474,43.626,17.464,43.626,17.464z"/>
<path fill="#49BBD6" d="M40.534,14.993c0,0-0.939-4.602-4.655-6.286c-2.916-1.322-5.433-1.012-5.436,0.382
	c-0.003,1.389,3.286,0.68,5.575,1.598C39.349,12.022,40.534,14.993,40.534,14.993z"/>
<path fill="#49BBD6" d="M42.825,13.291c0,0,4.17-10.293,0.367-10.501C39.389,2.581,42.825,13.291,42.825,13.291z"/>
</svg>
